<svg width="192" height="192" viewBox="0 0 192 192" fill="none" xmlns="http://www.w3.org/2000/svg">
<path d="M170.764 112.124C170.746 112.096 170.648 112.072 170.545 112.072C170.443 112.072 170.334 112.048 170.304 112.019C170.274 111.99 170.081 111.95 169.876 111.93C169.502 111.893 169.502 111.893 169.108 111.481C168.585 110.935 168.23 110.5 168.121 110.271C168.072 110.168 167.943 109.997 167.833 109.892C167.724 109.786 167.635 109.68 167.635 109.656C167.635 109.591 167.306 109.119 167.201 109.031C167.15 108.99 167.053 108.854 166.984 108.729C166.761 108.325 166.731 108.282 166.542 108.088C166.355 107.895 166.255 107.746 166.14 107.489C166.106 107.412 165.972 107.236 165.844 107.097C165.616 106.85 165.61 106.835 165.635 106.504C165.656 106.212 165.687 106.136 165.862 105.951C165.973 105.834 166.125 105.634 166.199 105.508C166.273 105.382 166.427 105.163 166.542 105.021C166.656 104.879 166.843 104.621 166.956 104.447C167.069 104.274 167.217 104.083 167.283 104.023C167.349 103.964 167.472 103.796 167.557 103.651C167.641 103.506 167.807 103.271 167.924 103.129C168.043 102.986 168.194 102.765 168.261 102.637C168.328 102.509 168.462 102.329 168.56 102.236C168.657 102.144 168.785 101.976 168.843 101.863C168.901 101.75 169.08 101.501 169.24 101.309C169.4 101.118 169.531 100.948 169.531 100.93C169.531 100.886 169.787 100.526 170.12 100.103C170.27 99.9116 170.393 99.7378 170.393 99.7162C170.393 99.6949 170.51 99.5483 170.652 99.3903C170.794 99.2326 170.911 99.0723 170.911 99.0345C170.911 98.9964 170.983 98.8959 171.072 98.8113C171.214 98.6751 171.278 98.6572 171.621 98.6572C171.985 98.6572 172.019 98.6687 172.178 98.8421C172.271 98.9436 172.347 99.0546 172.347 99.0888C172.347 99.1227 172.44 99.2397 172.554 99.3482C172.667 99.4568 172.812 99.6538 172.874 99.7859C172.937 99.9178 173.103 100.15 173.241 100.302C173.38 100.453 173.495 100.594 173.496 100.615C173.497 100.672 173.892 101.248 174.04 101.409C174.112 101.488 174.239 101.668 174.321 101.81C174.403 101.952 174.561 102.169 174.672 102.293C174.783 102.416 174.891 102.571 174.911 102.637C174.931 102.703 175.041 102.87 175.156 103.01C175.361 103.258 175.887 103.995 176.389 104.734C176.528 104.939 176.71 105.169 176.793 105.246C176.877 105.322 176.945 105.417 176.945 105.456C176.945 105.494 177.042 105.651 177.161 105.804C177.279 105.957 177.491 106.249 177.632 106.454C177.873 106.805 178.048 107.047 178.669 107.891C178.812 108.084 179.018 108.376 179.129 108.539C179.24 108.703 179.449 108.99 179.595 109.179C179.74 109.367 179.9 109.599 179.949 109.693C179.998 109.788 180.118 109.941 180.216 110.033C180.314 110.126 180.394 110.229 180.394 110.263C180.394 110.296 180.497 110.46 180.624 110.626C180.75 110.792 180.853 110.943 180.853 110.961C180.853 110.979 180.905 111.059 180.968 111.139C181.241 111.485 181.023 111.958 180.521 112.109C180.159 112.217 171.425 112.222 171.251 112.114C171.169 112.063 171.1 112.062 170.969 112.111C170.868 112.15 170.783 112.155 170.764 112.124Z" fill="#D23E47" stroke="#100F0F" stroke-opacity="0.74"/>
<path d="M11.2957 111.115C11.292 110.869 11.2854 105.677 11.2812 99.5777L11.2734 88.4875L12.1356 87.8507C12.6099 87.5006 13.1657 87.1013 13.3712 86.9635C13.5766 86.8257 14.0424 86.5019 14.4058 86.2441C15.9564 85.1439 17.8629 83.8049 18.3426 83.4788C20.4295 82.0617 20.5708 81.9734 20.6485 82.0378C20.7329 82.1075 20.757 82.0997 21.1014 81.8894C21.2278 81.8122 21.4993 81.6659 21.7047 81.5643C21.9102 81.4627 22.201 81.2941 22.3509 81.1898C22.5007 81.0855 22.6559 80.9999 22.6956 80.9997C22.7355 80.9995 22.8458 80.9481 22.9405 80.8855C23.0354 80.8229 23.1542 80.7715 23.2046 80.7713C23.2551 80.7711 23.3374 80.7257 23.3879 80.6704C23.4381 80.6154 23.6039 80.509 23.7559 80.4342C23.9079 80.3594 24.1281 80.2498 24.245 80.1904C24.362 80.1313 24.4915 80.0829 24.5333 80.0829C24.5748 80.0829 24.7055 80.0313 24.8233 79.9682C24.9412 79.9052 25.0776 79.8536 25.1265 79.8536C25.1753 79.8536 25.3113 79.8059 25.4285 79.7479C25.6798 79.6231 26.2753 79.4775 26.8747 79.3943C27.1103 79.3615 27.4595 79.2938 27.6505 79.2436C27.9293 79.1707 28.3164 79.1528 29.6074 79.1544C30.4923 79.1555 31.3458 79.1817 31.5041 79.2129C31.662 79.2441 31.9466 79.2989 32.1363 79.3349C32.3259 79.3709 32.6492 79.4413 32.8547 79.491C33.0601 79.5408 33.3445 79.6002 33.4869 79.6231C33.7644 79.6681 33.9267 79.7247 34.3775 79.9345C34.5358 80.0081 34.8401 80.1361 35.054 80.2189C35.2682 80.3019 35.5525 80.4399 35.6862 80.5259C35.8199 80.6119 36.0586 80.7495 36.2168 80.8318C36.7016 81.0839 37.6447 81.8287 38.2994 82.4765C38.9582 83.1284 39.8592 84.2186 40.0169 84.5545C40.0688 84.6648 40.1983 84.8776 40.3047 85.0276C40.4114 85.1774 40.4985 85.3145 40.4985 85.3321C40.4985 85.3766 40.7693 85.9683 40.9165 86.2457C41.1387 86.6638 41.1814 86.7594 41.2749 87.0483C41.3261 87.2059 41.4011 87.4792 41.4414 87.6556C41.4818 87.8317 41.5364 88.0108 41.5627 88.0532C41.5891 88.0956 41.6432 88.261 41.6833 88.4206C41.7232 88.5802 41.7952 88.8141 41.8432 88.9402C41.8911 89.0663 41.9319 89.3371 41.9337 89.5421C41.9356 89.7472 41.9746 90.0696 42.0204 90.2588C42.0745 90.4828 42.1037 90.9123 42.1037 91.4913L42.1039 92.3799L40.5109 93.1665C39.6349 93.5992 37.6138 94.5988 36.0196 95.3881C34.4257 96.1772 33.0888 96.8229 33.0491 96.8229C32.992 96.8229 32.9836 96.4769 33.0083 95.1746C33.0368 93.6861 33.0276 93.4405 32.9145 92.6379C32.8457 92.1492 32.7508 91.6202 32.7038 91.4627C32.4731 90.6917 32.3231 90.2753 32.2051 90.076C32.1337 89.9558 31.9984 89.7302 31.9047 89.5749C31.6962 89.23 30.8037 88.2236 30.7061 88.2236C30.6673 88.2236 30.5465 88.1309 30.4375 88.0177C30.2722 87.8457 29.2976 87.3063 29.1523 87.3063C29.1279 87.3063 29.0424 87.2547 28.9622 87.1917C28.8817 87.1286 28.7482 87.0768 28.6657 87.0763C28.5831 87.0759 28.3515 87.0243 28.1511 86.9617C27.6228 86.7963 26.1898 86.7968 25.6704 86.9623C25.4725 87.0254 25.2469 87.077 25.1689 87.077C25.091 87.077 24.9586 87.1132 24.8747 87.1577C24.7908 87.202 24.567 87.3075 24.3773 87.3921C23.6337 87.7237 23.506 87.7929 23.2464 88.0046C23.0985 88.125 22.9597 88.2236 22.9382 88.2236C22.7855 88.2236 21.7623 89.308 21.7623 89.4697C21.7623 89.4997 21.7079 89.5736 21.6412 89.6336C21.4958 89.7648 21.3025 90.128 21.3023 90.2707C21.3023 90.3273 21.2505 90.4578 21.1874 90.5612C21.1244 90.6644 21.0718 90.7804 21.0709 90.8192C21.0698 90.8577 21.0056 91.0185 20.9276 91.176C20.8499 91.3336 20.7859 91.5271 20.7852 91.606C20.7845 91.6849 20.7409 91.8913 20.6884 92.0646C20.6027 92.3474 20.5917 92.9234 20.5804 97.6255C20.5735 100.511 20.5646 103.142 20.5603 103.473L20.5525 104.075L20.1663 104.362C18.482 105.612 16.476 107.242 13.8185 109.521C12.8066 110.389 11.5342 111.432 11.3837 111.516C11.3168 111.554 11.3012 111.483 11.2957 111.115Z" fill="#B93948" stroke="#100F0F" stroke-opacity="0.74"/>
<path d="M125.5 112.649C125.5 112.62 125.814 111.762 126.197 110.743C126.58 109.724 126.977 108.657 127.079 108.374C127.894 106.108 128.038 105.8 128.475 105.381C128.76 105.108 128.818 105.077 129.045 105.077C129.184 105.077 129.394 105.036 129.511 104.986C129.629 104.936 129.841 104.861 129.983 104.819C130.38 104.704 130.743 104.569 130.912 104.474C130.996 104.428 131.097 104.389 131.136 104.389C131.176 104.389 131.345 104.286 131.513 104.16C131.68 104.034 131.845 103.931 131.879 103.931C131.989 103.931 133.181 102.703 133.297 102.469C133.36 102.343 133.532 102.003 133.68 101.713C133.828 101.423 133.949 101.144 133.949 101.093C133.949 101.041 133.999 100.878 134.059 100.731C134.12 100.583 134.187 100.296 134.207 100.093C134.228 99.8903 134.283 99.6495 134.331 99.5583C134.402 99.4209 134.421 98.9639 134.444 96.9175C134.459 95.5565 134.479 94.2235 134.489 93.9554C134.498 93.6873 134.509 93.3119 134.515 93.1209L134.524 92.7737L134.947 92.7029C135.18 92.6639 135.898 92.4504 136.542 92.2284C137.186 92.0067 138.451 91.5801 139.351 91.2809C140.252 90.9814 141.597 90.5338 142.339 90.2859C143.081 90.038 143.693 89.8399 143.699 89.8458C143.704 89.8516 143.724 91.8427 143.743 94.2707C143.805 102.421 143.841 106.471 143.864 108.116C143.889 109.965 143.785 111.485 143.608 111.842C143.417 112.228 143.58 112.213 139.367 112.227C135.202 112.239 135.315 112.248 135.025 111.903C134.834 111.678 134.781 111.077 134.834 109.769C134.861 109.101 134.853 108.801 134.81 108.774C134.671 108.689 134.436 108.831 133.847 109.356C133.508 109.659 133.166 109.948 133.087 109.997C133.008 110.047 132.833 110.186 132.7 110.306C132.565 110.426 132.359 110.569 132.24 110.623C132.121 110.677 131.941 110.791 131.839 110.877C131.678 111.012 131.456 111.13 130.788 111.437C130.709 111.473 130.502 111.578 130.328 111.669C130.154 111.76 129.97 111.836 129.919 111.838C129.868 111.84 129.7 111.891 129.546 111.951C129.391 112.011 129.071 112.117 128.834 112.186C128.597 112.254 128.274 112.35 128.115 112.398C127.957 112.445 127.337 112.533 126.736 112.592C125.443 112.718 125.5 112.716 125.5 112.649Z" fill="#F1952A" stroke="#100F0F" stroke-opacity="0.74"/>
<path d="M157.115 95.9492C157.115 95.9258 156.973 95.702 156.799 95.4518C156.625 95.2014 156.483 94.9678 156.483 94.9327C156.483 94.8974 156.367 94.7444 156.224 94.5928C156.082 94.441 155.966 94.278 155.966 94.2303C155.966 94.1826 155.917 94.0821 155.858 94.0069C155.634 93.7203 155.104 92.9174 155.104 92.8636C155.104 92.8326 155.001 92.6966 154.876 92.5613C154.752 92.426 154.623 92.2476 154.592 92.1644C154.523 91.9839 154.064 91.3579 153.558 90.7541C153.356 90.5131 153.151 90.2514 153.101 90.1725C153.052 90.0937 152.9 89.9079 152.764 89.7593C152.629 89.611 152.517 89.4562 152.516 89.4153C152.516 89.3745 152.374 89.1748 152.2 88.9712C152.027 88.7678 151.885 88.5825 151.885 88.5595C151.885 88.5364 151.735 88.3289 151.551 88.0982C151.367 87.8675 151.149 87.5625 151.065 87.4203C150.982 87.2781 150.822 87.0731 150.709 86.9647C150.597 86.8564 150.506 86.7358 150.506 86.6966C150.506 86.6576 150.351 86.4308 150.161 86.1928C149.971 85.9547 149.816 85.7383 149.816 85.7117C149.816 85.6853 149.751 85.603 149.672 85.5289C149.593 85.4548 149.529 85.3695 149.529 85.3395C149.529 85.3095 149.449 85.1914 149.351 85.0774C149.157 84.8495 148.744 84.2757 148.283 83.5914C148.119 83.3486 147.88 83.0179 147.751 82.8567C147.622 82.6955 147.517 82.5336 147.517 82.4971C147.517 82.4604 147.414 82.3187 147.287 82.1818C147.161 82.0449 147.057 81.906 147.057 81.8729C147.057 81.8399 146.96 81.6881 146.841 81.5354C146.529 81.1348 146.31 80.7858 146.31 80.6892C146.31 80.6431 146.284 80.5895 146.253 80.57C146.221 80.5505 146.195 80.4234 146.195 80.2877C146.195 79.9836 146.347 79.7733 146.635 79.6784C146.79 79.6275 148.163 79.6096 152.006 79.6078L157.168 79.6055L157.399 79.7646C157.525 79.8522 157.698 80.0175 157.783 80.1322C157.867 80.2469 158.047 80.4567 158.182 80.5986C158.317 80.7406 158.481 80.9612 158.547 81.0889C158.613 81.2166 158.759 81.41 158.872 81.5189C158.986 81.6276 159.111 81.7941 159.152 81.8885C159.193 81.983 159.373 82.2376 159.552 82.454C159.731 82.6705 159.906 82.9028 159.94 82.97C159.975 83.0374 160.097 83.2071 160.211 83.3474C160.467 83.6634 160.679 83.9721 160.679 84.0296C160.679 84.0537 160.771 84.1622 160.885 84.2707C160.998 84.3794 161.138 84.5589 161.195 84.6697C161.252 84.7804 161.412 85.0127 161.549 85.1856C161.687 85.3588 161.825 85.5415 161.857 85.592C162.041 85.8869 162.247 86.1763 162.333 86.2623C162.387 86.3166 162.515 86.49 162.616 86.6473C162.718 86.8046 162.893 87.0348 163.004 87.1589C163.116 87.2827 163.207 87.4043 163.207 87.4286C163.207 87.4783 163.479 87.889 163.543 87.9356C163.565 87.9519 163.627 88.0298 163.681 88.1087C163.734 88.1876 163.857 88.3626 163.953 88.4976C164.048 88.6327 164.127 88.7632 164.127 88.7875C164.127 88.8118 164.22 88.9205 164.335 89.029C164.449 89.1376 164.577 89.3069 164.619 89.4048C164.662 89.5027 164.827 89.7387 164.986 89.9292C165.146 90.1196 165.276 90.3012 165.276 90.3326C165.276 90.3643 165.413 90.567 165.581 90.783C165.748 90.999 165.978 91.3177 166.092 91.4911C166.206 91.6645 166.366 91.8787 166.448 91.9672C166.531 92.0555 166.598 92.149 166.598 92.1752C166.598 92.2013 166.708 92.3671 166.842 92.5434C166.977 92.72 167.146 92.9486 167.219 93.0518C167.292 93.1552 167.472 93.4038 167.621 93.6045C167.877 93.9498 167.987 94.1181 168.264 94.5869C168.33 94.6972 168.434 94.865 168.496 94.9595C168.558 95.054 168.637 95.1959 168.673 95.2748C168.938 95.868 168.949 95.9387 168.783 95.9914C168.622 96.0423 157.115 96.0008 157.115 95.9492Z" fill="#7A2E40" stroke="#100F0F" stroke-opacity="0.74"/>
<path d="M33.5237 112.141C33.2497 112.051 33.1515 111.975 33.0841 111.798C32.9956 111.566 32.9371 104.571 32.9704 98.1404L32.9768 96.8505L33.3063 96.7104C33.4875 96.6336 34.5799 96.102 35.7336 95.5294C41.038 92.8969 42.0692 92.3981 42.1125 92.4442C42.1382 92.4713 42.1779 94.7897 42.2008 97.5958C42.2237 100.402 42.2487 103.369 42.2565 104.189C42.2992 108.719 42.2824 111.245 42.2079 111.521C42.1107 111.882 41.943 112.071 41.7222 112.071C41.6289 112.071 41.461 112.109 41.3496 112.156C41.1765 112.228 40.5991 112.239 37.4481 112.227C34.6171 112.218 33.6968 112.197 33.5237 112.141Z" fill="#F1952A" stroke="#100F0F" stroke-opacity="0.74"/>
<path d="M123.817 112.705C123.51 112.679 123.216 112.642 123.165 112.623C123.115 112.603 122.797 112.563 122.46 112.533C122.123 112.504 121.752 112.44 121.634 112.39C121.516 112.341 121.361 112.3 121.289 112.299C121.217 112.298 121.054 112.247 120.928 112.186C120.802 112.126 120.646 112.075 120.581 112.074C120.517 112.073 120.317 112.02 120.137 111.957C119.957 111.894 119.768 111.843 119.717 111.843C119.666 111.843 119.555 111.797 119.471 111.742C119.179 111.55 119.087 111.499 118.679 111.303C118.454 111.194 118.196 111.036 118.105 110.952C118.014 110.868 117.862 110.76 117.767 110.712C117.312 110.481 116.126 109.353 115.534 108.588C114.714 107.526 114.003 106.357 114.003 106.07C114.003 106.023 113.964 105.916 113.917 105.832C113.767 105.565 113.543 104.898 113.54 104.713C113.539 104.614 113.5 104.43 113.454 104.304C113.408 104.178 113.355 103.881 113.337 103.645C113.318 103.408 113.266 103.115 113.22 102.995C113.127 102.746 113.015 101.027 113.033 100.108L113.044 99.5237L113.271 99.4854C113.396 99.4645 113.838 99.3331 114.253 99.1935C114.668 99.0538 115.8 98.6963 116.767 98.3992C117.734 98.102 119.359 97.5869 120.378 97.2546C121.396 96.9224 122.264 96.6504 122.306 96.6504C122.366 96.6504 122.388 96.9792 122.411 98.2698C122.427 99.1896 122.467 99.9885 122.503 100.119C122.538 100.245 122.604 100.49 122.649 100.663C122.833 101.379 122.873 101.506 122.986 101.753C123.051 101.895 123.203 102.153 123.324 102.326C123.444 102.499 123.543 102.676 123.543 102.719C123.543 102.813 124.655 103.931 124.748 103.931C124.785 103.931 124.938 104.034 125.088 104.16C125.238 104.287 125.392 104.39 125.431 104.39C125.47 104.39 125.603 104.441 125.727 104.504C125.851 104.568 125.999 104.62 126.055 104.621C126.112 104.622 126.262 104.673 126.388 104.734C126.514 104.795 126.664 104.845 126.721 104.847C126.777 104.847 126.919 104.896 127.037 104.955C127.288 105.081 127.852 105.163 128.36 105.147L128.722 105.136L128.437 105.413C128.028 105.81 127.91 106.07 127.023 108.517C126.736 109.308 125.482 112.666 125.463 112.692C125.431 112.738 124.324 112.746 123.817 112.705Z" fill="#EE7A30" stroke="#100F0F" stroke-opacity="0.74"/>
<path d="M171.397 93.1881C171.27 93.1108 171.08 92.9287 170.975 92.7834C170.87 92.638 170.709 92.4635 170.617 92.3956C170.525 92.3275 170.45 92.239 170.45 92.1986C170.45 92.1582 170.337 91.9982 170.198 91.8429C170.06 91.6875 169.853 91.4189 169.738 91.246C169.623 91.0731 169.431 90.819 169.312 90.681C169.193 90.5432 169.067 90.3648 169.032 90.2845C168.998 90.2045 168.837 89.9944 168.675 89.8178C168.513 89.6413 168.381 89.4663 168.381 89.4287C168.381 89.3911 168.232 89.1753 168.051 88.9492C167.869 88.7233 167.694 88.4972 167.663 88.4468C167.468 88.1367 167.288 87.8939 167.182 87.7992C167.115 87.7393 166.991 87.5726 166.906 87.4286C166.822 87.2848 166.653 87.064 166.532 86.9383C166.411 86.8124 166.312 86.6797 166.312 86.6434C166.312 86.607 166.22 86.4568 166.107 86.3098C165.891 86.0277 165.68 85.4998 165.68 85.2435C165.68 85.0144 165.849 84.4837 165.964 84.3535C166.019 84.2904 166.082 84.2001 166.103 84.1528C166.164 84.0153 166.325 83.7825 166.546 83.5137C166.659 83.3766 166.962 82.9934 167.22 82.6623C167.477 82.3312 167.811 81.9099 167.962 81.7262C168.114 81.5423 168.281 81.3128 168.335 81.2162C168.388 81.1195 168.507 80.9603 168.599 80.8624C168.69 80.7645 168.847 80.568 168.947 80.4258C169.046 80.2836 169.276 80.0518 169.457 79.911C169.75 79.6823 169.826 79.6514 170.161 79.6236C170.476 79.5975 176.244 79.5936 179.752 79.6172L180.749 79.6239L180.949 79.8236C181.123 79.9967 181.144 80.0481 181.111 80.2105C181.09 80.3136 180.998 80.501 180.907 80.6271C180.815 80.7532 180.658 80.9984 180.559 81.1717C180.459 81.3451 180.284 81.6033 180.17 81.7453C179.954 82.0126 179.885 82.1154 179.726 82.4002C179.674 82.4926 179.538 82.6889 179.423 82.8366C179.308 82.9842 179.144 83.2182 179.058 83.3567C178.972 83.4949 178.787 83.763 178.646 83.9522C178.504 84.1414 178.387 84.3205 178.385 84.3498C178.383 84.3796 178.269 84.5473 178.132 84.7225C177.995 84.8979 177.792 85.1834 177.681 85.3567C177.569 85.5301 177.423 85.7211 177.355 85.7812C177.287 85.8413 177.232 85.9232 177.232 85.9631C177.232 86.0032 177.167 86.1126 177.088 86.2061C177.009 86.2999 176.944 86.3958 176.944 86.4192C176.944 86.4428 176.802 86.6354 176.628 86.8473C176.454 87.0592 176.312 87.2598 176.312 87.2929C176.312 87.3259 176.202 87.4908 176.068 87.6591C175.815 87.9764 175.722 88.114 175.631 88.3092C175.602 88.3722 175.523 88.4729 175.457 88.533C175.39 88.5931 175.335 88.6635 175.335 88.6896C175.335 88.7155 175.232 88.8728 175.105 89.0391C174.979 89.2051 174.876 89.3702 174.875 89.4058C174.875 89.4413 174.839 89.5007 174.794 89.5379C174.749 89.5748 174.589 89.7908 174.437 90.0178C174.286 90.2446 174.068 90.5464 173.954 90.6883C173.84 90.8303 173.685 91.0495 173.61 91.1756C173.534 91.3017 173.336 91.5755 173.168 91.784C173.001 91.9924 172.864 92.1809 172.864 92.203C172.864 92.2488 172.457 92.7815 172.203 93.0686C171.966 93.336 171.704 93.3748 171.397 93.1881Z" fill="#7A2E40" stroke="#100F0F" stroke-opacity="0.74"/>
<path d="M60.8713 112.813C59.2292 112.7 57.5121 112.386 56.3021 111.977C56.1599 111.929 55.9182 111.867 55.7652 111.84C55.6121 111.812 55.4571 111.766 55.4204 111.737C55.3837 111.708 55.2892 111.664 55.2101 111.64C55.1312 111.616 55.0049 111.548 54.9294 111.49C54.854 111.431 54.7473 111.383 54.6921 111.383C54.5325 111.383 53.9411 111.093 53.9782 111.033C54.0546 110.91 55.4628 110.266 57.841 109.266C60.9 107.981 62.9236 106.979 64.8294 105.805C65.0149 105.691 65.2802 105.581 65.4192 105.56C65.5579 105.539 65.7336 105.474 65.8092 105.414C65.8849 105.355 65.9688 105.306 65.9954 105.306C66.0532 105.306 66.5751 105.045 66.6682 104.97C66.704 104.941 66.9792 104.796 67.2796 104.649C67.5797 104.501 67.8643 104.356 67.9118 104.328C67.959 104.299 68.0884 104.223 68.1991 104.159C68.3096 104.094 68.4777 103.992 68.5727 103.93C68.6674 103.869 68.8414 103.766 68.959 103.702C69.0767 103.638 69.2576 103.515 69.3612 103.428C69.6029 103.227 69.9081 103.013 69.9549 103.013C69.9749 103.013 70.1505 102.868 70.3452 102.691C70.5399 102.514 70.8027 102.302 70.929 102.22C71.0554 102.138 71.2682 101.974 71.4019 101.854C71.7768 101.519 71.98 101.543 72.5489 101.99C72.7958 102.184 73.179 102.51 73.4003 102.715C73.6216 102.92 73.9621 103.233 74.1573 103.409C74.9562 104.132 76.2275 105.407 76.3561 105.614L76.4935 105.837L76.3839 106.044C76.2247 106.346 75.4476 107.236 74.7509 107.917C74.0914 108.561 73.2061 109.317 73.1093 109.318C73.0758 109.319 72.9731 109.398 72.8809 109.494C72.7887 109.589 72.5551 109.756 72.3618 109.864C72.1682 109.972 71.9768 110.1 71.9366 110.148C71.8963 110.197 71.841 110.237 71.8139 110.237C71.7869 110.237 71.6282 110.323 71.4617 110.429C71.2952 110.535 71.0957 110.642 71.0185 110.666C70.9412 110.69 70.7538 110.797 70.6023 110.903C70.3294 111.095 70.0533 111.217 69.6071 111.346C69.4807 111.382 69.3133 111.457 69.2351 111.512C69.1569 111.567 69.0531 111.612 69.0044 111.612C68.9556 111.612 68.8192 111.664 68.7013 111.727C68.5834 111.79 68.4339 111.842 68.3695 111.842C68.3048 111.842 68.156 111.89 68.0388 111.948C67.9214 112.007 67.7189 112.071 67.5889 112.091C67.4587 112.111 67.2775 112.166 67.1865 112.213C67.0954 112.261 66.9489 112.3 66.8611 112.3C66.773 112.3 66.6079 112.339 66.494 112.387C66.38 112.434 66.0512 112.499 65.7631 112.531C65.4749 112.563 65.0839 112.617 64.8943 112.651C64.0979 112.793 61.88 112.883 60.8713 112.813Z" fill="#EA613A" stroke="#100F0F" stroke-opacity="0.74"/>
<path d="M77.5746 112.176C77.3375 112.153 77.0401 112.113 76.9137 112.087C76.6892 112.039 76.6835 112.032 76.6665 111.774C76.6546 111.59 76.6853 111.441 76.7672 111.289C76.8319 111.169 76.8851 111.038 76.8851 110.999C76.8851 110.907 77.2017 110.418 77.5404 109.986C77.6856 109.801 77.8046 109.617 77.8046 109.578C77.8046 109.481 78.2417 109.091 78.3494 109.091C78.396 109.091 78.4785 109.023 78.5329 108.94C78.6262 108.798 78.6262 108.786 78.5306 108.716C78.4384 108.649 78.4496 108.627 78.6657 108.454C78.8874 108.276 78.9819 108.15 79.122 107.843C79.1545 107.773 79.2307 107.715 79.291 107.715C79.3515 107.715 79.4572 107.669 79.5258 107.614C79.6262 107.533 79.6402 107.486 79.5983 107.372C79.5407 107.218 79.7106 106.878 80.0693 106.429C80.172 106.3 80.3681 106.015 80.5052 105.794C80.6423 105.573 80.8537 105.275 80.975 105.131C81.0961 104.987 81.1954 104.84 81.1954 104.803C81.1954 104.767 81.3052 104.612 81.4396 104.458C81.574 104.304 81.7549 104.065 81.8418 103.926C81.9285 103.787 82.1046 103.531 82.2328 103.358C82.3612 103.184 82.5605 102.9 82.6761 102.727C82.7914 102.554 82.9709 102.306 83.0751 102.176C83.1792 102.047 83.2645 101.915 83.2645 101.883C83.2645 101.851 83.345 101.725 83.4433 101.603C83.6139 101.39 83.7368 101.214 84.4404 100.176C84.6112 99.9236 84.8254 99.6269 84.9162 99.5166C85.007 99.4063 85.1767 99.174 85.2936 99.0006C85.7178 98.3712 86.2865 97.5802 86.4973 97.3271C86.6158 97.1849 86.7128 97.0411 86.7128 97.0079C86.7128 96.9746 86.8236 96.8095 86.9589 96.641C87.0942 96.4727 87.2501 96.264 87.3051 96.1773L87.4051 96.0195H93.266C96.4897 96.0195 99.127 96.0328 99.127 96.0491C99.127 96.0652 99.0972 96.136 99.0605 96.2067C99.024 96.2773 98.9674 96.3864 98.9348 96.4495C98.902 96.5126 98.8176 96.6823 98.7472 96.8265C98.6768 96.971 98.5578 97.1643 98.4828 97.2565C98.4078 97.3486 98.3143 97.4885 98.2748 97.5674C98.1547 97.807 98.0717 97.9357 97.8848 98.1721C97.7864 98.2966 97.6571 98.4858 97.5975 98.5922C97.35 99.0336 97.3095 99.0947 97.1528 99.2588C97.0627 99.3533 96.9221 99.5466 96.8405 99.6886C96.7589 99.8305 96.6 100.053 96.4871 100.183C96.3743 100.312 96.2175 100.53 96.1384 100.666C96.0595 100.803 95.879 101.058 95.7373 101.233C95.5958 101.408 95.4397 101.629 95.3904 101.724C95.3411 101.818 95.2099 101.993 95.0991 102.113C94.9884 102.233 94.848 102.426 94.7875 102.543C94.7267 102.66 94.5662 102.877 94.4307 103.026C94.2952 103.174 94.1844 103.32 94.1844 103.35C94.1844 103.38 94.0757 103.542 93.9427 103.709C93.81 103.877 93.5836 104.184 93.4398 104.392C93.2963 104.6 93.0622 104.928 92.92 105.122C92.3887 105.845 92.1975 106.112 91.8728 106.584C91.7691 106.735 91.5744 107.003 91.44 107.179C91.3057 107.355 91.1958 107.525 91.1958 107.558C91.1958 107.589 91.0922 107.728 90.9658 107.865C90.8395 108.001 90.7361 108.139 90.7361 108.17C90.7361 108.201 90.529 108.501 90.2761 108.836C90.0234 109.171 89.8163 109.467 89.8163 109.494C89.8163 109.52 89.687 109.69 89.529 109.87C89.371 110.05 89.2417 110.217 89.2417 110.241C89.2417 110.266 89.1125 110.435 88.9548 110.619C88.797 110.803 88.6677 110.98 88.6672 111.011C88.6668 111.042 88.4661 111.28 88.2212 111.538C87.9149 111.862 87.7225 112.018 87.6037 112.041C87.5088 112.059 87.3278 112.104 87.2015 112.141C86.9426 112.217 78.3426 112.248 77.5746 112.176Z" fill="#EE7A30" stroke="#100F0F" stroke-opacity="0.74"/>
<path d="M87.3961 95.9431C87.3961 95.9007 87.3442 95.8193 87.2809 95.7622C87.2179 95.7051 87.1661 95.6329 87.1661 95.6019C87.1661 95.571 87.0736 95.4393 86.9604 95.3098C86.8473 95.1802 86.6682 94.9452 86.5625 94.7876C86.4566 94.6301 86.1676 94.2079 85.9202 93.8495C85.673 93.4911 85.3802 93.0515 85.2694 92.8724C85.1589 92.6935 84.9757 92.4321 84.8624 92.2915C84.7491 92.1507 84.5962 91.9326 84.5223 91.8065C84.4485 91.6804 84.3056 91.474 84.205 91.3479C84.1041 91.2218 83.9406 90.9748 83.8413 90.7994C83.7422 90.6237 83.5946 90.4176 83.5132 90.3414C83.432 90.2653 83.3279 90.1252 83.2818 90.0302C83.2359 89.9351 83.0603 89.6739 82.8913 89.4498C82.7225 89.2256 82.5354 88.9554 82.4758 88.8497C82.4159 88.7438 82.2572 88.52 82.1229 88.3521C81.9885 88.1843 81.8786 88.0196 81.8786 87.9859C81.8786 87.9522 81.7979 87.8231 81.6995 87.6993C81.4485 87.3828 81.0164 86.7341 81.0164 86.6731C81.0164 86.6451 80.9002 86.4915 80.7578 86.3316C80.6156 86.1718 80.4993 86.0083 80.4993 85.9679C80.4993 85.9278 80.3815 85.7572 80.2375 85.5889C80.0937 85.4208 79.9274 85.1885 79.8683 85.0727C79.8089 84.9569 79.7197 84.8285 79.6702 84.7872C79.6204 84.7461 79.5796 84.6826 79.5796 84.6462C79.5796 84.6097 79.5064 84.4998 79.4168 84.4019C79.3271 84.304 79.1806 84.0983 79.0911 83.9449C79.0015 83.7915 78.8467 83.5626 78.747 83.4365C78.5718 83.215 78.0677 82.4764 77.7118 81.9194C77.6169 81.771 77.4543 81.5355 77.3507 81.3963C77.2468 81.2571 77.0301 80.9418 76.8689 80.6955C76.5229 80.1669 76.5337 80.0773 76.9744 79.823L77.2521 79.6627L79.2349 79.6267C81.3801 79.5881 87.2915 79.6056 87.4876 79.6512C87.64 79.6868 88.2672 80.4045 88.8616 81.2241C89.1145 81.5726 89.4443 82.0164 89.5942 82.2101C89.7444 82.4039 89.8673 82.5878 89.8673 82.619C89.8673 82.65 89.9664 82.7951 90.0875 82.9412C90.2088 83.0875 90.4805 83.4652 90.6915 83.7805C90.9024 84.0958 91.1331 84.4311 91.204 84.5253C91.2748 84.6198 91.5498 84.9938 91.8151 85.3566C92.0802 85.7196 92.4099 86.1626 92.5477 86.341C92.6855 86.5197 92.7984 86.6864 92.7984 86.7114C92.7984 86.7364 92.8873 86.848 92.9963 86.9599C93.105 87.0716 93.2338 87.2404 93.2827 87.3349C93.3313 87.4294 93.4893 87.6616 93.6335 87.8508C94.2276 88.63 94.8119 89.4365 94.8894 89.5847C94.9348 89.6716 95.052 89.8186 95.1497 89.911C95.2474 90.0036 95.3272 90.1107 95.3272 90.1488C95.3272 90.1869 95.5343 90.4815 95.787 90.8033C96.0399 91.125 96.2467 91.4116 96.2467 91.4396C96.2467 91.4678 96.3339 91.5878 96.4405 91.7061C96.5469 91.8244 96.7248 92.0631 96.8358 92.2365C96.9468 92.4099 97.0954 92.6034 97.1656 92.6665C97.236 92.7295 97.3428 92.8715 97.4029 92.9818C97.574 93.2952 97.6391 93.3927 97.8686 93.6782C97.9865 93.825 98.1465 94.0639 98.2243 94.2097C98.3018 94.3554 98.4408 94.5707 98.5327 94.6883C98.7045 94.9078 99.0055 95.5184 99.178 95.9411C99.178 96.0078 98.2523 96.0202 93.287 96.0202C88.3906 96.0202 87.3961 96.0071 87.3961 95.9431Z" fill="#9B3446" stroke="#100F0F" stroke-opacity="0.74"/>
<path d="M45.746 90.5311C45.8463 90.2135 45.9763 89.9032 46.0409 89.828C46.0818 89.7808 46.1322 89.6645 46.1533 89.57C46.2118 89.3086 46.5945 88.5046 46.7422 88.3329C46.7851 88.2831 46.8201 88.2106 46.8201 88.1716C46.8201 88.0799 47.0699 87.577 47.2785 87.2482C47.3686 87.1062 47.512 86.8529 47.5973 86.6852C47.6823 86.5176 47.9043 86.189 48.0907 85.9551C48.2769 85.7214 48.4294 85.5086 48.4294 85.4825C48.4294 85.4178 49.071 84.6948 49.6817 84.0713C50.3052 83.4347 51.3398 82.5007 51.6629 82.2831C51.7968 82.1927 52.0245 82.0219 52.1688 81.9031C52.313 81.7845 52.4641 81.6873 52.5045 81.6873C52.5449 81.6873 52.7242 81.5898 52.903 81.4708C53.3633 81.1642 53.4144 81.1353 53.8317 80.9434C54.0372 80.8489 54.244 80.7453 54.2915 80.7129C54.339 80.6808 54.4295 80.632 54.4926 80.6042C54.8279 80.4573 54.9024 80.4226 54.9813 80.3774C55.1221 80.2965 55.6224 80.1344 55.9127 80.0754C56.0615 80.0452 56.2555 79.9828 56.3438 79.9369C56.4321 79.8911 56.5504 79.8532 56.6066 79.8532C56.663 79.853 56.8052 79.8113 56.9228 79.7606C57.1233 79.6741 57.6186 79.5911 58.7745 79.4503C59.043 79.4175 59.431 79.3531 59.6365 79.3072C60.6159 79.0892 63.0057 79.0607 64.0619 79.255C64.3307 79.3043 64.7574 79.3692 65.0104 79.3987C65.2631 79.4285 65.5476 79.4811 65.6426 79.5152C65.7373 79.5494 65.97 79.5982 66.1597 79.6239C66.505 79.6705 66.8538 79.7716 67.3379 79.9656C67.4803 80.0225 67.7905 80.1259 68.0276 80.1951C68.5252 80.3405 68.7201 80.4206 69.3929 80.7558C69.6619 80.8897 69.9082 80.9994 69.9403 80.9994C69.9724 80.9994 70.1435 81.0961 70.3205 81.2142C70.4977 81.3323 70.6943 81.4568 70.7575 81.4908C71.0506 81.6479 71.1781 81.7302 71.4184 81.9182C71.5608 82.0294 71.7532 82.1585 71.8463 82.2049C71.9394 82.2514 72.1591 82.4195 72.3347 82.5786C72.5104 82.738 72.7317 82.927 72.8266 82.9988C73.2834 83.3452 74.4529 84.5661 74.8668 85.1291C74.9775 85.2795 75.183 85.537 75.3236 85.7017L75.579 86.0009L75.4098 85.9668C75.1775 85.9198 73.3522 85.72 72.3379 85.6304C71.204 85.5304 65.9514 85.5306 64.7804 85.6306C62.97 85.7854 60.6308 86.1009 59.6078 86.3284C59.4815 86.3566 59.0935 86.4362 58.7456 86.5052C55.9604 87.0581 52.2357 88.171 49.4063 89.2953C48.7268 89.5654 47.9121 89.8697 47.5959 89.9718C47.2799 90.074 46.7273 90.2644 46.3677 90.3949C45.8201 90.5937 45.7194 90.6157 45.746 90.5311Z" fill="#7A2E40" stroke="#100F0F" stroke-opacity="0.74"/>
<path d="M53.6834 110.891C53.5885 110.812 53.4332 110.71 53.3385 110.665C53.1335 110.567 53.037 110.506 52.6389 110.222C52.4731 110.104 52.3204 110.007 52.2993 110.007C52.2784 110.007 52.0122 109.82 51.7079 109.591C51.4034 109.362 51.0899 109.133 51.0108 109.082C50.7145 108.89 49.2254 107.409 48.9142 106.996C48.736 106.761 48.5675 106.568 48.5393 106.568C48.4916 106.568 48.418 106.454 48.2421 106.109C48.202 106.03 48.0584 105.828 47.9231 105.66C47.7881 105.491 47.6773 105.328 47.6773 105.298C47.6773 105.251 47.4863 104.922 47.2315 104.529C47.1919 104.468 47.0673 104.237 46.9548 104.017C46.8424 103.796 46.6732 103.489 46.5787 103.335C46.4143 103.067 46.3086 102.821 46.1682 102.383C46.1329 102.272 46.0572 102.114 45.9999 102.03C45.9426 101.946 45.8958 101.842 45.8958 101.799C45.8958 101.756 45.8561 101.664 45.8075 101.595C45.7591 101.526 45.655 101.23 45.5764 100.937C45.4975 100.644 45.3954 100.287 45.3494 100.142C45.3035 99.9982 45.2418 99.7104 45.2125 99.5034C45.1829 99.2963 45.126 99.0658 45.0859 98.9918C45.0458 98.9175 44.9944 98.5602 44.9717 98.1976C44.949 97.8351 44.8995 97.3618 44.8616 97.1458C44.7249 96.3636 44.8942 93.4919 45.1152 92.8418C45.1652 92.6952 45.206 92.5109 45.206 92.4322C45.206 92.3535 45.2475 92.1933 45.2985 92.0761C45.3494 91.9587 45.4237 91.6823 45.4638 91.4615C45.5037 91.2407 45.5849 90.9602 45.6443 90.8382C45.7477 90.6254 45.7837 90.6048 46.528 90.3351C46.9548 90.1803 47.4459 90.0125 47.62 89.9622C47.7938 89.9118 48.5439 89.6307 49.2866 89.3374C52.2729 88.1578 55.9228 87.0644 58.7408 86.5049C59.0887 86.4358 59.4767 86.3563 59.603 86.3281C60.1586 86.2047 61.986 85.9226 62.9076 85.8181C64.9629 85.5851 65.5781 85.5566 68.5688 85.5566C71.5512 85.5566 72.041 85.5793 74.2011 85.8178C75.4002 85.9504 75.5517 85.9763 75.5517 86.0497C75.5517 86.0795 75.6506 86.2129 75.7712 86.3462C75.8918 86.4794 76.0624 86.7135 76.1502 86.8665C76.2383 87.0192 76.4112 87.288 76.5346 87.4636C76.6577 87.6391 76.7586 87.8069 76.7586 87.8363C76.7586 87.8658 76.7953 87.9711 76.8402 88.0704C77.0459 88.5267 77.161 88.8157 77.161 88.8769C77.161 88.9136 77.2133 89.0457 77.2773 89.1706C77.3413 89.2956 77.4085 89.5009 77.4263 89.627C77.4442 89.7531 77.5082 90.0047 77.5685 90.1863C77.6288 90.3677 77.6784 90.561 77.6786 90.6163C77.6788 90.6711 77.7178 90.7905 77.7653 90.8816C77.813 90.9724 77.868 91.1529 77.8879 91.2829C77.9079 91.4127 77.9595 91.5888 78.0026 91.6741C78.2236 92.1114 78.3803 94.161 78.3569 96.3058C78.3367 98.1717 78.3229 98.2341 77.89 98.4302C77.6561 98.5361 77.3131 98.5391 65.6222 98.5402L53.5946 98.5416L53.5302 98.6824C53.4623 98.8312 53.5353 99.2176 53.6877 99.5162C53.7531 99.6444 53.8831 99.9265 54.1996 100.629C54.5408 101.385 56.1746 103.263 56.9593 103.8C57.0857 103.887 57.3056 104.052 57.4477 104.168C57.5899 104.284 57.8229 104.437 57.9651 104.508C58.1072 104.579 58.2753 104.68 58.3386 104.733C58.4633 104.838 59.456 105.273 59.6892 105.326C59.7683 105.344 60.0658 105.439 60.3501 105.537C60.734 105.67 61.0451 105.731 61.5572 105.774C62.2245 105.831 64.3578 105.801 64.7535 105.73C64.9446 105.696 64.943 105.699 64.654 105.899C64.1869 106.221 62.4405 107.181 61.4996 107.632C60.3941 108.161 59.2292 108.681 57.8371 109.266C56.0957 109.998 54.932 110.513 54.3986 110.787C54.1283 110.926 53.8955 111.038 53.8813 111.037C53.8673 111.036 53.7781 110.971 53.6834 110.891ZM69.5058 92.4856C69.7004 92.3609 69.719 92.2554 69.6089 91.8979C69.3482 91.0513 69.1682 90.6557 68.9657 90.4842C68.9265 90.4511 68.86 90.3413 68.8178 90.2399C68.6626 89.8671 67.417 88.5194 66.7226 87.9732C66.2287 87.5845 65.1328 86.9298 64.8705 86.8665C64.7868 86.8463 64.6276 86.7846 64.5169 86.7296C64.0606 86.5019 63.7579 86.3879 63.6102 86.3879C63.524 86.3879 63.2509 86.3492 63.0032 86.3019C62.4102 86.1886 61.003 86.1893 60.465 86.3028C60.2439 86.3496 59.9674 86.3879 59.8509 86.3879C59.7344 86.3879 59.5663 86.4157 59.4774 86.4496C59.3884 86.4833 59.2123 86.5335 59.0857 86.561C58.3093 86.7298 58.2872 86.7397 57.9502 87.0685C57.7681 87.246 57.4858 87.4625 57.3228 87.5496C56.9749 87.7356 56.6662 87.9943 55.9043 88.7384C55.2675 89.3601 54.9162 89.7577 54.8017 89.9852C54.7582 90.0721 54.6424 90.2461 54.5444 90.3723C54.4463 90.4984 54.2436 90.8596 54.0939 91.1749C53.9443 91.4902 53.7843 91.8213 53.7382 91.9105C53.5669 92.2426 53.6896 92.4969 54.0574 92.5719C54.1551 92.5918 57.641 92.5996 61.8042 92.5893C68.3668 92.573 69.3911 92.5592 69.5058 92.4856Z" fill="#D23E47" stroke="#100F0F" stroke-opacity="0.74"/>
<path d="M143.303 89.4799C143.123 89.4535 142.645 89.3551 142.24 89.2609C140.455 88.847 138.688 88.5534 136.279 88.2714C135.382 88.1663 134.646 88.0542 134.609 88.0166C134.522 87.9299 134.424 84.7908 134.439 82.5761C134.448 81.3254 134.469 80.9138 134.536 80.7129C134.584 80.571 134.638 80.3501 134.656 80.2222C134.675 80.0942 134.731 79.9071 134.782 79.8067L134.873 79.6237L136.205 79.6166C136.938 79.6127 138.854 79.6122 140.462 79.6154C143.744 79.6218 143.601 79.6033 143.72 80.0392C143.77 80.2192 143.778 81.3387 143.752 84.3246C143.733 86.5476 143.717 88.6307 143.717 88.954C143.716 89.2771 143.696 89.5383 143.673 89.5344C143.649 89.5308 143.483 89.506 143.303 89.4799Z" fill="#7A2E40" stroke="#100F0F" stroke-opacity="0.74"/>
<path d="M11.9705 112.116C11.6848 112.083 11.5332 112.034 11.439 111.946C11.2322 111.752 11.2723 111.612 11.6089 111.349C12.2815 110.825 12.993 110.238 13.8855 109.47C16.3221 107.373 18.0839 105.937 19.9854 104.498C20.2541 104.294 20.5004 104.111 20.5327 104.091C20.5729 104.067 20.5873 105.26 20.5784 107.813L20.5651 111.572L20.4165 111.795C20.3351 111.918 20.1982 112.048 20.1124 112.083C19.9269 112.159 12.6055 112.189 11.9705 112.116Z" fill="#F2852F" stroke="#100F0F" stroke-opacity="0.74"/>
<path d="M78.7109 108.379C78.7109 108.302 79.0666 107.822 79.0992 107.854C79.117 107.872 79.0888 107.934 79.0363 107.992C78.9838 108.049 78.9407 108.123 78.9407 108.155C78.9407 108.187 78.8891 108.26 78.8258 108.317C78.7625 108.374 78.7109 108.402 78.7109 108.379Z" fill="#F2852F" stroke="#100F0F" stroke-opacity="0.74"/>
<path d="M78.2658 108.973C78.3412 108.757 78.4698 108.651 78.5542 108.735C78.6368 108.817 78.4825 109.063 78.3224 109.105C78.2206 109.132 78.2148 109.118 78.2658 108.973Z" fill="#F2852F" stroke="#100F0F" stroke-opacity="0.74"/>
<path d="M101.459 93.1104C101.255 92.9556 100.994 92.6534 100.511 92.0136C100.377 91.8363 100.112 91.4951 99.9217 91.2552C99.7316 91.0154 99.5759 90.795 99.5759 90.7657C99.5759 90.7361 99.4576 90.5971 99.3127 90.4565C99.168 90.3157 99.0093 90.1233 98.9602 90.0289C98.9114 89.9344 98.7646 89.739 98.6344 89.5945C98.3927 89.3269 97.9678 88.7692 97.6401 88.29C97.5396 88.1427 97.3764 87.9272 97.2773 87.8107C97.1782 87.6942 97.0248 87.4578 96.9363 87.2853C96.848 87.1129 96.6816 86.8572 96.5667 86.7171C96.4516 86.5772 96.3573 86.4266 96.3571 86.3825C96.3569 86.3385 96.3147 86.225 96.2633 86.1305C96.2117 86.0353 96.1576 85.765 96.142 85.5258C96.1191 85.1676 96.1351 85.0472 96.2358 84.8266C96.3027 84.6801 96.3575 84.5375 96.3575 84.5099C96.3575 84.482 96.4674 84.3146 96.6018 84.1375C96.7361 83.9607 96.9365 83.6837 97.0471 83.5223C97.1578 83.3606 97.3582 83.0919 97.4926 82.9251C97.627 82.7582 97.7368 82.5844 97.7368 82.5385C97.7368 82.4926 97.8286 82.3665 97.9407 82.2583C98.0526 82.1498 98.2127 81.9448 98.2964 81.8026C98.3798 81.6605 98.5984 81.3555 98.782 81.1248C98.9659 80.8941 99.1161 80.6838 99.1161 80.6572C99.1161 80.5616 99.8664 79.8631 100.099 79.7422C100.334 79.6198 100.36 79.6191 104.194 79.6161C106.317 79.6143 108.654 79.6154 109.389 79.6184L110.724 79.6237L110.904 79.784L111.084 79.9443L110.982 80.2568C110.801 80.8157 110.45 81.4988 110.134 81.9063C109.965 82.1255 109.792 82.3853 109.752 82.4835C109.711 82.5819 109.657 82.6621 109.633 82.6621C109.609 82.6621 109.431 82.8878 109.239 83.1639C108.739 83.8809 108.182 84.6542 107.943 84.9642C107.83 85.1112 107.737 85.2587 107.737 85.2921C107.737 85.3254 107.627 85.4802 107.493 85.6359C107.358 85.7916 107.123 86.1085 106.97 86.3401C106.502 87.048 106.314 87.3211 106.068 87.6497C105.938 87.8231 105.75 88.0861 105.649 88.2342C105.549 88.3822 105.357 88.6456 105.223 88.8192C105.088 88.9933 104.978 89.1588 104.978 89.1877C104.978 89.2166 104.823 89.434 104.634 89.6711C104.444 89.908 104.289 90.1259 104.289 90.155C104.289 90.1841 104.209 90.2839 104.111 90.3765C104.014 90.4689 103.894 90.6223 103.845 90.7168C103.796 90.8113 103.582 91.108 103.369 91.3761C103.157 91.6442 102.942 91.943 102.892 92.0404C102.842 92.1377 102.716 92.2828 102.611 92.3631C102.506 92.4433 102.356 92.6135 102.277 92.7414C102.198 92.8692 102.082 93.0008 102.019 93.034C101.955 93.0671 101.85 93.1333 101.785 93.1813C101.675 93.2613 101.649 93.2558 101.459 93.1104Z" fill="#9B3446" stroke="#100F0F" stroke-opacity="0.74"/>
<path d="M11.2508 84.3607C11.2462 82.0861 11.2622 80.1576 11.2866 80.0751C11.3106 79.9925 11.4115 79.8574 11.5104 79.7746L11.6901 79.6247L14.2403 79.6167C15.643 79.6125 17.5153 79.6121 18.4013 79.616L20.012 79.6231L20.1833 79.7808C20.3512 79.9352 20.3569 79.9592 20.4626 80.9577C20.5218 81.5186 20.5605 81.9841 20.5484 81.9926C20.5362 82.0008 20.1512 82.2597 19.6928 82.5675C18.0159 83.6939 17.1294 84.31 14.4054 86.2429C14.0419 86.5007 13.5762 86.8245 13.3708 86.9623C13.1653 87.1001 12.6062 87.5017 12.1284 87.8548L11.2593 88.4967L11.2508 84.3607Z" fill="#7A2E40" stroke="#100F0F" stroke-opacity="0.74"/>
<path d="M134.55 90.4272C134.56 89.1487 134.578 88.0948 134.59 88.0852C134.621 88.0588 138.047 88.4807 138.95 88.622C139.377 88.6887 140.283 88.8566 140.962 88.9951C142.282 89.2641 143.381 89.4838 143.591 89.5207C143.766 89.5516 143.755 89.7025 143.575 89.7477C143.475 89.7727 143.392 89.7516 143.017 89.9401C142.914 89.9782 142.781 90.0353 142.722 90.0667C142.663 90.0981 142.226 90.2506 141.749 90.4049C141.273 90.5595 140.869 90.7078 140.851 90.7344C140.833 90.7613 140.12 91.0172 139.266 91.3034C138.413 91.5896 137.262 91.9824 136.709 92.1762C135.721 92.5222 134.907 92.7506 134.657 92.7513L134.531 92.7517L134.55 90.4272Z" fill="#D23E47" stroke="#100F0F" stroke-opacity="0.74"/>
<path d="M147.084 112.182C147.021 112.157 146.847 112.135 146.696 112.133C146.403 112.128 146.192 111.988 146.195 111.799C146.199 111.587 146.414 111.086 146.658 110.722C146.798 110.513 146.962 110.26 147.023 110.16C147.085 110.06 147.242 109.837 147.372 109.663C147.503 109.49 147.704 109.206 147.818 109.031C147.933 108.857 148.095 108.65 148.178 108.573C148.262 108.495 148.367 108.343 148.412 108.236C148.457 108.128 148.586 107.935 148.698 107.806C148.956 107.51 149.341 106.993 149.666 106.508C149.805 106.302 149.96 106.098 150.011 106.055C150.11 105.974 150.447 105.497 150.447 105.439C150.447 105.42 150.563 105.28 150.705 105.129C150.847 104.977 150.964 104.823 150.964 104.787C150.964 104.751 151.061 104.596 151.179 104.443C151.298 104.29 151.498 104.022 151.625 103.846C151.751 103.671 151.971 103.378 152.113 103.195C152.256 103.012 152.424 102.762 152.487 102.641C152.55 102.519 152.681 102.34 152.779 102.244C152.876 102.147 153.029 101.938 153.119 101.781C153.209 101.623 153.317 101.468 153.358 101.437C153.399 101.405 153.601 101.147 153.806 100.864C154.012 100.58 154.244 100.272 154.323 100.179C154.402 100.087 154.507 99.9259 154.557 99.8215C154.606 99.7172 154.736 99.5351 154.846 99.4165C154.955 99.298 155.061 99.1494 155.081 99.0863C155.102 99.0233 155.276 98.7463 155.469 98.4708C155.662 98.1954 155.86 97.8962 155.91 97.8054C155.959 97.7148 156.088 97.529 156.197 97.3926C156.306 97.2562 156.421 97.0892 156.452 97.0216C156.484 96.9542 156.652 96.7017 156.826 96.4604L157.142 96.022L157.774 96.0078C159.112 95.9773 168.88 95.9924 168.828 96.0247C168.798 96.0435 168.79 96.125 168.811 96.2059C168.848 96.3529 168.726 96.673 168.508 97.0032C168.452 97.0869 168.319 97.3062 168.212 97.4901C168.104 97.674 167.917 97.9423 167.795 98.0863C167.673 98.2305 167.573 98.3667 167.573 98.389C167.573 98.4115 167.367 98.7123 167.114 99.0577C166.861 99.403 166.654 99.703 166.654 99.7241C166.654 99.7452 166.537 99.8864 166.395 100.038C166.253 100.19 166.137 100.344 166.137 100.38C166.137 100.416 166.004 100.613 165.841 100.817C165.52 101.219 165.274 101.566 165.274 101.618C165.274 101.636 165.176 101.77 165.055 101.916C164.934 102.062 164.774 102.285 164.7 102.411C164.625 102.538 164.469 102.757 164.354 102.899C164.239 103.041 164.13 103.197 164.112 103.245C164.095 103.294 163.954 103.501 163.799 103.704C163.518 104.074 163.342 104.322 163.234 104.498C163.104 104.711 162.886 105.004 162.706 105.206C162.602 105.325 162.516 105.455 162.516 105.497C162.516 105.538 162.436 105.648 162.338 105.74C162.241 105.833 162.121 105.986 162.072 106.08C162.024 106.175 161.845 106.425 161.675 106.636C161.505 106.848 161.366 107.036 161.366 107.054C161.366 107.098 161.165 107.384 160.903 107.714C160.79 107.856 160.637 108.072 160.563 108.194C160.418 108.434 159.871 109.191 159.43 109.764C159.278 109.962 159.128 110.184 159.096 110.259C159.064 110.333 158.929 110.513 158.794 110.658C158.66 110.803 158.55 110.946 158.55 110.975C158.55 111.004 158.313 111.261 158.023 111.547C157.567 111.996 157.457 112.075 157.204 112.135C156.866 112.215 147.28 112.26 147.084 112.182Z" fill="#F1952A" stroke="#100F0F" stroke-opacity="0.74"/>
<path d="M58.0968 86.9355C58.2812 86.7497 58.3729 86.7151 59.0918 86.5614C59.355 86.5055 59.4488 86.5337 59.1991 86.594C59.1085 86.616 58.9657 86.6816 58.8817 86.7403C58.7978 86.7985 58.6997 86.8465 58.6634 86.8465C58.6272 86.8465 58.5164 86.8884 58.4172 86.9396C58.3176 86.9909 58.1622 87.054 58.0714 87.0799L57.9062 87.1272L58.0968 86.9355Z" fill="#D63F45" stroke="#100F0F" stroke-opacity="0.74"/>
<path d="M112.969 98.9317C112.914 98.4832 112.894 96.2013 112.886 89.455L112.875 80.5691L113.007 80.3581C113.159 80.113 113.46 79.8376 113.72 79.7032C113.885 79.6181 114.304 79.6092 117.947 79.6117C120.917 79.6137 122.013 79.6323 122.071 79.6809C122.115 79.7172 122.204 79.8564 122.269 79.9898C122.386 80.2311 122.387 80.2831 122.387 88.4412C122.387 95.5087 122.376 96.6498 122.305 96.6498C122.26 96.6498 121.39 96.9218 120.371 97.2541C119.352 97.5863 117.728 98.1014 116.76 98.3986C115.793 98.6958 114.662 99.0533 114.246 99.1929C113.831 99.3326 113.39 99.4637 113.266 99.4846L113.041 99.5224L112.969 98.9317Z" fill="#B93948" stroke="#100F0F" stroke-opacity="0.74"/>
<path d="M100.007 112.124C99.847 112.104 99.6622 112.058 99.5964 112.023C99.4835 111.962 99.1205 111.547 99.1205 111.479C99.1205 111.443 98.34 110.374 97.9751 109.911C97.8465 109.747 97.7412 109.596 97.7412 109.575C97.7412 109.554 97.5924 109.348 97.4108 109.116C97.229 108.884 96.8992 108.443 96.6779 108.136C96.4567 107.828 96.1978 107.472 96.1024 107.345C96.0072 107.217 95.8802 107.002 95.8201 106.867L95.7109 106.622L95.8703 106.456C95.9579 106.365 96.0123 106.263 95.9912 106.228C95.9691 106.193 95.9971 106.166 96.0567 106.164C96.2037 106.162 96.4539 105.935 96.4952 105.767C96.5165 105.681 96.4977 105.591 96.4463 105.534C96.3723 105.452 96.3819 105.424 96.5312 105.281C96.6236 105.193 96.7591 105.09 96.8323 105.052C96.9231 105.006 96.9607 104.942 96.9504 104.851C96.9304 104.675 97.2673 104.233 97.4539 104.19C97.6076 104.155 97.7587 103.914 97.6777 103.833C97.6509 103.806 97.7465 103.635 97.8901 103.452C98.1026 103.182 98.1664 103.133 98.2329 103.188C98.2778 103.225 98.3535 103.24 98.4014 103.222C98.5003 103.185 98.5188 102.982 98.4285 102.926C98.2721 102.83 98.536 102.467 98.9302 102.236C99.179 102.091 99.2274 102.019 99.1205 101.953C99.0368 101.901 99.0497 101.831 99.1634 101.718C99.2641 101.617 99.2836 101.589 99.4941 101.242C99.5574 101.137 99.7126 100.914 99.839 100.745C99.9653 100.576 100.159 100.306 100.27 100.145C100.381 99.984 100.559 99.7443 100.666 99.6127C100.774 99.4809 100.951 99.2387 101.061 99.0743C101.393 98.5762 101.871 98.5207 102.233 98.9383C102.571 99.3275 102.823 99.6496 102.977 99.8872C103.058 100.014 103.297 100.35 103.507 100.634C103.716 100.918 103.992 101.292 104.119 101.466C104.246 101.639 104.473 101.949 104.624 102.154C104.775 102.359 104.961 102.629 105.037 102.755C105.113 102.882 105.287 103.118 105.424 103.281C105.56 103.443 105.673 103.594 105.673 103.615C105.673 103.636 105.795 103.809 105.945 104C106.305 104.457 106.535 104.784 106.535 104.838C106.535 104.862 106.64 104.984 106.769 105.109C106.898 105.233 107.037 105.413 107.078 105.507C107.119 105.602 107.279 105.838 107.433 106.033C107.587 106.227 107.829 106.546 107.971 106.742C108.114 106.937 108.312 107.204 108.413 107.334C108.514 107.464 108.598 107.598 108.6 107.631C108.602 107.664 108.707 107.799 108.833 107.93C108.96 108.061 109.064 108.189 109.064 108.214C109.066 108.271 109.341 108.673 109.51 108.864C109.581 108.944 109.788 109.22 109.969 109.476C110.75 110.579 110.958 110.857 111.017 110.877C111.101 110.905 111.242 111.312 111.245 111.538C111.249 111.828 111.138 112.006 110.908 112.079C110.679 112.151 100.538 112.194 100.007 112.124Z" fill="#EE7A30" stroke="#100F0F" stroke-opacity="0.74"/>
</svg>
