<svg width="512" height="512" viewBox="0 0 512 512" fill="none" xmlns="http://www.w3.org/2000/svg">
<path d="M455.375 298.998C455.328 298.921 455.065 298.859 454.792 298.859C454.519 298.859 454.229 298.795 454.149 298.717C454.07 298.64 453.555 298.532 453.008 298.479C452.011 298.382 452.011 298.381 450.959 297.282C449.566 295.827 448.62 294.666 448.328 294.055C448.198 293.781 447.853 293.326 447.561 293.044C447.269 292.762 447.031 292.479 447.031 292.416C447.031 292.243 446.156 290.984 445.874 290.75C445.739 290.639 445.479 290.276 445.295 289.943C444.7 288.867 444.622 288.751 444.118 288.234C443.619 287.719 443.352 287.323 443.045 286.638C442.953 286.433 442.598 285.961 442.255 285.591C441.648 284.933 441.633 284.893 441.697 284.011C441.754 283.23 441.837 283.029 442.304 282.536C442.601 282.223 443.006 281.691 443.203 281.354C443.4 281.018 443.811 280.433 444.116 280.055C444.422 279.676 444.919 278.988 445.221 278.526C445.524 278.064 445.916 277.554 446.093 277.395C446.27 277.236 446.599 276.789 446.824 276.402C447.048 276.015 447.489 275.388 447.804 275.009C448.119 274.63 448.522 274.041 448.7 273.699C448.879 273.357 449.238 272.876 449.498 272.629C449.758 272.383 450.098 271.935 450.253 271.633C450.409 271.332 450.886 270.668 451.313 270.158C451.739 269.649 452.088 269.193 452.088 269.145C452.088 269.029 452.771 268.069 453.659 266.94C454.059 266.43 454.387 265.967 454.387 265.909C454.387 265.853 454.698 265.462 455.077 265.04C455.456 264.62 455.767 264.192 455.767 264.091C455.767 263.99 455.96 263.722 456.197 263.496C456.576 263.133 456.747 263.085 457.661 263.085C458.631 263.085 458.724 263.116 459.147 263.578C459.395 263.849 459.598 264.145 459.598 264.236C459.598 264.327 459.846 264.639 460.149 264.928C460.451 265.218 460.836 265.743 461.003 266.095C461.171 266.447 461.612 267.066 461.982 267.471C462.353 267.875 462.658 268.251 462.66 268.306C462.665 268.459 463.717 269.994 464.111 270.424C464.304 270.634 464.641 271.115 464.861 271.494C465.08 271.872 465.502 272.451 465.798 272.78C466.094 273.109 466.381 273.522 466.435 273.698C466.488 273.873 466.782 274.321 467.088 274.692C467.633 275.355 469.038 277.32 470.375 279.29C470.746 279.837 471.231 280.451 471.454 280.655C471.677 280.858 471.859 281.11 471.859 281.214C471.859 281.318 472.117 281.736 472.433 282.143C472.75 282.55 473.315 283.33 473.691 283.877C474.333 284.812 474.8 285.459 476.456 287.709C476.836 288.224 477.388 289.002 477.683 289.438C477.978 289.873 478.537 290.64 478.925 291.143C479.313 291.645 479.738 292.262 479.869 292.514C480 292.766 480.321 293.175 480.581 293.422C480.841 293.669 481.055 293.944 481.055 294.033C481.056 294.123 481.331 294.559 481.668 295.001C482.005 295.445 482.28 295.847 482.28 295.895C482.28 295.943 482.419 296.157 482.587 296.371C483.314 297.293 482.733 298.554 481.394 298.956C480.429 299.246 457.139 299.259 456.675 298.969C456.457 298.833 456.273 298.832 455.924 298.963C455.653 299.065 455.425 299.079 455.375 298.998Z" fill="#D23E47" stroke="#100F0F" stroke-opacity="0.74"/>
<path d="M30.114 296.306C30.1042 295.65 30.0865 281.805 30.0755 265.54L30.0547 235.966L32.3539 234.268C33.6185 233.334 35.1007 232.27 35.6486 231.902C36.1965 231.535 37.4385 230.671 38.4077 229.984C42.5426 227.05 47.6265 223.479 48.9058 222.61C54.471 218.831 54.8476 218.595 55.0549 218.767C55.28 218.953 55.3442 218.932 56.2626 218.371C56.5996 218.165 57.3236 217.775 57.8715 217.504C58.4194 217.233 59.1947 216.784 59.5947 216.506C59.994 216.227 60.4079 215.999 60.5137 215.999C60.6201 215.998 60.9143 215.861 61.1668 215.694C61.42 215.527 61.7367 215.39 61.8713 215.39C62.0058 215.389 62.2253 215.268 62.3598 215.121C62.4938 214.974 62.9359 214.69 63.3413 214.491C63.7467 214.291 64.3337 213.999 64.6456 213.841C64.9575 213.683 65.3029 213.554 65.4142 213.554C65.5249 213.554 65.8735 213.416 66.1878 213.248C66.5021 213.08 66.8659 212.942 66.9962 212.942C67.1264 212.942 67.489 212.815 67.8015 212.66C68.4717 212.328 70.0597 211.94 71.6582 211.718C72.2862 211.63 73.2175 211.45 73.7269 211.316C74.4704 211.121 75.5026 211.074 78.9453 211.078C81.3051 211.081 83.5811 211.151 84.003 211.234C84.4243 211.317 85.1832 211.463 85.6889 211.559C86.1946 211.655 87.0568 211.843 87.6047 211.976C88.1526 212.108 88.9108 212.267 89.2906 212.328C90.0305 212.448 90.4634 212.599 91.6656 213.158C92.0875 213.355 92.899 213.696 93.4695 213.917C94.0406 214.138 94.7989 214.506 95.1554 214.735C95.5119 214.965 96.1485 215.332 96.5704 215.551C97.8631 216.223 100.378 218.209 102.124 219.937C103.881 221.675 106.283 224.582 106.704 225.478C106.842 225.772 107.188 226.34 107.471 226.74C107.756 227.139 107.988 227.505 107.988 227.552C107.988 227.671 108.71 229.248 109.103 229.988C109.695 231.103 109.809 231.358 110.059 232.128C110.195 232.549 110.395 233.277 110.503 233.748C110.61 234.217 110.756 234.695 110.826 234.808C110.896 234.921 111.041 235.362 111.148 235.788C111.254 236.213 111.446 236.837 111.574 237.173C111.702 237.51 111.811 238.232 111.816 238.779C111.82 239.325 111.924 240.185 112.047 240.69C112.191 241.287 112.269 242.432 112.269 243.976L112.269 246.346L108.021 248.443C105.685 249.597 100.296 252.263 96.0445 254.368C91.794 256.472 88.229 258.194 88.1232 258.194C87.971 258.194 87.9483 257.271 88.0144 253.798C88.0902 249.829 88.0658 249.174 87.7643 247.034C87.5808 245.731 87.3277 244.32 87.2023 243.9C86.5872 241.844 86.1872 240.734 85.8723 240.202C85.6822 239.882 85.3214 239.28 85.0713 238.866C84.5154 237.946 82.1355 235.262 81.875 235.262C81.7717 235.262 81.4494 235.015 81.1589 234.713C80.7181 234.255 78.1192 232.816 77.7315 232.816C77.6667 232.816 77.4386 232.679 77.2246 232.511C77.01 232.342 76.6541 232.204 76.4339 232.203C76.2138 232.202 75.5962 232.064 75.0618 231.897C73.6529 231.456 69.8317 231.458 68.4466 231.899C67.9189 232.067 67.3172 232.205 67.1093 232.205C66.9014 232.205 66.5486 232.301 66.3247 232.42C66.1009 232.538 65.5041 232.819 64.9984 233.045C63.0154 233.929 62.6748 234.114 61.9825 234.678C61.5881 234.999 61.2182 235.262 61.1607 235.262C60.7534 235.262 58.025 238.154 58.025 238.585C58.025 238.665 57.88 238.862 57.7021 239.023C57.3144 239.372 56.7989 240.341 56.7983 240.721C56.7983 240.872 56.6601 241.22 56.492 241.496C56.3238 241.771 56.1838 242.081 56.1813 242.184C56.1783 242.287 56.007 242.715 55.7991 243.136C55.5918 243.556 55.4212 244.072 55.4194 244.282C55.4176 244.492 55.3014 245.043 55.1613 245.505C54.9326 246.259 54.9033 247.795 54.8733 260.334C54.855 268.028 54.8311 275.045 54.8195 275.928L54.7987 277.533L53.769 278.297C49.2776 281.631 43.9282 285.979 36.8416 292.056C34.1431 294.371 30.75 297.151 30.3488 297.376C30.1703 297.477 30.1287 297.288 30.114 296.306Z" fill="#B93948" stroke="#100F0F" stroke-opacity="0.74"/>
<path d="M334.665 300.397C334.665 300.319 335.501 298.032 336.522 295.314C337.543 292.596 338.602 289.754 338.875 288.997C341.048 282.956 341.432 282.132 342.597 281.016C343.356 280.289 343.511 280.206 344.116 280.206C344.487 280.206 345.047 280.097 345.36 279.963C345.674 279.829 346.241 279.629 346.62 279.519C347.678 279.21 348.646 278.85 349.096 278.598C349.319 278.474 349.589 278.372 349.694 278.372C349.8 278.372 350.252 278.096 350.699 277.76C351.145 277.424 351.584 277.149 351.674 277.149C351.969 277.149 355.147 273.874 355.457 273.25C355.625 272.914 356.084 272.007 356.478 271.235C356.872 270.462 357.195 269.719 357.195 269.581C357.195 269.444 357.327 269.009 357.489 268.616C357.651 268.222 357.828 267.457 357.883 266.916C357.938 266.374 358.086 265.732 358.212 265.489C358.402 265.123 358.455 263.904 358.516 258.447C358.556 254.818 358.609 251.263 358.634 250.548C358.658 249.833 358.689 248.832 358.703 248.323L358.727 247.397L359.857 247.208C360.478 247.104 362.392 246.535 364.11 245.943C365.827 245.351 369.199 244.214 371.601 243.416C374.004 242.617 377.589 241.424 379.568 240.763C381.548 240.102 383.179 239.573 383.194 239.589C383.209 239.605 383.262 244.914 383.312 251.389C383.479 273.124 383.573 283.923 383.634 288.309C383.702 293.239 383.424 297.294 382.952 298.246C382.442 299.275 382.878 299.236 371.642 299.271C360.535 299.305 360.838 299.327 360.063 298.409C359.555 297.808 359.412 296.204 359.554 292.716C359.626 290.937 359.607 290.136 359.49 290.064C359.121 289.837 358.494 290.217 356.924 291.617C356.019 292.425 355.107 293.194 354.896 293.327C354.685 293.459 354.22 293.831 353.863 294.151C353.505 294.471 352.954 294.851 352.637 294.995C352.32 295.14 351.839 295.444 351.567 295.672C351.14 296.032 350.547 296.348 348.765 297.166C348.554 297.263 348.003 297.541 347.539 297.784C347.076 298.027 346.585 298.231 346.448 298.236C346.312 298.241 345.864 298.376 345.452 298.537C345.041 298.698 344.187 298.979 343.554 299.162C342.922 299.345 342.06 299.599 341.639 299.727C341.217 299.854 339.562 300.087 337.96 300.245C334.513 300.583 334.665 300.575 334.665 300.397Z" fill="#F1952A" stroke="#100F0F" stroke-opacity="0.74"/>
<path d="M418.971 255.865C418.971 255.802 418.592 255.205 418.128 254.538C417.665 253.87 417.285 253.247 417.285 253.154C417.285 253.06 416.975 252.652 416.596 252.248C416.216 251.843 415.906 251.408 415.906 251.281C415.906 251.154 415.777 250.886 415.62 250.685C415.021 249.921 413.607 247.78 413.607 247.636C413.607 247.554 413.334 247.191 413.001 246.83C412.668 246.469 412.326 245.994 412.242 245.772C412.059 245.29 410.835 243.621 409.486 242.011C408.948 241.368 408.399 240.67 408.268 240.46C408.136 240.25 407.732 239.754 407.369 239.358C407.007 238.963 406.709 238.55 406.708 238.441C406.707 238.332 406.328 237.799 405.865 237.256C405.402 236.714 405.025 236.22 405.025 236.159C405.025 236.097 404.623 235.544 404.134 234.928C403.644 234.313 403.06 233.5 402.838 233.121C402.615 232.742 402.188 232.195 401.889 231.906C401.59 231.617 401.346 231.295 401.346 231.191C401.346 231.087 400.932 230.482 400.427 229.847C399.921 229.213 399.507 228.635 399.507 228.564C399.507 228.494 399.335 228.275 399.124 228.077C398.913 227.88 398.741 227.652 398.741 227.572C398.741 227.492 398.528 227.177 398.267 226.873C397.748 226.265 396.648 224.735 395.418 222.91C394.981 222.263 394.343 221.381 394 220.951C393.657 220.521 393.376 220.09 393.376 219.992C393.376 219.895 393.1 219.517 392.763 219.152C392.426 218.786 392.15 218.416 392.15 218.328C392.15 218.24 391.891 217.835 391.574 217.428C390.742 216.359 390.158 215.429 390.158 215.171C390.158 215.048 390.089 214.905 390.004 214.853C389.921 214.801 389.852 214.462 389.852 214.1C389.852 213.29 390.256 212.729 391.024 212.476C391.437 212.34 395.099 212.292 405.346 212.287L419.113 212.281L419.727 212.706C420.064 212.939 420.525 213.38 420.751 213.686C420.977 213.992 421.457 214.551 421.817 214.93C422.176 215.308 422.614 215.896 422.79 216.237C422.965 216.578 423.355 217.093 423.657 217.384C423.959 217.674 424.294 218.117 424.403 218.369C424.512 218.621 424.991 219.3 425.469 219.877C425.945 220.455 426.412 221.074 426.505 221.253C426.598 221.433 426.923 221.886 427.226 222.26C427.909 223.102 428.473 223.926 428.473 224.079C428.473 224.143 428.721 224.433 429.023 224.722C429.326 225.012 429.698 225.49 429.85 225.786C430.003 226.081 430.428 226.701 430.795 227.162C431.162 227.623 431.531 228.111 431.615 228.245C432.108 229.032 432.656 229.803 432.885 230.033C433.03 230.178 433.37 230.64 433.641 231.059C433.913 231.479 434.378 232.093 434.676 232.424C434.973 232.754 435.217 233.078 435.217 233.143C435.217 233.276 435.941 234.371 436.111 234.495C436.171 234.538 436.337 234.746 436.48 234.957C436.622 235.167 436.949 235.633 437.204 235.994C437.46 236.354 437.669 236.702 437.669 236.767C437.669 236.831 437.919 237.121 438.224 237.411C438.529 237.7 438.871 238.152 438.982 238.413C439.095 238.674 439.535 239.303 439.961 239.811C440.386 240.319 440.734 240.803 440.734 240.887C440.734 240.971 441.099 241.512 441.546 242.088C441.992 242.664 442.606 243.514 442.909 243.976C443.212 244.439 443.64 245.01 443.86 245.246C444.079 245.481 444.259 245.731 444.259 245.8C444.259 245.87 444.553 246.312 444.91 246.782C445.269 247.253 445.721 247.863 445.914 248.138C446.108 248.414 446.591 249.077 446.987 249.612C447.669 250.533 447.963 250.982 448.702 252.232C448.876 252.526 449.154 252.973 449.32 253.225C449.485 253.477 449.697 253.856 449.791 254.066C450.499 255.648 450.528 255.836 450.084 255.977C449.655 256.113 418.971 256.002 418.971 255.865Z" fill="#7A2E40" stroke="#100F0F" stroke-opacity="0.74"/>
<path d="M89.3992 299.041C88.6684 298.802 88.4067 298.598 88.2269 298.128C87.9909 297.507 87.835 278.854 87.9236 261.707L87.9407 258.267L88.8195 257.893C89.3025 257.688 92.2157 256.271 95.2921 254.744C109.437 247.724 112.187 246.394 112.303 246.517C112.371 246.589 112.477 252.771 112.538 260.254C112.599 267.738 112.666 275.649 112.687 277.835C112.8 289.915 112.756 296.653 112.557 297.389C112.298 298.35 111.851 298.856 111.262 298.856C111.013 298.856 110.565 298.957 110.268 299.081C109.806 299.273 108.267 299.302 99.8642 299.272C92.3148 299.246 89.8608 299.191 89.3992 299.041Z" fill="#F1952A" stroke="#100F0F" stroke-opacity="0.74"/>
<path d="M330.177 300.546C329.356 300.478 328.574 300.38 328.439 300.328C328.303 300.276 327.457 300.169 326.558 300.09C325.659 300.011 324.668 299.84 324.354 299.708C324.041 299.577 323.627 299.468 323.435 299.465C323.243 299.462 322.809 299.327 322.472 299.164C322.135 299.002 321.719 298.867 321.547 298.864C321.376 298.861 320.843 298.721 320.363 298.553C319.884 298.385 319.379 298.247 319.243 298.247C319.107 298.247 318.811 298.127 318.587 297.979C317.808 297.468 317.562 297.331 316.476 296.808C315.875 296.518 315.186 296.097 314.944 295.873C314.701 295.648 314.296 295.36 314.043 295.232C312.829 294.617 309.666 291.607 308.089 289.567C305.9 286.736 304.005 283.619 304.005 282.853C304.005 282.727 303.902 282.442 303.776 282.218C303.377 281.506 302.778 279.729 302.771 279.234C302.767 278.971 302.664 278.48 302.541 278.144C302.418 277.808 302.277 277.016 302.228 276.386C302.179 275.755 302.039 274.975 301.918 274.653C301.669 273.99 301.371 269.406 301.419 266.955L301.449 265.397L302.053 265.295C302.386 265.239 303.564 264.889 304.672 264.516C305.78 264.144 308.797 263.191 311.376 262.398C313.956 261.606 318.288 260.232 321.005 259.346C323.721 258.46 326.035 257.735 326.146 257.735C326.308 257.735 326.364 258.612 326.426 262.053C326.469 264.506 326.575 266.637 326.673 266.984C326.766 267.32 326.941 267.974 327.06 268.436C327.553 270.344 327.658 270.684 327.961 271.341C328.135 271.719 328.54 272.407 328.861 272.87C329.182 273.332 329.445 273.803 329.446 273.917C329.446 274.169 332.41 277.15 332.66 277.15C332.758 277.15 333.166 277.425 333.566 277.762C333.966 278.098 334.377 278.373 334.481 278.373C334.584 278.373 334.939 278.511 335.27 278.679C335.6 278.847 335.994 278.987 336.145 278.99C336.296 278.993 336.695 279.128 337.032 279.29C337.369 279.453 337.769 279.588 337.919 279.591C338.07 279.594 338.449 279.724 338.762 279.881C339.433 280.216 340.936 280.434 342.29 280.393L343.257 280.364L342.497 281.102C341.406 282.162 341.091 282.854 338.725 289.38C337.961 291.488 334.616 300.443 334.566 300.513C334.48 300.636 331.527 300.657 330.177 300.546Z" fill="#EE7A30" stroke="#100F0F" stroke-opacity="0.74"/>
<path d="M457.058 248.501C456.719 248.295 456.213 247.81 455.934 247.422C455.654 247.034 455.225 246.569 454.98 246.388C454.734 246.206 454.533 245.97 454.533 245.863C454.533 245.755 454.231 245.328 453.863 244.914C453.494 244.5 452.941 243.783 452.634 243.322C452.327 242.861 451.817 242.184 451.499 241.816C451.181 241.448 450.845 240.972 450.753 240.758C450.66 240.545 450.231 239.985 449.8 239.514C449.369 239.043 449.016 238.576 449.016 238.476C449.016 238.376 448.619 237.8 448.135 237.198C447.65 236.595 447.184 235.992 447.1 235.858C446.582 235.031 446.102 234.383 445.818 234.131C445.64 233.971 445.309 233.527 445.083 233.143C444.858 232.759 444.409 232.17 444.086 231.835C443.763 231.5 443.498 231.145 443.498 231.049C443.498 230.952 443.253 230.551 442.952 230.159C442.377 229.407 441.812 227.999 441.812 227.316C441.812 226.705 442.264 225.29 442.57 224.942C442.718 224.774 442.885 224.533 442.941 224.407C443.103 224.04 443.533 223.42 444.122 222.703C444.423 222.337 445.232 221.315 445.919 220.432C446.605 219.549 447.497 218.426 447.9 217.936C448.303 217.446 448.749 216.834 448.892 216.576C449.035 216.318 449.352 215.894 449.597 215.633C449.841 215.372 450.258 214.848 450.524 214.468C450.79 214.089 451.403 213.471 451.885 213.096C452.667 212.486 452.87 212.403 453.762 212.329C454.602 212.26 469.984 212.249 479.339 212.312L481.997 212.33L482.531 212.863C482.994 213.324 483.052 213.461 482.964 213.894C482.907 214.169 482.662 214.669 482.417 215.005C482.173 215.342 481.756 215.995 481.49 216.458C481.224 216.92 480.757 217.609 480.452 217.987C479.879 218.7 479.693 218.974 479.269 219.733C479.131 219.98 478.768 220.503 478.462 220.897C478.156 221.291 477.718 221.915 477.489 222.284C477.26 222.653 476.764 223.368 476.388 223.872C476.011 224.377 475.699 224.854 475.693 224.933C475.688 225.012 475.384 225.459 475.018 225.926C474.653 226.394 474.111 227.155 473.815 227.618C473.518 228.08 473.128 228.589 472.947 228.75C472.766 228.91 472.618 229.128 472.618 229.234C472.618 229.341 472.446 229.633 472.235 229.883C472.024 230.133 471.851 230.388 471.851 230.451C471.851 230.514 471.472 231.027 471.009 231.592C470.545 232.157 470.166 232.693 470.166 232.781C470.166 232.869 469.873 233.308 469.514 233.757C468.839 234.604 468.593 234.97 468.351 235.491C468.272 235.659 468.063 235.927 467.885 236.088C467.706 236.248 467.561 236.436 467.561 236.505C467.561 236.574 467.285 236.994 466.948 237.437C466.611 237.88 466.335 238.32 466.335 238.415C466.335 238.51 466.237 238.668 466.117 238.767C465.998 238.866 465.57 239.442 465.165 240.047C464.762 240.652 464.182 241.457 463.878 241.835C463.574 242.214 463.16 242.798 462.96 243.135C462.759 243.471 462.229 244.201 461.782 244.757C461.336 245.313 460.97 245.816 460.97 245.874C460.97 245.997 459.886 247.417 459.208 248.183C458.576 248.896 457.878 248.999 457.058 248.501Z" fill="#7A2E40" stroke="#100F0F" stroke-opacity="0.74"/>
<path d="M162.316 300.835C157.937 300.534 153.358 299.696 150.131 298.606C149.752 298.477 149.107 298.313 148.7 298.239C148.291 298.166 147.878 298.043 147.78 297.965C147.682 297.887 147.43 297.772 147.219 297.707C147.009 297.644 146.672 297.463 146.471 297.306C146.269 297.15 145.985 297.022 145.838 297.022C145.412 297.022 143.835 296.249 143.934 296.089C144.138 295.76 147.893 294.042 154.235 291.377C162.392 287.949 167.788 285.277 172.871 282.148C173.365 281.844 174.073 281.549 174.443 281.494C174.813 281.439 175.282 281.264 175.484 281.105C175.685 280.947 175.909 280.817 175.98 280.816C176.134 280.816 177.526 280.121 177.774 279.921C177.87 279.843 178.603 279.458 179.404 279.063C180.205 278.669 180.964 278.284 181.09 278.207C181.216 278.131 181.561 277.928 181.856 277.756C182.151 277.585 182.599 277.311 182.853 277.148C183.105 276.985 183.569 276.711 183.883 276.54C184.197 276.369 184.679 276.04 184.956 275.809C185.6 275.271 186.414 274.702 186.539 274.702C186.592 274.702 187.06 274.315 187.579 273.843C188.099 273.371 188.799 272.806 189.136 272.588C189.473 272.37 190.041 271.931 190.397 271.612C191.397 270.719 191.939 270.783 193.456 271.973C194.114 272.49 195.136 273.361 195.726 273.908C196.316 274.455 197.225 275.288 197.745 275.758C199.875 277.685 203.265 281.085 203.608 281.639L203.975 282.231L203.682 282.785C203.258 283.588 201.186 285.964 199.328 287.778C197.569 289.495 195.208 291.511 194.95 291.515C194.861 291.517 194.587 291.727 194.341 291.983C194.095 292.239 193.472 292.683 192.957 292.971C192.441 293.259 191.93 293.601 191.823 293.73C191.716 293.859 191.568 293.964 191.496 293.964C191.424 293.964 191.001 294.196 190.557 294.478C190.113 294.761 189.581 295.045 189.375 295.11C189.169 295.174 188.669 295.459 188.265 295.743C187.537 296.253 186.801 296.58 185.611 296.922C185.274 297.019 184.828 297.219 184.619 297.366C184.411 297.513 184.134 297.633 184.004 297.633C183.874 297.633 183.51 297.771 183.196 297.939C182.881 298.107 182.483 298.245 182.311 298.245C182.138 298.245 181.742 298.373 181.429 298.529C181.116 298.685 180.576 298.857 180.229 298.91C179.882 298.963 179.399 299.11 179.156 299.236C178.913 299.363 178.523 299.467 178.288 299.467C178.054 299.467 177.613 299.571 177.309 299.698C177.006 299.824 176.129 299.998 175.361 300.083C174.592 300.169 173.549 300.312 173.044 300.403C170.92 300.782 165.006 301.021 162.316 300.835Z" fill="#EA613A" stroke="#100F0F" stroke-opacity="0.74"/>
<path d="M206.858 299.133C206.226 299.074 205.432 298.967 205.095 298.896C204.497 298.77 204.482 298.75 204.436 298.061C204.404 297.572 204.486 297.175 204.705 296.77C204.877 296.448 205.019 296.099 205.019 295.995C205.019 295.751 205.864 294.447 206.767 293.295C207.154 292.802 207.471 292.311 207.471 292.205C207.471 291.948 208.637 290.906 208.924 290.906C209.048 290.906 209.268 290.726 209.413 290.506C209.662 290.126 209.662 290.094 209.407 289.909C209.161 289.729 209.191 289.67 209.767 289.209C210.359 288.734 210.611 288.398 210.984 287.581C211.071 287.392 211.274 287.237 211.435 287.237C211.596 287.237 211.878 287.117 212.061 286.969C212.329 286.752 212.366 286.627 212.254 286.325C212.101 285.912 212.554 285.005 213.51 283.808C213.784 283.466 214.307 282.705 214.673 282.116C215.038 281.527 215.602 280.732 215.926 280.348C216.248 279.965 216.513 279.571 216.513 279.474C216.513 279.377 216.806 278.962 217.165 278.553C217.523 278.143 218.005 277.504 218.237 277.133C218.468 276.763 218.938 276.081 219.28 275.619C219.622 275.156 220.153 274.399 220.462 273.937C220.769 273.475 221.248 272.814 221.526 272.469C221.803 272.124 222.031 271.772 222.031 271.687C222.031 271.602 222.245 271.265 222.508 270.939C222.963 270.371 223.29 269.902 225.167 267.134C225.622 266.461 226.193 265.67 226.435 265.376C226.677 265.082 227.13 264.462 227.442 264C228.573 262.321 230.09 260.212 230.652 259.537C230.968 259.158 231.226 258.775 231.226 258.686C231.226 258.597 231.522 258.157 231.883 257.707C232.243 257.259 232.659 256.702 232.806 256.471L233.072 256.05H248.702C257.298 256.05 264.331 256.086 264.331 256.129C264.331 256.172 264.251 256.361 264.153 256.549C264.056 256.738 263.905 257.029 263.818 257.197C263.731 257.365 263.506 257.818 263.318 258.202C263.13 258.587 262.813 259.103 262.613 259.349C262.413 259.595 262.164 259.968 262.058 260.178C261.738 260.817 261.517 261.16 261.018 261.791C260.756 262.123 260.411 262.627 260.252 262.911C259.592 264.088 259.484 264.251 259.066 264.688C258.826 264.94 258.451 265.456 258.234 265.834C258.016 266.213 257.592 266.805 257.291 267.152C256.99 267.498 256.572 268.078 256.361 268.441C256.151 268.805 255.67 269.485 255.292 269.953C254.914 270.421 254.498 271.01 254.366 271.262C254.235 271.513 253.885 271.981 253.59 272.299C253.295 272.618 252.92 273.135 252.759 273.446C252.597 273.758 252.169 274.337 251.807 274.733C251.446 275.129 251.151 275.518 251.151 275.598C251.151 275.678 250.861 276.11 250.506 276.557C250.152 277.004 249.549 277.823 249.165 278.377C248.782 278.932 248.158 279.807 247.779 280.323C246.362 282.251 245.852 282.963 244.986 284.223C244.71 284.625 244.191 285.339 243.832 285.809C243.474 286.278 243.181 286.732 243.181 286.818C243.181 286.903 242.905 287.272 242.568 287.637C242.231 288.002 241.955 288.368 241.955 288.452C241.955 288.535 241.403 289.334 240.728 290.227C240.054 291.121 239.502 291.911 239.502 291.982C239.502 292.053 239.157 292.504 238.736 292.985C238.315 293.465 237.97 293.911 237.97 293.975C237.97 294.04 237.626 294.493 237.205 294.983C236.784 295.474 236.439 295.944 236.438 296.028C236.437 296.111 235.902 296.744 235.249 297.433C234.432 298.296 233.919 298.713 233.602 298.773C233.349 298.822 232.866 298.942 232.529 299.042C231.839 299.245 208.906 299.327 206.858 299.133Z" fill="#EE7A30" stroke="#100F0F" stroke-opacity="0.74"/>
<path d="M233.059 255.848C233.059 255.735 232.921 255.518 232.752 255.366C232.584 255.214 232.445 255.021 232.445 254.938C232.445 254.856 232.199 254.505 231.897 254.159C231.595 253.814 231.118 253.187 230.836 252.767C230.553 252.347 229.783 251.221 229.123 250.265C228.464 249.31 227.683 248.137 227.388 247.66C227.093 247.183 226.604 246.486 226.302 246.111C226 245.735 225.592 245.154 225.396 244.817C225.199 244.481 224.818 243.931 224.549 243.594C224.28 243.258 223.844 242.599 223.579 242.132C223.315 241.663 222.921 241.113 222.704 240.91C222.488 240.707 222.21 240.334 222.087 240.081C221.965 239.827 221.497 239.13 221.046 238.533C220.596 237.935 220.097 237.215 219.938 236.933C219.778 236.65 219.355 236.053 218.997 235.606C218.639 235.158 218.346 234.719 218.346 234.629C218.346 234.539 218.13 234.195 217.868 233.865C217.198 233.021 216.046 231.291 216.046 231.128C216.046 231.054 215.736 230.644 215.357 230.218C214.978 229.791 214.668 229.355 214.668 229.248C214.668 229.141 214.353 228.686 213.969 228.237C213.586 227.789 213.142 227.169 212.985 226.86C212.826 226.552 212.588 226.209 212.456 226.099C212.324 225.99 212.215 225.82 212.215 225.723C212.215 225.626 212.02 225.333 211.781 225.072C211.542 224.811 211.151 224.262 210.912 223.853C210.673 223.444 210.26 222.834 209.994 222.497C209.527 221.907 208.183 219.937 207.234 218.452C206.981 218.056 206.548 217.428 206.271 217.057C205.994 216.686 205.416 215.845 204.986 215.188C204.064 213.779 204.092 213.539 205.268 212.861L206.008 212.434L211.296 212.338C217.016 212.235 232.78 212.282 233.303 212.403C233.709 212.498 235.382 214.412 236.967 216.598C237.641 217.527 238.521 218.71 238.921 219.227C239.321 219.744 239.649 220.234 239.649 220.317C239.649 220.4 239.913 220.787 240.236 221.177C240.559 221.567 241.284 222.574 241.847 223.415C242.409 224.255 243.024 225.149 243.213 225.401C243.402 225.653 244.135 226.65 244.843 227.618C245.55 228.586 246.429 229.767 246.797 230.243C247.164 230.719 247.465 231.164 247.465 231.23C247.465 231.297 247.702 231.595 247.993 231.893C248.282 232.191 248.626 232.641 248.756 232.893C248.886 233.145 249.307 233.764 249.692 234.269C251.276 236.347 252.834 238.497 253.041 238.892C253.162 239.124 253.475 239.516 253.735 239.763C253.996 240.01 254.208 240.295 254.208 240.397C254.208 240.498 254.761 241.284 255.434 242.142C256.109 243 256.661 243.764 256.661 243.839C256.661 243.914 256.893 244.234 257.177 244.55C257.461 244.865 257.935 245.502 258.231 245.964C258.527 246.426 258.924 246.942 259.111 247.111C259.298 247.279 259.583 247.657 259.744 247.951C260.2 248.787 260.374 249.047 260.986 249.809C261.3 250.2 261.727 250.837 261.934 251.226C262.141 251.614 262.511 252.189 262.756 252.502C263.214 253.087 264.017 254.716 264.477 255.843C264.477 256.021 262.009 256.054 248.768 256.054C235.711 256.054 233.059 256.019 233.059 255.848Z" fill="#9B3446" stroke="#100F0F" stroke-opacity="0.74"/>
<path d="M121.987 241.416C122.254 240.569 122.601 239.742 122.773 239.541C122.882 239.415 123.017 239.105 123.073 238.853C123.229 238.156 124.249 236.012 124.643 235.554C124.758 235.422 124.851 235.228 124.851 235.124C124.851 234.88 125.517 233.539 126.073 232.662C126.314 232.283 126.696 231.608 126.923 231.161C127.15 230.714 127.742 229.837 128.239 229.214C128.736 228.59 129.143 228.023 129.143 227.953C129.143 227.781 130.854 225.853 132.482 224.19C134.145 222.492 136.904 220.002 137.765 219.421C138.122 219.181 138.73 218.725 139.114 218.408C139.499 218.092 139.902 217.833 140.009 217.833C140.117 217.833 140.595 217.573 141.072 217.256C142.299 216.438 142.436 216.361 143.549 215.849C144.097 215.597 144.648 215.321 144.775 215.235C144.901 215.149 145.143 215.019 145.311 214.945C146.205 214.553 146.404 214.46 146.614 214.34C146.99 214.124 148.324 213.692 149.098 213.535C149.495 213.454 150.012 213.287 150.248 213.165C150.483 213.043 150.799 212.942 150.948 212.942C151.099 212.941 151.478 212.83 151.792 212.695C152.326 212.464 153.647 212.243 156.729 211.868C157.445 211.78 158.48 211.608 159.028 211.486C161.64 210.904 168.013 210.829 170.829 211.347C171.546 211.478 172.684 211.651 173.358 211.73C174.032 211.809 174.791 211.949 175.044 212.041C175.297 212.132 175.917 212.262 176.423 212.33C177.344 212.455 178.274 212.724 179.565 213.242C179.945 213.393 180.772 213.669 181.404 213.854C182.731 214.241 183.251 214.455 185.045 215.349C185.762 215.706 186.419 215.998 186.505 215.998C186.59 215.998 187.047 216.256 187.519 216.571C187.991 216.886 188.515 217.218 188.684 217.309C189.466 217.728 189.806 217.947 190.447 218.449C190.826 218.745 191.339 219.089 191.588 219.213C191.836 219.337 192.422 219.785 192.89 220.21C193.358 220.635 193.949 221.139 194.202 221.33C195.42 222.254 198.538 225.51 199.642 227.011C199.937 227.412 200.485 228.099 200.86 228.538L201.541 229.336L201.09 229.245C200.471 229.119 195.603 228.587 192.899 228.348C189.875 228.081 175.868 228.082 172.745 228.348C167.917 228.761 161.679 229.602 158.952 230.209C158.615 230.284 157.58 230.497 156.652 230.681C149.225 232.155 139.293 235.123 131.748 238.121C129.936 238.841 127.763 239.653 126.92 239.925C126.077 240.197 124.603 240.705 123.645 241.053C122.184 241.583 121.916 241.642 121.987 241.416Z" fill="#7A2E40" stroke="#100F0F" stroke-opacity="0.74"/>
<path d="M143.164 295.711C142.91 295.5 142.496 295.228 142.244 295.108C141.697 294.847 141.44 294.684 140.378 293.927C139.936 293.612 139.529 293.354 139.473 293.354C139.417 293.354 138.707 292.854 137.896 292.244C137.083 291.633 136.248 291.022 136.037 290.886C135.247 290.374 131.275 286.425 130.446 285.325C129.971 284.696 129.521 284.181 129.446 284.181C129.319 284.181 129.122 283.879 128.653 282.958C128.546 282.748 128.164 282.208 127.803 281.76C127.443 281.31 127.147 280.877 127.147 280.797C127.147 280.671 126.638 279.792 125.959 278.746C125.853 278.582 125.521 277.967 125.22 277.378C124.921 276.789 124.47 275.972 124.218 275.56C123.779 274.845 123.497 274.19 123.123 273.021C123.029 272.727 122.827 272.304 122.674 272.081C122.521 271.857 122.397 271.58 122.397 271.464C122.397 271.349 122.291 271.104 122.161 270.92C122.032 270.736 121.755 269.947 121.545 269.166C121.334 268.385 121.062 267.432 120.939 267.047C120.817 266.663 120.653 265.895 120.574 265.343C120.495 264.791 120.344 264.176 120.237 263.979C120.13 263.781 119.993 262.828 119.932 261.861C119.872 260.894 119.74 259.632 119.639 259.056C119.274 256.97 119.726 249.312 120.315 247.579C120.448 247.188 120.557 246.696 120.557 246.487C120.557 246.277 120.668 245.849 120.804 245.537C120.939 245.224 121.138 244.487 121.245 243.898C121.351 243.309 121.567 242.561 121.726 242.236C122.002 241.669 122.098 241.614 124.083 240.894C125.22 240.482 126.53 240.034 126.994 239.9C127.458 239.766 129.458 239.016 131.439 238.234C139.402 235.088 149.135 232.173 156.65 230.68C157.578 230.496 158.612 230.284 158.949 230.209C160.431 229.88 165.304 229.128 167.761 228.849C173.242 228.228 174.883 228.152 182.858 228.152C190.811 228.152 192.117 228.212 197.877 228.848C201.075 229.202 201.479 229.271 201.479 229.467C201.479 229.546 201.743 229.902 202.064 230.257C202.386 230.613 202.841 231.237 203.075 231.645C203.31 232.052 203.771 232.769 204.1 233.237C204.428 233.705 204.697 234.153 204.697 234.231C204.697 234.31 204.795 234.59 204.915 234.855C205.464 236.072 205.771 236.843 205.771 237.006C205.771 237.104 205.91 237.456 206.081 237.789C206.251 238.122 206.43 238.67 206.478 239.006C206.526 239.342 206.696 240.013 206.857 240.498C207.018 240.981 207.15 241.497 207.151 241.644C207.151 241.79 207.255 242.109 207.382 242.352C207.509 242.594 207.656 243.075 207.709 243.422C207.762 243.768 207.9 244.238 208.015 244.465C208.604 245.631 209.022 251.097 208.959 256.816C208.906 261.792 208.869 261.958 207.714 262.481C207.091 262.764 206.176 262.772 175 262.775L142.927 262.778L142.755 263.154C142.574 263.551 142.768 264.581 143.175 265.377C143.349 265.719 143.696 266.471 144.54 268.344C145.45 270.361 149.807 275.368 151.899 276.801C152.236 277.032 152.823 277.474 153.202 277.783C153.581 278.092 154.202 278.5 154.581 278.689C154.96 278.878 155.409 279.149 155.577 279.29C155.91 279.569 158.557 280.73 159.179 280.87C159.39 280.917 160.183 281.171 160.941 281.433C161.965 281.788 162.795 281.95 164.16 282.066C165.94 282.216 171.628 282.138 172.684 281.949C173.193 281.857 173.189 281.865 172.419 282.397C171.173 283.257 166.516 285.816 164.007 287.019C161.059 288.431 157.952 289.818 154.24 291.378C149.596 293.329 146.493 294.702 145.071 295.432C144.35 295.803 143.729 296.103 143.691 296.1C143.654 296.097 143.416 295.922 143.164 295.711ZM185.356 246.629C185.876 246.297 185.925 246.015 185.632 245.062C184.936 242.804 184.456 241.749 183.916 241.292C183.812 241.204 183.635 240.911 183.522 240.641C183.108 239.646 179.786 236.053 177.935 234.596C176.618 233.559 173.695 231.814 172.996 231.645C172.773 231.591 172.348 231.426 172.053 231.28C170.836 230.672 170.029 230.369 169.635 230.369C169.405 230.369 168.677 230.265 168.016 230.139C166.435 229.837 162.682 229.839 161.248 230.142C160.658 230.266 159.921 230.369 159.61 230.369C159.3 230.369 158.851 230.443 158.614 230.533C158.377 230.623 157.907 230.757 157.57 230.83C155.499 231.28 155.44 231.307 154.542 232.184C154.056 232.657 153.303 233.234 152.869 233.466C151.941 233.962 151.118 234.652 149.086 236.637C147.388 238.294 146.451 239.355 146.146 239.961C146.03 240.193 145.721 240.657 145.46 240.994C145.198 241.33 144.657 242.293 144.258 243.134C143.859 243.975 143.433 244.858 143.31 245.096C142.853 245.981 143.18 246.659 144.161 246.859C144.421 246.912 153.717 246.933 164.819 246.906C182.319 246.862 185.051 246.825 185.356 246.629Z" fill="#D23E47" stroke="#100F0F" stroke-opacity="0.74"/>
<path d="M382.141 238.613C381.662 238.542 380.386 238.28 379.306 238.029C374.548 236.925 369.834 236.142 363.411 235.39C361.018 235.11 359.057 234.811 358.956 234.711C358.725 234.479 358.464 226.109 358.504 220.203C358.527 216.867 358.584 215.77 358.763 215.234C358.889 214.856 359.034 214.267 359.084 213.925C359.133 213.584 359.284 213.085 359.418 212.817L359.662 212.329L363.214 212.31C365.168 212.3 370.276 212.299 374.566 212.307C383.318 212.325 382.936 212.275 383.254 213.437C383.386 213.918 383.408 216.903 383.339 224.865C383.289 230.793 383.246 236.348 383.245 237.21C383.243 238.072 383.19 238.769 383.127 238.758C383.064 238.748 382.62 238.682 382.141 238.613Z" fill="#7A2E40" stroke="#100F0F" stroke-opacity="0.74"/>
<path d="M31.9188 298.974C31.1569 298.887 30.7527 298.758 30.5014 298.522C29.9498 298.006 30.0568 297.631 30.9545 296.931C32.748 295.533 34.6455 293.967 37.0254 291.919C43.5231 286.328 48.2212 282.498 53.2917 278.659C54.0084 278.116 54.6651 277.63 54.7513 277.576C54.8584 277.51 54.8969 280.694 54.873 287.502L54.8376 297.524L54.4413 298.121C54.2242 298.448 53.8592 298.794 53.6305 298.887C53.1358 299.091 33.612 299.169 31.9188 298.974Z" fill="#F2852F" stroke="#100F0F" stroke-opacity="0.74"/>
<path d="M209.906 289.01C209.906 288.805 210.855 287.523 210.942 287.61C210.989 287.657 210.914 287.822 210.774 287.977C210.634 288.131 210.519 288.327 210.519 288.412C210.519 288.498 210.381 288.692 210.213 288.844C210.044 288.997 209.906 289.071 209.906 289.01Z" fill="#F2852F" stroke="#100F0F" stroke-opacity="0.74"/>
<path d="M208.701 290.593C208.902 290.017 209.245 289.734 209.47 289.959C209.69 290.178 209.279 290.835 208.852 290.946C208.58 291.017 208.565 290.981 208.701 290.593Z" fill="#F2852F" stroke="#100F0F" stroke-opacity="0.74"/>
<path d="M270.553 248.294C270.011 247.881 269.315 247.075 268.026 245.369C267.67 244.896 266.962 243.986 266.455 243.347C265.948 242.707 265.533 242.119 265.533 242.041C265.533 241.962 265.218 241.592 264.831 241.217C264.445 240.841 264.022 240.328 263.891 240.076C263.761 239.824 263.37 239.303 263.022 238.918C262.378 238.205 261.245 236.717 260.371 235.439C260.103 235.047 259.668 234.472 259.404 234.161C259.139 233.851 258.73 233.22 258.494 232.76C258.259 232.3 257.815 231.619 257.509 231.245C257.202 230.872 256.95 230.47 256.95 230.353C256.949 230.235 256.836 229.933 256.7 229.681C256.562 229.427 256.418 228.706 256.376 228.068C256.315 227.113 256.358 226.792 256.626 226.204C256.805 225.813 256.951 225.433 256.951 225.359C256.951 225.285 257.244 224.838 257.602 224.366C257.96 223.895 258.495 223.156 258.79 222.725C259.085 222.294 259.619 221.578 259.978 221.133C260.336 220.688 260.629 220.224 260.629 220.102C260.629 219.98 260.874 219.643 261.173 219.355C261.471 219.066 261.898 218.519 262.121 218.14C262.344 217.761 262.926 216.947 263.416 216.332C263.907 215.717 264.307 215.156 264.307 215.085C264.307 214.83 266.308 212.968 266.927 212.645C267.555 212.319 267.625 212.317 277.849 212.309C283.509 212.304 289.742 212.307 291.7 212.315L295.261 212.329L295.741 212.757L296.22 213.184L295.95 214.018C295.467 215.508 294.531 217.329 293.689 218.416C293.236 219.001 292.777 219.694 292.668 219.955C292.559 220.218 292.417 220.432 292.352 220.432C292.287 220.432 291.814 221.033 291.301 221.77C289.967 223.682 288.482 225.744 287.845 226.571C287.543 226.963 287.296 227.356 287.296 227.445C287.296 227.534 287.003 227.946 286.645 228.362C286.287 228.777 285.66 229.622 285.251 230.24C284.003 232.127 283.501 232.856 282.845 233.732C282.499 234.194 281.997 234.896 281.729 235.291C281.461 235.685 280.949 236.388 280.591 236.851C280.233 237.315 279.94 237.756 279.94 237.833C279.94 237.91 279.526 238.49 279.02 239.122C278.515 239.754 278.101 240.335 278.101 240.413C278.101 240.49 277.888 240.756 277.627 241.003C277.367 241.25 277.047 241.659 276.917 241.911C276.786 242.163 276.216 242.954 275.648 243.669C275.082 244.384 274.509 245.181 274.376 245.44C274.243 245.7 273.906 246.087 273.627 246.301C273.348 246.515 272.947 246.969 272.737 247.31C272.526 247.65 272.216 248.001 272.047 248.09C271.879 248.178 271.598 248.355 271.423 248.483C271.131 248.696 271.062 248.681 270.553 248.294Z" fill="#9B3446" stroke="#100F0F" stroke-opacity="0.74"/>
<path d="M30.0021 224.963C29.9899 218.897 30.0327 213.754 30.0975 213.534C30.1617 213.314 30.4307 212.954 30.6943 212.733L31.1737 212.333L37.9741 212.312C41.7146 212.301 46.7074 212.299 49.0703 212.31L53.3654 212.329L53.8222 212.75C54.2698 213.161 54.2851 213.225 54.567 215.888C54.7247 217.384 54.8281 218.625 54.7957 218.648C54.7632 218.67 53.7366 219.36 52.5142 220.181C48.0423 223.184 45.6783 224.827 38.4144 229.982C37.4452 230.669 36.2032 231.533 35.6553 231.9C35.1074 232.268 33.6166 233.338 32.3423 234.28L30.0247 235.992L30.0021 224.963Z" fill="#7A2E40" stroke="#100F0F" stroke-opacity="0.74"/>
<path d="M358.792 241.14C358.819 237.73 358.867 234.92 358.898 234.894C358.982 234.824 368.118 235.949 370.527 236.326C371.665 236.504 374.08 236.951 375.891 237.321C379.411 238.038 382.34 238.624 382.902 238.722C383.369 238.805 383.339 239.207 382.858 239.328C382.592 239.394 382.372 239.338 381.372 239.841C381.096 239.942 380.742 240.095 380.585 240.178C380.428 240.262 379.26 240.669 377.99 241.08C376.721 241.492 375.643 241.888 375.594 241.959C375.547 242.031 373.645 242.713 371.369 243.476C369.093 244.239 366.024 245.287 364.549 245.804C361.916 246.726 359.744 247.335 359.079 247.337L358.742 247.338L358.792 241.14Z" fill="#D23E47" stroke="#100F0F" stroke-opacity="0.74"/>
<path d="M392.222 299.151C392.054 299.085 391.588 299.025 391.188 299.02C390.406 299.008 389.843 298.633 389.852 298.129C389.862 297.564 390.436 296.229 391.085 295.258C391.458 294.7 391.896 294.026 392.06 293.76C392.223 293.494 392.642 292.897 392.99 292.435C393.338 291.973 393.874 291.214 394.18 290.749C394.486 290.284 394.918 289.733 395.14 289.526C395.362 289.318 395.643 288.914 395.763 288.628C395.883 288.341 396.226 287.825 396.526 287.481C397.212 286.694 398.24 285.315 399.108 284.019C399.477 283.47 399.891 282.927 400.028 282.813C400.29 282.595 401.188 281.323 401.188 281.169C401.188 281.118 401.498 280.747 401.878 280.342C402.257 279.938 402.568 279.527 402.568 279.431C402.568 279.334 402.826 278.921 403.142 278.514C403.458 278.107 403.992 277.391 404.33 276.922C404.667 276.454 405.253 275.672 405.632 275.184C406.012 274.697 406.46 274.032 406.629 273.708C406.797 273.384 407.148 272.907 407.408 272.648C407.667 272.39 408.076 271.835 408.316 271.414C408.556 270.994 408.842 270.581 408.952 270.497C409.061 270.413 409.599 269.725 410.147 268.968C410.695 268.211 411.315 267.391 411.526 267.144C411.736 266.897 412.016 266.468 412.148 266.19C412.281 265.911 412.628 265.426 412.92 265.11C413.211 264.794 413.494 264.397 413.548 264.229C413.602 264.061 414.067 263.322 414.582 262.588C415.097 261.854 415.625 261.056 415.756 260.813C415.887 260.572 416.232 260.076 416.523 259.713C416.813 259.349 417.119 258.904 417.204 258.723C417.288 258.543 417.736 257.87 418.2 257.227L419.043 256.058L420.729 256.02C424.296 255.938 450.345 255.979 450.207 256.065C450.126 256.115 450.105 256.332 450.159 256.548C450.258 256.94 449.933 257.794 449.351 258.674C449.203 258.898 448.848 259.482 448.562 259.973C448.275 260.463 447.775 261.178 447.451 261.562C447.125 261.947 446.86 262.31 446.86 262.37C446.86 262.43 446.308 263.232 445.634 264.153C444.959 265.074 444.408 265.874 444.408 265.93C444.408 265.986 444.097 266.363 443.718 266.768C443.339 267.172 443.028 267.582 443.028 267.679C443.028 267.775 442.674 268.299 442.24 268.844C441.384 269.916 440.729 270.842 440.729 270.98C440.729 271.027 440.466 271.385 440.144 271.775C439.822 272.165 439.396 272.76 439.197 273.096C438.997 273.432 438.583 274.017 438.275 274.396C437.968 274.774 437.677 275.19 437.63 275.32C437.583 275.45 437.207 276.001 436.795 276.543C436.046 277.53 435.576 278.191 435.289 278.661C434.942 279.228 434.359 280.009 433.881 280.549C433.602 280.865 433.373 281.213 433.373 281.323C433.373 281.433 433.16 281.726 432.899 281.973C432.639 282.219 432.32 282.628 432.19 282.88C432.061 283.132 431.584 283.8 431.131 284.363C430.678 284.926 430.307 285.427 430.307 285.477C430.307 285.593 429.772 286.355 429.071 287.237C428.77 287.616 428.363 288.191 428.167 288.515C427.779 289.155 426.321 291.175 425.144 292.704C424.739 293.231 424.338 293.823 424.254 294.022C424.169 294.22 423.807 294.699 423.449 295.087C423.091 295.474 422.798 295.855 422.798 295.932C422.798 296.009 422.165 296.695 421.392 297.457C420.175 298.656 419.881 298.867 419.208 299.026C418.307 299.239 392.745 299.358 392.222 299.151Z" fill="#F1952A" stroke="#100F0F" stroke-opacity="0.74"/>
<path d="M154.93 231.828C155.422 231.333 155.666 231.241 157.583 230.831C158.285 230.682 158.535 230.757 157.869 230.918C157.628 230.977 157.247 231.151 157.023 231.308C156.799 231.463 156.538 231.591 156.441 231.591C156.344 231.591 156.049 231.703 155.784 231.839C155.519 231.976 155.104 232.145 154.862 232.214L154.422 232.34L154.93 231.828Z" fill="#D63F45" stroke="#100F0F" stroke-opacity="0.74"/>
<path d="M301.258 263.817C301.111 262.621 301.058 256.536 301.037 238.546L301.008 214.85L301.359 214.287C301.766 213.634 302.567 212.899 303.262 212.541C303.701 212.314 304.818 212.29 314.533 212.297C322.452 212.302 325.375 212.352 325.531 212.482C325.649 212.578 325.886 212.949 326.058 213.305C326.371 213.949 326.373 214.087 326.373 235.842C326.373 254.689 326.343 257.732 326.154 257.732C326.034 257.732 323.713 258.457 320.997 259.343C318.281 260.229 313.948 261.603 311.368 262.395C308.789 263.188 305.772 264.141 304.665 264.513C303.557 264.886 302.381 265.236 302.051 265.291L301.452 265.392L301.258 263.817Z" fill="#B93948" stroke="#100F0F" stroke-opacity="0.74"/>
<path d="M266.691 298.998C266.264 298.942 265.771 298.82 265.596 298.727C265.295 298.566 264.327 297.459 264.327 297.276C264.327 297.181 262.245 294.332 261.272 293.095C260.929 292.658 260.649 292.256 260.649 292.2C260.649 292.145 260.252 291.594 259.767 290.976C259.282 290.358 258.403 289.182 257.813 288.362C257.223 287.542 256.533 286.592 256.278 286.252C256.024 285.912 255.686 285.339 255.525 284.979L255.234 284.326L255.659 283.883C255.893 283.64 256.038 283.367 255.982 283.276C255.923 283.181 255.998 283.108 256.157 283.105C256.548 283.097 257.216 282.492 257.326 282.046C257.383 281.815 257.332 281.574 257.195 281.424C256.998 281.206 257.024 281.13 257.422 280.749C257.668 280.513 258.03 280.239 258.225 280.139C258.467 280.016 258.567 279.844 258.539 279.602C258.486 279.134 259.385 277.954 259.882 277.839C260.292 277.745 260.695 277.102 260.479 276.888C260.408 276.816 260.663 276.359 261.045 275.873C261.612 275.152 261.782 275.021 261.96 275.168C262.079 275.267 262.281 275.308 262.409 275.259C262.673 275.158 262.722 274.618 262.481 274.469C262.064 274.212 262.768 273.244 263.819 272.63C264.483 272.242 264.612 272.05 264.327 271.874C264.103 271.736 264.138 271.549 264.441 271.247C264.709 270.979 264.761 270.904 265.323 269.977C265.492 269.699 265.906 269.103 266.242 268.653C266.579 268.202 267.097 267.482 267.392 267.053C267.687 266.624 268.163 265.985 268.449 265.634C268.735 265.282 269.208 264.636 269.501 264.198C270.388 262.87 271.661 262.722 272.627 263.835C273.528 264.873 274.201 265.732 274.61 266.366C274.828 266.704 275.464 267.601 276.023 268.358C276.582 269.115 277.316 270.112 277.655 270.575C277.994 271.037 278.601 271.862 279.003 272.409C279.405 272.956 279.901 273.678 280.103 274.014C280.306 274.351 280.77 274.98 281.135 275.415C281.5 275.848 281.799 276.249 281.799 276.305C281.799 276.361 282.126 276.824 282.527 277.334C283.485 278.553 284.097 279.424 284.097 279.569C284.097 279.633 284.379 279.957 284.722 280.29C285.065 280.622 285.437 281.1 285.547 281.352C285.657 281.604 286.082 282.235 286.493 282.754C286.904 283.273 287.55 284.123 287.929 284.644C288.308 285.165 288.838 285.876 289.107 286.224C289.375 286.572 289.599 286.928 289.605 287.016C289.61 287.104 289.891 287.463 290.228 287.813C290.565 288.163 290.842 288.503 290.843 288.57C290.847 288.724 291.58 289.794 292.031 290.304C292.221 290.518 292.772 291.253 293.256 291.936C295.34 294.878 295.894 295.619 296.05 295.671C296.275 295.746 296.65 296.833 296.658 297.436C296.668 298.207 296.372 298.683 295.759 298.878C295.15 299.07 268.106 299.183 266.691 298.998Z" fill="#EE7A30" stroke="#100F0F" stroke-opacity="0.74"/>
</svg>
