<svg width="178" height="93" viewBox="0 0 178 93" fill="none" xmlns="http://www.w3.org/2000/svg">
<path d="M10.94 79.396C10.94 79.412 10.94 79.428 10.94 79.444C10.956 79.444 10.972 79.444 10.988 79.444H20.348V86.5H0.98C0.98 85.508 0.98 84.516 0.98 83.524C0.98 82.532 0.98 81.54 0.98 80.548C0.98 79.54 0.98 78.54 0.98 77.548C0.98 76.556 0.98 75.564 0.98 74.572C0.98 73.564 0.98 72.556 0.98 71.548C0.98 70.524 0.98 69.508 0.98 68.5H10.94C10.94 69.412 10.94 70.324 10.94 71.236C10.94 72.132 10.94 73.036 10.94 73.948C10.94 74.86 10.94 75.772 10.94 76.684C10.94 77.58 10.94 78.484 10.94 79.396ZM42.5203 74.548H32.0803C32.0643 74.548 32.0563 74.548 32.0563 74.548V75.868C32.0563 75.884 32.0563 75.9 32.0563 75.916C32.0723 75.916 32.0803 75.916 32.0803 75.916H42.1603V79.3H32.0803C32.0803 79.3 32.0723 79.3 32.0563 79.3C32.0563 79.3 32.0563 79.308 32.0563 79.324C32.0563 79.324 32.0563 79.332 32.0563 79.348V80.692C32.0723 80.692 32.0803 80.692 32.0803 80.692H42.6643V86.5H22.3363C22.3363 85.556 22.3363 84.612 22.3363 83.668C22.3363 82.708 22.3363 81.756 22.3363 80.812C22.3363 79.868 22.3363 78.924 22.3363 77.98C22.3363 77.02 22.3363 76.068 22.3363 75.124C22.3363 74.164 22.3363 73.212 22.3363 72.268C22.3363 71.644 22.3363 71.02 22.3363 70.396C22.3363 69.756 22.3363 69.124 22.3363 68.5H42.5203V74.548ZM58.9546 68.5H68.1946C68.1946 69.092 68.1946 69.692 68.1946 70.3C68.1946 70.892 68.1946 71.492 68.1946 72.1C68.1946 72.692 68.1946 73.292 68.1946 73.9C68.1946 74.492 68.1946 75.092 68.1946 75.7C68.1946 76.292 68.1946 76.892 68.1946 77.5C68.1946 79.004 68.1946 80.508 68.1946 82.012C68.1946 83.5 68.1946 84.996 68.1946 86.5H57.0826L54.0586 77.86C54.0586 77.844 54.0506 77.836 54.0346 77.836C54.0346 77.836 54.0266 77.836 54.0106 77.836C54.0106 77.836 54.0106 77.844 54.0106 77.86C54.0106 79.268 54.0106 80.708 54.0106 82.18C54.0106 83.652 54.0106 85.092 54.0106 86.5H44.7706C44.7706 85.3 44.7706 84.1 44.7706 82.9C44.7706 81.7 44.7706 80.5 44.7706 79.3C44.7706 78.1 44.7706 76.9 44.7706 75.7C44.7706 74.5 44.7706 73.3 44.7706 72.1C44.7706 70.9 44.7706 69.7 44.7706 68.5H55.5226L58.9066 78.46C58.9226 78.46 58.9306 78.46 58.9306 78.46C58.9466 78.46 58.9546 78.46 58.9546 78.46C58.9546 78.444 58.9546 78.436 58.9546 78.436V68.5ZM84.6496 68.5C86.1536 68.5 87.4816 68.668 88.6336 69.004C89.8016 69.324 90.8016 69.772 91.6336 70.348C92.4656 70.924 93.1456 71.596 93.6736 72.364C94.2016 73.116 94.5936 73.924 94.8496 74.788C95.1056 75.652 95.2336 76.532 95.2336 77.428C95.2336 78.564 95.0256 79.676 94.6096 80.764C94.2096 81.836 93.5776 82.804 92.7136 83.668C91.8656 84.532 90.7696 85.22 89.4256 85.732C88.0976 86.244 86.5056 86.5 84.6496 86.5H70.3456C70.3456 85.476 70.3456 84.46 70.3456 83.452C70.3456 82.428 70.3456 81.412 70.3456 80.404C70.3456 79.38 70.3456 78.364 70.3456 77.356C70.3456 76.332 70.3456 75.308 70.3456 74.284C70.3456 73.324 70.3456 72.364 70.3456 71.404C70.3456 70.428 70.3456 69.46 70.3456 68.5H84.6496ZM82.7296 75.412H79.8736C79.8736 75.412 79.8656 75.412 79.8496 75.412C79.8496 75.412 79.8496 75.42 79.8496 75.436C79.8496 75.436 79.8496 75.444 79.8496 75.46V79.54C79.8496 79.556 79.8496 79.572 79.8496 79.588C79.8656 79.588 79.8736 79.588 79.8736 79.588H82.7776C83.1296 79.588 83.4416 79.532 83.7136 79.42C84.0016 79.308 84.2416 79.156 84.4336 78.964C84.6256 78.772 84.7696 78.548 84.8656 78.292C84.9776 78.036 85.0336 77.772 85.0336 77.5C85.0336 77.116 84.9376 76.764 84.7456 76.444C84.5696 76.124 84.3136 75.876 83.9776 75.7C83.6416 75.508 83.2256 75.412 82.7296 75.412ZM97.1628 86.5C97.1628 85.348 97.1628 84.196 97.1628 83.044C97.1628 81.892 97.1628 80.74 97.1628 79.588C97.1628 78.436 97.1628 77.284 97.1628 76.132C97.1628 74.98 97.1628 73.828 97.1628 72.676C97.1628 71.972 97.1628 71.276 97.1628 70.588C97.1628 69.884 97.1628 69.188 97.1628 68.5H107.123C107.123 70.052 107.123 71.604 107.123 73.156C107.123 74.692 107.123 76.236 107.123 77.788C107.123 78.748 107.123 79.716 107.123 80.692C107.123 81.652 107.123 82.62 107.123 83.596C107.123 84.556 107.123 85.524 107.123 86.5H97.1628ZM123.469 68.5H132.709C132.709 69.092 132.709 69.692 132.709 70.3C132.709 70.892 132.709 71.492 132.709 72.1C132.709 72.692 132.709 73.292 132.709 73.9C132.709 74.492 132.709 75.092 132.709 75.7C132.709 76.292 132.709 76.892 132.709 77.5C132.709 79.004 132.709 80.508 132.709 82.012C132.709 83.5 132.709 84.996 132.709 86.5H121.597L118.573 77.86C118.573 77.844 118.565 77.836 118.549 77.836C118.549 77.836 118.541 77.836 118.525 77.836C118.525 77.836 118.525 77.844 118.525 77.86C118.525 79.268 118.525 80.708 118.525 82.18C118.525 83.652 118.525 85.092 118.525 86.5H109.285C109.285 85.3 109.285 84.1 109.285 82.9C109.285 81.7 109.285 80.5 109.285 79.3C109.285 78.1 109.285 76.9 109.285 75.7C109.285 74.5 109.285 73.3 109.285 72.1C109.285 70.9 109.285 69.7 109.285 68.5H120.037L123.421 78.46C123.437 78.46 123.445 78.46 123.445 78.46C123.461 78.46 123.469 78.46 123.469 78.46C123.469 78.444 123.469 78.436 123.469 78.436V68.5ZM155.812 71.62C155.812 73.556 155.812 75.5 155.812 77.452C155.812 79.404 155.812 81.356 155.812 83.308C155.812 84.172 155.612 84.956 155.212 85.66C154.812 86.348 154.26 86.956 153.556 87.484C152.852 88.028 152.036 88.476 151.108 88.828C150.18 89.18 149.18 89.444 148.108 89.62C147.036 89.812 145.948 89.908 144.844 89.908C143.436 89.908 142.044 89.756 140.668 89.452C139.292 89.148 138.06 88.692 136.972 88.084V84.268C137.436 84.572 137.996 84.852 138.652 85.108C139.324 85.348 140.036 85.54 140.788 85.684C141.54 85.828 142.284 85.9 143.02 85.9C143.628 85.9 144.196 85.844 144.724 85.732C145.268 85.604 145.748 85.412 146.164 85.156C146.58 84.9 146.908 84.564 147.148 84.148C147.388 83.732 147.508 83.22 147.508 82.612V78.172C147.508 77.884 147.452 77.636 147.34 77.428C147.228 77.22 147.06 77.052 146.836 76.924C146.628 76.78 146.38 76.676 146.092 76.612C145.804 76.532 145.484 76.492 145.132 76.492C144.652 76.492 144.22 76.556 143.836 76.684C143.468 76.796 143.18 76.972 142.972 77.212C142.764 77.452 142.66 77.748 142.66 78.1C142.66 78.468 142.764 78.78 142.972 79.036C143.196 79.292 143.492 79.492 143.86 79.636C144.228 79.764 144.652 79.828 145.132 79.828C146.412 79.828 147.204 79.364 147.508 78.436L146.068 84.076C145.396 84.476 144.732 84.716 144.076 84.796C143.42 84.876 142.756 84.916 142.084 84.916C141.108 84.916 140.172 84.764 139.276 84.46C138.38 84.14 137.58 83.692 136.876 83.116C136.188 82.524 135.636 81.812 135.22 80.98C134.82 80.132 134.62 79.172 134.62 78.1C134.62 77.38 134.716 76.716 134.908 76.108C135.1 75.5 135.372 74.94 135.724 74.428C136.076 73.916 136.492 73.468 136.972 73.084C137.468 72.684 138.004 72.348 138.58 72.076C139.172 71.804 139.796 71.604 140.452 71.476C141.124 71.332 141.804 71.26 142.492 71.26C142.812 71.26 143.156 71.284 143.524 71.332C143.892 71.364 144.26 71.428 144.628 71.524C145.012 71.604 145.38 71.724 145.732 71.884C146.084 72.028 146.404 72.212 146.692 72.436C146.996 72.644 147.252 72.9 147.46 73.204C147.476 73.236 147.484 73.252 147.484 73.252C147.5 73.252 147.508 73.244 147.508 73.228C147.508 73.212 147.508 73.196 147.508 73.18C147.508 73.004 147.508 72.748 147.508 72.412C147.508 72.06 147.508 71.796 147.508 71.62H155.812Z" fill="#F1952A"/>
<rect x="163.5" y="73.5" width="11" height="13" fill="#D23E47"/>
<path d="M0.578354 57.0062C0.571873 56.5716 0.560126 47.401 0.552835 36.6267L0.539062 17.037L2.0621 15.9122C2.89977 15.2936 3.88165 14.5884 4.24458 14.345C4.60752 14.1015 5.4302 13.5296 6.07223 13.0743C8.81127 11.1308 12.179 8.76563 13.0264 8.18963C16.7128 5.68634 16.9624 5.5304 17.0997 5.64422C17.2487 5.76736 17.2913 5.75358 17.8997 5.38214C18.1229 5.24564 18.6025 4.98721 18.9654 4.80776C19.3283 4.62832 19.8419 4.3306 20.1069 4.1463C20.3714 3.96199 20.6456 3.8109 20.7157 3.8105C20.7862 3.81009 20.981 3.71936 21.1483 3.60877C21.316 3.49819 21.5258 3.40746 21.6149 3.40705C21.704 3.40665 21.8494 3.32645 21.9386 3.22883C22.0273 3.13161 22.3201 2.94366 22.5887 2.81161C22.8572 2.67956 23.2461 2.48594 23.4527 2.38103C23.6593 2.27652 23.8881 2.19105 23.9618 2.19105C24.0352 2.19105 24.266 2.09991 24.4743 1.98852C24.6825 1.87713 24.9235 1.78599 25.0097 1.78599C25.096 1.78599 25.3362 1.70174 25.5432 1.59926C25.9872 1.3789 27.0391 1.12169 28.0979 0.974649C28.5139 0.916725 29.1309 0.797231 29.4683 0.708522C29.9608 0.579712 30.6446 0.548117 32.9251 0.550952C34.4882 0.552978 35.9959 0.599155 36.2754 0.654244C36.5545 0.709332 37.0571 0.806142 37.3921 0.869737C37.7271 0.933331 38.2983 1.05769 38.6612 1.14558C39.0241 1.23348 39.5264 1.33839 39.7779 1.3789C40.2681 1.45829 40.5549 1.55834 41.3512 1.92898C41.6307 2.059 42.1682 2.28503 42.5461 2.43126C42.9245 2.57789 43.4268 2.82174 43.6629 2.97364C43.8991 3.12553 44.3207 3.36857 44.6002 3.51399C45.4565 3.95915 47.1226 5.2748 48.279 6.41911C49.4428 7.5707 51.0343 9.49637 51.3129 10.0898C51.4045 10.2846 51.6333 10.6605 51.8213 10.9254C52.0096 11.1899 52.1636 11.4322 52.1636 11.4634C52.1636 11.5419 52.642 12.587 52.902 13.0771C53.2945 13.8156 53.3698 13.9845 53.5351 14.4949C53.6254 14.7731 53.7579 15.256 53.8292 15.5675C53.9005 15.8785 53.9969 16.1949 54.0435 16.2698C54.0901 16.3448 54.1856 16.6368 54.2565 16.9188C54.327 17.2007 54.4542 17.6138 54.5389 17.8366C54.6235 18.0594 54.6956 18.5378 54.6989 18.8999C54.7021 19.262 54.771 19.8316 54.852 20.1657C54.9476 20.5615 54.999 21.3202 54.999 22.343L54.9994 23.9126L52.1854 25.3019C50.6381 26.0663 47.0679 27.832 44.2519 29.2262C41.4363 30.62 39.0748 31.7607 39.0047 31.7607C38.9038 31.7607 38.8888 31.1494 38.9326 28.8491C38.9828 26.2198 38.9666 25.786 38.7669 24.3683C38.6454 23.5051 38.4777 22.5706 38.3947 22.2923C37.9872 20.9305 37.7223 20.1949 37.5136 19.8429C37.3877 19.6307 37.1487 19.2321 36.983 18.9578C36.6148 18.3486 35.0383 16.5708 34.8657 16.5708C34.7973 16.5708 34.5838 16.4072 34.3914 16.2071C34.0994 15.9033 32.3778 14.9505 32.121 14.9505C32.0781 14.9505 31.927 14.8594 31.7852 14.748C31.6431 14.6366 31.4073 14.5451 31.2615 14.5443C31.1157 14.5435 30.7066 14.4523 30.3525 14.3417C29.4193 14.0497 26.888 14.0505 25.9706 14.343C25.621 14.4543 25.2224 14.5455 25.0847 14.5455C24.947 14.5455 24.7132 14.6095 24.565 14.6881C24.4167 14.7662 24.0214 14.9526 23.6864 15.102C22.3728 15.6878 22.1472 15.8101 21.6886 16.184C21.4274 16.3966 21.1823 16.5708 21.1442 16.5708C20.8745 16.5708 19.0671 18.4863 19.0671 18.7719C19.0671 18.825 18.9711 18.9554 18.8532 19.0615C18.5964 19.2932 18.2549 19.9349 18.2545 20.1868C18.2545 20.2869 18.163 20.5173 18.0516 20.7C17.9402 20.8823 17.8474 21.0873 17.8458 21.1557C17.8438 21.2238 17.7304 21.5077 17.5926 21.786C17.4553 22.0643 17.3423 22.4061 17.3411 22.5455C17.3399 22.6848 17.2629 23.0494 17.1702 23.3556C17.0187 23.8551 16.9992 24.8726 16.9794 33.1784C16.9672 38.2745 16.9514 42.9226 16.9437 43.5075L16.9299 44.5708L16.2478 45.0771C13.2726 47.2855 9.72914 50.1655 5.03486 54.1911C3.24732 55.7242 0.99962 57.5656 0.733898 57.7151C0.61562 57.7815 0.588075 57.6564 0.578354 57.0062Z" fill="#B93948" stroke="#B93948"/>
<path d="M39.8379 58.8195C39.3538 58.6616 39.1804 58.5263 39.0613 58.2148C38.905 57.8036 38.8017 45.4476 38.8604 34.0892L38.8718 31.8107L39.4539 31.5632C39.7739 31.4275 41.7036 30.4886 43.7414 29.4772C53.1114 24.827 54.9329 23.946 55.0095 24.0274C55.0549 24.0752 55.1249 28.1704 55.1654 33.1272C55.206 38.0843 55.2501 43.3246 55.2639 44.7727C55.3392 52.7748 55.3097 57.2378 55.178 57.725C55.0063 58.3618 54.7102 58.6968 54.3201 58.6968C54.1552 58.6968 53.8587 58.764 53.6618 58.8463C53.356 58.9735 52.3361 58.9925 46.7701 58.9726C41.7692 58.9552 40.1437 58.9192 39.8379 58.8195Z" fill="#F1952A" stroke="#F1952A"/>
<path d="M88.1557 60.0081C85.2551 59.8084 82.222 59.2534 80.0844 58.5312C79.8333 58.4461 79.4064 58.3372 79.1362 58.2886C78.8656 58.24 78.5918 58.1581 78.527 58.1067C78.4622 58.0553 78.2953 57.9787 78.1555 57.9362C78.0162 57.894 77.793 57.7741 77.6597 57.6704C77.5265 57.5667 77.3381 57.4821 77.2405 57.4821C76.9586 57.4821 75.9139 56.9701 75.9795 56.864C76.1144 56.646 78.6019 55.5082 82.8028 53.7429C88.2064 51.4722 91.781 49.702 95.1475 47.6297C95.4752 47.428 95.9439 47.2328 96.1893 47.1963C96.4344 47.1599 96.7447 47.044 96.8784 46.9387C97.012 46.8338 97.1603 46.7479 97.2073 46.7475C97.3093 46.7471 98.2313 46.2869 98.3957 46.1545C98.4589 46.1031 98.945 45.8475 99.4756 45.5862C100.006 45.3249 100.509 45.0697 100.592 45.0191C100.676 44.9685 100.904 44.8344 101.1 44.7206C101.295 44.6071 101.592 44.4257 101.76 44.3175C101.927 44.2094 102.235 44.0279 102.442 43.9149C102.65 43.8015 102.97 43.5836 103.153 43.4308C103.58 43.0744 104.119 42.6973 104.201 42.6973C104.237 42.6973 104.547 42.4413 104.891 42.1286C105.235 41.8159 105.699 41.4416 105.922 41.297C106.145 41.1524 106.521 40.8615 106.757 40.6505C107.42 40.0587 107.779 40.1012 108.784 40.8895C109.22 41.2322 109.897 41.809 110.288 42.1715C110.678 42.5336 111.28 43.0853 111.625 43.3968C113.036 44.6732 115.282 46.9253 115.509 47.2923L115.751 47.6848L115.558 48.0518C115.277 48.5837 113.904 50.1573 112.673 51.3592C111.508 52.4966 109.944 53.8317 109.774 53.8345C109.714 53.8357 109.533 53.975 109.37 54.1444C109.207 54.3137 108.795 54.6082 108.453 54.799C108.111 54.9897 107.773 55.2158 107.702 55.3012C107.631 55.3867 107.533 55.4568 107.485 55.4568C107.438 55.4568 107.157 55.6099 106.863 55.797C106.569 55.9846 106.217 56.1725 106.08 56.2155C105.944 56.258 105.613 56.4467 105.345 56.6347C104.863 56.9725 104.375 57.1892 103.587 57.4161C103.364 57.4801 103.068 57.6125 102.93 57.7097C102.792 57.8074 102.608 57.8872 102.523 57.8872C102.436 57.8872 102.195 57.9783 101.987 58.0897C101.779 58.2011 101.515 58.2922 101.401 58.2922C101.287 58.2922 101.024 58.3769 100.817 58.4806C100.609 58.5839 100.252 58.6977 100.022 58.7329C99.792 58.7678 99.472 58.865 99.3112 58.9488C99.1504 59.0327 98.8915 59.1015 98.7364 59.1019C98.5808 59.1019 98.2892 59.1708 98.0879 59.2546C97.8866 59.3385 97.3057 59.4535 96.7969 59.5098C96.2878 59.5665 95.5971 59.6617 95.2622 59.7217C93.8554 59.9728 89.9376 60.1308 88.1557 60.0081Z" fill="#EA613A" stroke="#EA613A"/>
<path d="M117.647 58.8811C117.229 58.8418 116.703 58.7709 116.48 58.7239C116.084 58.6405 116.073 58.6271 116.043 58.171C116.022 57.8466 116.077 57.5841 116.221 57.3155C116.335 57.1025 116.429 56.8712 116.429 56.8019C116.429 56.6403 116.989 55.7767 117.587 55.014C117.844 54.6871 118.054 54.3622 118.054 54.2917C118.054 54.1216 118.826 53.4314 119.016 53.4314C119.098 53.4314 119.244 53.3119 119.34 53.1661C119.505 52.9145 119.505 52.8935 119.336 52.7707C119.173 52.6516 119.193 52.6123 119.575 52.3069C119.966 51.9926 120.133 51.7698 120.381 51.2286C120.438 51.1035 120.573 51.001 120.679 51.001C120.786 51.001 120.973 50.9212 121.094 50.8232C121.272 50.6798 121.296 50.5972 121.222 50.3966C121.12 50.1232 121.421 49.5225 122.054 48.7298C122.236 48.503 122.582 47.9987 122.824 47.6086C123.066 47.2185 123.44 46.6919 123.654 46.4376C123.868 46.1836 124.043 45.9227 124.043 45.8587C124.043 45.7943 124.237 45.5197 124.475 45.2483C124.712 44.9769 125.032 44.5536 125.185 44.3081C125.338 44.0627 125.65 43.611 125.876 43.3048C126.103 42.9986 126.455 42.4971 126.659 42.1909C126.863 41.8846 127.18 41.4468 127.364 41.2183C127.548 40.9899 127.698 40.757 127.698 40.7006C127.698 40.6443 127.84 40.4212 128.014 40.2049C128.316 39.8285 128.533 39.5179 129.775 37.6845C130.077 37.239 130.456 36.7148 130.616 36.52C130.776 36.3252 131.076 35.9148 131.283 35.6086C132.032 34.4967 133.037 33.0996 133.409 32.6524C133.618 32.4013 133.79 32.1473 133.79 32.0886C133.79 32.0299 133.985 31.7382 134.224 31.4405C134.463 31.1432 134.739 30.7746 134.836 30.6215L135.013 30.3428H145.366C151.06 30.3428 155.719 30.3663 155.719 30.395C155.719 30.4234 155.666 30.5485 155.601 30.6733C155.537 30.7981 155.437 30.9909 155.379 31.1023C155.321 31.2137 155.172 31.5134 155.048 31.7682C154.923 32.0234 154.713 32.3648 154.581 32.5277C154.448 32.6905 154.283 32.9376 154.213 33.077C154.001 33.5002 153.854 33.7275 153.524 34.1451C153.351 34.365 153.122 34.6992 153.017 34.8872C152.58 35.6669 152.508 35.7747 152.231 36.0647C152.072 36.2316 151.824 36.5731 151.68 36.8238C151.535 37.0745 151.255 37.467 151.055 37.6963C150.856 37.9256 150.579 38.31 150.439 38.5506C150.3 38.7916 149.981 39.242 149.731 39.5519C149.481 39.8618 149.205 40.2518 149.118 40.4187C149.031 40.5856 148.799 40.8951 148.604 41.1061C148.408 41.3176 148.16 41.6594 148.053 41.8656C147.946 42.0726 147.662 42.4562 147.423 42.7183C147.183 42.9803 146.988 43.2384 146.988 43.2914C146.988 43.3445 146.796 43.6301 146.561 43.9262C146.326 44.2223 145.927 44.7651 145.673 45.132C145.419 45.4994 145.005 46.0795 144.754 46.4214C143.816 47.6981 143.478 48.1696 142.904 49.0044C142.721 49.271 142.377 49.7437 142.14 50.0548C141.903 50.3659 141.709 50.6664 141.709 50.7235C141.709 50.7798 141.526 51.0241 141.302 51.2659C141.079 51.5077 140.896 51.7504 140.896 51.8055C140.896 51.8605 140.531 52.39 140.084 52.9818C139.638 53.5736 139.272 54.0969 139.272 54.1439C139.272 54.1909 139.043 54.4898 138.764 54.8082C138.485 55.1266 138.257 55.4219 138.257 55.4644C138.257 55.5069 138.029 55.8071 137.75 56.1319C137.471 56.4568 137.243 56.7683 137.242 56.8238C137.241 56.8793 136.887 57.2985 136.454 57.755C135.913 58.3262 135.573 58.6028 135.363 58.6425C135.196 58.6745 134.876 58.7543 134.653 58.8203C134.196 58.9548 119.004 59.0095 117.647 58.8811Z" fill="#EE7A30" stroke="#EE7A30"/>
<path d="M135.011 30.2066C135.011 30.1316 134.919 29.9878 134.808 29.887C134.696 29.7861 134.605 29.6585 134.605 29.6038C134.605 29.5492 134.441 29.3167 134.241 29.0878C134.042 28.8589 133.725 28.4437 133.538 28.1655C133.351 27.8872 132.841 27.1415 132.404 26.5083C131.967 25.8752 131.45 25.0987 131.254 24.7824C131.059 24.4664 130.735 24.0047 130.535 23.7563C130.335 23.5076 130.065 23.1224 129.935 22.8996C129.804 22.6769 129.552 22.3123 129.374 22.0895C129.196 21.8667 128.907 21.4305 128.732 21.1206C128.557 20.8103 128.296 20.4462 128.152 20.3117C128.009 20.1772 127.825 19.9297 127.743 19.762C127.662 19.5939 127.352 19.1326 127.053 18.7368C126.755 18.3407 126.425 17.8635 126.319 17.6768C126.214 17.4896 125.933 17.0943 125.696 16.7978C125.459 16.5013 125.265 16.2104 125.265 16.1509C125.265 16.0913 125.122 15.8633 124.948 15.6446C124.505 15.0856 123.742 13.9396 123.742 13.8319C123.742 13.7825 123.536 13.5111 123.285 13.2288C123.034 12.9464 122.828 12.6576 122.828 12.5863C122.828 12.5154 122.62 12.2141 122.366 11.9168C122.112 11.6198 121.818 11.2095 121.713 11.005C121.609 10.8004 121.451 10.5736 121.363 10.5007C121.276 10.4281 121.203 10.3159 121.203 10.2515C121.203 10.1871 121.074 9.99311 120.916 9.82015C120.757 9.64718 120.499 9.28384 120.341 9.01286C120.182 8.74187 119.909 8.33761 119.733 8.11483C119.423 7.72354 118.533 6.41883 117.904 5.43493C117.737 5.17286 117.449 4.75685 117.266 4.51098C117.083 4.26511 116.7 3.70815 116.415 3.27311C115.804 2.33944 115.823 2.18106 116.602 1.73184L117.092 1.4487L120.595 1.38511C124.384 1.31706 134.826 1.34784 135.172 1.42845C135.442 1.49123 136.55 2.75908 137.6 4.20678C138.046 4.82247 138.629 5.60627 138.894 5.94855C139.159 6.29083 139.376 6.61569 139.376 6.67078C139.376 6.72546 139.551 6.98187 139.765 7.23989C139.979 7.49832 140.459 8.16546 140.832 8.72242C141.205 9.27939 141.612 9.87159 141.737 10.0381C141.863 10.205 142.348 10.8656 142.817 11.5064C143.285 12.1476 143.868 12.9302 144.111 13.2454C144.354 13.5609 144.554 13.8554 144.554 13.8995C144.554 13.9437 144.711 14.141 144.903 14.3386C145.095 14.5359 145.323 14.834 145.409 15.0009C145.495 15.1678 145.774 15.5781 146.029 15.9123C147.079 17.2887 148.111 18.7133 148.248 18.975C148.328 19.1285 148.535 19.3881 148.707 19.5514C148.88 19.715 149.021 19.9042 149.021 19.9714C149.021 20.0387 149.387 20.5592 149.833 21.1275C150.28 21.6958 150.645 22.2021 150.645 22.2515C150.645 22.3014 150.799 22.5132 150.987 22.7222C151.175 22.9312 151.49 23.3529 151.686 23.6591C151.882 23.9654 152.144 24.3072 152.268 24.4186C152.393 24.53 152.581 24.7808 152.687 24.9756C152.99 25.5293 153.105 25.7015 153.51 26.2058C153.718 26.465 154.001 26.8871 154.138 27.1447C154.275 27.4019 154.521 27.7823 154.683 27.9901C154.987 28.3777 155.518 29.4564 155.823 30.2029C155.823 30.3208 154.188 30.3427 145.417 30.3427C136.768 30.3427 135.011 30.3196 135.011 30.2066Z" fill="#9B3446" stroke="#9B3446"/>
<path d="M61.4365 20.6477C61.6135 20.0867 61.8432 19.5387 61.9574 19.4058C62.0295 19.3224 62.1186 19.117 62.1559 18.9501C62.2592 18.4883 62.9352 17.0682 63.1961 16.7648C63.2719 16.6769 63.3338 16.5489 63.3338 16.48C63.3338 16.318 63.7749 15.4297 64.1435 14.8488C64.3027 14.5981 64.5559 14.1505 64.7066 13.8544C64.8569 13.5583 65.249 12.9779 65.5783 12.5647C65.9072 12.1519 66.1766 11.776 66.1766 11.7299C66.1766 11.6156 67.3099 10.3385 68.3886 9.23709C69.49 8.11264 71.3176 6.46281 71.8884 6.07841C72.1249 5.91881 72.5271 5.61704 72.7819 5.40722C73.0367 5.1978 73.3037 5.02605 73.3749 5.02605C73.4462 5.02605 73.763 4.8539 74.0789 4.64367C74.8919 4.1021 74.9822 4.05106 75.7194 3.71203C76.0824 3.54514 76.4478 3.36205 76.5316 3.30494C76.6154 3.24823 76.7754 3.16195 76.8868 3.11294C77.479 2.85329 77.6107 2.79213 77.75 2.71233C77.9987 2.56934 78.8826 2.28296 79.3954 2.17886C79.6583 2.1254 80.001 2.01522 80.1569 1.93421C80.3129 1.85319 80.5219 1.78636 80.6211 1.78636C80.7208 1.78595 80.9719 1.71223 81.1797 1.62271C81.5337 1.47 82.4087 1.32337 84.4506 1.07466C84.9249 1.01674 85.6103 0.902913 85.9732 0.821901C87.7032 0.436685 91.9248 0.386459 93.7905 0.729547C94.2653 0.816636 95.0191 0.931268 95.4659 0.983522C95.9123 1.03618 96.4149 1.12894 96.5826 1.18929C96.7499 1.24965 97.1611 1.33593 97.4961 1.38129C98.1061 1.46352 98.7222 1.64215 99.5773 1.98484C99.8288 2.08529 100.377 2.26798 100.796 2.39031C101.675 2.64712 102.019 2.78848 103.207 3.38069C103.683 3.61724 104.118 3.81086 104.174 3.81086C104.231 3.81086 104.533 3.9818 104.846 4.19041C105.159 4.39901 105.506 4.61896 105.618 4.67891C106.136 4.95638 106.361 5.1018 106.785 5.43395C107.037 5.63041 107.377 5.85846 107.541 5.94028C107.706 6.02251 108.094 6.31942 108.404 6.60053C108.714 6.88205 109.105 7.21583 109.273 7.34261C110.08 7.95466 112.146 10.1112 112.877 11.1056C113.072 11.3714 113.435 11.8263 113.684 12.1171L114.135 12.6457L113.836 12.5853C113.426 12.5023 110.201 12.1495 108.41 11.9911C106.407 11.8145 97.1283 11.8149 95.0596 11.9915C91.8616 12.2649 87.7296 12.8223 85.9226 13.2241C85.6994 13.274 85.014 13.4145 84.3995 13.5364C79.4796 14.513 72.9002 16.4788 67.9021 18.4648C66.7019 18.942 65.2627 19.4795 64.7042 19.6598C64.146 19.8404 63.1698 20.1766 62.5346 20.4071C61.5673 20.7583 61.3895 20.7972 61.4365 20.6477Z" fill="#7A2E40" stroke="#7A2E40"/>
<path d="M75.4668 56.6123C75.2991 56.4726 75.0249 56.2927 74.8576 56.2129C74.4955 56.0404 74.325 55.9326 73.6218 55.4312C73.3289 55.2221 73.0591 55.0512 73.0219 55.0512C72.985 55.0512 72.5147 54.7203 71.9772 54.316C71.4393 53.9114 70.8856 53.5067 70.7458 53.4164C70.2225 53.0773 67.592 50.4618 67.0423 49.7327C66.7276 49.3163 66.4299 48.9753 66.38 48.9753C66.2958 48.9753 66.1658 48.7747 65.8551 48.1651C65.7842 48.0258 65.5306 47.6685 65.2916 47.3712C65.0531 47.0735 64.8574 46.7863 64.8574 46.7332C64.8574 46.6502 64.52 46.0677 64.07 45.3746C63.9999 45.2665 63.7799 44.859 63.5811 44.4689C63.3826 44.0788 63.0836 43.5373 62.9168 43.2647C62.6263 42.7911 62.4396 42.3573 62.1917 41.5828C62.1293 41.388 61.9956 41.1077 61.8944 40.9599C61.7931 40.8116 61.7105 40.6281 61.7105 40.5516C61.7105 40.4754 61.6404 40.313 61.5545 40.191C61.4691 40.0691 61.2852 39.5462 61.1462 39.0293C61.0069 38.5121 60.8266 37.8806 60.7452 37.6258C60.6642 37.371 60.5552 36.8626 60.5034 36.4969C60.4511 36.1311 60.3507 35.724 60.2798 35.5932C60.2089 35.4619 60.1182 34.8308 60.0781 34.1904C60.038 33.55 59.9505 32.714 59.8836 32.3324C59.6422 30.9507 59.9412 25.8781 60.3316 24.7298C60.4199 24.4709 60.492 24.1453 60.492 24.0063C60.492 23.8674 60.5654 23.5843 60.6553 23.3773C60.7452 23.1699 60.8764 22.6818 60.9473 22.2917C61.0178 21.9016 61.1612 21.4062 61.2661 21.1907C61.4488 20.8148 61.5124 20.7784 62.8272 20.302C63.5811 20.0286 64.4487 19.7321 64.7561 19.6434C65.0632 19.5543 66.3881 19.0577 67.7001 18.5396C72.9753 16.456 79.4227 14.5246 84.4005 13.5363C85.015 13.4143 85.7003 13.2738 85.9235 13.224C86.905 13.006 90.133 12.5078 91.7609 12.3231C95.3915 11.9116 96.4783 11.8613 101.761 11.8613C107.029 11.8613 107.895 11.9014 111.71 12.3227C113.828 12.5568 114.096 12.6026 114.096 12.7322C114.096 12.7849 114.271 13.0206 114.484 13.256C114.697 13.4913 114.998 13.9049 115.153 14.175C115.309 14.4448 115.614 14.9196 115.832 15.2298C116.05 15.5397 116.228 15.8362 116.228 15.8881C116.228 15.9403 116.293 16.1262 116.372 16.3016C116.735 17.1077 116.939 17.6181 116.939 17.7262C116.939 17.791 117.031 18.0244 117.144 18.2451C117.257 18.4659 117.376 18.8284 117.407 19.0512C117.439 19.274 117.552 19.7183 117.659 20.0392C117.765 20.3596 117.853 20.701 117.853 20.7986C117.853 20.8955 117.922 21.1065 118.006 21.2673C118.09 21.4277 118.188 21.7465 118.223 21.9762C118.258 22.2054 118.349 22.5165 118.425 22.6672C118.816 23.4397 119.093 27.0601 119.051 30.8487C119.016 34.1447 118.991 34.2548 118.227 34.6012C117.813 34.7883 117.207 34.7936 96.556 34.7956L75.3101 34.798L75.1962 35.0467C75.0763 35.3096 75.2052 35.9922 75.4745 36.5196C75.59 36.746 75.8196 37.2442 76.3786 38.4845C76.9814 39.8204 79.8674 43.1375 81.2536 44.0865C81.4767 44.2397 81.8652 44.5321 82.1163 44.7371C82.3675 44.9416 82.779 45.2118 83.0302 45.337C83.2813 45.4625 83.5782 45.6416 83.69 45.7352C83.9104 45.9199 85.6639 46.6891 86.0758 46.7818C86.2156 46.813 86.741 46.9811 87.2432 47.1549C87.9213 47.3898 88.471 47.4976 89.3755 47.5741C90.5542 47.6734 94.3225 47.6215 95.0217 47.4964C95.3591 47.436 95.3562 47.4409 94.8459 47.7933C94.0208 48.3632 90.9358 50.058 89.2738 50.8547C87.321 51.7904 85.2633 52.7091 82.8041 53.7424C79.7281 55.035 77.6724 55.944 76.7302 56.428C76.2527 56.6735 75.8415 56.8724 75.8164 56.8703C75.7917 56.8683 75.6341 56.7525 75.4668 56.6123ZM103.416 24.1007C103.76 23.8804 103.793 23.694 103.598 23.0625C103.138 21.567 102.82 20.8683 102.462 20.5653C102.393 20.507 102.276 20.313 102.201 20.1339C101.927 19.4753 99.7265 17.0947 98.4999 16.1299C97.6274 15.4433 95.6916 14.2868 95.2282 14.175C95.0804 14.1394 94.7993 14.0304 94.6036 13.9332C93.7976 13.531 93.2629 13.3297 93.002 13.3297C92.8497 13.3297 92.3673 13.2612 91.9298 13.1778C90.8823 12.9777 88.3964 12.9789 87.4462 13.1794C87.0557 13.262 86.5672 13.3297 86.3614 13.3297C86.1556 13.3297 85.8587 13.3787 85.7016 13.4386C85.5444 13.4982 85.2333 13.5869 85.0097 13.6355C83.6382 13.9336 83.5993 13.9511 83.0038 14.5319C82.6822 14.8454 82.1836 15.2278 81.8956 15.3817C81.2811 15.7102 80.7359 16.1672 79.3899 17.4816C78.265 18.5797 77.6444 19.2821 77.4423 19.6839C77.3654 19.8374 77.1608 20.1449 76.9878 20.3677C76.8145 20.5904 76.4564 21.2284 76.1919 21.7854C75.9278 22.3423 75.6451 22.9273 75.5636 23.0848C75.2611 23.6714 75.4778 24.1206 76.1275 24.253C76.3 24.2883 82.4578 24.302 89.8117 24.2838C101.404 24.255 103.214 24.2307 103.416 24.1007Z" fill="#D23E47" stroke="#D23E47"/>
<path d="M1.76395 58.7746C1.25924 58.7167 0.991492 58.6313 0.825011 58.4753C0.459644 58.133 0.53053 57.8851 1.12516 57.4213C2.31321 56.4954 3.57013 55.4576 5.14663 54.1014C9.45083 50.3975 12.5629 47.861 15.9217 45.318C16.3965 44.9583 16.8315 44.6359 16.8886 44.6003C16.9595 44.5569 16.985 46.6657 16.9692 51.1752L16.9457 57.8138L16.6832 58.2092C16.5394 58.4263 16.2976 58.6552 16.1461 58.7171C15.8184 58.852 2.88557 58.9039 1.76395 58.7746Z" fill="#F2852F" stroke="#F2852F"/>
<path d="M119.68 52.1735C119.68 52.0374 120.308 51.1884 120.365 51.246C120.397 51.2776 120.347 51.3865 120.254 51.489C120.162 51.5911 120.086 51.7211 120.086 51.7774C120.086 51.8341 119.994 51.9629 119.883 52.0638C119.771 52.1646 119.68 52.2141 119.68 52.1735Z" fill="#F2852F" stroke="#F2852F"/>
<path d="M118.884 53.222C119.017 52.8405 119.244 52.6533 119.393 52.802C119.539 52.947 119.266 53.382 118.984 53.4558C118.804 53.5027 118.794 53.4793 118.884 53.222Z" fill="#F2852F" stroke="#F2852F"/>
<path d="M159.853 25.2032C159.494 24.9297 159.033 24.3959 158.179 23.2657C157.943 22.9526 157.474 22.3499 157.138 21.9262C156.802 21.5025 156.527 21.1132 156.527 21.0614C156.527 21.0091 156.318 20.7637 156.062 20.5154C155.807 20.2666 155.526 19.9268 155.44 19.7599C155.353 19.593 155.094 19.2479 154.864 18.9927C154.437 18.52 153.687 17.5349 153.108 16.6883C152.93 16.4283 152.642 16.0475 152.467 15.8417C152.292 15.636 152.021 15.2183 151.865 14.9137C151.709 14.6091 151.415 14.1575 151.212 13.91C151.008 13.6629 150.842 13.3968 150.841 13.319C150.841 13.2412 150.767 13.0407 150.676 12.8738C150.585 12.7057 150.489 12.2282 150.462 11.8057C150.421 11.173 150.449 10.9603 150.627 10.5706C150.745 10.3118 150.842 10.0599 150.842 10.0113C150.842 9.96183 151.036 9.66614 151.274 9.35343C151.511 9.04112 151.865 8.55181 152.06 8.26664C152.256 7.98107 152.61 7.50634 152.847 7.21186C153.085 6.91697 153.279 6.60993 153.279 6.52892C153.279 6.44791 153.441 6.22512 153.639 6.03393C153.837 5.84234 154.119 5.48021 154.267 5.22907C154.415 4.97793 154.801 4.4392 155.125 4.03171C155.45 3.62421 155.715 3.25277 155.715 3.20578C155.715 3.03687 157.041 1.80305 157.45 1.58958C157.866 1.37328 157.913 1.37206 164.686 1.36679C168.435 1.36355 172.563 1.36558 173.861 1.37085L176.22 1.38016L176.537 1.6633L176.855 1.94644L176.676 2.49854C176.356 3.48568 175.736 4.69237 175.178 5.41216C174.878 5.7994 174.574 6.25834 174.502 6.43171C174.43 6.60548 174.336 6.74725 174.293 6.74725C174.25 6.74725 173.937 7.14583 173.596 7.63353C172.713 8.90016 171.729 10.266 171.307 10.8137C171.107 11.0733 170.944 11.3338 170.944 11.3929C170.944 11.4517 170.75 11.7251 170.512 12.0001C170.275 12.2752 169.86 12.8349 169.589 13.2441C168.762 14.4945 168.429 14.9769 167.995 15.5574C167.766 15.8636 167.433 16.3282 167.256 16.5899C167.078 16.8512 166.739 17.3166 166.502 17.6232C166.265 17.9306 166.071 18.2231 166.071 18.2741C166.071 18.3252 165.796 18.7092 165.461 19.128C165.126 19.5464 164.852 19.9313 164.852 19.9827C164.852 20.0341 164.711 20.2103 164.539 20.374C164.366 20.5372 164.154 20.8082 164.068 20.9751C163.982 21.142 163.604 21.6661 163.228 22.1397C162.852 22.6132 162.473 23.141 162.385 23.3131C162.297 23.4849 162.073 23.7413 161.889 23.883C161.704 24.0248 161.439 24.3254 161.299 24.5514C161.159 24.777 160.954 25.0095 160.842 25.0683C160.731 25.1266 160.545 25.2437 160.429 25.3283C160.236 25.4697 160.19 25.46 159.853 25.2032Z" fill="#9B3446" stroke="#9B3446"/>
<path d="M0.501382 9.74918C0.493281 5.73136 0.521635 2.32478 0.564572 2.17895C0.607103 2.03313 0.785331 1.79455 0.959913 1.64832L1.27748 1.38341L5.78219 1.36923C8.25996 1.36194 11.5673 1.36113 13.1325 1.36802L15.9776 1.38057L16.2802 1.65926C16.5767 1.93186 16.5868 1.9744 16.7736 3.73804C16.8781 4.72883 16.9465 5.55111 16.9251 5.56609C16.9036 5.58068 16.2235 6.03799 15.4138 6.58158C12.4516 8.57126 10.8856 9.65966 6.07384 13.0739C5.43181 13.5292 4.60913 14.1012 4.24619 14.3446C3.88326 14.5881 2.89571 15.2973 2.05156 15.9211L0.516369 17.0549L0.501382 9.74918Z" fill="#7A2E40" stroke="#7A2E40"/>
<path d="M83.2507 14.297C83.5763 13.9689 83.7384 13.9077 85.0082 13.6363C85.4733 13.5375 85.6389 13.5873 85.1978 13.6939C85.0378 13.7327 84.7855 13.8486 84.6372 13.9523C84.4889 14.0552 84.3156 14.1398 84.2516 14.1398C84.1876 14.1398 83.9919 14.214 83.8165 14.3043C83.6407 14.395 83.3661 14.5064 83.2057 14.5522L82.9141 14.6356L83.2507 14.297Z" fill="#D63F45" stroke="#D63F45"/>
<path d="M157.285 58.7909C157.001 58.754 156.675 58.673 156.559 58.611C156.359 58.5045 155.718 57.7713 155.718 57.6502C155.718 57.5874 154.339 55.6998 153.695 54.8804C153.468 54.5912 153.282 54.3246 153.282 54.2878C153.282 54.2513 153.019 53.8864 152.698 53.4772C152.377 53.0677 151.794 52.2884 151.403 51.7456C151.013 51.2024 150.555 50.5733 150.387 50.3477C150.219 50.1225 149.994 49.743 149.888 49.5048L149.695 49.0722L149.977 48.7789C150.132 48.6177 150.228 48.4366 150.19 48.3763C150.151 48.3135 150.201 48.2653 150.306 48.2633C150.566 48.258 151.008 47.8574 151.081 47.5617C151.118 47.409 151.085 47.2494 150.994 47.1497C150.864 47.0055 150.881 46.9549 151.144 46.7026C151.307 46.5466 151.547 46.3647 151.676 46.2987C151.836 46.2169 151.903 46.1035 151.885 45.9431C151.849 45.6328 152.444 44.8514 152.774 44.7753C153.046 44.7129 153.313 44.2872 153.17 44.145C153.122 44.0976 153.291 43.795 153.545 43.4726C153.92 42.9954 154.033 42.9083 154.15 43.0055C154.23 43.0712 154.363 43.0983 154.448 43.0663C154.623 42.9995 154.655 42.6414 154.496 42.543C154.219 42.3724 154.686 41.7312 155.382 41.3245C155.821 41.0673 155.907 40.9401 155.718 40.8239C155.57 40.7327 155.593 40.6088 155.794 40.4087C155.972 40.2309 156.006 40.1814 156.378 39.5674C156.49 39.3831 156.764 38.9881 156.987 38.69C157.21 38.3915 157.553 37.9147 157.749 37.6304C157.944 37.346 158.259 36.9227 158.449 36.6902C158.638 36.4573 158.952 36.0295 159.145 35.7391C159.733 34.8593 160.577 34.7613 161.217 35.4989C161.814 36.1863 162.259 36.7554 162.53 37.1751C162.674 37.3995 163.096 37.9933 163.466 38.4948C163.836 38.9962 164.323 39.6569 164.547 39.9631C164.772 40.2693 165.174 40.8162 165.44 41.1783C165.707 41.5404 166.035 42.0188 166.169 42.2416C166.303 42.4644 166.611 42.8816 166.853 43.1692C167.094 43.4564 167.292 43.7221 167.292 43.759C167.292 43.7962 167.509 44.1029 167.774 44.4403C168.409 45.248 168.815 45.8252 168.815 45.9208C168.815 45.9633 169.001 46.178 169.228 46.3984C169.456 46.6183 169.702 46.9355 169.775 47.1024C169.848 47.2692 170.13 47.6873 170.401 48.0308C170.674 48.3743 171.102 48.9377 171.353 49.2828C171.604 49.6279 171.955 50.0986 172.133 50.3291C172.311 50.5596 172.459 50.7957 172.463 50.854C172.466 50.9124 172.652 51.1502 172.875 51.3818C173.099 51.6135 173.283 51.8392 173.283 51.8833C173.286 51.985 173.771 52.6938 174.07 53.0317C174.196 53.1738 174.561 53.6603 174.881 54.1132C176.262 56.0619 176.629 56.5529 176.732 56.5873C176.882 56.6367 177.129 57.3565 177.135 57.7559C177.142 58.2671 176.946 58.5823 176.54 58.7111C176.136 58.8387 158.221 58.9132 157.285 58.7909Z" fill="#EE7A30" stroke="#EE7A30"/>
</svg>
