<svg width="185" height="38" viewBox="0 0 185 38" fill="none" xmlns="http://www.w3.org/2000/svg">
<path d="M173.277 36.2435C173.258 36.2122 173.151 36.1869 173.04 36.1869C172.929 36.1869 172.812 36.161 172.779 36.1295C172.747 36.0979 172.538 36.0542 172.315 36.0326C171.911 35.9931 171.911 35.9929 171.483 35.5465C170.918 34.9556 170.533 34.4839 170.415 34.2355C170.362 34.1243 170.222 33.9395 170.103 33.8249C169.985 33.7104 169.888 33.5954 169.888 33.5699C169.888 33.4998 169.532 32.9881 169.418 32.8932C169.363 32.848 169.257 32.7005 169.183 32.5654C168.941 32.1282 168.909 32.0813 168.705 31.8711C168.502 31.6622 168.393 31.501 168.269 31.2229C168.232 31.1396 168.087 30.9481 167.948 30.7976C167.701 30.5306 167.695 30.5142 167.721 30.156C167.744 29.8388 167.778 29.7569 167.968 29.5569C168.088 29.4295 168.253 29.2134 168.333 29.0768C168.413 28.9402 168.58 28.7027 168.704 28.549C168.828 28.3952 169.03 28.1158 169.153 27.928C169.275 27.7402 169.435 27.5333 169.507 27.4687C169.579 27.4039 169.712 27.2223 169.804 27.0651C169.895 26.9079 170.074 26.6533 170.202 26.4995C170.33 26.3455 170.493 26.1061 170.566 25.9672C170.638 25.8284 170.784 25.6332 170.89 25.5328C170.996 25.4327 171.134 25.2506 171.197 25.1282C171.26 25.0057 171.454 24.736 171.627 24.5291C171.8 24.3222 171.942 24.1371 171.942 24.1178C171.942 24.0703 172.219 23.6806 172.58 23.2218C172.743 23.0149 172.876 22.8266 172.876 22.8033C172.876 22.7802 173.002 22.6215 173.156 22.4503C173.31 22.2795 173.436 22.1058 173.436 22.0648C173.436 22.0236 173.515 21.9148 173.611 21.8232C173.765 21.6756 173.834 21.6562 174.206 21.6562C174.6 21.6562 174.637 21.6687 174.809 21.8564C174.91 21.9665 174.993 22.0867 174.993 22.1237C174.993 22.1605 175.093 22.2872 175.216 22.4046C175.339 22.5224 175.495 22.7357 175.563 22.8788C175.631 23.0216 175.811 23.2732 175.961 23.4377C176.112 23.6019 176.235 23.7546 176.236 23.7767C176.238 23.8388 176.666 24.4625 176.826 24.6369C176.904 24.7223 177.041 24.9178 177.13 25.0716C177.219 25.2253 177.391 25.4603 177.511 25.5942C177.631 25.7278 177.748 25.8955 177.77 25.9667C177.791 26.038 177.911 26.2199 178.035 26.3709C178.256 26.6401 178.827 27.4382 179.37 28.2385C179.521 28.4605 179.718 28.7099 179.808 28.7926C179.899 28.8754 179.973 28.9777 179.973 29.0199C179.973 29.0621 180.078 29.232 180.206 29.3972C180.335 29.5626 180.564 29.8793 180.717 30.1014C180.978 30.4814 181.167 30.744 181.84 31.658C181.995 31.8672 182.219 32.1831 182.338 32.3602C182.458 32.5371 182.685 32.8485 182.843 33.0527C183.001 33.2566 183.173 33.5075 183.227 33.6098C183.28 33.7122 183.41 33.8783 183.516 33.9784C183.622 34.0788 183.708 34.1906 183.708 34.2268C183.708 34.2633 183.82 34.4402 183.957 34.62C184.094 34.8001 184.206 34.9635 184.206 34.9829C184.206 35.0025 184.262 35.0895 184.331 35.1764C184.626 35.551 184.39 36.0632 183.846 36.2263C183.454 36.3441 173.994 36.3493 173.805 36.2318C173.717 36.1764 173.642 36.1759 173.5 36.2293C173.39 36.2708 173.298 36.2765 173.277 36.2435Z" fill="#D23E47" stroke="#100F0F" stroke-opacity="0.74"/>
<path d="M0.547531 35.15C0.543557 34.8834 0.536354 29.26 0.531883 22.6531L0.523438 10.6407L1.45737 9.95091C1.97103 9.57162 2.57312 9.13918 2.79568 8.9899C3.01823 8.84062 3.5227 8.4899 3.9164 8.21071C5.59598 7.01896 7.66107 5.56863 8.18069 5.21542C10.4413 3.6804 10.5943 3.58477 10.6785 3.65457C10.7699 3.73007 10.796 3.72163 11.169 3.49386C11.3059 3.41015 11.6 3.25168 11.8225 3.14165C12.0451 3.03161 12.36 2.84905 12.5225 2.73603C12.6847 2.62302 12.8528 2.53037 12.8958 2.53012C12.939 2.52987 13.0585 2.47423 13.1611 2.40642C13.2639 2.33861 13.3926 2.28297 13.4472 2.28273C13.5019 2.28248 13.591 2.2333 13.6457 2.17344C13.7001 2.11382 13.8797 1.99857 14.0443 1.9176C14.209 1.83663 14.4475 1.7179 14.5742 1.65356C14.7008 1.58948 14.8412 1.53707 14.8864 1.53707C14.9313 1.53707 15.0729 1.48118 15.2006 1.41288C15.3283 1.34457 15.476 1.28868 15.529 1.28868C15.5819 1.28868 15.7292 1.23702 15.8561 1.17418C16.1283 1.03906 16.7734 0.881332 17.4227 0.791167C17.6777 0.755648 18.056 0.682374 18.2629 0.627977C18.565 0.54899 18.9843 0.529616 20.3827 0.531355C21.3412 0.532597 22.2657 0.560913 22.4371 0.594694C22.6082 0.628474 22.9165 0.687838 23.1219 0.726835C23.3273 0.765831 23.6775 0.842086 23.9001 0.895986C24.1226 0.949885 24.4306 1.01422 24.5849 1.03906C24.8854 1.08774 25.0613 1.14909 25.5496 1.37637C25.721 1.4561 26.0506 1.5947 26.2823 1.68436C26.5143 1.77428 26.8223 1.92381 26.9671 2.01695C27.112 2.1101 27.3705 2.25913 27.5419 2.3483C28.067 2.62128 29.0886 3.42804 29.7978 4.12973C30.5114 4.83589 31.4873 6.01672 31.6582 6.3806C31.7143 6.50008 31.8546 6.73058 31.9699 6.89303C32.0854 7.05522 32.1798 7.20376 32.1798 7.22288C32.1798 7.27107 32.4731 7.91191 32.6326 8.21245C32.8733 8.66526 32.9195 8.76884 33.0208 9.08181C33.0762 9.25245 33.1574 9.54853 33.2011 9.73953C33.2449 9.93029 33.304 10.1243 33.3325 10.1702C33.3611 10.2162 33.4197 10.3953 33.4632 10.5682C33.5064 10.741 33.5844 10.9944 33.6363 11.131C33.6882 11.2676 33.7324 11.561 33.7344 11.783C33.7364 12.0051 33.7786 12.3543 33.8283 12.5592C33.8869 12.8019 33.9185 13.2671 33.9185 13.8943L33.9187 14.8568L32.1932 15.7088C31.2444 16.1775 29.0551 17.2602 27.3283 18.1151C25.6018 18.9698 24.1537 19.6693 24.1107 19.6693C24.0489 19.6693 24.0397 19.2945 24.0665 17.8839C24.0973 16.2716 24.0874 16.0056 23.9649 15.1362C23.8904 14.6069 23.7876 14.0339 23.7366 13.8632C23.4868 13.0282 23.3243 12.5771 23.1964 12.3613C23.1191 12.2311 22.9726 11.9867 22.871 11.8185C22.6452 11.445 21.6785 10.3548 21.5727 10.3548C21.5307 10.3548 21.3998 10.2544 21.2818 10.1317C21.1027 9.94545 20.0471 9.36124 19.8896 9.36124C19.8633 9.36124 19.7706 9.30535 19.6837 9.23705C19.5965 9.16874 19.452 9.11261 19.3625 9.11211C19.2731 9.11161 19.0223 9.05573 18.8052 8.98792C18.2329 8.80883 16.6807 8.80933 16.1181 8.98866C15.9038 9.05697 15.6594 9.11285 15.5749 9.11285C15.4905 9.11285 15.3471 9.1521 15.2562 9.20029C15.1653 9.24822 14.9229 9.36248 14.7175 9.45414C13.912 9.8133 13.7736 9.88832 13.4924 10.1176C13.3322 10.248 13.182 10.3548 13.1586 10.3548C12.9932 10.3548 11.8849 11.5294 11.8849 11.7045C11.8849 11.7371 11.826 11.817 11.7537 11.8821C11.5963 12.0242 11.3869 12.4176 11.3866 12.5721C11.3866 12.6335 11.3305 12.7748 11.2622 12.8868C11.1939 12.9986 11.137 13.1243 11.136 13.1663C11.1348 13.208 11.0652 13.3821 10.9808 13.5528C10.8965 13.7234 10.8272 13.933 10.8265 14.0185C10.8258 14.1039 10.7786 14.3275 10.7217 14.5153C10.6288 14.8215 10.6169 15.4455 10.6047 20.5386C10.5972 23.6636 10.5876 26.5138 10.5828 26.8725L10.5744 27.5245L10.1561 27.835C8.33171 29.1892 6.15883 30.9552 3.28028 33.4237C2.18415 34.3638 0.805853 35.493 0.642912 35.5846C0.570383 35.6254 0.553492 35.5486 0.547531 35.15Z" fill="#B93948" stroke="#100F0F" stroke-opacity="0.74"/>
<path d="M124.258 36.8117C124.258 36.7802 124.598 35.851 125.013 34.7471C125.427 33.6433 125.857 32.4886 125.968 32.1811C126.851 29.7275 127.007 29.3929 127.48 28.9396C127.789 28.644 127.851 28.6105 128.097 28.6105C128.248 28.6105 128.475 28.5661 128.602 28.5119C128.73 28.4575 128.96 28.3763 129.114 28.3313C129.544 28.2059 129.937 28.0596 130.12 27.9575C130.211 27.9068 130.32 27.8654 130.363 27.8654C130.406 27.8654 130.59 27.7536 130.771 27.617C130.952 27.4804 131.131 27.3686 131.167 27.3686C131.287 27.3686 132.578 26.0385 132.704 25.7851C132.772 25.6485 132.958 25.2801 133.118 24.9664C133.279 24.6527 133.41 24.3507 133.41 24.2948C133.41 24.2392 133.463 24.0626 133.529 23.9026C133.595 23.7426 133.667 23.4319 133.689 23.2121C133.712 22.9923 133.772 22.7315 133.823 22.6326C133.9 22.4838 133.921 21.9888 133.946 19.7722C133.963 18.298 133.984 16.8541 133.994 16.5638C134.004 16.2734 134.017 15.8668 134.022 15.6599L134.032 15.2838L134.491 15.2071C134.743 15.1649 135.521 14.9336 136.219 14.6932C136.916 14.453 138.286 13.991 139.261 13.6668C140.237 13.3425 141.694 12.8576 142.498 12.5891C143.302 12.3206 143.964 12.106 143.97 12.1124C143.977 12.1187 143.998 14.2754 144.018 16.9053C144.086 25.734 144.124 30.1202 144.149 31.9016C144.177 33.9044 144.064 35.5514 143.872 35.9379C143.665 36.3562 143.842 36.3403 139.278 36.3545C134.767 36.3684 134.889 36.3773 134.575 36.0045C134.369 35.7603 134.31 35.1088 134.368 33.692C134.397 32.9692 134.389 32.6441 134.342 32.6148C134.192 32.5226 133.938 32.6766 133.3 33.2457C132.932 33.5738 132.562 33.886 132.476 33.9399C132.39 33.9938 132.201 34.1446 132.056 34.2747C131.911 34.4046 131.687 34.5591 131.558 34.6177C131.43 34.6764 131.234 34.8001 131.124 34.8927C130.95 35.0388 130.71 35.1672 129.986 35.4995C129.9 35.5388 129.676 35.6518 129.488 35.7504C129.299 35.8492 129.1 35.9319 129.045 35.9339C128.989 35.9362 128.807 35.9911 128.64 36.0564C128.473 36.1215 128.126 36.2357 127.869 36.3102C127.612 36.3845 127.262 36.4878 127.091 36.5398C126.92 36.5914 126.247 36.686 125.597 36.7499C124.196 36.8872 124.258 36.8843 124.258 36.8117Z" fill="#F1952A" stroke="#100F0F" stroke-opacity="0.74"/>
<path d="M158.492 18.723C158.492 18.6977 158.338 18.4553 158.15 18.1843C157.962 17.913 157.807 17.6599 157.807 17.6219C157.807 17.5837 157.681 17.418 157.527 17.2538C157.373 17.0894 157.247 16.9128 157.247 16.8611C157.247 16.8094 157.195 16.7006 157.131 16.6192C156.888 16.3087 156.313 15.4391 156.313 15.3807C156.313 15.3472 156.203 15.1999 156.067 15.0534C155.932 14.9068 155.793 14.7136 155.759 14.6234C155.684 14.4279 155.187 13.7498 154.639 13.0958C154.421 12.8348 154.198 12.5514 154.145 12.4659C154.091 12.3805 153.927 12.1793 153.78 12.0183C153.633 11.8576 153.512 11.69 153.511 11.6457C153.511 11.6015 153.357 11.3852 153.169 11.1646C152.981 10.9443 152.827 10.7436 152.827 10.7188C152.827 10.6937 152.664 10.4689 152.465 10.219C152.266 9.96913 152.029 9.63878 151.939 9.48478C151.849 9.33078 151.675 9.10872 151.554 8.99123C151.432 8.874 151.333 8.74335 151.333 8.70087C151.333 8.65865 151.165 8.41299 150.96 8.15516C150.754 7.89734 150.586 7.66286 150.586 7.63405C150.586 7.60549 150.516 7.51632 150.43 7.43609C150.345 7.35586 150.275 7.26346 150.275 7.23092C150.275 7.19838 150.188 7.07046 150.083 6.94701C149.872 6.70012 149.425 6.07866 148.925 5.33747C148.748 5.07443 148.488 4.71626 148.349 4.54164C148.21 4.36703 148.096 4.19166 148.096 4.15217C148.096 4.11243 147.984 3.95893 147.847 3.81064C147.71 3.66235 147.598 3.51183 147.598 3.47606C147.598 3.4403 147.492 3.27586 147.364 3.11044C147.026 2.67651 146.788 2.29846 146.788 2.19389C146.788 2.14397 146.76 2.08585 146.726 2.06473C146.692 2.04362 146.664 1.90601 146.664 1.75897C146.664 1.42961 146.828 1.20184 147.14 1.09901C147.308 1.04386 148.796 1.02449 152.958 1.0225L158.55 1.02002L158.799 1.1924C158.936 1.28728 159.124 1.46637 159.216 1.59056C159.307 1.71476 159.502 1.94203 159.648 2.09578C159.794 2.24953 159.972 2.48848 160.043 2.62683C160.115 2.76518 160.273 2.97457 160.396 3.09256C160.518 3.21029 160.655 3.39062 160.699 3.49295C160.743 3.59529 160.938 3.871 161.132 4.10548C161.325 4.33995 161.515 4.59157 161.553 4.66435C161.59 4.73737 161.722 4.92118 161.845 5.07319C162.123 5.41546 162.352 5.74979 162.352 5.81214C162.352 5.83822 162.453 5.9557 162.575 6.07319C162.698 6.19093 162.849 6.38541 162.912 6.50538C162.974 6.62535 163.146 6.87697 163.295 7.06425C163.444 7.25178 163.594 7.44975 163.628 7.50439C163.828 7.82382 164.051 8.13728 164.144 8.23043C164.203 8.28929 164.341 8.47707 164.451 8.64747C164.562 8.81786 164.751 9.06724 164.872 9.20162C164.992 9.33575 165.091 9.46739 165.091 9.49372C165.091 9.54762 165.385 9.99248 165.454 10.0429C165.479 10.0605 165.546 10.145 165.604 10.2304C165.662 10.3159 165.795 10.5054 165.899 10.6517C166.002 10.798 166.087 10.9393 166.087 10.9657C166.087 10.992 166.189 11.1097 166.313 11.2272C166.437 11.3449 166.575 11.5283 166.621 11.6343C166.667 11.7404 166.845 11.996 167.018 12.2024C167.191 12.4085 167.332 12.6053 167.332 12.6393C167.332 12.6736 167.481 12.8931 167.662 13.1271C167.843 13.3611 168.093 13.7064 168.216 13.8941C168.339 14.0819 168.513 14.3139 168.602 14.4098C168.691 14.5054 168.764 14.6068 168.764 14.6351C168.764 14.6634 168.883 14.843 169.029 15.034C169.174 15.2252 169.358 15.4729 169.437 15.5846C169.515 15.6967 169.711 15.9659 169.872 16.1833C170.149 16.5573 170.269 16.7396 170.569 17.2473C170.64 17.3668 170.753 17.5486 170.82 17.651C170.887 17.7533 170.973 17.9071 171.011 17.9925C171.299 18.6351 171.311 18.7116 171.13 18.7687C170.956 18.8239 158.492 18.7789 158.492 18.723Z" fill="#7A2E40" stroke="#100F0F" stroke-opacity="0.74"/>
<path d="M24.6252 36.2615C24.3284 36.1647 24.2221 36.0817 24.1491 35.8907C24.0532 35.6386 23.9898 28.0618 24.0259 21.0968L24.0328 19.6996L24.3897 19.5479C24.586 19.4646 25.7693 18.8889 27.0189 18.2687C32.7646 15.4172 33.8816 14.877 33.9285 14.9269C33.9563 14.9562 33.9993 17.4674 34.0242 20.5069C34.049 23.5466 34.0761 26.76 34.0845 27.648C34.1307 32.5549 34.1126 35.2916 34.0319 35.5904C33.9265 35.9808 33.745 36.1863 33.5058 36.1863C33.4047 36.1863 33.2229 36.2275 33.1021 36.2779C32.9146 36.3559 32.2892 36.3676 28.8761 36.3554C25.8095 36.3447 24.8127 36.3226 24.6252 36.2615Z" fill="#F1952A" stroke="#100F0F" stroke-opacity="0.74"/>
<path d="M122.433 36.8722C122.1 36.8446 121.782 36.8049 121.727 36.7838C121.672 36.7626 121.328 36.7192 120.963 36.6869C120.598 36.6551 120.196 36.5853 120.068 36.5319C119.941 36.4787 119.773 36.4343 119.695 36.4333C119.617 36.432 119.441 36.3772 119.304 36.3111C119.167 36.245 118.998 36.1901 118.928 36.1889C118.858 36.1879 118.642 36.131 118.447 36.0627C118.252 35.9944 118.047 35.9385 117.992 35.9385C117.937 35.9385 117.817 35.8896 117.726 35.8297C117.409 35.6221 117.309 35.5664 116.868 35.3538C116.624 35.2361 116.344 35.0652 116.246 34.974C116.147 34.8829 115.983 34.7656 115.88 34.7137C115.387 34.4638 114.102 33.2415 113.461 32.4129C112.572 31.2626 111.802 29.9966 111.802 29.6856C111.802 29.6345 111.761 29.5187 111.71 29.4278C111.547 29.1384 111.304 28.4166 111.301 28.2157C111.3 28.1086 111.258 27.9094 111.208 27.7728C111.158 27.6362 111.101 27.3148 111.081 27.0587C111.061 26.8026 111.004 26.4857 110.955 26.3548C110.853 26.0855 110.733 24.2236 110.752 23.2278L110.764 22.5952L111.01 22.5537C111.145 22.5311 111.623 22.3888 112.073 22.2375C112.523 22.0862 113.749 21.699 114.797 21.3771C115.844 21.0552 117.604 20.4973 118.708 20.1374C119.811 19.7775 120.751 19.4829 120.796 19.4829C120.862 19.4829 120.885 19.8391 120.91 21.237C120.927 22.2333 120.97 23.0987 121.01 23.2398C121.048 23.3764 121.119 23.6419 121.167 23.8297C121.368 24.6044 121.41 24.7425 121.533 25.0095C121.604 25.1633 121.768 25.4427 121.899 25.6305C122.029 25.8183 122.136 26.0098 122.136 26.0557C122.136 26.158 123.34 27.3692 123.442 27.3692C123.482 27.3692 123.648 27.4809 123.81 27.6176C123.972 27.7542 124.14 27.8659 124.182 27.8659C124.224 27.8659 124.368 27.9218 124.502 27.9901C124.636 28.0584 124.796 28.1153 124.857 28.1163C124.919 28.1176 125.081 28.1725 125.218 28.2385C125.355 28.3046 125.517 28.3595 125.578 28.3607C125.64 28.3617 125.794 28.4146 125.921 28.4782C126.193 28.6143 126.804 28.703 127.354 28.6864L127.746 28.6744L127.438 28.9742C126.995 29.4047 126.867 29.6859 125.906 32.3369C125.595 33.1931 124.236 36.8305 124.216 36.859C124.181 36.9087 122.982 36.9174 122.433 36.8722Z" fill="#EE7A30" stroke="#100F0F" stroke-opacity="0.74"/>
<path d="M173.966 15.7326C173.828 15.6489 173.623 15.4516 173.509 15.2942C173.396 15.1367 173.222 14.9477 173.122 14.8741C173.022 14.8004 172.941 14.7045 172.941 14.6608C172.941 14.6171 172.818 14.4437 172.668 14.2755C172.518 14.1071 172.294 13.8163 172.169 13.629C172.044 13.4417 171.837 13.1665 171.708 13.017C171.579 12.8677 171.443 12.6744 171.405 12.5875C171.367 12.5008 171.193 12.2733 171.018 12.082C170.843 11.8908 170.699 11.7013 170.699 11.6605C170.699 11.6198 170.538 11.3861 170.342 11.1411C170.145 10.8965 169.956 10.6516 169.921 10.5969C169.711 10.2611 169.516 9.99807 169.401 9.89549C169.328 9.83066 169.194 9.65008 169.102 9.4941C169.011 9.33836 168.828 9.09916 168.697 8.96305C168.566 8.82668 168.458 8.68287 168.458 8.64362C168.458 8.60413 168.358 8.44144 168.236 8.28222C168.003 7.9767 167.773 7.40492 167.773 7.12722C167.773 6.87909 167.957 6.30432 168.081 6.16324C168.141 6.09493 168.209 5.99707 168.232 5.9459C168.298 5.79687 168.472 5.54475 168.712 5.25364C168.834 5.10511 169.162 4.69006 169.441 4.33139C169.72 3.97272 170.082 3.51643 170.246 3.31747C170.41 3.11827 170.591 2.86963 170.649 2.76506C170.707 2.66024 170.836 2.48786 170.935 2.3818C171.034 2.27574 171.204 2.06287 171.312 1.90888C171.42 1.75488 171.669 1.50376 171.865 1.35125C172.183 1.10361 172.265 1.07007 172.627 1.04002C172.969 1.0117 179.217 1.00748 183.016 1.03306L184.096 1.04027L184.313 1.25661C184.501 1.44414 184.525 1.49978 184.489 1.67564C184.466 1.78741 184.366 1.99035 184.267 2.12696C184.168 2.26357 183.998 2.5291 183.89 2.71688C183.782 2.90466 183.592 3.18434 183.469 3.33809C183.236 3.62771 183.16 3.73899 182.988 4.04748C182.932 4.14758 182.785 4.3602 182.66 4.52016C182.536 4.68012 182.358 4.93348 182.265 5.0835C182.172 5.23328 181.971 5.52364 181.818 5.72856C181.665 5.93348 181.538 6.12747 181.536 6.15926C181.534 6.19155 181.41 6.37312 181.262 6.56289C181.113 6.75291 180.893 7.06215 180.773 7.24993C180.652 7.43771 180.494 7.64461 180.42 7.70969C180.347 7.77477 180.286 7.86344 180.286 7.90666C180.286 7.95013 180.217 8.06861 180.131 8.16995C180.045 8.27154 179.975 8.37537 179.975 8.4007C179.975 8.42629 179.821 8.63493 179.633 8.86444C179.445 9.09395 179.29 9.31128 179.29 9.34705C179.29 9.38282 179.171 9.56141 179.026 9.74373C178.752 10.0875 178.652 10.2365 178.553 10.4479C178.521 10.5162 178.436 10.6252 178.364 10.6903C178.291 10.7554 178.232 10.8317 178.232 10.86C178.232 10.888 178.12 11.0584 177.983 11.2385C177.846 11.4183 177.734 11.5972 177.734 11.6357C177.734 11.6742 177.694 11.7385 177.646 11.7788C177.597 11.8187 177.423 12.0527 177.259 12.2986C177.095 12.5443 176.86 12.8712 176.736 13.0249C176.613 13.1787 176.445 13.4161 176.363 13.5527C176.282 13.6893 176.067 13.9859 175.885 14.2117C175.704 14.4375 175.555 14.6417 175.555 14.6655C175.555 14.7152 175.115 15.2922 174.839 15.6032C174.583 15.8928 174.299 15.9348 173.966 15.7326Z" fill="#7A2E40" stroke="#100F0F" stroke-opacity="0.74"/>
<path d="M54.2496 36.9901C52.4709 36.8676 50.6109 36.5273 49.3002 36.0845C49.1462 36.0323 48.8844 35.9655 48.7187 35.9357C48.5528 35.9059 48.3849 35.8557 48.3452 35.8242C48.3054 35.7926 48.2031 35.7457 48.1174 35.7196C48.0319 35.6937 47.8951 35.6202 47.8134 35.5566C47.7317 35.493 47.6162 35.4411 47.5563 35.4411C47.3834 35.4411 46.7428 35.1272 46.7831 35.0621C46.8658 34.9285 48.3911 34.2307 50.9671 33.1483C54.2806 31.7558 56.4726 30.6704 58.537 29.3996C58.7379 29.2759 59.0253 29.1562 59.1758 29.1339C59.3261 29.1115 59.5163 29.0405 59.5983 28.9759C59.6803 28.9116 59.7712 28.8589 59.8 28.8586C59.8626 28.8584 60.4279 28.5762 60.5288 28.495C60.5675 28.4635 60.8656 28.3067 61.191 28.1465C61.5161 27.9863 61.8243 27.8298 61.8758 27.7988C61.9269 27.7677 62.067 27.6855 62.187 27.6157C62.3067 27.5462 62.4888 27.4349 62.5916 27.3686C62.6942 27.3023 62.8827 27.191 63.0101 27.1217C63.1376 27.0521 63.3335 26.9185 63.4458 26.8249C63.7076 26.6063 64.0382 26.375 64.0889 26.375C64.1105 26.375 64.3008 26.2181 64.5116 26.0263C64.7225 25.8345 65.0072 25.605 65.144 25.5164C65.2809 25.4277 65.5114 25.2493 65.6562 25.1199C66.0623 24.757 66.2824 24.7831 66.8986 25.2665C67.1661 25.4766 67.5812 25.8303 67.8209 26.0526C68.0606 26.2747 68.4294 26.613 68.6408 26.804C69.5062 27.5867 70.8832 28.9677 71.0226 29.1927L71.1714 29.4334L71.0526 29.6585C70.8803 29.9846 70.0385 30.9496 69.2839 31.6865C68.5695 32.384 67.6105 33.2027 67.5057 33.2044C67.4694 33.2052 67.3581 33.2906 67.2583 33.3944C67.1584 33.4983 66.9053 33.6788 66.6959 33.7958C66.4863 33.9128 66.2789 34.0514 66.2354 34.1038C66.1917 34.1562 66.1319 34.1992 66.1026 34.1992C66.0732 34.1992 65.9014 34.2931 65.721 34.4078C65.5407 34.5229 65.3246 34.6381 65.2409 34.6644C65.1572 34.6905 64.9543 34.8063 64.7901 34.9215C64.4945 35.1287 64.1954 35.2616 63.7121 35.4007C63.5752 35.4399 63.3939 35.5211 63.3092 35.5807C63.2245 35.6406 63.112 35.6895 63.0593 35.6895C63.0064 35.6895 62.8586 35.7454 62.731 35.8137C62.6033 35.882 62.4413 35.9379 62.3715 35.9379C62.3015 35.9379 62.1403 35.9898 62.0134 36.0534C61.8862 36.1167 61.6669 36.1865 61.526 36.2082C61.385 36.2295 61.1887 36.2891 61.0901 36.3405C60.9915 36.392 60.8328 36.4342 60.7377 36.4344C60.6423 36.4344 60.4634 36.4767 60.34 36.5281C60.2165 36.5795 59.8604 36.65 59.5484 36.6846C59.2362 36.7193 58.8127 36.7777 58.6072 36.8145C57.7446 36.9685 55.3422 37.0653 54.2496 36.9901Z" fill="#EA613A" stroke="#100F0F" stroke-opacity="0.74"/>
<path d="M72.3379 36.2991C72.081 36.275 71.7589 36.2316 71.622 36.2028C71.3788 36.1516 71.3726 36.1434 71.3542 35.8637C71.3413 35.6647 71.3746 35.5038 71.4633 35.3391C71.5333 35.2085 71.591 35.0666 71.591 35.0242C71.591 34.9251 71.934 34.3955 72.3008 33.9278C72.4581 33.7273 72.587 33.5281 72.587 33.4849C72.587 33.3806 73.0604 32.9573 73.1772 32.9573C73.2276 32.9573 73.317 32.8841 73.3759 32.7946C73.477 32.6404 73.477 32.6275 73.3734 32.5522C73.2735 32.4792 73.2857 32.4551 73.5197 32.2678C73.7599 32.0751 73.8622 31.9385 74.014 31.6066C74.0492 31.5299 74.1317 31.467 74.197 31.467C74.2626 31.467 74.3771 31.4181 74.4514 31.358C74.5602 31.2701 74.5753 31.2194 74.5299 31.0964C74.4675 30.9288 74.6516 30.5604 75.04 30.0743C75.1513 29.9352 75.3637 29.626 75.5122 29.3868C75.6608 29.1476 75.8898 28.8247 76.0212 28.6687C76.1523 28.513 76.2599 28.353 76.2599 28.3138C76.2599 28.2743 76.3789 28.1059 76.5244 27.9394C76.67 27.773 76.8659 27.5135 76.9601 27.3629C77.054 27.2124 77.2447 26.9355 77.3836 26.7477C77.5227 26.5599 77.7385 26.2524 77.8637 26.0646C77.9886 25.8768 78.1831 25.6083 78.2959 25.4682C78.4087 25.3282 78.5011 25.1853 78.5011 25.1508C78.5011 25.1163 78.5882 24.9794 78.6948 24.8468C78.8796 24.616 79.0127 24.4255 79.7748 23.3013C79.9598 23.0281 80.1918 22.7067 80.2902 22.5872C80.3885 22.4677 80.5724 22.2161 80.699 22.0283C81.1585 21.3465 81.7746 20.4898 82.0028 20.2156C82.1312 20.0616 82.2363 19.9059 82.2363 19.8699C82.2363 19.8338 82.3563 19.655 82.5028 19.4724C82.6494 19.2901 82.8183 19.0641 82.8779 18.9702L82.9862 18.7993H89.3347C92.8265 18.7993 95.6832 18.8137 95.6832 18.8314C95.6832 18.8487 95.6509 18.9255 95.6112 19.002C95.5717 19.0785 95.5103 19.1967 95.475 19.265C95.4395 19.3333 95.3481 19.5172 95.2719 19.6734C95.1956 19.8299 95.0667 20.0393 94.9855 20.1391C94.9042 20.239 94.8029 20.3905 94.7602 20.4759C94.63 20.7355 94.5401 20.8748 94.3377 21.1309C94.2311 21.2658 94.091 21.4707 94.0265 21.586C93.7584 22.0641 93.7145 22.1302 93.5448 22.308C93.4472 22.4104 93.295 22.6197 93.2065 22.7735C93.1181 22.9272 92.946 23.1679 92.8238 23.3085C92.7016 23.4491 92.5317 23.6848 92.446 23.8324C92.3605 23.9802 92.165 24.2564 92.0115 24.4464C91.8583 24.6364 91.6891 24.8756 91.6357 24.9779C91.5823 25.0803 91.4403 25.27 91.3203 25.3994C91.2003 25.5291 91.0483 25.7387 90.9827 25.8652C90.9169 25.9921 90.743 26.2273 90.5962 26.388C90.4494 26.5487 90.3295 26.7069 90.3295 26.7395C90.3295 26.772 90.2117 26.9471 90.0677 27.1287C89.9239 27.3103 89.6787 27.6431 89.523 27.8682C89.3675 28.0934 89.1139 28.4491 88.9599 28.6588C88.3844 29.4417 88.1772 29.7308 87.8255 30.2427C87.7132 30.4062 87.5023 30.696 87.3568 30.8868C87.2112 31.0776 87.0923 31.2619 87.0923 31.2969C87.0923 31.3314 86.98 31.4812 86.8431 31.6295C86.7063 31.7778 86.5942 31.9265 86.5942 31.9603C86.5942 31.9941 86.3699 32.3187 86.096 32.6816C85.8222 33.0445 85.598 33.3654 85.598 33.3942C85.598 33.4231 85.4579 33.6064 85.2867 33.8016C85.1156 33.9968 84.9755 34.1779 84.9755 34.204C84.9755 34.2301 84.8357 34.4141 84.6648 34.6133C84.4939 34.8125 84.3538 35.0035 84.3533 35.0376C84.3528 35.0716 84.1355 35.3287 83.8702 35.6086C83.5383 35.9588 83.3299 36.1285 83.2013 36.1528C83.0984 36.1725 82.9025 36.2214 82.7656 36.2619C82.4852 36.3443 73.1697 36.3779 72.3379 36.2991Z" fill="#EE7A30" stroke="#100F0F" stroke-opacity="0.74"/>
<path d="M82.9796 18.7164C82.9796 18.6705 82.9235 18.5823 82.8549 18.5204C82.7866 18.4586 82.7305 18.3804 82.7305 18.3468C82.7305 18.3133 82.6304 18.1707 82.5077 18.0304C82.3852 17.89 82.1912 17.6354 82.0767 17.4648C81.962 17.2942 81.649 16.8369 81.381 16.4487C81.1132 16.0604 80.7961 15.5843 80.6761 15.3903C80.5564 15.1965 80.3579 14.9134 80.2352 14.7611C80.1125 14.6086 79.9468 14.3724 79.8668 14.2358C79.7869 14.0992 79.6321 13.8756 79.5231 13.739C79.4138 13.6024 79.2367 13.3349 79.1291 13.1449C79.0218 12.9546 78.8619 12.7313 78.7737 12.6488C78.6858 12.5664 78.573 12.4146 78.5231 12.3118C78.4734 12.2087 78.2831 11.9258 78.1001 11.6831C77.9173 11.4402 77.7146 11.1476 77.65 11.0331C77.5852 10.9183 77.4133 10.6759 77.2677 10.4941C77.1222 10.3123 77.0032 10.1339 77.0032 10.0974C77.0032 10.0609 76.9158 9.92106 76.8092 9.78693C76.5372 9.44416 76.0693 8.74147 76.0693 8.6754C76.0693 8.6451 75.9433 8.47868 75.7891 8.30555C75.6351 8.13243 75.5092 7.95533 75.5092 7.91161C75.5092 7.86815 75.3815 7.68335 75.2255 7.50103C75.0698 7.31896 74.8897 7.06735 74.8256 6.94191C74.7613 6.81648 74.6646 6.67738 74.611 6.63267C74.5571 6.58821 74.5129 6.51941 74.5129 6.47991C74.5129 6.44042 74.4336 6.32144 74.3365 6.21538C74.2394 6.10932 74.0807 5.88652 73.9838 5.72035C73.8867 5.55418 73.719 5.30629 73.611 5.16968C73.4212 4.92973 72.8753 4.12968 72.4898 3.52635C72.3869 3.36565 72.2108 3.11055 72.0986 2.95978C71.986 2.80901 71.7513 2.46748 71.5767 2.20071C71.2019 1.62818 71.2136 1.53106 71.691 1.2556L71.9918 1.08198L74.1395 1.04299C76.4632 1.00126 82.8664 1.02013 83.0787 1.06956C83.2439 1.10806 83.9232 1.88551 84.5671 2.77324C84.841 3.15079 85.1982 3.63142 85.3607 3.84131C85.5233 4.05119 85.6565 4.2504 85.6565 4.28418C85.6565 4.31771 85.7638 4.47494 85.8949 4.63316C86.0263 4.79163 86.3207 5.20072 86.5492 5.54226C86.7777 5.88379 87.0276 6.24693 87.1043 6.34901C87.1811 6.45135 87.4789 6.85647 87.7663 7.24941C88.0534 7.64261 88.4106 8.12249 88.5599 8.31574C88.7091 8.50923 88.8314 8.68981 88.8314 8.71688C88.8314 8.74395 88.9277 8.86492 89.0457 8.98613C89.1634 9.1071 89.303 9.28991 89.3559 9.39224C89.4086 9.49458 89.5797 9.74619 89.736 9.95111C90.3795 10.7951 91.0124 11.6687 91.0964 11.8292C91.1456 11.9233 91.2725 12.0825 91.3783 12.1826C91.4841 12.283 91.5706 12.399 91.5706 12.4402C91.5706 12.4814 91.7948 12.8006 92.0686 13.1491C92.3425 13.4976 92.5666 13.8081 92.5666 13.8384C92.5666 13.8689 92.661 13.9988 92.7765 14.127C92.8917 14.2552 93.0845 14.5137 93.2047 14.7015C93.3249 14.8893 93.4859 15.0989 93.5619 15.1672C93.6381 15.2355 93.7539 15.3893 93.8189 15.5088C94.0042 15.8483 94.0748 15.9539 94.3234 16.2631C94.4511 16.4221 94.6245 16.6809 94.7087 16.8389C94.7926 16.9966 94.9431 17.2298 95.0427 17.3572C95.2288 17.595 95.5549 18.2564 95.7417 18.7142C95.7417 18.7865 94.739 18.7999 89.3607 18.7999C84.0569 18.7999 82.9796 18.7857 82.9796 18.7164Z" fill="#9B3446" stroke="#100F0F" stroke-opacity="0.74"/>
<path d="M37.8636 12.8547C37.9721 12.5106 38.1129 12.1746 38.183 12.0931C38.2272 12.0419 38.2818 11.916 38.3047 11.8137C38.368 11.5305 38.7826 10.6597 38.9426 10.4736C38.989 10.4197 39.027 10.3412 39.027 10.299C39.027 10.1997 39.2975 9.65495 39.5235 9.29876C39.6211 9.14501 39.7764 8.87054 39.8688 8.68897C39.9609 8.5074 40.2014 8.15146 40.4033 7.89811C40.605 7.64501 40.7702 7.4145 40.7702 7.38619C40.7702 7.31614 41.4652 6.53298 42.1266 5.85762C42.802 5.1681 43.9227 4.15642 44.2727 3.9207C44.4177 3.82284 44.6644 3.63779 44.8206 3.50912C44.9768 3.38071 45.1405 3.27539 45.1843 3.27539C45.228 3.27539 45.4222 3.16983 45.6159 3.04092C46.1145 2.70882 46.1698 2.67753 46.6219 2.46963C46.8445 2.36729 47.0685 2.25502 47.1199 2.22C47.1713 2.18523 47.2695 2.13232 47.3378 2.10226C47.7009 1.94305 47.7816 1.90554 47.8671 1.85661C48.0196 1.76893 48.5616 1.59332 48.876 1.52949C49.0372 1.4967 49.2474 1.42914 49.343 1.37946C49.4386 1.32978 49.5668 1.2888 49.6276 1.2888C49.6887 1.28855 49.8427 1.24334 49.9702 1.18845C50.1872 1.09481 50.7238 1.00489 51.9759 0.852384C52.2667 0.816865 52.687 0.747068 52.9096 0.697391C53.9704 0.461175 56.5591 0.430376 57.7032 0.640759C57.9943 0.694162 58.4565 0.764455 58.7305 0.796497C59.0042 0.828788 59.3125 0.885668 59.4153 0.922677C59.5179 0.959687 59.77 1.01259 59.9754 1.04041C60.3495 1.09083 60.7273 1.20037 61.2516 1.41051C61.4059 1.47211 61.7419 1.58413 61.9988 1.65914C62.5378 1.81662 62.7489 1.90331 63.4777 2.26645C63.769 2.41151 64.0358 2.53023 64.0706 2.53023C64.1053 2.53023 64.2906 2.63505 64.4824 2.76297C64.6744 2.89089 64.8872 3.02576 64.9558 3.06253C65.2732 3.23267 65.4113 3.32184 65.6717 3.52552C65.8259 3.64599 66.0343 3.78583 66.1351 3.836C66.236 3.88642 66.4739 4.06849 66.6642 4.24087C66.8545 4.4135 67.0942 4.61817 67.197 4.69591C67.6918 5.07123 68.9585 6.39364 69.4069 7.00342C69.5269 7.16637 69.7494 7.4453 69.9017 7.62364L70.1784 7.94779L69.9951 7.91078C69.7434 7.85986 67.7663 7.64351 66.6677 7.5464C65.4394 7.4381 59.7499 7.43835 58.4814 7.54664C56.5204 7.7143 53.9866 8.05608 52.8785 8.30248C52.7417 8.33303 52.3214 8.41923 51.9446 8.49399C48.9277 9.09285 44.8931 10.2983 41.8283 11.5161C41.0923 11.8087 40.2098 12.1383 39.8673 12.2488C39.525 12.3596 38.9264 12.5658 38.5369 12.7071C37.9438 12.9225 37.8347 12.9463 37.8636 12.8547Z" fill="#7A2E40" stroke="#100F0F" stroke-opacity="0.74"/>
<path d="M46.4682 34.9083C46.3654 34.8226 46.1973 34.7123 46.0947 34.6634C45.8726 34.5575 45.768 34.4915 45.3368 34.184C45.1573 34.0558 44.9918 33.951 44.969 33.951C44.9464 33.951 44.658 33.7481 44.3284 33.5002C43.9985 33.252 43.659 33.0039 43.5733 32.9485C43.2524 32.7406 41.6394 31.1368 41.3023 30.6897C41.1093 30.4343 40.9268 30.2252 40.8962 30.2252C40.8445 30.2252 40.7648 30.1022 40.5743 29.7284C40.5308 29.643 40.3753 29.4239 40.2288 29.2416C40.0825 29.059 39.9625 28.8829 39.9625 28.8504C39.9625 28.7995 39.7556 28.4423 39.4797 28.0173C39.4367 27.951 39.3018 27.7011 39.1798 27.4619C39.0581 27.2227 38.8748 26.8906 38.7725 26.7234C38.5944 26.4331 38.4799 26.1671 38.3279 25.6921C38.2896 25.5727 38.2077 25.4008 38.1456 25.3101C38.0835 25.2192 38.0328 25.1067 38.0328 25.0598C38.0328 25.0131 37.9898 24.9135 37.9372 24.8387C37.8848 24.7639 37.772 24.4433 37.6868 24.1263C37.6014 23.8091 37.4908 23.4219 37.4409 23.2657C37.3912 23.1094 37.3244 22.7977 37.2926 22.5734C37.2606 22.3491 37.199 22.0995 37.1555 22.0193C37.112 21.9388 37.0564 21.5518 37.0318 21.1591C37.0072 20.7664 36.9536 20.2537 36.9126 20.0197C36.7645 19.1725 36.9478 16.062 37.1873 15.3578C37.2414 15.1991 37.2857 14.9994 37.2857 14.9142C37.2857 14.829 37.3306 14.6553 37.3858 14.5284C37.4409 14.4012 37.5214 14.1019 37.5648 13.8627C37.6081 13.6235 37.696 13.3198 37.7603 13.1876C37.8723 12.9571 37.9113 12.9348 38.7176 12.6427C39.1798 12.475 39.7119 12.2932 39.9004 12.2388C40.0887 12.1841 40.9012 11.8796 41.7057 11.5619C44.9404 10.2842 48.894 9.09994 51.9464 8.49387C52.3232 8.41911 52.7435 8.33292 52.8803 8.30237C53.4822 8.16874 55.4616 7.86322 56.4598 7.74996C58.6861 7.4976 59.3525 7.4668 62.592 7.4668C65.8225 7.4668 66.3531 7.49139 68.6929 7.74971C69.9917 7.89328 70.1559 7.92134 70.1559 8.00083C70.1559 8.03312 70.2629 8.17768 70.3936 8.32199C70.5242 8.4663 70.709 8.71991 70.8041 8.88558C70.8995 9.051 71.0868 9.34211 71.2204 9.53238C71.3538 9.72239 71.4631 9.90421 71.4631 9.93601C71.4631 9.96805 71.5029 10.0821 71.5515 10.1896C71.7743 10.6839 71.899 10.9969 71.899 11.0632C71.899 11.1029 71.9557 11.246 72.025 11.3814C72.0943 11.5167 72.167 11.739 72.1864 11.8757C72.2058 12.0123 72.2751 12.2847 72.3404 12.4815C72.4057 12.6779 72.4594 12.8873 72.4596 12.9472C72.4599 13.0066 72.5021 13.136 72.5535 13.2346C72.6052 13.3329 72.6648 13.5284 72.6864 13.6693C72.708 13.8098 72.7639 14.0006 72.8106 14.093C73.0501 14.5667 73.2197 16.7867 73.1944 19.1099C73.1725 21.131 73.1576 21.1986 72.6887 21.411C72.4353 21.5257 72.0637 21.5289 59.4002 21.5302L46.3721 21.5317L46.3023 21.6842C46.2288 21.8454 46.3078 22.2639 46.473 22.5873C46.5438 22.7262 46.6846 23.0317 47.0274 23.7922C47.397 24.6114 49.1667 26.6455 50.0167 27.2274C50.1536 27.3213 50.3918 27.5006 50.5458 27.6263C50.6998 27.7518 50.9521 27.9174 51.1061 27.9942C51.2601 28.0712 51.4422 28.181 51.5107 28.2384C51.6459 28.3516 52.7211 28.8233 52.9737 28.8802C53.0594 28.8993 53.3816 29.0024 53.6896 29.1089C54.1054 29.253 54.4424 29.3191 54.9971 29.366C55.7199 29.4269 58.0306 29.3951 58.4593 29.3183C58.6663 29.2813 58.6645 29.2843 58.3516 29.5004C57.8456 29.8499 55.9539 30.8891 54.9347 31.3777C53.7373 31.9515 52.4755 32.5148 50.9675 33.1485C49.0813 33.9411 47.8207 34.4984 47.243 34.7953C46.9501 34.9458 46.698 35.0677 46.6826 35.0665C46.6675 35.0653 46.5708 34.9942 46.4682 34.9083ZM63.6069 14.972C63.8178 14.8369 63.8379 14.7227 63.7187 14.3354C63.4363 13.4184 63.2413 12.9899 63.022 12.8041C62.9795 12.7684 62.9075 12.6494 62.8617 12.5396C62.6936 12.1357 61.3444 10.6759 60.5922 10.0843C60.0572 9.66328 58.8702 8.95413 58.586 8.88558C58.4954 8.86372 58.323 8.79691 58.203 8.73729C57.7087 8.49064 57.3809 8.3672 57.2209 8.3672C57.1275 8.3672 56.8317 8.32522 56.5634 8.27405C55.9211 8.15135 54.3967 8.15209 53.814 8.27505C53.5746 8.32572 53.275 8.3672 53.1488 8.3672C53.0227 8.3672 52.8406 8.39725 52.7442 8.43401C52.6479 8.47053 52.4571 8.52492 52.32 8.55473C51.4789 8.73754 51.4551 8.74822 51.09 9.10441C50.8928 9.29666 50.587 9.53114 50.4104 9.62552C50.0336 9.82696 49.6993 10.1071 48.8739 10.9132C48.1841 11.5865 47.8036 12.0172 47.6796 12.2636C47.6324 12.3578 47.507 12.5463 47.4009 12.6829C47.2946 12.8195 47.0751 13.2107 46.9129 13.5523C46.7509 13.8938 46.5775 14.2525 46.5276 14.3491C46.3421 14.7087 46.475 14.9842 46.8734 15.0654C46.9792 15.087 50.7551 15.0955 55.2646 15.0843C62.3732 15.0667 63.4827 15.0518 63.6069 14.972Z" fill="#D23E47" stroke="#100F0F" stroke-opacity="0.74"/>
<path d="M143.54 11.7159C143.346 11.6874 142.828 11.5808 142.389 11.4787C140.456 11.0304 138.541 10.7125 135.932 10.407C134.96 10.2932 134.164 10.1717 134.123 10.131C134.029 10.0371 133.923 6.63694 133.939 4.23803C133.948 2.88333 133.972 2.43747 134.045 2.21989C134.096 2.06614 134.154 1.82694 134.175 1.68834C134.195 1.54974 134.256 1.34706 134.31 1.23827L134.409 1.04005L135.852 1.03235C136.646 1.02813 138.721 1.02763 140.464 1.03111C144.018 1.03807 143.863 1.01795 143.993 1.49013C144.046 1.68511 144.055 2.89773 144.027 6.13197C144.007 8.53983 143.989 10.7962 143.989 11.1464C143.988 11.4964 143.967 11.7793 143.941 11.7751C143.915 11.7711 143.735 11.7443 143.54 11.7159Z" fill="#7A2E40" stroke="#100F0F" stroke-opacity="0.74"/>
<path d="M1.27528 36.2342C0.965789 36.1987 0.801606 36.1462 0.699519 36.0506C0.475475 35.8407 0.518942 35.6887 0.883574 35.4043C1.61209 34.8365 2.38283 34.2001 3.34955 33.3685C5.98891 31.0973 7.89726 29.5419 9.95688 27.9825C10.248 27.762 10.5148 27.5643 10.5498 27.5424C10.5932 27.5158 10.6089 28.8089 10.5992 31.5742L10.5848 35.645L10.4238 35.8874C10.3357 36.0206 10.1874 36.1609 10.0945 36.1989C9.89354 36.2816 1.96306 36.3134 1.27528 36.2342Z" fill="#F2852F" stroke="#100F0F" stroke-opacity="0.74"/>
<path d="M73.5781 32.1867C73.5781 32.1033 73.9634 31.5827 73.9986 31.6179C74.018 31.6373 73.9875 31.7041 73.9306 31.767C73.8737 31.8295 73.827 31.9093 73.827 31.9438C73.827 31.9786 73.7711 32.0576 73.7026 32.1194C73.634 32.1813 73.5781 32.2116 73.5781 32.1867Z" fill="#F2852F" stroke="#100F0F" stroke-opacity="0.74"/>
<path d="M73.0965 32.8299C73.1782 32.5959 73.3176 32.4811 73.409 32.5723C73.4984 32.6612 73.3312 32.928 73.1578 32.9732C73.0476 33.002 73.0414 32.9876 73.0965 32.8299Z" fill="#F2852F" stroke="#100F0F" stroke-opacity="0.74"/>
<path d="M98.2141 15.6483C97.9938 15.4806 97.7111 15.1532 97.1875 14.4602C97.0427 14.2682 96.7553 13.8986 96.5494 13.6388C96.3435 13.379 96.1748 13.1403 96.1748 13.1085C96.1748 13.0765 96.0467 12.9259 95.8897 12.7737C95.733 12.6212 95.5611 12.4128 95.5079 12.3104C95.455 12.2081 95.296 11.9965 95.155 11.84C94.8932 11.5501 94.4329 10.9461 94.078 10.4269C93.9692 10.2675 93.7923 10.034 93.685 9.90781C93.5777 9.78163 93.4115 9.52554 93.3157 9.33875C93.22 9.15197 93.0397 8.87501 92.9153 8.72325C92.7906 8.57173 92.6885 8.40854 92.6882 8.36085C92.688 8.31316 92.6423 8.19021 92.5867 8.08788C92.5308 7.9848 92.4721 7.69195 92.4553 7.43288C92.4304 7.0449 92.4478 6.9145 92.5568 6.67555C92.6294 6.51684 92.6887 6.36234 92.6887 6.33253C92.6887 6.30223 92.8077 6.12091 92.9533 5.92915C93.0988 5.73765 93.3159 5.4376 93.4356 5.26273C93.5556 5.08762 93.7727 4.79651 93.9182 4.61593C94.0638 4.43511 94.1828 4.24683 94.1828 4.19715C94.1828 4.14748 94.2821 4.01086 94.4036 3.89363C94.5248 3.77614 94.6982 3.55408 94.7888 3.40008C94.8793 3.24608 95.116 2.91573 95.3149 2.66585C95.5141 2.41598 95.6768 2.18821 95.6768 2.15939C95.6768 2.05582 96.4895 1.29923 96.7409 1.16833C96.996 1.03569 97.0246 1.03495 101.178 1.03172C103.476 1.02973 106.008 1.03097 106.804 1.0342L108.25 1.03992L108.445 1.21354L108.64 1.38716L108.53 1.72571C108.334 2.33103 107.954 3.07097 107.612 3.51235C107.428 3.74981 107.241 4.03123 107.197 4.13754C107.153 4.2441 107.095 4.33103 107.069 4.33103C107.042 4.33103 106.85 4.57545 106.642 4.8745C106.1 5.65121 105.497 6.48877 105.238 6.82459C105.115 6.9838 105.015 7.14351 105.015 7.17978C105.015 7.21579 104.896 7.38345 104.75 7.55211C104.605 7.72076 104.35 8.06403 104.184 8.3149C103.677 9.08167 103.473 9.3775 103.207 9.73344C103.066 9.92122 102.862 10.2061 102.754 10.3666C102.645 10.5268 102.437 10.8122 102.291 11.0002C102.146 11.1887 102.027 11.3681 102.027 11.3994C102.027 11.4307 101.859 11.6661 101.653 11.923C101.448 12.1795 101.28 12.4155 101.28 12.4471C101.28 12.4786 101.193 12.5867 101.087 12.687C100.982 12.7871 100.852 12.9533 100.799 13.0556C100.746 13.1579 100.514 13.4794 100.284 13.7697C100.053 14.0601 99.8207 14.3837 99.7668 14.4893C99.7126 14.5946 99.5757 14.7518 99.4625 14.8388C99.3492 14.9257 99.1865 15.11 99.1008 15.2486C99.0151 15.387 98.8892 15.5295 98.8207 15.5655C98.7523 15.6013 98.6383 15.6731 98.5673 15.725C98.4488 15.8117 98.4208 15.8057 98.2141 15.6483Z" fill="#9B3446" stroke="#100F0F" stroke-opacity="0.74"/>
<path d="M0.500847 6.17156C0.49588 3.70782 0.513267 1.61889 0.539596 1.52947C0.565676 1.44005 0.674966 1.29375 0.782021 1.20408L0.976756 1.04164L3.73906 1.03295C5.25844 1.02847 7.28651 1.02798 8.24628 1.0322L9.99095 1.0399L10.1765 1.21079C10.3583 1.37795 10.3645 1.40403 10.479 2.48551C10.5431 3.09306 10.5851 3.59729 10.5719 3.60648C10.5588 3.61542 10.1417 3.89585 9.64519 4.22918C7.82874 5.44925 6.86848 6.11667 3.9179 8.21032C3.52421 8.4895 3.01973 8.84022 2.79718 8.9895C2.57463 9.13878 1.96906 9.57371 1.45142 9.95623L0.510038 10.6515L0.500847 6.17156Z" fill="#7A2E40" stroke="#100F0F" stroke-opacity="0.74"/>
<path d="M134.052 12.7422C134.063 11.3574 134.082 10.2158 134.095 10.2054C134.129 10.1768 137.84 10.6338 138.818 10.7869C139.281 10.8591 140.261 11.041 140.997 11.191C142.427 11.4823 143.617 11.7203 143.845 11.7603C144.035 11.7938 144.023 11.9573 143.827 12.0062C143.719 12.0333 143.63 12.0104 143.223 12.2146C143.111 12.2558 142.968 12.3177 142.904 12.3517C142.84 12.3857 142.366 12.5509 141.85 12.7181C141.334 12.8855 140.896 13.0462 140.877 13.075C140.857 13.1041 140.085 13.3812 139.16 13.6912C138.236 14.0012 136.989 14.4267 136.39 14.6366C135.32 15.0114 134.438 15.2588 134.168 15.2595L134.031 15.26L134.052 12.7422Z" fill="#D23E47" stroke="#100F0F" stroke-opacity="0.74"/>
<path d="M147.627 36.3064C147.559 36.2793 147.37 36.2553 147.207 36.253C146.889 36.2483 146.66 36.0958 146.664 35.8914C146.668 35.6619 146.901 35.1196 147.165 34.7249C147.317 34.4984 147.495 34.2247 147.561 34.1166C147.627 34.0083 147.797 33.7662 147.939 33.5784C148.08 33.3906 148.298 33.0824 148.422 32.8936C148.546 32.7046 148.722 32.481 148.812 32.3968C148.903 32.3124 149.016 32.1482 149.065 32.0319C149.114 31.9154 149.254 31.7061 149.375 31.5662C149.654 31.2463 150.071 30.6862 150.424 30.1601C150.574 29.9368 150.742 29.7162 150.798 29.67C150.904 29.5816 151.269 29.065 151.269 29.0021C151.269 28.9818 151.395 28.8307 151.549 28.6663C151.703 28.5021 151.829 28.3354 151.829 28.2962C151.829 28.257 151.934 28.0893 152.063 27.9239C152.191 27.7584 152.408 27.4676 152.545 27.2773C152.682 27.0873 152.92 26.7696 153.074 26.5714C153.228 26.3734 153.411 26.1034 153.479 25.9716C153.547 25.8399 153.69 25.6462 153.795 25.5414C153.901 25.4363 154.067 25.2107 154.164 25.0401C154.262 24.8695 154.378 24.7016 154.422 24.6675C154.467 24.6335 154.685 24.3541 154.908 24.0466C155.131 23.7391 155.382 23.4057 155.468 23.3054C155.554 23.2053 155.667 23.0309 155.721 22.9179C155.775 22.8049 155.916 22.6077 156.034 22.4792C156.153 22.3508 156.267 22.1899 156.289 22.1216C156.311 22.0533 156.5 21.7532 156.709 21.4549C156.918 21.1566 157.133 20.8324 157.186 20.7341C157.24 20.636 157.38 20.4348 157.498 20.287C157.616 20.1392 157.74 19.9584 157.774 19.8851C157.809 19.8121 157.991 19.5386 158.179 19.2773L158.522 18.8024L159.206 18.787C160.655 18.7539 171.236 18.7703 171.18 18.8054C171.148 18.8257 171.139 18.9139 171.161 19.0016C171.201 19.1608 171.069 19.5076 170.833 19.8652C170.772 19.9559 170.628 20.1933 170.512 20.3926C170.396 20.5918 170.192 20.8824 170.061 21.0384C169.928 21.1946 169.821 21.3421 169.821 21.3662C169.821 21.3906 169.597 21.7164 169.323 22.0905C169.049 22.4646 168.825 22.7895 168.825 22.8123C168.825 22.8352 168.698 22.9882 168.544 23.1526C168.39 23.3168 168.264 23.4835 168.264 23.5227C168.264 23.562 168.12 23.7748 167.944 23.9959C167.596 24.4313 167.33 24.8076 167.33 24.8635C167.33 24.8829 167.224 25.0282 167.093 25.1867C166.962 25.3451 166.789 25.5866 166.708 25.7232C166.627 25.8598 166.459 26.0972 166.334 26.251C166.209 26.4047 166.091 26.5736 166.072 26.6265C166.052 26.6795 165.9 26.903 165.732 27.1233C165.428 27.5242 165.237 27.7927 165.12 27.9837C164.98 28.2137 164.743 28.5312 164.549 28.7505C164.435 28.8787 164.342 29.0202 164.342 29.065C164.342 29.1097 164.256 29.2284 164.15 29.3287C164.044 29.4288 163.915 29.595 163.862 29.6974C163.809 29.7997 163.616 30.0709 163.432 30.2994C163.248 30.5282 163.097 30.7319 163.097 30.7522C163.097 30.7992 162.88 31.1089 162.595 31.4671C162.473 31.6209 162.307 31.8543 162.227 31.9862C162.07 32.2463 161.478 33.0667 161 33.6877C160.835 33.9015 160.672 34.1422 160.638 34.223C160.604 34.3034 160.457 34.4982 160.311 34.6556C160.166 34.8129 160.047 34.9674 160.047 34.9987C160.047 35.03 159.79 35.3087 159.476 35.6181C158.981 36.1052 158.862 36.1909 158.589 36.2555C158.223 36.3422 147.839 36.3904 147.627 36.3064Z" fill="#F1952A" stroke="#100F0F" stroke-opacity="0.74"/>
<path d="M51.2455 8.96028C51.4452 8.75908 51.5445 8.72158 52.3232 8.55516C52.6084 8.49455 52.71 8.5251 52.4395 8.59043C52.3414 8.61428 52.1866 8.68531 52.0957 8.7489C52.0048 8.81199 51.8985 8.8639 51.8592 8.8639C51.82 8.8639 51.7 8.90936 51.5925 8.96475C51.4847 9.02039 51.3163 9.08869 51.2179 9.11676L51.0391 9.16793L51.2455 8.96028Z" fill="#D63F45" stroke="#100F0F" stroke-opacity="0.74"/>
<path d="M110.688 21.954C110.628 21.4682 110.606 18.9965 110.598 11.6892L110.586 2.06425L110.729 1.83574C110.894 1.57021 111.219 1.2719 111.501 1.12635C111.68 1.03419 112.134 1.02451 116.08 1.02724C119.297 1.02948 120.484 1.04959 120.547 1.10225C120.595 1.1415 120.691 1.29227 120.761 1.43683C120.888 1.69813 120.889 1.75452 120.889 10.5911C120.889 18.2464 120.877 19.4823 120.8 19.4823C120.751 19.4823 119.809 19.7769 118.705 20.1368C117.602 20.4968 115.842 21.0546 114.794 21.3765C113.747 21.6985 112.521 22.0857 112.071 22.2369C111.621 22.3882 111.144 22.5303 111.01 22.5529L110.766 22.5939L110.688 21.954Z" fill="#B93948" stroke="#100F0F" stroke-opacity="0.74"/>
<path d="M96.6381 36.2437C96.4645 36.2211 96.2643 36.1715 96.193 36.1335C96.0708 36.0681 95.6776 35.6186 95.6776 35.5443C95.6776 35.5058 94.8321 34.3483 94.4369 33.8458C94.2976 33.6685 94.1836 33.505 94.1836 33.4824C94.1836 33.4601 94.0224 33.2363 93.8257 32.9854C93.6287 32.7343 93.2715 32.2564 93.0318 31.9236C92.7921 31.5905 92.5117 31.2047 92.4084 31.0664C92.3053 30.9283 92.1677 30.6955 92.1026 30.5495L91.9844 30.2842L92.157 30.1044C92.2519 30.0055 92.3108 29.8945 92.2879 29.8575C92.2641 29.819 92.2944 29.7894 92.3589 29.7882C92.5182 29.785 92.7892 29.5393 92.8339 29.358C92.857 29.2643 92.8366 29.1665 92.781 29.1054C92.7007 29.0169 92.7112 28.9859 92.8729 28.8312C92.973 28.7355 93.1198 28.624 93.199 28.5835C93.2973 28.5333 93.3381 28.4638 93.3269 28.3654C93.3053 28.1752 93.6702 27.696 93.8724 27.6493C94.0388 27.6111 94.2025 27.35 94.1148 27.2628C94.0857 27.2338 94.1893 27.0482 94.3448 26.8505C94.575 26.5579 94.6441 26.5045 94.7161 26.5641C94.7648 26.6044 94.8468 26.621 94.8987 26.6014C95.0057 26.5604 95.0259 26.3408 94.928 26.2805C94.7586 26.1759 95.0445 25.7827 95.4715 25.5333C95.741 25.3756 95.7934 25.2976 95.6776 25.2263C95.587 25.1704 95.6009 25.0944 95.7241 24.9717C95.8331 24.8627 95.8542 24.8324 96.0823 24.4558C96.1508 24.3428 96.319 24.1006 96.4558 23.9178C96.5927 23.7348 96.8028 23.4424 96.9228 23.268C97.0425 23.0937 97.2358 22.8341 97.352 22.6915C97.4683 22.5487 97.6605 22.2864 97.7792 22.1083C98.1396 21.5688 98.6568 21.5087 99.0492 21.961C99.4153 22.3825 99.6886 22.7315 99.8545 22.9889C99.9432 23.1265 100.202 23.4906 100.429 23.7981C100.656 24.1056 100.954 24.5107 101.091 24.6985C101.229 24.8863 101.476 25.2216 101.639 25.4437C101.803 25.6657 102.004 25.9591 102.086 26.0957C102.168 26.2323 102.357 26.4881 102.505 26.6645C102.653 26.8406 102.775 27.0035 102.775 27.0261C102.775 27.049 102.908 27.237 103.07 27.4439C103.46 27.9392 103.708 28.2931 103.708 28.3518C103.708 28.3778 103.823 28.5095 103.962 28.6446C104.102 28.7795 104.252 28.974 104.297 29.0763C104.342 29.1786 104.515 29.435 104.681 29.6456C104.848 29.8562 105.111 30.2017 105.265 30.4134C105.419 30.625 105.634 30.9136 105.743 31.055C105.852 31.1963 105.943 31.3411 105.945 31.3769C105.948 31.4126 106.062 31.5584 106.199 31.7005C106.336 31.8426 106.448 31.9809 106.449 32.008C106.45 32.0704 106.748 32.505 106.931 32.7122C107.008 32.7994 107.232 33.0977 107.429 33.3754C108.275 34.5704 108.5 34.8714 108.564 34.8925C108.655 34.9228 108.807 35.3642 108.811 35.6091C108.815 35.9226 108.694 36.1158 108.445 36.1948C108.198 36.2731 97.2127 36.3188 96.6381 36.2437Z" fill="#EE7A30" stroke="#100F0F" stroke-opacity="0.74"/>
</svg>
