<svg width="126" height="41" viewBox="0 0 126 41" fill="none" xmlns="http://www.w3.org/2000/svg">
<path d="M122.5 33.5H125.5V36.5H122.5V33.5Z" fill="#D23E47"/>
<path d="M83.9382 33.3427C83.9382 33.3498 83.9382 33.3569 83.9382 33.364C83.9454 33.364 83.9525 33.364 83.9596 33.364H88.1305V36.5H79.5C79.5 36.0591 79.5 35.6182 79.5 35.1773C79.5 34.7364 79.5 34.2956 79.5 33.8547C79.5 33.4067 79.5 32.9622 79.5 32.5213C79.5 32.0804 79.5 31.6396 79.5 31.1987C79.5 30.7507 79.5 30.3027 79.5 29.8547C79.5 29.3996 79.5 28.948 79.5 28.5H83.9382C83.9382 28.9053 83.9382 29.3107 83.9382 29.716C83.9382 30.1142 83.9382 30.516 83.9382 30.9213C83.9382 31.3267 83.9382 31.732 83.9382 32.1373C83.9382 32.5356 83.9382 32.9373 83.9382 33.3427Z" fill="#F1952A"/>
<path d="M98.0106 31.188H93.3585C93.3513 31.188 93.3478 31.188 93.3478 31.188V31.7747C93.3478 31.7818 93.3478 31.7889 93.3478 31.796C93.3549 31.796 93.3585 31.796 93.3585 31.796H97.8502V33.3H93.3585C93.3585 33.3 93.3549 33.3 93.3478 33.3C93.3478 33.3 93.3478 33.3036 93.3478 33.3107C93.3478 33.3107 93.3478 33.3142 93.3478 33.3213V33.9187C93.3549 33.9187 93.3585 33.9187 93.3585 33.9187H98.0748V36.5H89.0165C89.0165 36.0804 89.0165 35.6609 89.0165 35.2413C89.0165 34.8147 89.0165 34.3916 89.0165 33.972C89.0165 33.5524 89.0165 33.1329 89.0165 32.7133C89.0165 32.2867 89.0165 31.8636 89.0165 31.444C89.0165 31.0173 89.0165 30.5942 89.0165 30.1747C89.0165 29.8973 89.0165 29.62 89.0165 29.3427C89.0165 29.0582 89.0165 28.7773 89.0165 28.5H98.0106V31.188Z" fill="#F1952A"/>
<path d="M105.334 28.5H109.451C109.451 28.7631 109.451 29.0298 109.451 29.3C109.451 29.5631 109.451 29.8298 109.451 30.1C109.451 30.3631 109.451 30.6298 109.451 30.9C109.451 31.1631 109.451 31.4298 109.451 31.7C109.451 31.9631 109.451 32.2298 109.451 32.5C109.451 33.1684 109.451 33.8369 109.451 34.5053C109.451 35.1667 109.451 35.8316 109.451 36.5H104.5L103.152 32.66C103.152 32.6529 103.149 32.6493 103.141 32.6493C103.141 32.6493 103.138 32.6493 103.131 32.6493C103.131 32.6493 103.131 32.6529 103.131 32.66C103.131 33.2858 103.131 33.9258 103.131 34.58C103.131 35.2342 103.131 35.8742 103.131 36.5H99.0134C99.0134 35.9667 99.0134 35.4333 99.0134 34.9C99.0134 34.3667 99.0134 33.8333 99.0134 33.3C99.0134 32.7667 99.0134 32.2333 99.0134 31.7C99.0134 31.1667 99.0134 30.6333 99.0134 30.1C99.0134 29.5667 99.0134 29.0333 99.0134 28.5H103.805L105.312 32.9267C105.32 32.9267 105.323 32.9267 105.323 32.9267C105.33 32.9267 105.334 32.9267 105.334 32.9267C105.334 32.9196 105.334 32.916 105.334 32.916V28.5Z" fill="#F1952A"/>
<path d="M116.784 28.5C117.454 28.5 118.046 28.5747 118.559 28.724C119.079 28.8662 119.525 29.0653 119.896 29.3213C120.267 29.5773 120.57 29.876 120.805 30.2173C121.04 30.5516 121.215 30.9107 121.329 31.2947C121.443 31.6787 121.5 32.0698 121.5 32.468C121.5 32.9729 121.407 33.4671 121.222 33.9507C121.044 34.4271 120.762 34.8573 120.377 35.2413C119.999 35.6253 119.511 35.9311 118.912 36.1587C118.32 36.3862 117.611 36.5 116.784 36.5H110.41C110.41 36.0449 110.41 35.5933 110.41 35.1453C110.41 34.6902 110.41 34.2387 110.41 33.7907C110.41 33.3356 110.41 32.884 110.41 32.436C110.41 31.9809 110.41 31.5258 110.41 31.0707C110.41 30.644 110.41 30.2173 110.41 29.7907C110.41 29.3569 110.41 28.9267 110.41 28.5H116.784ZM115.928 31.572H114.655C114.655 31.572 114.652 31.572 114.645 31.572C114.645 31.572 114.645 31.5756 114.645 31.5827C114.645 31.5827 114.645 31.5862 114.645 31.5933V33.4067C114.645 33.4138 114.645 33.4209 114.645 33.428C114.652 33.428 114.655 33.428 114.655 33.428H115.95C116.106 33.428 116.245 33.4031 116.367 33.3533C116.495 33.3036 116.602 33.236 116.687 33.1507C116.773 33.0653 116.837 32.9658 116.88 32.852C116.93 32.7382 116.955 32.6209 116.955 32.5C116.955 32.3293 116.912 32.1729 116.826 32.0307C116.748 31.8884 116.634 31.7782 116.484 31.7C116.335 31.6147 116.149 31.572 115.928 31.572Z" fill="#F1952A"/>
<path d="M117.875 24.7874C117.862 24.7661 117.79 24.7489 117.714 24.7489C117.639 24.7489 117.559 24.7314 117.537 24.7099C117.515 24.6885 117.373 24.6588 117.222 24.6441C116.947 24.6173 116.947 24.6171 116.657 24.3138C116.272 23.9123 116.011 23.5918 115.931 23.423C115.895 23.3474 115.799 23.2218 115.719 23.144C115.638 23.0662 115.573 22.9881 115.573 22.9707C115.573 22.9231 115.331 22.5754 115.253 22.5109C115.216 22.4802 115.144 22.38 115.094 22.2881C114.929 21.9911 114.908 21.9592 114.769 21.8164C114.631 21.6745 114.557 21.5649 114.473 21.3759C114.447 21.3194 114.349 21.1892 114.255 21.087C114.087 20.9055 114.083 20.8944 114.101 20.651C114.116 20.4355 114.139 20.3798 114.268 20.2439C114.35 20.1573 114.462 20.0105 114.516 19.9177C114.571 19.8249 114.684 19.6635 114.768 19.559C114.853 19.4546 114.99 19.2647 115.073 19.1371C115.157 19.0095 115.265 18.8689 115.314 18.825C115.363 18.781 115.453 18.6576 115.515 18.5508C115.577 18.4439 115.699 18.2709 115.786 18.1665C115.873 18.0618 115.984 17.8991 116.033 17.8048C116.082 17.7104 116.182 17.5778 116.253 17.5096C116.325 17.4416 116.419 17.3179 116.462 17.2346C116.505 17.1514 116.636 16.9681 116.754 16.8276C116.872 16.687 116.968 16.5612 116.968 16.5481C116.968 16.5158 117.157 16.251 117.402 15.9393C117.512 15.7987 117.603 15.6708 117.603 15.6549C117.603 15.6392 117.688 15.5314 117.793 15.4151C117.897 15.2989 117.983 15.181 117.983 15.1531C117.983 15.1251 118.037 15.0512 118.102 14.9889C118.207 14.8887 118.254 14.8755 118.506 14.8755C118.774 14.8755 118.799 14.8839 118.916 15.0115C118.984 15.0863 119.041 15.168 119.041 15.1931C119.041 15.2181 119.109 15.3042 119.192 15.384C119.276 15.464 119.382 15.609 119.428 15.7062C119.475 15.8033 119.596 15.9742 119.698 16.086C119.801 16.1975 119.885 16.3013 119.885 16.3163C119.887 16.3585 120.177 16.7823 120.286 16.9008C120.339 16.9589 120.432 17.0917 120.493 17.1962C120.553 17.3006 120.67 17.4603 120.751 17.5513C120.833 17.6421 120.912 17.756 120.927 17.8044C120.942 17.8529 121.023 17.9764 121.107 18.079C121.258 18.262 121.645 18.8043 122.014 19.3481C122.117 19.4989 122.251 19.6684 122.312 19.7246C122.374 19.7808 122.424 19.8503 122.424 19.879C122.424 19.9077 122.495 20.0232 122.582 20.1354C122.67 20.2478 122.826 20.463 122.929 20.6139C123.107 20.8721 123.235 21.0505 123.693 21.6716C123.797 21.8137 123.95 22.0284 124.031 22.1487C124.112 22.2689 124.267 22.4806 124.374 22.6193C124.481 22.7579 124.598 22.9283 124.634 22.9979C124.67 23.0674 124.759 23.1803 124.831 23.2483C124.903 23.3165 124.961 23.3924 124.961 23.4171C124.962 23.4419 125.038 23.5621 125.131 23.6843C125.224 23.8066 125.3 23.9177 125.3 23.9308C125.3 23.9442 125.338 24.0033 125.384 24.0623C125.585 24.3168 125.424 24.6649 125.055 24.7757C124.789 24.8557 118.362 24.8593 118.234 24.7795C118.174 24.7418 118.123 24.7415 118.027 24.7778C117.952 24.806 117.889 24.8098 117.875 24.7874Z" fill="#D23E47" stroke="#D23E47"/>
<path d="M0.531993 24.0441C0.529293 23.863 0.5244 20.0419 0.521362 15.5526L0.515625 7.39027L1.15009 6.92157C1.49905 6.66385 1.90807 6.37001 2.05927 6.26858C2.21046 6.16714 2.55317 5.92883 2.82062 5.73913C3.96165 4.92934 5.36456 3.94385 5.71756 3.70385C7.25327 2.66081 7.35722 2.59584 7.41442 2.64326C7.47652 2.69457 7.49424 2.68883 7.74768 2.53406C7.84066 2.47719 8.04045 2.36951 8.19164 2.29474C8.34283 2.21997 8.5568 2.09592 8.66715 2.01913C8.77734 1.94233 8.89158 1.87938 8.92077 1.87921C8.95013 1.87904 9.03129 1.84124 9.10098 1.79516C9.17084 1.74908 9.25825 1.71128 9.29537 1.71111C9.3325 1.71094 9.39308 1.67752 9.4302 1.63685C9.46715 1.59634 9.58915 1.51803 9.70103 1.46301C9.8129 1.40799 9.97489 1.32731 10.061 1.2836C10.147 1.24005 10.2423 1.20444 10.2731 1.20444C10.3036 1.20444 10.3998 1.16647 10.4865 1.12005C10.5732 1.07364 10.6736 1.03567 10.7096 1.03567C10.7455 1.03567 10.8456 1.00056 10.9318 0.957861C11.1168 0.866046 11.555 0.758873 11.9961 0.697608C12.1694 0.673473 12.4264 0.623683 12.5669 0.586721C12.7721 0.53305 13.0569 0.519886 14.007 0.521067C14.6581 0.521911 15.2862 0.541152 15.4026 0.564105C15.5189 0.587059 15.7283 0.627396 15.8678 0.653894C16.0074 0.680392 16.2453 0.732206 16.3965 0.768831C16.5477 0.805455 16.7569 0.849168 16.8617 0.866046C17.0659 0.899126 17.1854 0.940814 17.5171 1.09524C17.6335 1.14942 17.8574 1.2436 18.0149 1.30453C18.1725 1.36562 18.3817 1.46723 18.4801 1.53052C18.5785 1.59381 18.7541 1.69508 18.8706 1.75567C19.2273 1.94115 19.9213 2.48934 20.4031 2.96613C20.8879 3.44596 21.5508 4.24832 21.6669 4.49558C21.7051 4.57676 21.8004 4.73339 21.8787 4.84377C21.9572 4.95398 22.0213 5.05491 22.0213 5.0679C22.0213 5.10065 22.2206 5.53609 22.3289 5.74031C22.4924 6.04799 22.5238 6.11837 22.5927 6.33103C22.6303 6.44697 22.6855 6.64816 22.7152 6.77795C22.7449 6.90757 22.785 7.03938 22.8044 7.0706C22.8238 7.10183 22.8636 7.22352 22.8932 7.34098C22.9225 7.45845 22.9755 7.6306 23.0108 7.72343C23.0461 7.81626 23.0761 8.01558 23.0774 8.16647C23.0788 8.31735 23.1075 8.55465 23.1412 8.69389C23.1811 8.85879 23.2025 9.17491 23.2025 9.60107L23.2026 10.2551L22.0304 10.834C21.3858 11.1525 19.8985 11.8882 18.7254 12.4691C17.5525 13.0498 16.5688 13.5251 16.5396 13.5251C16.4976 13.5251 16.4913 13.2704 16.5095 12.312C16.5305 11.2164 16.5237 11.0357 16.4405 10.4449C16.3899 10.0853 16.3201 9.69592 16.2855 9.57997C16.1157 9.01254 16.0053 8.70605 15.9184 8.55938C15.866 8.47094 15.7664 8.30486 15.6974 8.1906C15.544 7.93676 14.8873 7.196 14.8154 7.196C14.7869 7.196 14.6979 7.12782 14.6178 7.04444C14.4961 6.91786 13.779 6.5209 13.672 6.5209C13.6541 6.5209 13.5912 6.48292 13.5321 6.43651C13.4729 6.3901 13.3747 6.35195 13.3139 6.35162C13.2532 6.35128 13.0828 6.3133 12.9353 6.26723C12.5465 6.14554 11.492 6.14588 11.1098 6.26773C10.9642 6.31415 10.7982 6.35212 10.7408 6.35212C10.6834 6.35212 10.5861 6.37879 10.5243 6.41153C10.4626 6.44411 10.2979 6.52174 10.1583 6.58402C9.61109 6.82807 9.5171 6.87904 9.32608 7.03482C9.21725 7.12343 9.11516 7.196 9.0993 7.196C8.98692 7.196 8.23399 7.99415 8.23399 8.11314C8.23399 8.13524 8.194 8.18959 8.1449 8.23381C8.03792 8.33035 7.89567 8.59769 7.8955 8.70267C7.8955 8.74436 7.85737 8.84039 7.81096 8.91651C7.76456 8.99246 7.72592 9.07786 7.72524 9.10638C7.7244 9.13474 7.67715 9.25305 7.61978 9.369C7.56258 9.48495 7.5155 9.6274 7.51499 9.68546C7.51448 9.74352 7.48242 9.89541 7.44378 10.023C7.38067 10.2311 7.37257 10.6551 7.3643 14.1158C7.35924 16.2392 7.35266 18.1759 7.34946 18.4196L7.34372 18.8627L7.05956 19.0736C5.82016 19.9938 4.34401 21.1938 2.38848 22.8711C1.64383 23.5099 0.707483 24.2772 0.596789 24.3395C0.547517 24.3671 0.536043 24.315 0.531993 24.0441Z" fill="#B93948" stroke="#B93948"/>
<path d="M84.5706 25.1737C84.5706 25.1522 84.8013 24.5208 85.0831 23.7708C85.3648 23.0208 85.6569 22.2361 85.7322 22.0272C86.3321 20.36 86.438 20.1327 86.7593 19.8246C86.9689 19.6238 87.0116 19.601 87.1786 19.601C87.2809 19.601 87.4355 19.5708 87.5219 19.534C87.6084 19.497 87.7648 19.4419 87.8695 19.4113C88.1614 19.3261 88.4287 19.2267 88.5527 19.1573C88.6145 19.1229 88.6887 19.0947 88.7179 19.0947C88.7471 19.0947 88.8718 19.0187 88.9951 18.9259C89.1183 18.8331 89.2393 18.7571 89.2641 18.7571C89.3456 18.7571 90.2226 17.8533 90.3081 17.6812C90.3543 17.5884 90.4811 17.3381 90.5897 17.1249C90.6986 16.9117 90.7877 16.7065 90.7877 16.6685C90.7877 16.6307 90.8241 16.5107 90.8688 16.402C90.9135 16.2933 90.9625 16.0822 90.9777 15.9328C90.9927 15.7835 91.0335 15.6062 91.0685 15.5391C91.1208 15.438 91.1353 15.1016 91.1521 13.5954C91.1633 12.5938 91.178 11.6127 91.1847 11.4154C91.1915 11.2181 91.2001 10.9418 91.2038 10.8012L91.2105 10.5457L91.5222 10.4935C91.6936 10.4648 92.2218 10.3077 92.6958 10.1443C93.1698 9.9811 94.1002 9.66718 94.763 9.44692C95.426 9.2265 96.4153 8.89705 96.9615 8.7146C97.5078 8.53216 97.958 8.38633 97.962 8.39072C97.9662 8.39494 97.9807 9.86043 97.9946 11.6474C98.0406 17.6464 98.0666 20.6268 98.0835 21.8373C98.1022 23.1981 98.0256 24.3173 97.8954 24.5799C97.7545 24.8641 97.8748 24.8533 94.7743 24.863C91.7095 24.8724 91.7929 24.8785 91.5791 24.6252C91.439 24.4592 91.3995 24.0165 91.4387 23.0538C91.4586 22.5627 91.4532 22.3418 91.421 22.3219C91.3192 22.2592 91.1462 22.3639 90.7129 22.7506C90.4632 22.9735 90.2114 23.1857 90.1532 23.2223C90.0952 23.2589 89.9667 23.3614 89.8682 23.4498C89.7695 23.5381 89.6173 23.643 89.5299 23.6829C89.4425 23.7227 89.3097 23.8068 89.2348 23.8697C89.1168 23.9689 88.9533 24.0562 88.4616 24.282C88.4034 24.3087 88.2512 24.3855 88.1232 24.4525C87.9953 24.5197 87.8598 24.5759 87.8222 24.5772C87.7846 24.5787 87.6609 24.616 87.5473 24.6604C87.4338 24.7046 87.198 24.7823 87.0236 24.8329C86.8491 24.8834 86.6113 24.9536 86.4949 24.9889C86.3786 25.024 85.9219 25.0883 85.4799 25.1316C84.5286 25.225 84.5706 25.223 84.5706 25.1737Z" fill="#F1952A" stroke="#F1952A"/>
<path d="M107.832 12.8821C107.832 12.8648 107.728 12.7001 107.6 12.516C107.472 12.3317 107.367 12.1597 107.367 12.1339C107.367 12.1079 107.282 11.9953 107.177 11.8837C107.072 11.772 106.987 11.652 106.987 11.6169C106.987 11.5818 106.951 11.5079 106.908 11.4525C106.742 11.2416 106.352 10.6507 106.352 10.611C106.352 10.5882 106.277 10.4881 106.185 10.3886C106.093 10.289 105.999 10.1577 105.975 10.0964C105.925 9.96358 105.587 9.50282 105.215 9.05843C105.066 8.88104 104.915 8.68847 104.879 8.63041C104.842 8.57235 104.731 8.43564 104.631 8.32628C104.531 8.21708 104.449 8.10315 104.448 8.07311C104.448 8.04307 104.343 7.89607 104.216 7.74619C104.088 7.59649 103.984 7.46012 103.984 7.44324C103.984 7.42619 103.873 7.27345 103.738 7.10366C103.603 6.93387 103.442 6.7094 103.38 6.60476C103.319 6.50012 103.201 6.34923 103.119 6.2694C103.036 6.18974 102.969 6.10096 102.969 6.0721C102.969 6.04341 102.855 5.87649 102.715 5.7013C102.576 5.52611 102.461 5.36678 102.461 5.3472C102.461 5.32779 102.414 5.2672 102.355 5.21269C102.297 5.15818 102.25 5.09539 102.25 5.07328C102.25 5.05117 102.191 4.96425 102.119 4.88037C101.976 4.71261 101.672 4.29033 101.333 3.7867C101.212 3.60796 101.036 3.36459 100.942 3.24594C100.847 3.12729 100.769 3.00813 100.769 2.9813C100.769 2.95429 100.693 2.84999 100.6 2.74923C100.507 2.64847 100.431 2.54619 100.431 2.52189C100.431 2.49758 100.36 2.38585 100.272 2.27345C100.043 1.9786 99.8814 1.72172 99.8814 1.65066C99.8814 1.61674 99.8623 1.57725 99.8391 1.5629C99.8159 1.54855 99.7969 1.45505 99.7969 1.35514C99.7969 1.13134 99.9086 0.976572 100.12 0.906698C100.234 0.86923 101.245 0.856066 104.073 0.854715L107.872 0.853027L108.041 0.970158C108.134 1.03463 108.261 1.15632 108.324 1.24071C108.386 1.32509 108.518 1.47953 108.618 1.584C108.717 1.68847 108.838 1.85083 108.886 1.94484C108.935 2.03885 109.042 2.18113 109.126 2.2613C109.209 2.3413 109.301 2.46383 109.331 2.53337C109.361 2.6029 109.494 2.79024 109.625 2.94957C109.757 3.10889 109.886 3.27986 109.911 3.32931C109.937 3.37894 110.027 3.50383 110.11 3.60712C110.299 3.83969 110.455 4.06687 110.455 4.10923C110.455 4.12695 110.523 4.20678 110.606 4.28661C110.69 4.36661 110.792 4.49877 110.835 4.58028C110.877 4.6618 110.994 4.83277 111.095 4.96003C111.196 5.08746 111.298 5.22197 111.322 5.2591C111.457 5.47615 111.609 5.68915 111.672 5.75244C111.712 5.79244 111.806 5.92003 111.881 6.03581C111.955 6.15159 112.084 6.32104 112.166 6.41235C112.248 6.50349 112.315 6.59294 112.315 6.61083C112.315 6.64746 112.515 6.94974 112.562 6.984C112.579 6.99598 112.624 7.05336 112.664 7.11142C112.703 7.16948 112.793 7.29826 112.864 7.39767C112.934 7.49708 112.992 7.59311 112.992 7.611C112.992 7.62889 113.061 7.70889 113.145 7.78872C113.229 7.86872 113.324 7.99328 113.355 8.06535C113.386 8.13742 113.507 8.31109 113.624 8.45134C113.742 8.59142 113.838 8.72509 113.838 8.74822C113.838 8.77151 113.939 8.92071 114.062 9.07969C114.185 9.23868 114.354 9.47328 114.438 9.60088C114.522 9.72847 114.64 9.88611 114.7 9.95125C114.761 10.0162 114.811 10.0851 114.811 10.1043C114.811 10.1236 114.892 10.2456 114.99 10.3754C115.089 10.5053 115.214 10.6736 115.267 10.7496C115.321 10.8257 115.454 11.0086 115.563 11.1563C115.752 11.4105 115.833 11.5344 116.037 11.8794C116.085 11.9605 116.161 12.0841 116.207 12.1536C116.253 12.2232 116.311 12.3276 116.337 12.3857C116.533 12.8223 116.541 12.8743 116.418 12.9131C116.3 12.9506 107.832 12.92 107.832 12.8821Z" fill="#7A2E40" stroke="#7A2E40"/>
<path d="M16.8907 24.7996C16.689 24.7337 16.6168 24.6774 16.5672 24.5476C16.5021 24.3763 16.459 19.2279 16.4835 14.4953L16.4882 13.5459L16.7307 13.4428C16.864 13.3862 17.6679 12.995 18.5168 12.5736C22.4201 10.636 23.179 10.2689 23.2109 10.3029C23.2298 10.3228 23.259 12.0291 23.2758 14.0944C23.2927 16.1599 23.3111 18.3434 23.3168 18.9467C23.3482 22.2809 23.3359 24.1405 23.2811 24.3435C23.2095 24.6088 23.0862 24.7484 22.9237 24.7484C22.855 24.7484 22.7315 24.7764 22.6495 24.8107C22.5221 24.8637 22.0972 24.8716 19.7785 24.8634C17.6952 24.8561 17.0181 24.8411 16.8907 24.7996Z" fill="#F1952A" stroke="#F1952A"/>
<path d="M83.3356 25.2143C83.1091 25.1956 82.8933 25.1686 82.8558 25.1542C82.8184 25.1399 82.5848 25.1103 82.3369 25.0884C82.0889 25.0668 81.8154 25.0194 81.7288 24.9831C81.6424 24.947 81.5282 24.9167 81.475 24.9161C81.422 24.9152 81.3024 24.8779 81.2094 24.833C81.1164 24.7881 81.0015 24.7508 80.9541 24.75C80.9069 24.7493 80.7599 24.7107 80.6274 24.6643C80.4951 24.6178 80.3559 24.5799 80.3183 24.5799C80.2807 24.5799 80.1992 24.5466 80.1372 24.5059C79.9224 24.3648 79.8544 24.327 79.5547 24.1826C79.389 24.1026 79.1987 23.9865 79.1319 23.9245C79.0649 23.8626 78.9532 23.7829 78.8833 23.7476C78.5484 23.5778 77.6755 22.7473 77.2403 22.1843C76.6364 21.4027 76.1133 20.5424 76.1133 20.3311C76.1133 20.2963 76.0849 20.2177 76.0503 20.1559C75.94 19.9593 75.775 19.4688 75.7729 19.3323C75.7719 19.2595 75.7434 19.1242 75.7095 19.0313C75.6756 18.9385 75.6366 18.7201 75.6231 18.5461C75.6094 18.3721 75.5709 18.1567 75.5375 18.0678C75.4687 17.8849 75.3867 16.6197 75.3998 15.9431L75.4081 15.5132L75.5748 15.485C75.6666 15.4697 75.9918 15.373 76.2975 15.2702C76.6031 15.1674 77.4357 14.9043 78.1474 14.6855C78.8594 14.4668 80.0549 14.0877 80.8044 13.8432C81.554 13.5986 82.1925 13.3984 82.2232 13.3984C82.2678 13.3984 82.2835 13.6405 82.3003 14.5903C82.3123 15.2673 82.3417 15.8553 82.3685 15.9512C82.3943 16.044 82.4426 16.2244 82.4755 16.352C82.6115 16.8784 82.6405 16.9723 82.724 17.1537C82.772 17.2582 82.8838 17.4481 82.9724 17.5757C83.061 17.7032 83.1336 17.8334 83.1337 17.8646C83.1337 17.9341 83.9516 18.7571 84.0206 18.7571C84.0478 18.7571 84.1604 18.833 84.2707 18.9259C84.3811 19.0187 84.4946 19.0946 84.5231 19.0946C84.5517 19.0946 84.6497 19.1326 84.7408 19.179C84.8319 19.2254 84.9406 19.2641 84.9823 19.2648C85.024 19.2656 85.1342 19.3029 85.2271 19.3478C85.3203 19.3927 85.4305 19.43 85.472 19.4308C85.5137 19.4315 85.6183 19.4675 85.7047 19.5107C85.8896 19.6032 86.3045 19.6634 86.6781 19.6521L86.9449 19.644L86.7352 19.8477C86.4341 20.1402 86.3472 20.3313 85.6944 22.1326C85.4835 22.7144 84.5604 25.1859 84.5468 25.2054C84.523 25.2391 83.7081 25.245 83.3356 25.2143Z" fill="#EE7A30" stroke="#EE7A30"/>
<path d="M118.34 10.8503C118.246 10.7934 118.107 10.6594 118.03 10.5524C117.952 10.4454 117.834 10.317 117.766 10.267C117.698 10.2169 117.643 10.1517 117.643 10.122C117.643 10.0923 117.56 9.97451 117.458 9.86025C117.356 9.74582 117.204 9.54818 117.119 9.42092C117.034 9.29366 116.893 9.10666 116.806 9.00506C116.718 8.90362 116.625 8.77231 116.6 8.71324C116.574 8.65434 116.456 8.49974 116.337 8.36978C116.218 8.23983 116.121 8.11105 116.121 8.08337C116.121 8.05569 116.011 7.89687 115.877 7.73046C115.744 7.56421 115.615 7.3978 115.592 7.36067C115.449 7.13248 115.316 6.95375 115.238 6.88404C115.189 6.83999 115.098 6.71729 115.035 6.6113C114.973 6.50548 114.849 6.34295 114.76 6.25046C114.671 6.1578 114.598 6.06008 114.598 6.03341C114.598 6.00658 114.53 5.89603 114.447 5.78784C114.289 5.58025 114.133 5.19172 114.133 5.00303C114.133 4.83442 114.258 4.44388 114.342 4.34801C114.383 4.3016 114.429 4.2351 114.444 4.20033C114.489 4.09907 114.608 3.92776 114.77 3.72995C114.853 3.62902 115.076 3.347 115.266 3.10329C115.455 2.85957 115.701 2.54953 115.813 2.41434C115.924 2.27898 116.047 2.11004 116.086 2.03898C116.126 1.96776 116.213 1.85063 116.281 1.77856C116.348 1.70649 116.463 1.56185 116.537 1.45721C116.61 1.35257 116.779 1.18194 116.912 1.07831C117.128 0.910037 117.184 0.887252 117.43 0.86683C117.662 0.84759 121.907 0.84472 124.488 0.862104L125.222 0.866999L125.369 1.014C125.497 1.14143 125.513 1.17923 125.488 1.29873C125.473 1.37468 125.405 1.51257 125.338 1.6054C125.27 1.69822 125.155 1.87864 125.082 2.00624C125.008 2.13383 124.879 2.32388 124.795 2.42835C124.637 2.62514 124.586 2.70075 124.469 2.91037C124.431 2.97839 124.331 3.12286 124.246 3.23156C124.162 3.34025 124.041 3.5124 123.978 3.61434C123.914 3.71611 123.778 3.91341 123.674 4.05265C123.57 4.19189 123.484 4.32371 123.482 4.34531C123.481 4.36725 123.397 4.49063 123.296 4.61957C123.195 4.74869 123.046 4.95881 122.964 5.08641C122.882 5.214 122.774 5.35459 122.724 5.39881C122.674 5.44303 122.633 5.50329 122.633 5.53265C122.633 5.56219 122.586 5.6427 122.528 5.71156C122.47 5.78059 122.422 5.85113 122.422 5.86835C122.422 5.88573 122.317 6.0275 122.19 6.18345C122.062 6.3394 121.957 6.48708 121.957 6.51139C121.957 6.53569 121.876 6.65704 121.777 6.78092C121.591 7.01451 121.523 7.11577 121.456 7.2594C121.434 7.30582 121.377 7.37991 121.327 7.42413C121.278 7.46835 121.238 7.52016 121.238 7.5394C121.238 7.55847 121.162 7.67426 121.069 7.79662C120.976 7.91881 120.9 8.04033 120.9 8.06649C120.9 8.09265 120.873 8.13637 120.84 8.16371C120.807 8.19088 120.689 8.34987 120.577 8.51696C120.466 8.68388 120.306 8.90599 120.222 9.01046C120.138 9.11493 120.024 9.27628 119.968 9.36911C119.913 9.46193 119.767 9.66345 119.643 9.81687C119.52 9.97029 119.419 10.109 119.419 10.1252C119.419 10.159 119.12 10.551 118.933 10.7624C118.759 10.9591 118.566 10.9877 118.34 10.8503Z" fill="#7A2E40" stroke="#7A2E40"/>
<path d="M37.0189 25.2948C35.8105 25.2116 34.547 24.9804 33.6566 24.6794C33.5519 24.644 33.3741 24.5986 33.2615 24.5783C33.1488 24.5581 33.0348 24.524 33.0078 24.5025C32.9808 24.4811 32.9112 24.4492 32.853 24.4315C32.795 24.4139 32.702 24.364 32.6465 24.3208C32.591 24.2776 32.5125 24.2423 32.4718 24.2423C32.3544 24.2423 31.9192 24.029 31.9465 23.9847C32.0027 23.8939 33.039 23.4198 34.789 22.6843C37.04 21.7382 38.5291 21.0006 39.9315 20.1371C40.068 20.0531 40.2633 19.9717 40.3655 19.9566C40.4676 19.9414 40.5969 19.8931 40.6526 19.8492C40.7082 19.8055 40.77 19.7697 40.7896 19.7695C40.8321 19.7694 41.2161 19.5777 41.2847 19.5225C41.311 19.501 41.5135 19.3945 41.7345 19.2857C41.9554 19.1768 42.1648 19.0705 42.1997 19.0494C42.2345 19.0283 42.3297 18.9724 42.4112 18.925C42.4925 18.8777 42.6162 18.8021 42.686 18.7571C42.7557 18.712 42.8838 18.6364 42.9704 18.5893C43.0569 18.542 43.1901 18.4512 43.2663 18.3876C43.4442 18.2391 43.6688 18.082 43.7032 18.082C43.7179 18.082 43.8471 17.9753 43.9904 17.845C44.1337 17.7147 44.3271 17.5587 44.42 17.4985C44.513 17.4382 44.6696 17.3171 44.768 17.2291C45.0439 16.9825 45.1934 17.0003 45.612 17.3287C45.7937 17.4715 46.0757 17.7118 46.2385 17.8629C46.4014 18.0138 46.652 18.2436 46.7956 18.3734C47.3835 18.9052 48.3189 19.8436 48.4136 19.9966L48.5147 20.1601L48.434 20.313C48.3169 20.5346 47.7451 21.1903 47.2324 21.6911C46.7471 22.165 46.0956 22.7213 46.0244 22.7225C45.9998 22.723 45.9242 22.781 45.8563 22.8516C45.7885 22.9221 45.6166 23.0448 45.4743 23.1243C45.3319 23.2038 45.191 23.298 45.1615 23.3336C45.1318 23.3692 45.0911 23.3984 45.0712 23.3984C45.0513 23.3984 44.9345 23.4622 44.812 23.5402C44.6895 23.6183 44.5427 23.6966 44.4858 23.7145C44.429 23.7323 44.2911 23.8109 44.1796 23.8892C43.9788 24.03 43.7756 24.1203 43.4472 24.2148C43.3543 24.2414 43.2311 24.2966 43.1735 24.3371C43.116 24.3778 43.0396 24.4111 43.0038 24.4111C42.9678 24.4111 42.8674 24.449 42.7807 24.4955C42.694 24.5419 42.584 24.5798 42.5365 24.5798C42.489 24.5798 42.3794 24.6151 42.2932 24.6583C42.2068 24.7014 42.0578 24.7488 41.9621 24.7635C41.8663 24.778 41.733 24.8185 41.666 24.8534C41.599 24.8884 41.4912 24.9171 41.4266 24.9172C41.3618 24.9172 41.2403 24.9459 41.1564 24.9809C41.0725 25.0158 40.8306 25.0637 40.6186 25.0872C40.4065 25.1108 40.1188 25.1505 39.9793 25.1755C39.3932 25.2801 37.7612 25.3459 37.0189 25.2948Z" fill="#EA613A" stroke="#EA613A"/>
<path d="M49.3028 24.8251C49.1284 24.8087 48.9095 24.7791 48.8165 24.7596C48.6513 24.7248 48.6471 24.7192 48.6346 24.5292C48.6259 24.394 48.6485 24.2846 48.7087 24.1727C48.7563 24.084 48.7954 23.9876 48.7954 23.9587C48.7954 23.8914 49.0285 23.5316 49.2777 23.2137C49.3845 23.0775 49.4721 22.9422 49.4721 22.9128C49.4721 22.8419 49.7937 22.5543 49.873 22.5543C49.9073 22.5543 49.968 22.5045 50.008 22.4438C50.0767 22.339 50.0767 22.3302 50.0063 22.2791C49.9385 22.2294 49.9468 22.2131 50.1057 22.0858C50.2689 21.9548 50.3384 21.862 50.4415 21.6365C50.4655 21.5844 50.5215 21.5417 50.5659 21.5417C50.6104 21.5417 50.6882 21.5084 50.7387 21.4676C50.8126 21.4078 50.8229 21.3734 50.792 21.2899C50.7496 21.1759 50.8747 20.9256 51.1386 20.5953C51.2142 20.5008 51.3584 20.2907 51.4594 20.1282C51.5603 19.9656 51.7158 19.7462 51.8051 19.6402C51.8942 19.5344 51.9673 19.4257 51.9673 19.3991C51.9673 19.3722 52.0481 19.2578 52.147 19.1447C52.2459 19.0316 52.379 18.8553 52.4429 18.753C52.5067 18.6507 52.6363 18.4625 52.7306 18.3349C52.8251 18.2073 52.9718 17.9984 53.0568 17.8708C53.1417 17.7432 53.2738 17.5607 53.3504 17.4656C53.427 17.3704 53.4898 17.2733 53.4898 17.2499C53.4898 17.2264 53.549 17.1334 53.6214 17.0433C53.747 16.8865 53.8374 16.757 54.3551 15.9932C54.4808 15.8075 54.6384 15.5891 54.7052 15.5079C54.7721 15.4267 54.8969 15.2558 54.983 15.1282C55.2952 14.6649 55.7136 14.0828 55.8687 13.8964C55.956 13.7918 56.0273 13.686 56.0273 13.6615C56.0273 13.637 56.1088 13.5155 56.2084 13.3915C56.3079 13.2676 56.4227 13.114 56.4632 13.0502L56.5368 12.9341H60.8496C63.2218 12.9341 65.1625 12.9439 65.1625 12.9559C65.1625 12.9677 65.1405 13.0198 65.1135 13.0718C65.0867 13.1238 65.045 13.2041 65.021 13.2505C64.9969 13.297 64.9348 13.4218 64.883 13.528C64.8312 13.6343 64.7436 13.7766 64.6885 13.8445C64.6333 13.9123 64.5644 14.0153 64.5354 14.0733C64.447 14.2497 64.3859 14.3444 64.2484 14.5184C64.176 14.61 64.0808 14.7493 64.0369 14.8276C63.8549 15.1525 63.825 15.1974 63.7098 15.3182C63.6434 15.3878 63.54 15.53 63.4799 15.6345C63.4199 15.739 63.3029 15.9025 63.2199 15.998C63.1369 16.0936 63.0215 16.2537 62.9632 16.354C62.9052 16.4544 62.7724 16.6421 62.6681 16.7712C62.564 16.9003 62.4491 17.0629 62.4128 17.1324C62.3765 17.2019 62.28 17.3309 62.1985 17.4188C62.117 17.5069 62.0137 17.6494 61.9692 17.7353C61.9245 17.8215 61.8064 17.9813 61.7066 18.0905C61.6069 18.1997 61.5254 18.3072 61.5254 18.3294C61.5254 18.3515 61.4454 18.4705 61.3476 18.5938C61.2499 18.7172 61.0833 18.9434 60.9775 19.0963C60.8719 19.2494 60.6996 19.491 60.595 19.6335C60.204 20.1655 60.0633 20.3619 59.8243 20.7098C59.7481 20.8208 59.6048 21.0178 59.5059 21.1474C59.407 21.277 59.3262 21.4023 59.3262 21.4261C59.3262 21.4495 59.2499 21.5513 59.157 21.6521C59.064 21.7528 58.9879 21.8539 58.9879 21.8769C58.9879 21.8998 58.8355 22.1204 58.6494 22.367C58.4634 22.6136 58.3111 22.8316 58.3111 22.8512C58.3111 22.8708 58.2159 22.9953 58.0996 23.128C57.9834 23.2607 57.8882 23.3837 57.8882 23.4014C57.8882 23.4191 57.7932 23.5442 57.6771 23.6796C57.561 23.8149 57.4658 23.9447 57.4655 23.9678C57.4652 23.991 57.3175 24.1656 57.1373 24.3559C56.9119 24.5938 56.7703 24.7091 56.6829 24.7256C56.613 24.739 56.4799 24.7722 56.3869 24.7997C56.1964 24.8558 49.868 24.8786 49.3028 24.8251Z" fill="#EE7A30" stroke="#EE7A30"/>
<path d="M56.5354 12.8776C56.5354 12.8464 56.4973 12.7864 56.4507 12.7444C56.4043 12.7024 56.3662 12.6492 56.3662 12.6264C56.3662 12.6037 56.2982 12.5068 56.2148 12.4114C56.1316 12.3161 55.9998 12.1431 55.922 12.0271C55.8441 11.9112 55.6315 11.6004 55.4494 11.3366C55.2675 11.0729 55.052 10.7493 54.9705 10.6175C54.8892 10.4858 54.7543 10.2934 54.671 10.19C54.5876 10.0864 54.4751 9.92585 54.4207 9.83302C54.3664 9.74019 54.2613 9.58829 54.1872 9.49547C54.113 9.40264 53.9927 9.22087 53.9196 9.09175C53.8467 8.96247 53.738 8.81074 53.6781 8.75471C53.6184 8.69867 53.5418 8.59555 53.5079 8.52568C53.4741 8.45564 53.3449 8.2634 53.2205 8.09851C53.0963 7.93344 52.9586 7.73462 52.9147 7.65682C52.8707 7.57884 52.7539 7.41412 52.655 7.29057C52.5562 7.16703 52.4753 7.04585 52.4753 7.02104C52.4753 6.99623 52.4159 6.90121 52.3436 6.81007C52.1588 6.57715 51.8409 6.09969 51.8409 6.05479C51.8409 6.0342 51.7553 5.92112 51.6505 5.80348C51.5459 5.68585 51.4604 5.56551 51.4604 5.5358C51.4604 5.50627 51.3736 5.3807 51.2677 5.25682C51.1619 5.1331 51.0395 4.96213 50.996 4.8769C50.9523 4.79167 50.8866 4.69715 50.8502 4.66678C50.8136 4.63656 50.7835 4.58981 50.7835 4.56298C50.7835 4.53614 50.7297 4.4553 50.6637 4.38323C50.5978 4.31116 50.4899 4.15977 50.4241 4.04686C50.3581 3.93395 50.2442 3.76551 50.1708 3.67268C50.0419 3.50964 49.671 2.96602 49.4091 2.55606C49.3393 2.44686 49.2197 2.27353 49.1434 2.17108C49.0669 2.06863 48.9075 1.83656 48.7889 1.6553C48.5342 1.26627 48.5422 1.20028 48.8665 1.0131L49.0708 0.89513L50.5299 0.868632C52.1085 0.840278 56.4585 0.853105 56.6027 0.886691C56.7149 0.912851 57.1765 1.44112 57.6138 2.04433C57.8 2.30087 58.0426 2.62745 58.153 2.77007C58.2635 2.91268 58.3539 3.04804 58.3539 3.07099C58.3539 3.09378 58.4268 3.20061 58.5159 3.30813C58.6052 3.4158 58.8051 3.69378 58.9604 3.92585C59.1156 4.15791 59.2854 4.40467 59.3375 4.47403C59.3897 4.54357 59.592 4.81884 59.7872 5.08585C59.9823 5.35302 60.2249 5.6791 60.3263 5.8104C60.4277 5.94188 60.5108 6.06458 60.5108 6.08298C60.5108 6.10137 60.5762 6.18357 60.6564 6.26593C60.7364 6.34813 60.8312 6.47235 60.8672 6.54188C60.9029 6.61142 61.0192 6.78239 61.1253 6.92163C61.5625 7.49513 61.9925 8.08872 62.0495 8.19775C62.0829 8.26171 62.1692 8.3699 62.241 8.43791C62.3129 8.5061 62.3716 8.58492 62.3716 8.61294C62.3716 8.64095 62.524 8.85783 62.71 9.09462C62.8961 9.33142 63.0483 9.54239 63.0483 9.56298C63.0483 9.58374 63.1124 9.67201 63.1909 9.7591C63.2692 9.84618 63.4001 10.0219 63.4818 10.1495C63.5635 10.2771 63.6728 10.4195 63.7244 10.4659C63.7762 10.5123 63.8549 10.6168 63.8991 10.698C64.025 10.9287 64.0729 11.0004 64.2418 11.2106C64.3285 11.3186 64.4463 11.4945 64.5035 11.6018C64.5605 11.709 64.6628 11.8675 64.7305 11.954C64.8569 12.1156 65.0784 12.565 65.2053 12.8761C65.2053 12.9252 64.5241 12.9343 60.8704 12.9343C57.2672 12.9343 56.5354 12.9247 56.5354 12.8776Z" fill="#9B3446" stroke="#9B3446"/>
<path d="M25.8857 8.89489C25.9594 8.66113 26.0551 8.43278 26.1027 8.37742C26.1327 8.34265 26.1698 8.25708 26.1853 8.18754C26.2284 7.99514 26.51 7.40341 26.6187 7.277C26.6502 7.24037 26.676 7.18704 26.676 7.15835C26.676 7.09083 26.8598 6.72071 27.0133 6.47868C27.0797 6.37421 27.1851 6.18771 27.2479 6.06434C27.3105 5.94096 27.4738 5.6991 27.611 5.52695C27.748 5.35497 27.8603 5.19835 27.8603 5.1791C27.8603 5.13151 28.3324 4.59936 28.7818 4.14046C29.2406 3.67193 30.0019 2.98451 30.2397 2.82434C30.3382 2.75784 30.5058 2.6321 30.6119 2.54467C30.7181 2.45742 30.8293 2.38586 30.859 2.38586C30.8886 2.38586 31.0206 2.31413 31.1522 2.22653C31.4909 2.00088 31.5285 1.97961 31.8356 1.83834C31.9868 1.76881 32.139 1.69252 32.1739 1.66872C32.2089 1.6451 32.2755 1.60915 32.3219 1.58872C32.5686 1.48054 32.6235 1.45505 32.6815 1.4218C32.7851 1.36223 33.1533 1.2429 33.3669 1.19953C33.4765 1.17725 33.6192 1.13134 33.6842 1.09759C33.7491 1.06383 33.8362 1.03598 33.8776 1.03598C33.9191 1.03581 34.0237 1.0051 34.1102 0.967796C34.2577 0.904168 34.6222 0.84307 35.4728 0.739442C35.6704 0.715307 35.9559 0.667881 36.1071 0.634125C36.8278 0.473619 38.5864 0.452691 39.3637 0.595645C39.5614 0.631932 39.8754 0.679695 40.0616 0.701467C40.2475 0.723408 40.4569 0.762058 40.5268 0.787206C40.5965 0.812353 40.7677 0.848303 40.9073 0.867205C41.1614 0.901467 41.4181 0.975898 41.7743 1.11868C41.8791 1.16054 42.1074 1.23666 42.2819 1.28763C42.648 1.39463 42.7915 1.45354 43.2865 1.70029C43.4845 1.79885 43.6657 1.87953 43.6893 1.87953C43.7129 1.87953 43.8388 1.95075 43.9691 2.03767C44.0995 2.12459 44.2441 2.21623 44.2907 2.24121C44.5064 2.35683 44.6002 2.41742 44.777 2.55581C44.8818 2.63767 45.0234 2.73269 45.0919 2.76678C45.1604 2.80105 45.3221 2.92476 45.4513 3.04189C45.5806 3.15919 45.7434 3.29826 45.8133 3.35109C46.1494 3.60611 47.01 4.50467 47.3145 4.91902C47.396 5.02974 47.5472 5.21927 47.6507 5.34045L47.8387 5.56071L47.7141 5.53556C47.5432 5.50096 46.2 5.35396 45.4537 5.28797C44.6192 5.21438 40.7541 5.21455 39.8923 5.28813C38.5601 5.40206 36.8388 5.63429 36.086 5.80172C35.9931 5.82248 35.7075 5.88105 35.4516 5.93185C33.402 6.33877 30.6612 7.15784 28.5791 7.98535C28.0791 8.18417 27.4796 8.40813 27.2469 8.48324C27.0144 8.55851 26.6077 8.6986 26.3431 8.79463C25.9402 8.94096 25.8661 8.95716 25.8857 8.89489Z" fill="#7A2E40" stroke="#7A2E40"/>
<path d="M31.7309 23.8801C31.661 23.8219 31.5468 23.747 31.4771 23.7137C31.3263 23.6418 31.2552 23.5969 30.9623 23.388C30.8403 23.3009 30.7279 23.2297 30.7124 23.2297C30.697 23.2297 30.5011 23.0918 30.2772 22.9233C30.0531 22.7547 29.8224 22.5861 29.7642 22.5485C29.5462 22.4072 28.4504 21.3174 28.2214 21.0136C28.0903 20.8401 27.9663 20.698 27.9455 20.698C27.9104 20.698 27.8563 20.6145 27.7268 20.3605C27.6973 20.3024 27.5917 20.1535 27.4921 20.0297C27.3927 19.9056 27.3112 19.786 27.3112 19.7638C27.3112 19.7292 27.1707 19.4865 26.9832 19.1978C26.954 19.1527 26.8624 18.9829 26.7795 18.8204C26.6969 18.6579 26.5723 18.4322 26.5028 18.3186C26.3818 18.1213 26.304 17.9406 26.2008 17.6179C26.1748 17.5367 26.1191 17.4199 26.0769 17.3583C26.0347 17.2965 26.0003 17.22 26.0003 17.1881C26.0003 17.1564 25.9711 17.0887 25.9353 17.0379C25.8997 16.9871 25.8231 16.7692 25.7652 16.5539C25.7072 16.3384 25.6321 16.0752 25.5982 15.9691C25.5644 15.8629 25.519 15.6511 25.4974 15.4987C25.4757 15.3463 25.4338 15.1767 25.4043 15.1222C25.3748 15.0675 25.337 14.8045 25.3203 14.5377C25.3036 14.2708 25.2671 13.9225 25.2393 13.7635C25.1387 13.1878 25.2632 11.0742 25.4259 10.5957C25.4627 10.4879 25.4927 10.3522 25.4927 10.2943C25.4927 10.2364 25.5233 10.1184 25.5607 10.0322C25.5982 9.94579 25.6529 9.74241 25.6824 9.57988C25.7117 9.41735 25.7715 9.21093 25.8152 9.12114C25.8913 8.96452 25.9178 8.94933 26.4655 8.75085C26.7795 8.63692 27.141 8.51338 27.2691 8.47642C27.397 8.43929 27.9489 8.23237 28.4955 8.0165C30.693 7.14832 33.3788 6.34359 35.4525 5.93178C35.7084 5.88098 35.994 5.82241 36.0869 5.80165C36.4958 5.71085 37.8405 5.50325 38.5187 5.42629C40.0311 5.25481 40.4838 5.23389 42.6845 5.23389C44.8792 5.23389 45.2396 5.2506 46.8291 5.42612C47.7115 5.52368 47.823 5.54275 47.823 5.59676C47.823 5.6187 47.8957 5.71692 47.9845 5.81498C48.0733 5.91304 48.1988 6.08536 48.2634 6.19794C48.3282 6.31034 48.4555 6.50815 48.5462 6.63743C48.6369 6.76655 48.7111 6.89009 48.7111 6.91169C48.7111 6.93347 48.7381 7.01093 48.7712 7.08401C48.9225 7.41988 49.0072 7.63254 49.0072 7.6776C49.0072 7.7046 49.0457 7.80182 49.0928 7.8938C49.1399 7.98579 49.1893 8.13684 49.2025 8.22967C49.2156 8.32249 49.2627 8.50764 49.3071 8.64131C49.3515 8.77482 49.3879 8.91709 49.3881 8.95777C49.3883 8.99811 49.4169 9.08604 49.4519 9.15304C49.487 9.21988 49.5275 9.35271 49.5421 9.4484C49.5568 9.54393 49.5948 9.67355 49.6265 9.73633C49.7892 10.0582 49.9044 11.5667 49.8872 13.1453C49.8724 14.5186 49.8622 14.5645 49.5437 14.7088C49.3716 14.7868 49.1191 14.789 40.5162 14.7898L31.6656 14.7908L31.6182 14.8945C31.5682 15.004 31.6219 15.2884 31.7341 15.5081C31.7822 15.6025 31.8779 15.8101 32.1107 16.3269C32.3618 16.8835 33.5641 18.2656 34.1415 18.6611C34.2345 18.7249 34.3963 18.8467 34.5009 18.9321C34.6056 19.0173 34.777 19.1299 34.8816 19.1821C34.9862 19.2344 35.1099 19.309 35.1565 19.348C35.2483 19.4249 35.9788 19.7454 36.1504 19.7841C36.2086 19.7971 36.4275 19.8671 36.6367 19.9395C36.9192 20.0374 37.1481 20.0823 37.5249 20.1142C38.016 20.1556 39.5858 20.134 39.877 20.0818C40.0176 20.0567 40.0164 20.0587 39.8038 20.2055C39.4601 20.443 38.1749 21.1492 37.4826 21.4811C36.6691 21.871 35.8119 22.2538 34.7875 22.6844C33.506 23.2229 32.6497 23.6017 32.2572 23.8033C32.0583 23.9056 31.887 23.9885 31.8765 23.9876C31.8662 23.9868 31.8006 23.9385 31.7309 23.8801ZM43.374 10.3336C43.5173 10.2418 43.5309 10.1642 43.4499 9.90106C43.2581 9.27794 43.1256 8.9868 42.9766 8.86055C42.9478 8.83625 42.8988 8.75541 42.8678 8.68081C42.7535 8.40638 41.8369 7.41448 41.326 7.01245C40.9625 6.72638 40.1561 6.24452 39.9631 6.19794C39.9015 6.18308 39.7844 6.13768 39.7029 6.09718C39.3671 5.92958 39.1443 5.8457 39.0357 5.8457C38.9722 5.8457 38.7713 5.81718 38.589 5.78241C38.1527 5.69903 37.1171 5.69954 36.7212 5.78308C36.5586 5.81752 36.3551 5.8457 36.2693 5.8457C36.1836 5.8457 36.0599 5.86612 35.9945 5.8911C35.929 5.91591 35.7994 5.95287 35.7063 5.97313C35.1349 6.09735 35.1187 6.1046 34.8707 6.34663C34.7367 6.47726 34.529 6.63659 34.409 6.70072C34.153 6.8376 33.9259 7.02798 33.3651 7.57566C32.8966 8.03321 32.638 8.32587 32.5538 8.4933C32.5218 8.55726 32.4366 8.68536 32.3645 8.77819C32.2923 8.87102 32.1431 9.13684 32.0329 9.36891C31.9229 9.60098 31.8051 9.84469 31.7712 9.91034C31.6452 10.1547 31.7354 10.3419 32.0061 10.3971C32.078 10.4118 34.6432 10.4175 37.7067 10.4099C42.5359 10.3979 43.2896 10.3878 43.374 10.3336Z" fill="#D23E47" stroke="#D23E47"/>
<path d="M97.6721 8.12119C97.54 8.10178 97.188 8.02938 96.8898 7.96001C95.5768 7.65537 94.276 7.43934 92.5036 7.23174C91.8433 7.15444 91.3021 7.07191 91.2743 7.04423C91.2105 6.98043 91.1384 4.67005 91.1496 3.04001C91.1558 2.11951 91.1717 1.81655 91.2211 1.6687C91.2559 1.56423 91.2957 1.4017 91.3096 1.30752C91.3232 1.21335 91.3647 1.07562 91.4017 1.0017L91.469 0.867016L92.4492 0.861784C92.9884 0.858915 94.398 0.858577 95.5819 0.86094C97.9969 0.865666 97.8916 0.851995 97.9794 1.17284C98.0157 1.30533 98.0219 2.12929 98.0028 4.32693C97.9888 5.96305 97.977 7.49621 97.9767 7.73419C97.9762 7.972 97.9617 8.16423 97.9443 8.16136C97.9267 8.15866 97.8044 8.14043 97.6721 8.12119Z" fill="#7A2E40" stroke="#7A2E40"/>
<path d="M1.02329 24.7808C0.813036 24.7566 0.701499 24.721 0.632146 24.656C0.479942 24.5134 0.509472 24.4101 0.757183 24.2169C1.2521 23.8311 1.7757 23.3987 2.43244 22.8336C4.22548 21.2903 5.52192 20.2334 6.92111 19.1739C7.11888 19.024 7.30011 18.8896 7.3239 18.8748C7.35343 18.8567 7.36406 19.7354 7.35748 21.6144L7.34769 24.3804L7.23835 24.5452C7.17844 24.6356 7.07771 24.731 7.0146 24.7568C6.87809 24.813 1.49053 24.8346 1.02329 24.7808Z" fill="#F2852F" stroke="#F2852F"/>
<path d="M50.1484 22.0307C50.1484 21.974 50.4102 21.6203 50.4341 21.6442C50.4473 21.6574 50.4265 21.7028 50.3879 21.7455C50.3492 21.788 50.3175 21.8422 50.3175 21.8657C50.3175 21.8893 50.2796 21.943 50.233 21.985C50.1864 22.027 50.1484 22.0476 50.1484 22.0307Z" fill="#F2852F" stroke="#F2852F"/>
<path d="M49.82 22.4678C49.8755 22.3088 49.9701 22.2308 50.0322 22.2927C50.093 22.3532 49.9794 22.5344 49.8616 22.5651C49.7867 22.5847 49.7825 22.5749 49.82 22.4678Z" fill="#F2852F" stroke="#F2852F"/>
<path d="M66.8799 10.7933C66.7303 10.6794 66.5382 10.4569 66.1825 9.98605C66.0842 9.85558 65.8889 9.60444 65.749 9.4279C65.6092 9.25136 65.4946 9.08917 65.4946 9.06757C65.4946 9.04579 65.4075 8.94351 65.3009 8.84005C65.1944 8.73643 65.0776 8.59482 65.0415 8.52529C65.0056 8.45575 64.8976 8.31195 64.8017 8.20563C64.6239 8.00866 64.3112 7.5982 64.0701 7.24546C63.9962 7.1371 63.876 6.97845 63.8031 6.89271C63.7302 6.80698 63.6173 6.63297 63.5522 6.50605C63.4872 6.37913 63.3647 6.19094 63.2802 6.08782C63.1955 5.98487 63.1261 5.87398 63.126 5.84157C63.1258 5.80917 63.0948 5.72563 63.057 5.65609C63.019 5.58605 62.9792 5.38706 62.9677 5.21103C62.9508 4.9474 62.9626 4.85879 63.0367 4.69643C63.086 4.58858 63.1263 4.4836 63.1263 4.46335C63.1263 4.44276 63.2071 4.31955 63.306 4.18925C63.4049 4.05913 63.5524 3.85525 63.6337 3.73643C63.7152 3.61744 63.8627 3.41963 63.9616 3.29693C64.0605 3.17406 64.1413 3.04613 64.1413 3.01238C64.1413 2.97862 64.2088 2.88579 64.2913 2.80613C64.3736 2.7263 64.4914 2.57541 64.553 2.47077C64.6144 2.36613 64.7752 2.14166 64.9104 1.97187C65.0457 1.80208 65.1563 1.64731 65.1563 1.62773C65.1563 1.55736 65.7084 1.04326 65.8791 0.954317C66.0524 0.86419 66.0718 0.863684 68.8932 0.86149C70.4549 0.86014 72.1749 0.860984 72.7153 0.863178L73.6981 0.86706L73.8304 0.985035L73.9627 1.10301L73.8881 1.33305C73.7548 1.74436 73.4964 2.24714 73.2643 2.54706C73.1392 2.70841 73.0125 2.89963 72.9825 2.97187C72.9524 3.04427 72.9131 3.10335 72.8952 3.10335C72.8773 3.10335 72.7469 3.26942 72.6051 3.47263C72.2371 4.00039 71.8274 4.56951 71.6516 4.79769C71.5682 4.90588 71.5001 5.0144 71.5001 5.03904C71.5001 5.06352 71.4192 5.17744 71.3204 5.29204C71.2215 5.40664 71.0485 5.63989 70.9358 5.81035C70.5912 6.33136 70.4527 6.53238 70.2718 6.77423C70.1763 6.90183 70.0378 7.09541 69.9639 7.20444C69.8899 7.3133 69.7487 7.50723 69.6498 7.63499C69.5509 7.76309 69.4701 7.88495 69.4701 7.90622C69.4701 7.92748 69.3559 8.08748 69.2163 8.262C69.0768 8.43634 68.9625 8.59668 68.9625 8.61811C68.9625 8.63955 68.9038 8.71297 68.8319 8.78115C68.7601 8.84917 68.6718 8.96208 68.6359 9.03162C68.5999 9.10115 68.4425 9.31955 68.2859 9.51685C68.1295 9.71415 67.9714 9.93406 67.9347 10.0058C67.898 10.0774 67.805 10.1842 67.728 10.2433C67.6511 10.3023 67.5406 10.4276 67.4824 10.5217C67.4241 10.6158 67.3386 10.7126 67.292 10.7371C67.2456 10.7614 67.1682 10.8102 67.1199 10.8455C67.0394 10.9044 67.0203 10.9003 66.8799 10.7933Z" fill="#9B3446" stroke="#9B3446"/>
<path d="M0.500576 4.35399C0.497201 2.6799 0.509013 1.26049 0.526899 1.19973C0.544617 1.13897 0.618863 1.03956 0.69159 0.97863L0.823883 0.86825L2.70045 0.862343C3.73264 0.859305 5.1104 0.858968 5.76242 0.861837L6.94765 0.867068L7.0737 0.983187C7.19722 1.09677 7.20144 1.11449 7.27923 1.84935C7.32276 2.26217 7.35128 2.60479 7.34234 2.61103C7.33339 2.61711 7.05008 2.80766 6.71276 3.03416C5.47876 3.86319 4.82641 4.31669 2.82194 5.7393C2.55449 5.92901 2.21178 6.16732 2.06058 6.26876C1.90939 6.37019 1.498 6.66572 1.14635 6.92563L0.506819 7.39804L0.500576 4.35399Z" fill="#7A2E40" stroke="#7A2E40"/>
<path d="M91.2326 8.81833C91.24 7.8774 91.2532 7.10171 91.2618 7.09462C91.2849 7.07521 93.8059 7.38576 94.4707 7.48973C94.7849 7.53884 95.4511 7.66238 95.9511 7.76432C96.9224 7.9623 97.7306 8.12399 97.8857 8.15116C98.0144 8.17395 98.0063 8.285 97.8734 8.31825C97.8 8.33665 97.7394 8.32112 97.4633 8.45985C97.3874 8.48787 97.2897 8.52989 97.2463 8.55302C97.2028 8.57614 96.8807 8.68838 96.5302 8.80196C96.1799 8.91572 95.8824 9.02492 95.8691 9.04449C95.8559 9.06424 95.3311 9.25259 94.7031 9.46323C94.075 9.67386 93.2281 9.96297 92.8211 10.1056C92.0945 10.3603 91.4951 10.5284 91.3116 10.5289L91.2188 10.5292L91.2326 8.81833Z" fill="#D23E47" stroke="#D23E47"/>
<path d="M100.451 24.8301C100.405 24.8117 100.276 24.7953 100.166 24.7938C99.95 24.7906 99.7944 24.6869 99.7969 24.548C99.7998 24.3921 99.958 24.0237 100.137 23.7555C100.24 23.6015 100.361 23.4156 100.406 23.3421C100.451 23.2685 100.567 23.104 100.663 22.9764C100.759 22.8488 100.907 22.6393 100.991 22.5111C101.076 22.3826 101.195 22.2307 101.256 22.1735C101.318 22.1161 101.395 22.0046 101.428 21.9256C101.461 21.8464 101.556 21.7042 101.639 21.6091C101.828 21.3918 102.112 21.0112 102.351 20.6537C102.453 20.502 102.567 20.3521 102.605 20.3207C102.677 20.2606 102.925 19.9096 102.925 19.8669C102.925 19.853 103.011 19.7504 103.116 19.6387C103.22 19.5271 103.306 19.4139 103.306 19.3872C103.306 19.3605 103.377 19.2466 103.464 19.1342C103.552 19.0218 103.699 18.8242 103.792 18.6949C103.885 18.5658 104.047 18.3499 104.152 18.2152C104.256 18.0807 104.38 17.8972 104.426 17.8076C104.473 17.7182 104.57 17.5865 104.641 17.5153C104.713 17.4439 104.826 17.2907 104.892 17.1747C104.958 17.0588 105.037 16.9447 105.068 16.9215C105.098 16.8984 105.246 16.7085 105.397 16.4996C105.549 16.2907 105.72 16.0642 105.778 15.996C105.836 15.928 105.913 15.8095 105.95 15.7327C105.986 15.6559 106.082 15.5219 106.162 15.4346C106.243 15.3474 106.321 15.238 106.336 15.1916C106.351 15.1452 106.479 14.9413 106.621 14.7386C106.763 14.5359 106.909 14.3156 106.945 14.2488C106.981 14.1821 107.077 14.0454 107.157 13.945C107.237 13.8446 107.321 13.7217 107.345 13.6719C107.368 13.6223 107.492 13.4365 107.62 13.2589L107.852 12.9362L108.317 12.9258C109.302 12.9033 116.49 12.9145 116.452 12.9383C116.43 12.9521 116.424 13.012 116.439 13.0716C116.466 13.1798 116.376 13.4154 116.216 13.6584C116.175 13.72 116.077 13.8814 115.998 14.0167C115.919 14.1521 115.781 14.3496 115.691 14.4556C115.601 14.5617 115.528 14.662 115.528 14.6783C115.528 14.6949 115.376 14.9163 115.19 15.1705C115.004 15.4247 114.852 15.6454 114.852 15.661C114.852 15.6765 114.766 15.7804 114.661 15.8922C114.557 16.0037 114.471 16.117 114.471 16.1437C114.471 16.1703 114.373 16.315 114.253 16.4652C114.017 16.761 113.836 17.0167 113.836 17.0547C113.836 17.0679 113.764 17.1666 113.675 17.2743C113.586 17.382 113.469 17.546 113.414 17.6388C113.359 17.7317 113.244 17.893 113.159 17.9975C113.074 18.102 112.994 18.2167 112.981 18.2527C112.968 18.2886 112.865 18.4405 112.751 18.5902C112.544 18.8626 112.414 19.0451 112.335 19.1749C112.24 19.3312 112.079 19.5469 111.947 19.6959C111.87 19.783 111.807 19.8792 111.807 19.9096C111.807 19.9399 111.748 20.0206 111.676 20.0888C111.604 20.1568 111.516 20.2697 111.48 20.3393C111.444 20.4088 111.313 20.5931 111.188 20.7484C111.063 20.9038 110.961 21.0422 110.961 21.0561C110.961 21.088 110.813 21.2984 110.619 21.5418C110.536 21.6463 110.424 21.8049 110.37 21.8945C110.263 22.0712 109.861 22.6287 109.536 23.0507C109.424 23.196 109.313 23.3595 109.29 23.4144C109.267 23.4691 109.167 23.6014 109.068 23.7084C108.969 23.8152 108.888 23.9202 108.888 23.9415C108.888 23.9627 108.714 24.1521 108.5 24.3624C108.165 24.6934 108.084 24.7516 107.898 24.7955C107.649 24.8544 100.595 24.8871 100.451 24.8301Z" fill="#F1952A" stroke="#F1952A"/>
<path d="M34.9684 6.24866C35.104 6.11196 35.1715 6.08647 35.7005 5.97339C35.8942 5.93221 35.9632 5.95297 35.7795 5.99736C35.7128 6.01356 35.6077 6.06183 35.5459 6.10504C35.4842 6.1479 35.412 6.18318 35.3853 6.18318C35.3586 6.18318 35.2771 6.21406 35.2041 6.2517C35.1308 6.28951 35.0164 6.33592 34.9496 6.35499L34.8281 6.38976L34.9684 6.24866Z" fill="#D63F45" stroke="#D63F45"/>
<path d="M75.3581 15.0778C75.3176 14.7476 75.3029 13.0681 75.297 8.1029L75.2891 1.56281L75.3859 1.40754C75.4983 1.22712 75.7192 1.02442 75.911 0.925513C76.0322 0.862897 76.3405 0.856315 79.0214 0.858172C81.2066 0.859691 82.013 0.873361 82.0562 0.909142C82.0886 0.935809 82.1541 1.03826 82.2017 1.13648C82.2879 1.31404 82.2884 1.35235 82.2884 7.35674C82.2884 12.5584 82.2802 13.3983 82.2282 13.3983C82.1949 13.3983 81.5546 13.5984 80.805 13.843C80.0555 14.0875 78.86 14.4666 78.148 14.6853C77.4363 14.9041 76.6037 15.1672 76.2981 15.27C75.9924 15.3728 75.6679 15.4693 75.5769 15.4847L75.4116 15.5125L75.3581 15.0778Z" fill="#B93948" stroke="#B93948"/>
<path d="M65.81 24.7879C65.692 24.7725 65.556 24.7387 65.5076 24.7129C65.4246 24.6685 65.1574 24.363 65.1574 24.3126C65.1574 24.2864 64.583 23.4999 64.3146 23.1585C64.2199 23.038 64.1425 22.9269 64.1425 22.9116C64.1425 22.8964 64.033 22.7443 63.8993 22.5739C63.7655 22.4032 63.5229 22.0785 63.36 21.8523C63.1972 21.626 63.0067 21.3639 62.9365 21.2699C62.8665 21.176 62.773 21.0179 62.7288 20.9187L62.6484 20.7384L62.7657 20.6162C62.8302 20.549 62.8702 20.4736 62.8546 20.4484C62.8384 20.4223 62.859 20.4022 62.9029 20.4014C63.0111 20.3992 63.1952 20.2322 63.2255 20.109C63.2412 20.0454 63.2274 19.9789 63.1896 19.9374C63.1351 19.8773 63.1422 19.8562 63.252 19.7511C63.32 19.6861 63.4198 19.6103 63.4736 19.5828C63.5404 19.5487 63.5681 19.5014 63.5605 19.4346C63.5458 19.3053 63.7937 18.9798 63.931 18.948C64.0441 18.922 64.1553 18.7447 64.0957 18.6854C64.076 18.6657 64.1464 18.5396 64.252 18.4052C64.4084 18.2064 64.4553 18.1701 64.5043 18.2106C64.5373 18.238 64.593 18.2493 64.6283 18.236C64.701 18.2081 64.7147 18.0589 64.6482 18.0179C64.5331 17.9468 64.7273 17.6797 65.0174 17.5102C65.2005 17.403 65.2361 17.3501 65.1574 17.3016C65.0959 17.2636 65.1053 17.212 65.189 17.1286C65.2631 17.0545 65.2774 17.0339 65.4323 16.7781C65.4789 16.7013 65.5931 16.5367 65.6861 16.4125C65.7791 16.2881 65.9218 16.0895 66.0033 15.971C66.0847 15.8525 66.216 15.6761 66.2949 15.5793C66.3739 15.4822 66.5045 15.304 66.5852 15.183C66.83 14.8164 67.1813 14.7755 67.4479 15.0829C67.6967 15.3693 67.8823 15.6064 67.995 15.7813C68.0552 15.8748 68.2309 16.1222 68.3849 16.3311C68.5392 16.5401 68.7418 16.8154 68.8353 16.943C68.929 17.0706 69.0964 17.2984 69.2074 17.4493C69.3184 17.6002 69.4551 17.7995 69.511 17.8923C69.567 17.9852 69.695 18.159 69.7958 18.2788C69.8964 18.3985 69.9789 18.5092 69.9789 18.5246C69.9789 18.5401 70.0692 18.6679 70.1797 18.8084C70.4441 19.145 70.6132 19.3855 70.6132 19.4253C70.6132 19.443 70.6908 19.5325 70.7855 19.6243C70.8803 19.716 70.9827 19.8481 71.0131 19.9176C71.0435 19.9872 71.1609 20.1614 71.2741 20.3045C71.3875 20.4476 71.5659 20.6824 71.6705 20.8262C71.7751 20.97 71.9214 21.1661 71.9955 21.2621C72.0696 21.3582 72.1313 21.4565 72.1328 21.4809C72.1344 21.5052 72.2118 21.6042 72.3048 21.7008C72.3979 21.7973 72.4744 21.8913 72.4747 21.9097C72.4757 21.9521 72.6781 22.2474 72.8024 22.3882C72.8549 22.4474 73.0069 22.6501 73.1404 22.8388C73.7155 23.6508 73.8683 23.8554 73.9115 23.8697C73.9736 23.8903 74.0769 24.1902 74.0793 24.3566C74.0821 24.5696 74.0003 24.7009 73.8312 24.7546C73.6632 24.8078 66.2003 24.8388 65.81 24.7879Z" fill="#EE7A30" stroke="#EE7A30"/>
</svg>
