<svg width="302" height="61" viewBox="0 0 302 61" fill="none" xmlns="http://www.w3.org/2000/svg">
<path d="M282.264 58.7895C282.233 58.7385 282.06 58.6972 281.878 58.6972C281.697 58.6972 281.506 58.6551 281.453 58.6036C281.4 58.5522 281.059 58.4809 280.696 58.4456C280.037 58.3812 280.037 58.3808 279.34 57.6529C278.417 56.6893 277.79 55.9201 277.597 55.515C277.511 55.3335 277.282 55.0322 277.089 54.8454C276.895 54.6587 276.737 54.4712 276.737 54.4294C276.737 54.3152 276.158 53.4808 275.971 53.326C275.882 53.2523 275.709 53.0117 275.588 52.7914C275.194 52.0784 275.141 52.0019 274.808 51.6592C274.477 51.3185 274.301 51.0557 274.097 50.602C274.036 50.4663 273.801 50.154 273.574 49.9085C273.172 49.4731 273.162 49.4463 273.204 48.8622C273.242 48.345 273.297 48.2113 273.606 47.8852C273.803 47.6774 274.071 47.325 274.202 47.1022C274.333 46.8795 274.605 46.4922 274.807 46.2415C275.009 45.9907 275.339 45.5351 275.539 45.2288C275.739 44.9226 275.999 44.5852 276.116 44.4799C276.233 44.3741 276.451 44.078 276.6 43.8216C276.749 43.5652 277.041 43.15 277.249 42.8993C277.458 42.6482 277.725 42.2577 277.843 42.0313C277.961 41.8048 278.199 41.4864 278.371 41.3228C278.544 41.1596 278.769 40.8626 278.872 40.663C278.975 40.4633 279.291 40.0234 279.574 39.6859C279.856 39.3485 280.087 39.0468 280.087 39.0152C280.087 38.9378 280.54 38.3022 281.128 37.5541C281.393 37.2167 281.61 36.9096 281.61 36.8716C281.61 36.8339 281.816 36.5751 282.067 36.296C282.318 36.0173 282.524 35.7341 282.524 35.6673C282.524 35.6001 282.652 35.4226 282.809 35.2732C283.06 35.0326 283.173 35.001 283.779 35.001C284.421 35.001 284.483 35.0212 284.763 35.3275C284.927 35.5069 285.062 35.703 285.062 35.7633C285.062 35.8233 285.226 36.0298 285.427 36.2214C285.627 36.4134 285.882 36.7614 285.993 36.9947C286.104 37.2276 286.396 37.6379 286.642 37.9061C286.887 38.1738 287.089 38.423 287.09 38.459C287.094 38.5603 287.791 39.5774 288.052 39.8617C288.179 40.0011 288.403 40.3199 288.548 40.5706C288.694 40.8213 288.973 41.2045 289.169 41.4229C289.365 41.6408 289.555 41.9142 289.591 42.0304C289.626 42.1467 289.821 42.4432 290.024 42.6895C290.385 43.1286 291.315 44.43 292.201 45.7352C292.447 46.0973 292.768 46.504 292.916 46.6389C293.063 46.7737 293.184 46.9406 293.184 47.0095C293.184 47.0783 293.355 47.3554 293.565 47.6248C293.774 47.8945 294.149 48.411 294.397 48.7731C294.823 49.3929 295.132 49.821 296.229 51.3117C296.481 51.6527 296.846 52.168 297.042 52.4568C297.237 52.7452 297.607 53.2531 297.865 53.5861C298.121 53.9186 298.403 54.3278 298.49 54.4946C298.577 54.6615 298.789 54.9325 298.962 55.0958C299.134 55.2594 299.276 55.4417 299.276 55.5008C299.276 55.5604 299.459 55.8488 299.682 56.142C299.905 56.4357 300.087 56.7022 300.087 56.7338C300.087 56.7658 300.179 56.9076 300.291 57.0494C300.772 57.6602 300.387 58.4955 299.5 58.7616C298.861 58.9536 283.433 58.9621 283.126 58.7705C282.981 58.6802 282.86 58.6794 282.628 58.7664C282.449 58.8341 282.298 58.8434 282.264 58.7895Z" fill="#D23E47" stroke="#100F0F" stroke-opacity="0.74"/>
<path d="M0.578354 57.0058C0.571873 56.5711 0.560126 47.4005 0.552835 36.6262L0.539062 17.0365L2.0621 15.9117C2.89977 15.2931 3.88165 14.5879 4.24458 14.3445C4.60752 14.101 5.4302 13.5291 6.07223 13.0738C8.81127 11.1303 12.179 8.76515 13.0264 8.18915C16.7128 5.68586 16.9624 5.52991 17.0997 5.64373C17.2487 5.76687 17.2913 5.7531 17.8997 5.38165C18.1229 5.24515 18.6025 4.98672 18.9654 4.80727C19.3283 4.62783 19.8419 4.33011 20.1069 4.14581C20.3714 3.9615 20.6456 3.81041 20.7157 3.81001C20.7862 3.8096 20.981 3.71887 21.1483 3.60829C21.316 3.4977 21.5258 3.40697 21.6149 3.40656C21.704 3.40616 21.8494 3.32596 21.9386 3.22834C22.0273 3.13112 22.3201 2.94317 22.5887 2.81112C22.8572 2.67907 23.2461 2.48545 23.4527 2.38054C23.6593 2.27603 23.8881 2.19057 23.9618 2.19057C24.0352 2.19057 24.266 2.09943 24.4743 1.98803C24.6825 1.87664 24.9235 1.7855 25.0097 1.7855C25.096 1.7855 25.3362 1.70125 25.5432 1.59877C25.9872 1.37841 27.0391 1.1212 28.0979 0.974161C28.5139 0.916237 29.1309 0.796742 29.4683 0.708034C29.9608 0.579223 30.6446 0.547629 32.9251 0.550464C34.4882 0.552489 35.9959 0.598667 36.2754 0.653756C36.5545 0.708844 37.0571 0.805653 37.3921 0.869248C37.7271 0.932843 38.2983 1.0572 38.6612 1.1451C39.0241 1.233 39.5264 1.33791 39.7779 1.37841C40.2681 1.45781 40.5549 1.55786 41.3512 1.92849C41.6307 2.05851 42.1682 2.28454 42.5461 2.43077C42.9245 2.5774 43.4268 2.82125 43.6629 2.97315C43.8991 3.12505 44.3207 3.36808 44.6002 3.5135C45.4565 3.95867 47.1226 5.27431 48.279 6.41862C49.4428 7.57021 51.0343 9.49588 51.3129 10.0893C51.4045 10.2841 51.6333 10.66 51.8213 10.9249C52.0096 11.1895 52.1636 11.4317 52.1636 11.4629C52.1636 11.5415 52.642 12.5865 52.902 13.0766C53.2945 13.8151 53.3698 13.984 53.5351 14.4944C53.6254 14.7726 53.7579 15.2555 53.8292 15.567C53.9005 15.8781 53.9969 16.1944 54.0435 16.2694C54.0901 16.3443 54.1856 16.6363 54.2565 16.9183C54.327 17.2002 54.4542 17.6134 54.5389 17.8361C54.6235 18.0589 54.6956 18.5373 54.6989 18.8994C54.7021 19.2616 54.771 19.8311 54.852 20.1652C54.9476 20.561 54.999 21.3197 54.999 22.3425L54.9994 23.9121L52.1854 25.3015C50.6381 26.0658 47.0679 27.8315 44.2519 29.2257C41.4363 30.6195 39.0748 31.7602 39.0047 31.7602C38.9038 31.7602 38.8888 31.1489 38.9326 28.8486C38.9828 26.2193 38.9666 25.7855 38.7669 24.3678C38.6454 23.5046 38.4777 22.5701 38.3947 22.2918C37.9872 20.93 37.7223 20.1944 37.5136 19.8424C37.3877 19.6302 37.1487 19.2316 36.983 18.9574C36.6148 18.3481 35.0383 16.5703 34.8657 16.5703C34.7973 16.5703 34.5838 16.4067 34.3914 16.2066C34.0994 15.9028 32.3778 14.9501 32.121 14.9501C32.0781 14.9501 31.927 14.8589 31.7852 14.7475C31.6431 14.6361 31.4073 14.5446 31.2615 14.5438C31.1157 14.543 30.7066 14.4518 30.3525 14.3413C29.4193 14.0492 26.888 14.05 25.9706 14.3425C25.621 14.4539 25.2224 14.545 25.0847 14.545C24.947 14.545 24.7132 14.609 24.565 14.6876C24.4167 14.7658 24.0214 14.9521 23.6864 15.1016C22.3728 15.6873 22.1472 15.8096 21.6886 16.1835C21.4274 16.3961 21.1823 16.5703 21.1442 16.5703C20.8745 16.5703 19.0671 18.4859 19.0671 18.7714C19.0671 18.8245 18.9711 18.9549 18.8532 19.061C18.5964 19.2927 18.2549 19.9344 18.2545 20.1863C18.2545 20.2864 18.163 20.5168 18.0516 20.6995C17.9402 20.8818 17.8474 21.0868 17.8458 21.1552C17.8438 21.2233 17.7304 21.5072 17.5926 21.7855C17.4553 22.0638 17.3423 22.4057 17.3411 22.545C17.3399 22.6843 17.2629 23.0489 17.1702 23.3551C17.0187 23.8546 16.9992 24.8721 16.9794 33.1779C16.9672 38.274 16.9514 42.9221 16.9437 43.507L16.9299 44.5703L16.2478 45.0766C13.2726 47.285 9.72914 50.165 5.03486 54.1906C3.24732 55.7237 0.99962 57.5651 0.733898 57.7146C0.61562 57.781 0.588075 57.6559 0.578354 57.0058Z" fill="#B93948" stroke="#100F0F" stroke-opacity="0.74"/>
<path d="M202.321 59.7168C202.321 59.6654 202.875 58.15 203.551 56.3499C204.228 54.5498 204.929 52.6667 205.109 52.1652C206.549 48.164 206.804 47.6184 207.575 46.8791C208.078 46.3971 208.181 46.3424 208.582 46.3424C208.827 46.3424 209.198 46.2699 209.406 46.1816C209.613 46.0929 209.989 45.9605 210.24 45.8872C210.941 45.6826 211.582 45.444 211.88 45.2775C212.028 45.1949 212.207 45.1272 212.277 45.1272C212.347 45.1272 212.646 44.945 212.942 44.7222C213.238 44.4994 213.528 44.3171 213.588 44.3171C213.783 44.3171 215.889 42.148 216.094 41.7348C216.205 41.5121 216.509 40.9113 216.77 40.3998C217.031 39.8882 217.245 39.3956 217.245 39.3045C217.245 39.2137 217.333 38.9257 217.44 38.6649C217.547 38.404 217.665 37.8973 217.701 37.5388C217.737 37.1803 217.835 36.755 217.919 36.5938C218.045 36.3511 218.08 35.5439 218.12 31.9291C218.147 29.525 218.182 27.1704 218.198 26.6969C218.214 26.2234 218.235 25.5603 218.244 25.2228L218.26 24.6096L219.008 24.4844C219.42 24.4156 220.688 24.0384 221.826 23.6463C222.963 23.2546 225.197 22.5012 226.788 21.9726C228.379 21.4436 230.754 20.6529 232.066 20.215C233.377 19.7772 234.457 19.4272 234.467 19.4377C234.477 19.4479 234.512 22.965 234.545 27.2538C234.656 41.6514 234.718 48.8044 234.759 51.7095C234.804 54.9756 234.62 57.6615 234.307 58.2918C233.969 58.9739 234.258 58.948 226.815 58.9711C219.458 58.9938 219.658 59.0084 219.145 58.4004C218.809 58.0022 218.714 56.9397 218.808 54.6292C218.856 53.4505 218.843 52.9203 218.765 52.8725C218.521 52.7222 218.106 52.9733 217.066 53.9013C216.466 54.4364 215.862 54.9456 215.722 55.0335C215.583 55.1214 215.274 55.3672 215.038 55.5795C214.801 55.7913 214.436 56.0433 214.226 56.1389C214.016 56.2345 213.697 56.4362 213.517 56.5873C213.234 56.8255 212.842 57.0349 211.661 57.5769C211.522 57.6409 211.156 57.8252 210.849 57.986C210.542 58.1472 210.217 58.2821 210.127 58.2853C210.036 58.289 209.739 58.3785 209.467 58.485C209.194 58.5911 208.628 58.7775 208.209 58.899C207.791 59.0201 207.22 59.1886 206.94 59.2733C206.661 59.3575 205.565 59.5119 204.504 59.616C202.22 59.84 202.321 59.8351 202.321 59.7168Z" fill="#F1952A" stroke="#100F0F" stroke-opacity="0.74"/>
<path d="M258.156 30.2173C258.156 30.176 257.905 29.7807 257.598 29.3387C257.291 28.8964 257.04 28.4837 257.04 28.4217C257.04 28.3593 256.834 28.0891 256.583 27.8214C256.331 27.5532 256.126 27.2652 256.126 27.181C256.126 27.0967 256.041 26.9193 255.937 26.7864C255.54 26.2801 254.603 24.862 254.603 24.7668C254.603 24.7121 254.422 24.4719 254.202 24.2329C253.981 23.9939 253.755 23.6788 253.699 23.5318C253.577 23.213 252.767 22.1072 251.873 21.0406C251.517 20.6149 251.154 20.1527 251.066 20.0134C250.979 19.874 250.711 19.5459 250.471 19.2835C250.231 19.0214 250.034 18.748 250.033 18.6759C250.032 18.6038 249.781 18.2509 249.475 17.8913C249.168 17.532 248.918 17.2047 248.918 17.1642C248.918 17.1233 248.652 16.7567 248.328 16.3492C248.003 15.9417 247.617 15.4029 247.47 15.1518C247.322 14.9007 247.039 14.5385 246.841 14.3469C246.643 14.1558 246.481 13.9427 246.481 13.8734C246.481 13.8046 246.207 13.404 245.872 12.9835C245.537 12.563 245.263 12.1807 245.263 12.1337C245.263 12.0871 245.149 11.9417 245.009 11.8108C244.87 11.68 244.756 11.5293 244.756 11.4763C244.756 11.4232 244.615 11.2146 244.442 11.0133C244.098 10.6106 243.369 9.59718 242.554 8.38847C242.265 7.95951 241.842 7.3754 241.615 7.09064C241.388 6.80588 241.202 6.51991 241.202 6.4555C241.202 6.39069 241.019 6.14037 240.796 5.89854C240.572 5.65672 240.39 5.41125 240.39 5.35292C240.39 5.29459 240.218 5.02644 240.008 4.75667C239.457 4.04902 239.07 3.43252 239.07 3.26199C239.07 3.18057 239.024 3.08578 238.968 3.05135C238.913 3.01692 238.867 2.79252 238.867 2.55272C238.867 2.01561 239.135 1.64416 239.644 1.47647C239.917 1.38654 242.343 1.35495 249.131 1.35171L258.251 1.34766L258.657 1.62877C258.881 1.7835 259.186 2.07556 259.336 2.27809C259.485 2.48062 259.803 2.85125 260.041 3.10199C260.28 3.35272 260.57 3.74239 260.686 3.96801C260.802 4.19363 261.061 4.5351 261.261 4.72751C261.46 4.91951 261.683 5.21358 261.755 5.38047C261.827 5.54735 262.144 5.99697 262.46 6.37935C262.776 6.76173 263.086 7.17206 263.147 7.29075C263.209 7.40984 263.424 7.70958 263.625 7.95748C264.077 8.51566 264.451 9.06087 264.451 9.16254C264.451 9.20507 264.615 9.39667 264.815 9.58826C265.016 9.78026 265.262 10.0974 265.363 10.2931C265.464 10.4887 265.746 10.899 265.989 11.2045C266.232 11.5103 266.476 11.8331 266.532 11.9222C266.858 12.4432 267.222 12.9543 267.373 13.1062C267.469 13.2022 267.694 13.5085 267.874 13.7863C268.054 14.0642 268.362 14.4709 268.56 14.69C268.756 14.9088 268.918 15.1235 268.918 15.1664C268.918 15.2543 269.398 15.9798 269.51 16.062C269.55 16.0907 269.66 16.2285 269.754 16.3678C269.849 16.5072 270.065 16.8162 270.234 17.0548C270.404 17.2934 270.542 17.5239 270.542 17.5668C270.542 17.6097 270.708 17.8017 270.91 17.9933C271.112 18.1853 271.338 18.4843 271.412 18.6572C271.487 18.8302 271.779 19.247 272.06 19.5836C272.342 19.9198 272.572 20.2406 272.572 20.2961C272.572 20.352 272.815 20.7101 273.11 21.0917C273.406 21.4732 273.812 22.0363 274.013 22.3425C274.214 22.6487 274.498 23.027 274.643 23.1834C274.789 23.3394 274.908 23.5046 274.908 23.5508C274.908 23.597 275.102 23.8898 275.339 24.2013C275.576 24.5132 275.876 24.9171 276.004 25.0994C276.133 25.282 276.452 25.7211 276.715 26.0756C277.167 26.6856 277.361 26.9829 277.851 27.8108C277.966 28.0057 278.15 28.3022 278.26 28.4691C278.369 28.636 278.51 28.8867 278.572 29.026C279.041 30.0739 279.06 30.1987 278.766 30.2919C278.482 30.3818 258.156 30.3085 258.156 30.2173Z" fill="#7A2E40" stroke="#100F0F" stroke-opacity="0.74"/>
<path d="M39.8379 58.8195C39.3538 58.6616 39.1804 58.5263 39.0613 58.2148C38.905 57.8036 38.8017 45.4476 38.8604 34.0892L38.8718 31.8107L39.4539 31.5632C39.7739 31.4275 41.7036 30.4886 43.7414 29.4772C53.1114 24.827 54.9329 23.946 55.0095 24.0274C55.0549 24.0752 55.1249 28.1704 55.1654 33.1272C55.206 38.0843 55.2501 43.3246 55.2639 44.7727C55.3392 52.7748 55.3097 57.2378 55.178 57.725C55.0063 58.3618 54.7102 58.6968 54.3201 58.6968C54.1552 58.6968 53.8587 58.764 53.6618 58.8463C53.356 58.9735 52.3361 58.9925 46.7701 58.9726C41.7692 58.9552 40.1437 58.9192 39.8379 58.8195Z" fill="#F1952A" stroke="#100F0F" stroke-opacity="0.74"/>
<path d="M199.35 59.8146C198.806 59.7697 198.288 59.7048 198.198 59.6704C198.108 59.636 197.548 59.5651 196.953 59.5124C196.357 59.4606 195.701 59.3468 195.493 59.2597C195.286 59.173 195.011 59.1005 194.884 59.0989C194.757 59.0968 194.469 59.0073 194.246 58.8996C194.023 58.7918 193.747 58.7023 193.633 58.7003C193.52 58.6987 193.167 58.6059 192.849 58.4945C192.532 58.3831 192.197 58.292 192.107 58.292C192.017 58.292 191.821 58.2122 191.672 58.1146C191.157 57.7759 190.994 57.6852 190.274 57.3385C189.876 57.1465 189.419 56.8678 189.259 56.7191C189.098 56.5705 188.83 56.3793 188.662 56.2946C187.858 55.8871 185.763 53.8938 184.718 52.5425C183.269 50.6667 182.013 48.6021 182.013 48.0949C182.013 48.0115 181.945 47.8227 181.862 47.6745C181.597 47.2026 181.201 46.0255 181.196 45.6978C181.193 45.5232 181.125 45.1983 181.044 44.9755C180.962 44.7527 180.869 44.2286 180.836 43.811C180.803 43.3934 180.711 42.8765 180.631 42.663C180.466 42.2239 180.269 39.1876 180.3 37.5637L180.32 36.532L180.72 36.4643C180.941 36.4275 181.721 36.1954 182.455 35.9487C183.189 35.702 185.187 35.0705 186.896 34.5456C188.605 34.0206 191.475 33.1108 193.274 32.5239C195.073 31.9369 196.606 31.4565 196.68 31.4565C196.787 31.4565 196.824 32.0374 196.865 34.3171C196.894 35.9418 196.964 37.353 197.029 37.5831C197.091 37.8059 197.206 38.2389 197.285 38.5452C197.612 39.8085 197.682 40.0338 197.882 40.4692C197.997 40.7199 198.266 41.1756 198.478 41.4819C198.691 41.7881 198.865 42.1004 198.866 42.1753C198.866 42.3422 200.829 44.3173 200.995 44.3173C201.06 44.3173 201.33 44.4996 201.595 44.7224C201.86 44.9451 202.132 45.1274 202.201 45.1274C202.269 45.1274 202.505 45.2186 202.723 45.33C202.942 45.4414 203.203 45.5341 203.303 45.5357C203.403 45.5378 203.668 45.6273 203.891 45.735C204.114 45.8428 204.379 45.9323 204.478 45.9343C204.579 45.9359 204.83 46.0222 205.037 46.1259C205.481 46.3479 206.477 46.4925 207.374 46.4653L208.014 46.4459L207.511 46.9348C206.788 47.6368 206.58 48.0953 205.012 52.4186C204.506 53.8148 202.29 59.7466 202.258 59.7931C202.2 59.8742 200.244 59.8883 199.35 59.8146Z" fill="#EE7A30" stroke="#100F0F" stroke-opacity="0.74"/>
<path d="M283.38 25.3406C283.155 25.2041 282.82 24.8825 282.635 24.6257C282.45 24.3689 282.166 24.0606 282.003 23.9407C281.841 23.8204 281.708 23.664 281.708 23.5927C281.708 23.5215 281.508 23.2387 281.263 22.9645C281.019 22.6899 280.653 22.2155 280.45 21.9101C280.246 21.6047 279.908 21.1559 279.698 20.912C279.487 20.6686 279.265 20.3535 279.203 20.2117C279.142 20.0703 278.858 19.6993 278.572 19.3874C278.287 19.0755 278.053 18.7664 278.053 18.7C278.053 18.6336 277.79 18.2524 277.469 17.853C277.148 17.454 276.84 17.0546 276.784 16.9655C276.44 16.4179 276.122 15.9889 275.935 15.8216C275.817 15.7159 275.597 15.4214 275.448 15.167C275.299 14.9131 275.001 14.523 274.787 14.301C274.573 14.0786 274.398 13.8441 274.398 13.7801C274.398 13.7157 274.235 13.4504 274.036 13.1907C273.655 12.6925 273.281 11.76 273.281 11.3072C273.281 10.9025 273.581 9.96521 273.783 9.73513C273.881 9.62374 273.992 9.46414 274.029 9.3807C274.136 9.13766 274.421 8.72652 274.811 8.25179C275.01 8.00956 275.546 7.3327 276.001 6.74779C276.456 6.16288 277.047 5.41878 277.314 5.09432C277.581 4.76946 277.876 4.36399 277.971 4.19346C278.066 4.02252 278.276 3.74141 278.438 3.56845C278.599 3.39548 278.876 3.04835 279.052 2.79721C279.228 2.54607 279.634 2.13655 279.953 1.88784C280.472 1.48399 280.606 1.42931 281.197 1.38029C281.754 1.33412 291.943 1.32723 298.139 1.36895L299.9 1.3807L300.254 1.73351C300.561 2.03933 300.599 2.13007 300.54 2.41685C300.503 2.59913 300.341 2.93007 300.179 3.15285C300.017 3.37564 299.74 3.80865 299.564 4.11488C299.388 4.4211 299.079 4.87721 298.877 5.12794C298.497 5.60024 298.374 5.78171 298.093 6.2848C298.002 6.44804 297.761 6.79478 297.559 7.05564C297.356 7.3165 297.066 7.72966 296.914 7.97432C296.762 8.21857 296.434 8.69209 296.185 9.02627C295.935 9.36045 295.728 9.6768 295.725 9.72865C295.721 9.78131 295.52 10.0774 295.277 10.3869C295.035 10.6968 294.676 11.2011 294.48 11.5073C294.284 11.8135 294.025 12.1509 293.905 12.2571C293.786 12.3632 293.687 12.5078 293.687 12.5783C293.687 12.6492 293.573 12.8424 293.434 13.0076C293.294 13.1733 293.18 13.3426 293.18 13.3839C293.18 13.4257 292.928 13.7659 292.621 14.1402C292.314 14.5145 292.063 14.8689 292.063 14.9272C292.063 14.9856 291.869 15.2768 291.631 15.5741C291.184 16.1347 291.021 16.3778 290.861 16.7225C290.809 16.8339 290.67 17.0117 290.552 17.1178C290.434 17.2239 290.337 17.3483 290.337 17.3945C290.337 17.4402 290.155 17.7181 289.931 18.0118C289.708 18.3051 289.525 18.5967 289.525 18.6595C289.525 18.7223 289.46 18.8272 289.381 18.8928C289.302 18.958 289.018 19.3396 288.751 19.7406C288.483 20.1412 288.099 20.6743 287.898 20.925C287.696 21.1757 287.422 21.563 287.29 21.7858C287.156 22.0085 286.805 22.4922 286.509 22.8604C286.214 23.2286 285.971 23.5616 285.971 23.6004C285.971 23.6815 285.253 24.6224 284.804 25.1296C284.386 25.6019 283.923 25.6703 283.38 25.3406Z" fill="#7A2E40" stroke="#100F0F" stroke-opacity="0.74"/>
<path d="M88.1557 60.0076C85.2551 59.8079 82.222 59.2529 80.0844 58.5307C79.8333 58.4456 79.4064 58.3367 79.1362 58.2881C78.8656 58.2395 78.5918 58.1577 78.527 58.1062C78.4622 58.0548 78.2953 57.9782 78.1555 57.9357C78.0162 57.8935 77.793 57.7736 77.6597 57.67C77.5265 57.5663 77.3381 57.4816 77.2405 57.4816C76.9586 57.4816 75.9139 56.9696 75.9795 56.8635C76.1144 56.6455 78.6019 55.5077 82.8028 53.7425C88.2064 51.4717 91.781 49.7015 95.1475 47.6292C95.4752 47.4275 95.9439 47.2323 96.1893 47.1958C96.4344 47.1594 96.7447 47.0435 96.8784 46.9382C97.012 46.8333 97.1603 46.7474 97.2073 46.747C97.3093 46.7466 98.2313 46.2865 98.3957 46.154C98.4589 46.1026 98.945 45.847 99.4756 45.5857C100.006 45.3244 100.509 45.0692 100.592 45.0186C100.676 44.968 100.904 44.8339 101.1 44.7201C101.295 44.6067 101.592 44.4252 101.76 44.317C101.927 44.2089 102.235 44.0274 102.442 43.9144C102.65 43.801 102.97 43.5831 103.153 43.4304C103.58 43.0739 104.119 42.6968 104.201 42.6968C104.237 42.6968 104.547 42.4408 104.891 42.1281C105.235 41.8154 105.699 41.4411 105.922 41.2965C106.145 41.1519 106.521 40.861 106.757 40.65C107.42 40.0582 107.779 40.1007 108.784 40.889C109.22 41.2317 109.897 41.8085 110.288 42.171C110.678 42.5331 111.28 43.0848 111.625 43.3963C113.036 44.6727 115.282 46.9248 115.509 47.2918L115.751 47.6843L115.558 48.0513C115.277 48.5832 113.904 50.1568 112.673 51.3587C111.508 52.4961 109.944 53.8312 109.774 53.834C109.714 53.8352 109.533 53.9746 109.37 54.1439C109.207 54.3132 108.795 54.6077 108.453 54.7985C108.111 54.9892 107.773 55.2153 107.702 55.3007C107.631 55.3862 107.533 55.4563 107.485 55.4563C107.438 55.4563 107.157 55.6094 106.863 55.7965C106.569 55.9841 106.217 56.172 106.08 56.215C105.944 56.2575 105.613 56.4463 105.345 56.6342C104.863 56.972 104.375 57.1887 103.587 57.4156C103.364 57.4796 103.068 57.612 102.93 57.7092C102.792 57.8069 102.608 57.8867 102.523 57.8867C102.436 57.8867 102.195 57.9778 101.987 58.0892C101.779 58.2006 101.515 58.2917 101.401 58.2917C101.287 58.2917 101.024 58.3764 100.817 58.4801C100.609 58.5834 100.252 58.6972 100.022 58.7324C99.792 58.7673 99.472 58.8645 99.3112 58.9483C99.1504 59.0322 98.8915 59.101 98.7364 59.1014C98.5808 59.1014 98.2892 59.1703 98.0879 59.2542C97.8866 59.338 97.3057 59.453 96.7969 59.5093C96.2878 59.5661 95.5971 59.6612 95.2622 59.7212C93.8554 59.9723 89.9376 60.1303 88.1557 60.0076Z" fill="#EA613A" stroke="#100F0F" stroke-opacity="0.74"/>
<path d="M117.647 58.8806C117.229 58.8413 116.703 58.7704 116.48 58.7234C116.084 58.64 116.073 58.6266 116.043 58.1705C116.022 57.8461 116.077 57.5836 116.221 57.315C116.335 57.102 116.429 56.8707 116.429 56.8014C116.429 56.6398 116.989 55.7762 117.587 55.0135C117.844 54.6866 118.054 54.3617 118.054 54.2912C118.054 54.1211 118.826 53.4309 119.016 53.4309C119.098 53.4309 119.244 53.3114 119.34 53.1656C119.505 52.914 119.505 52.893 119.336 52.7702C119.173 52.6511 119.193 52.6119 119.575 52.3064C119.966 51.9921 120.133 51.7693 120.381 51.2282C120.438 51.103 120.573 51.0005 120.679 51.0005C120.786 51.0005 120.973 50.9207 121.094 50.8227C121.272 50.6793 121.296 50.5967 121.222 50.3962C121.12 50.1227 121.421 49.522 122.054 48.7293C122.236 48.5025 122.582 47.9982 122.824 47.6081C123.066 47.218 123.44 46.6914 123.654 46.4371C123.868 46.1831 124.043 45.9222 124.043 45.8582C124.043 45.7938 124.237 45.5192 124.475 45.2478C124.712 44.9764 125.032 44.5531 125.185 44.3077C125.338 44.0622 125.65 43.6105 125.876 43.3043C126.103 42.9981 126.455 42.4966 126.659 42.1904C126.863 41.8842 127.18 41.4463 127.364 41.2178C127.548 40.9894 127.698 40.7565 127.698 40.7002C127.698 40.6439 127.84 40.4207 128.014 40.2044C128.316 39.8281 128.533 39.5174 129.775 37.6841C130.077 37.2385 130.456 36.7143 130.616 36.5195C130.776 36.3247 131.076 35.9143 131.283 35.6081C132.032 34.4962 133.037 33.0991 133.409 32.652C133.618 32.4008 133.79 32.1468 133.79 32.0881C133.79 32.0294 133.985 31.7377 134.224 31.44C134.463 31.1427 134.739 30.7741 134.836 30.621L135.013 30.3423H145.366C151.06 30.3423 155.719 30.3658 155.719 30.3945C155.719 30.4229 155.666 30.5481 155.601 30.6728C155.537 30.7976 155.437 30.9904 155.379 31.1018C155.321 31.2132 155.172 31.5129 155.048 31.7677C154.923 32.0229 154.713 32.3644 154.581 32.5272C154.448 32.69 154.283 32.9371 154.213 33.0765C154.001 33.4998 153.854 33.727 153.524 34.1446C153.351 34.3646 153.122 34.6987 153.017 34.8867C152.58 35.6664 152.508 35.7742 152.231 36.0642C152.072 36.2311 151.824 36.5726 151.68 36.8233C151.535 37.074 151.255 37.4665 151.055 37.6958C150.856 37.9251 150.579 38.3095 150.439 38.5501C150.3 38.7911 149.981 39.2415 149.731 39.5514C149.481 39.8613 149.205 40.2513 149.118 40.4182C149.031 40.5851 148.799 40.8946 148.604 41.1056C148.408 41.3171 148.16 41.6589 148.053 41.8651C147.946 42.0721 147.662 42.4557 147.423 42.7178C147.183 42.9799 146.988 43.2379 146.988 43.2909C146.988 43.344 146.796 43.6296 146.561 43.9257C146.326 44.2218 145.927 44.7646 145.673 45.1316C145.419 45.4989 145.005 46.079 144.754 46.4209C143.816 47.6976 143.478 48.1691 142.904 49.004C142.721 49.2705 142.377 49.7432 142.14 50.0543C141.903 50.3654 141.709 50.6659 141.709 50.723C141.709 50.7794 141.526 51.0236 141.302 51.2654C141.079 51.5073 140.896 51.7499 140.896 51.805C140.896 51.8601 140.531 52.3895 140.084 52.9813C139.638 53.5731 139.272 54.0964 139.272 54.1434C139.272 54.1904 139.043 54.4893 138.764 54.8077C138.485 55.1261 138.257 55.4214 138.257 55.4639C138.257 55.5064 138.029 55.8066 137.75 56.1315C137.471 56.4563 137.243 56.7678 137.242 56.8233C137.241 56.8788 136.887 57.298 136.454 57.7545C135.913 58.3257 135.573 58.6023 135.363 58.642C135.196 58.674 134.876 58.7538 134.653 58.8199C134.196 58.9543 119.004 59.009 117.647 58.8806Z" fill="#EE7A30" stroke="#100F0F" stroke-opacity="0.74"/>
<path d="M135.011 30.2066C135.011 30.1316 134.919 29.9878 134.808 29.887C134.696 29.7861 134.605 29.6585 134.605 29.6038C134.605 29.5492 134.441 29.3167 134.241 29.0878C134.042 28.8589 133.725 28.4437 133.538 28.1655C133.351 27.8872 132.841 27.1415 132.404 26.5083C131.967 25.8752 131.45 25.0987 131.254 24.7824C131.059 24.4664 130.735 24.0047 130.535 23.7563C130.335 23.5076 130.065 23.1224 129.935 22.8996C129.804 22.6769 129.552 22.3123 129.374 22.0895C129.196 21.8667 128.907 21.4305 128.732 21.1206C128.557 20.8103 128.296 20.4462 128.152 20.3117C128.009 20.1772 127.825 19.9297 127.743 19.762C127.662 19.5939 127.352 19.1326 127.053 18.7368C126.755 18.3407 126.425 17.8635 126.319 17.6768C126.214 17.4896 125.933 17.0943 125.696 16.7978C125.459 16.5013 125.265 16.2104 125.265 16.1509C125.265 16.0913 125.122 15.8633 124.948 15.6446C124.505 15.0856 123.742 13.9396 123.742 13.8319C123.742 13.7825 123.536 13.5111 123.285 13.2288C123.034 12.9464 122.828 12.6576 122.828 12.5863C122.828 12.5154 122.62 12.2141 122.366 11.9168C122.112 11.6198 121.818 11.2095 121.713 11.005C121.609 10.8004 121.451 10.5736 121.363 10.5007C121.276 10.4281 121.203 10.3159 121.203 10.2515C121.203 10.1871 121.074 9.99311 120.916 9.82015C120.757 9.64718 120.499 9.28384 120.341 9.01286C120.182 8.74187 119.909 8.33761 119.733 8.11483C119.423 7.72354 118.533 6.41883 117.904 5.43493C117.737 5.17286 117.449 4.75685 117.266 4.51098C117.083 4.26511 116.7 3.70815 116.415 3.27311C115.804 2.33944 115.823 2.18106 116.602 1.73184L117.092 1.4487L120.595 1.38511C124.384 1.31706 134.826 1.34784 135.172 1.42845C135.442 1.49123 136.55 2.75908 137.6 4.20678C138.046 4.82247 138.629 5.60627 138.894 5.94855C139.159 6.29083 139.376 6.61569 139.376 6.67078C139.376 6.72546 139.551 6.98187 139.765 7.23989C139.979 7.49832 140.459 8.16546 140.832 8.72242C141.205 9.27939 141.612 9.87159 141.737 10.0381C141.863 10.205 142.348 10.8656 142.817 11.5064C143.285 12.1476 143.868 12.9302 144.111 13.2454C144.354 13.5609 144.554 13.8554 144.554 13.8995C144.554 13.9437 144.711 14.141 144.903 14.3386C145.095 14.5359 145.323 14.834 145.409 15.0009C145.495 15.1678 145.774 15.5781 146.029 15.9123C147.079 17.2887 148.111 18.7133 148.248 18.975C148.328 19.1285 148.535 19.3881 148.707 19.5514C148.88 19.715 149.021 19.9042 149.021 19.9714C149.021 20.0387 149.387 20.5592 149.833 21.1275C150.28 21.6958 150.645 22.2021 150.645 22.2515C150.645 22.3014 150.799 22.5132 150.987 22.7222C151.175 22.9312 151.49 23.3529 151.686 23.6591C151.882 23.9654 152.144 24.3072 152.268 24.4186C152.393 24.53 152.581 24.7808 152.687 24.9756C152.99 25.5293 153.105 25.7015 153.51 26.2058C153.718 26.465 154.001 26.8871 154.138 27.1447C154.275 27.4019 154.521 27.7823 154.683 27.9901C154.987 28.3777 155.518 29.4564 155.823 30.2029C155.823 30.3208 154.188 30.3427 145.417 30.3427C136.768 30.3427 135.011 30.3196 135.011 30.2066Z" fill="#9B3446" stroke="#100F0F" stroke-opacity="0.74"/>
<path d="M61.4365 20.6477C61.6135 20.0867 61.8432 19.5387 61.9574 19.4058C62.0295 19.3224 62.1186 19.117 62.1559 18.9501C62.2592 18.4883 62.9352 17.0682 63.1961 16.7648C63.2719 16.6769 63.3338 16.5489 63.3338 16.48C63.3338 16.318 63.7749 15.4297 64.1435 14.8488C64.3027 14.5981 64.5559 14.1505 64.7066 13.8544C64.8569 13.5583 65.249 12.9779 65.5783 12.5647C65.9072 12.1519 66.1766 11.776 66.1766 11.7299C66.1766 11.6156 67.3099 10.3385 68.3886 9.23709C69.49 8.11264 71.3176 6.46281 71.8884 6.07841C72.1249 5.91881 72.5271 5.61704 72.7819 5.40722C73.0367 5.1978 73.3037 5.02605 73.3749 5.02605C73.4462 5.02605 73.763 4.8539 74.0789 4.64367C74.8919 4.1021 74.9822 4.05106 75.7194 3.71203C76.0824 3.54514 76.4478 3.36205 76.5316 3.30494C76.6154 3.24823 76.7754 3.16195 76.8868 3.11294C77.479 2.85329 77.6107 2.79213 77.75 2.71233C77.9987 2.56934 78.8826 2.28296 79.3954 2.17886C79.6583 2.1254 80.001 2.01522 80.1569 1.93421C80.3129 1.85319 80.5219 1.78636 80.6211 1.78636C80.7208 1.78595 80.9719 1.71223 81.1797 1.62271C81.5337 1.47 82.4087 1.32337 84.4506 1.07466C84.9249 1.01674 85.6103 0.902913 85.9732 0.821901C87.7032 0.436685 91.9248 0.386459 93.7905 0.729547C94.2653 0.816636 95.0191 0.931268 95.4659 0.983522C95.9123 1.03618 96.4149 1.12894 96.5826 1.18929C96.7499 1.24965 97.1611 1.33593 97.4961 1.38129C98.1061 1.46352 98.7222 1.64215 99.5773 1.98484C99.8288 2.08529 100.377 2.26798 100.796 2.39031C101.675 2.64712 102.019 2.78848 103.207 3.38069C103.683 3.61724 104.118 3.81086 104.174 3.81086C104.231 3.81086 104.533 3.9818 104.846 4.19041C105.159 4.39901 105.506 4.61896 105.618 4.67891C106.136 4.95638 106.361 5.1018 106.785 5.43395C107.037 5.63041 107.377 5.85846 107.541 5.94028C107.706 6.02251 108.094 6.31942 108.404 6.60053C108.714 6.88205 109.105 7.21583 109.273 7.34261C110.08 7.95466 112.146 10.1112 112.877 11.1056C113.072 11.3714 113.435 11.8263 113.684 12.1171L114.135 12.6457L113.836 12.5853C113.426 12.5023 110.201 12.1495 108.41 11.9911C106.407 11.8145 97.1283 11.8149 95.0596 11.9915C91.8616 12.2649 87.7296 12.8223 85.9226 13.2241C85.6994 13.274 85.014 13.4145 84.3995 13.5364C79.4796 14.513 72.9002 16.4788 67.9021 18.4648C66.7019 18.942 65.2627 19.4795 64.7042 19.6598C64.146 19.8404 63.1698 20.1766 62.5346 20.4071C61.5673 20.7583 61.3895 20.7972 61.4365 20.6477Z" fill="#7A2E40" stroke="#100F0F" stroke-opacity="0.74"/>
<path d="M75.4668 56.6123C75.2991 56.4726 75.0249 56.2927 74.8576 56.2129C74.4955 56.0404 74.325 55.9326 73.6218 55.4312C73.3289 55.2221 73.0591 55.0512 73.0219 55.0512C72.985 55.0512 72.5147 54.7203 71.9772 54.316C71.4393 53.9114 70.8856 53.5067 70.7458 53.4164C70.2225 53.0773 67.592 50.4618 67.0423 49.7327C66.7276 49.3163 66.4299 48.9753 66.38 48.9753C66.2958 48.9753 66.1658 48.7747 65.8551 48.1651C65.7842 48.0258 65.5306 47.6685 65.2916 47.3712C65.0531 47.0735 64.8574 46.7863 64.8574 46.7332C64.8574 46.6502 64.52 46.0677 64.07 45.3746C63.9999 45.2665 63.7799 44.859 63.5811 44.4689C63.3826 44.0788 63.0836 43.5373 62.9168 43.2647C62.6263 42.7911 62.4396 42.3573 62.1917 41.5828C62.1293 41.388 61.9956 41.1077 61.8944 40.9599C61.7931 40.8116 61.7105 40.6281 61.7105 40.5516C61.7105 40.4754 61.6404 40.313 61.5545 40.191C61.4691 40.0691 61.2852 39.5462 61.1462 39.0293C61.0069 38.5121 60.8266 37.8806 60.7452 37.6258C60.6642 37.371 60.5552 36.8626 60.5034 36.4969C60.4511 36.1311 60.3507 35.724 60.2798 35.5932C60.2089 35.4619 60.1182 34.8308 60.0781 34.1904C60.038 33.55 59.9505 32.714 59.8836 32.3324C59.6422 30.9507 59.9412 25.8781 60.3316 24.7298C60.4199 24.4709 60.492 24.1453 60.492 24.0063C60.492 23.8674 60.5654 23.5843 60.6553 23.3773C60.7452 23.1699 60.8764 22.6818 60.9473 22.2917C61.0178 21.9016 61.1612 21.4062 61.2661 21.1907C61.4488 20.8148 61.5124 20.7784 62.8272 20.302C63.5811 20.0286 64.4487 19.7321 64.7561 19.6434C65.0632 19.5543 66.3881 19.0577 67.7001 18.5396C72.9753 16.456 79.4227 14.5246 84.4005 13.5363C85.015 13.4143 85.7003 13.2738 85.9235 13.224C86.905 13.006 90.133 12.5078 91.7609 12.3231C95.3915 11.9116 96.4783 11.8613 101.761 11.8613C107.029 11.8613 107.895 11.9014 111.71 12.3227C113.828 12.5568 114.096 12.6026 114.096 12.7322C114.096 12.7849 114.271 13.0206 114.484 13.256C114.697 13.4913 114.998 13.9049 115.153 14.175C115.309 14.4448 115.614 14.9196 115.832 15.2298C116.05 15.5397 116.228 15.8362 116.228 15.8881C116.228 15.9403 116.293 16.1262 116.372 16.3016C116.735 17.1077 116.939 17.6181 116.939 17.7262C116.939 17.791 117.031 18.0244 117.144 18.2451C117.257 18.4659 117.376 18.8284 117.407 19.0512C117.439 19.274 117.552 19.7183 117.659 20.0392C117.765 20.3596 117.853 20.701 117.853 20.7986C117.853 20.8955 117.922 21.1065 118.006 21.2673C118.09 21.4277 118.188 21.7465 118.223 21.9762C118.258 22.2054 118.349 22.5165 118.425 22.6672C118.816 23.4397 119.093 27.0601 119.051 30.8487C119.016 34.1447 118.991 34.2548 118.227 34.6012C117.813 34.7883 117.207 34.7936 96.556 34.7956L75.3101 34.798L75.1962 35.0467C75.0763 35.3096 75.2052 35.9922 75.4745 36.5196C75.59 36.746 75.8196 37.2442 76.3786 38.4845C76.9814 39.8204 79.8674 43.1375 81.2536 44.0865C81.4767 44.2397 81.8652 44.5321 82.1163 44.7371C82.3675 44.9416 82.779 45.2118 83.0302 45.337C83.2813 45.4625 83.5782 45.6416 83.69 45.7352C83.9104 45.9199 85.6639 46.6891 86.0758 46.7818C86.2156 46.813 86.741 46.9811 87.2432 47.1549C87.9213 47.3898 88.471 47.4976 89.3755 47.5741C90.5542 47.6734 94.3225 47.6215 95.0217 47.4964C95.3591 47.436 95.3562 47.4409 94.8459 47.7933C94.0208 48.3632 90.9358 50.058 89.2738 50.8547C87.321 51.7904 85.2633 52.7091 82.8041 53.7424C79.7281 55.035 77.6724 55.944 76.7302 56.428C76.2527 56.6735 75.8415 56.8724 75.8164 56.8703C75.7917 56.8683 75.6341 56.7525 75.4668 56.6123ZM103.416 24.1007C103.76 23.8804 103.793 23.694 103.598 23.0625C103.138 21.567 102.82 20.8683 102.462 20.5653C102.393 20.507 102.276 20.313 102.201 20.1339C101.927 19.4753 99.7265 17.0947 98.4999 16.1299C97.6274 15.4433 95.6916 14.2868 95.2282 14.175C95.0804 14.1394 94.7993 14.0304 94.6036 13.9332C93.7976 13.531 93.2629 13.3297 93.002 13.3297C92.8497 13.3297 92.3673 13.2612 91.9298 13.1778C90.8823 12.9777 88.3964 12.9789 87.4462 13.1794C87.0557 13.262 86.5672 13.3297 86.3614 13.3297C86.1556 13.3297 85.8587 13.3787 85.7016 13.4386C85.5444 13.4982 85.2333 13.5869 85.0097 13.6355C83.6382 13.9336 83.5993 13.9511 83.0038 14.5319C82.6822 14.8454 82.1836 15.2278 81.8956 15.3817C81.2811 15.7102 80.7359 16.1672 79.3899 17.4816C78.265 18.5797 77.6444 19.2821 77.4423 19.6839C77.3654 19.8374 77.1608 20.1449 76.9878 20.3677C76.8145 20.5904 76.4564 21.2284 76.1919 21.7854C75.9278 22.3423 75.6451 22.9273 75.5636 23.0848C75.2611 23.6714 75.4778 24.1206 76.1275 24.253C76.3 24.2883 82.4578 24.302 89.8117 24.2838C101.404 24.255 103.214 24.2307 103.416 24.1007Z" fill="#D23E47" stroke="#100F0F" stroke-opacity="0.74"/>
<path d="M233.769 18.7907C233.452 18.7441 232.607 18.5703 231.892 18.4038C228.74 17.6727 225.617 17.1542 221.362 16.656C219.777 16.4705 218.478 16.2724 218.411 16.206C218.258 16.0528 218.085 10.5079 218.112 6.59583C218.127 4.38662 218.165 3.65953 218.284 3.30469C218.367 3.05396 218.463 2.66388 218.496 2.43786C218.529 2.21183 218.629 1.8813 218.717 1.70388L218.879 1.38064L221.232 1.36809C222.526 1.3612 225.91 1.36039 228.752 1.36606C234.549 1.3774 234.296 1.34459 234.507 2.11462C234.594 2.43259 234.609 4.41011 234.563 9.68444C234.53 13.6111 234.501 17.2907 234.501 17.8619C234.499 18.4326 234.465 18.894 234.423 18.8871C234.381 18.8806 234.087 18.8368 233.769 18.7907Z" fill="#7A2E40" stroke="#100F0F" stroke-opacity="0.74"/>
<path d="M1.76395 58.7742C1.25924 58.7162 0.991492 58.6308 0.825011 58.4748C0.459644 58.1325 0.53053 57.8846 1.12516 57.4208C2.31321 56.4949 3.57013 55.4571 5.14663 54.1009C9.45083 50.397 12.5629 47.8605 15.9217 45.3175C16.3965 44.9579 16.8315 44.6354 16.8886 44.5998C16.9595 44.5564 16.985 46.6652 16.9692 51.1748L16.9457 57.8133L16.6832 58.2087C16.5394 58.4258 16.2976 58.6547 16.1461 58.7166C15.8184 58.8515 2.88557 58.9034 1.76395 58.7742Z" fill="#F2852F" stroke="#100F0F" stroke-opacity="0.74"/>
<path d="M119.68 52.174C119.68 52.0379 120.308 51.1889 120.365 51.2464C120.397 51.278 120.347 51.387 120.254 51.4895C120.162 51.5916 120.086 51.7216 120.086 51.7779C120.086 51.8346 119.994 51.9634 119.883 52.0643C119.771 52.1651 119.68 52.2145 119.68 52.174Z" fill="#F2852F" stroke="#100F0F" stroke-opacity="0.74"/>
<path d="M118.884 53.2225C119.017 52.841 119.244 52.6538 119.393 52.8025C119.539 52.9475 119.266 53.3825 118.984 53.4562C118.804 53.5032 118.794 53.4797 118.884 53.2225Z" fill="#F2852F" stroke="#100F0F" stroke-opacity="0.74"/>
<path d="M159.853 25.2036C159.494 24.9302 159.033 24.3963 158.179 23.2662C157.943 22.9531 157.474 22.3504 157.138 21.9267C156.802 21.503 156.527 21.1137 156.527 21.0619C156.527 21.0096 156.318 20.7641 156.062 20.5158C155.807 20.2671 155.526 19.9273 155.44 19.7604C155.353 19.5935 155.094 19.2484 154.864 18.9932C154.437 18.5205 153.687 17.5354 153.108 16.6888C152.93 16.4288 152.642 16.048 152.467 15.8422C152.292 15.6365 152.021 15.2188 151.865 14.9142C151.709 14.6096 151.415 14.158 151.212 13.9105C151.008 13.6634 150.842 13.3973 150.841 13.3195C150.841 13.2417 150.767 13.0412 150.676 12.8743C150.585 12.7062 150.489 12.2287 150.462 11.8062C150.421 11.1735 150.449 10.9608 150.627 10.5711C150.745 10.3123 150.842 10.0603 150.842 10.0117C150.842 9.96232 151.036 9.66662 151.274 9.35392C151.511 9.04161 151.865 8.5523 152.06 8.26713C152.256 7.98156 152.61 7.50683 152.847 7.21235C153.085 6.91746 153.279 6.61042 153.279 6.52941C153.279 6.4484 153.441 6.22561 153.639 6.03442C153.837 5.84283 154.119 5.4807 154.267 5.22956C154.415 4.97842 154.801 4.43969 155.125 4.03219C155.45 3.6247 155.715 3.25326 155.715 3.20627C155.715 3.03736 157.041 1.80354 157.45 1.59007C157.866 1.37376 157.913 1.37255 164.686 1.36728C168.435 1.36404 172.563 1.36607 173.861 1.37133L176.22 1.38065L176.537 1.66379L176.855 1.94693L176.676 2.49903C176.356 3.48617 175.736 4.69285 175.178 5.41265C174.878 5.79989 174.574 6.25883 174.502 6.4322C174.43 6.60597 174.336 6.74774 174.293 6.74774C174.25 6.74774 173.937 7.14632 173.596 7.63402C172.713 8.90065 171.729 10.2665 171.307 10.8142C171.107 11.0738 170.944 11.3343 170.944 11.3934C170.944 11.4521 170.75 11.7256 170.512 12.0006C170.275 12.2756 169.86 12.8354 169.589 13.2446C168.762 14.495 168.429 14.9774 167.995 15.5579C167.766 15.8641 167.433 16.3287 167.256 16.5904C167.078 16.8516 166.739 17.3171 166.502 17.6237C166.265 17.9311 166.071 18.2236 166.071 18.2746C166.071 18.3257 165.796 18.7097 165.461 19.1285C165.126 19.5469 164.852 19.9317 164.852 19.9832C164.852 20.0346 164.711 20.2108 164.539 20.3745C164.366 20.5377 164.154 20.8087 164.068 20.9756C163.982 21.1425 163.604 21.6666 163.228 22.1401C162.852 22.6137 162.473 23.1415 162.385 23.3136C162.297 23.4854 162.073 23.7418 161.889 23.8835C161.704 24.0253 161.439 24.3259 161.299 24.5519C161.159 24.7775 160.954 25.01 160.842 25.0688C160.731 25.1271 160.545 25.2441 160.429 25.3288C160.236 25.4702 160.19 25.4605 159.853 25.2036Z" fill="#9B3446" stroke="#100F0F" stroke-opacity="0.74"/>
<path d="M0.501382 9.74918C0.493281 5.73136 0.521635 2.32478 0.564572 2.17895C0.607103 2.03313 0.785331 1.79455 0.959913 1.64832L1.27748 1.38341L5.78219 1.36923C8.25996 1.36194 11.5673 1.36113 13.1325 1.36802L15.9776 1.38057L16.2802 1.65926C16.5767 1.93186 16.5868 1.9744 16.7736 3.73804C16.8781 4.72883 16.9465 5.55111 16.9251 5.56609C16.9036 5.58068 16.2235 6.03799 15.4138 6.58158C12.4516 8.57126 10.8856 9.65966 6.07384 13.0739C5.43181 13.5292 4.60913 14.1012 4.24619 14.3446C3.88326 14.5881 2.89571 15.2973 2.05156 15.9211L0.516369 17.0549L0.501382 9.74918Z" fill="#7A2E40" stroke="#100F0F" stroke-opacity="0.74"/>
<path d="M218.299 20.4642C218.317 18.206 218.348 16.3443 218.369 16.3273C218.424 16.2807 224.476 17.026 226.072 17.2755C226.826 17.3934 228.425 17.6899 229.626 17.9346C231.957 18.4097 233.897 18.7978 234.27 18.863C234.579 18.9177 234.559 19.1842 234.24 19.264C234.064 19.3081 233.918 19.2709 233.256 19.6038C233.074 19.6711 232.839 19.7719 232.735 19.8274C232.63 19.8829 231.857 20.1523 231.016 20.4249C230.175 20.6979 229.461 20.96 229.429 21.007C229.397 21.0544 228.137 21.5064 226.63 22.0119C225.122 22.5175 223.089 23.2113 222.112 23.5536C220.368 24.1649 218.929 24.5683 218.488 24.5695L218.266 24.5703L218.299 20.4642Z" fill="#D23E47" stroke="#100F0F" stroke-opacity="0.74"/>
<path d="M240.438 58.8926C240.326 58.8484 240.018 58.8091 239.752 58.8055C239.235 58.7978 238.861 58.5491 238.867 58.2157C238.874 57.8414 239.254 56.9572 239.684 56.3135C239.931 55.9441 240.222 55.4977 240.33 55.3215C240.438 55.1449 240.716 54.75 240.946 54.4437C241.177 54.1375 241.532 53.6348 241.734 53.327C241.937 53.0187 242.223 52.6542 242.37 52.5169C242.518 52.3791 242.703 52.1114 242.783 51.9218C242.863 51.7318 243.09 51.3904 243.289 51.1623C243.743 50.6406 244.424 49.7272 244.999 48.8693C245.243 48.5051 245.517 48.1454 245.608 48.0701C245.782 47.9259 246.377 47.0833 246.377 46.9809C246.377 46.9476 246.582 46.7014 246.834 46.4332C247.085 46.1655 247.291 45.8937 247.291 45.8297C247.291 45.7657 247.462 45.4922 247.671 45.2225C247.88 44.9527 248.234 44.4784 248.458 44.1681C248.681 43.8582 249.07 43.3401 249.321 43.0169C249.572 42.6941 249.869 42.2538 249.981 42.0387C250.092 41.824 250.324 41.508 250.497 41.3371C250.668 41.1658 250.939 40.798 251.098 40.5197C251.257 40.2414 251.446 39.9676 251.519 39.9121C251.592 39.8566 251.948 39.4009 252.311 38.8994C252.674 38.398 253.085 37.8544 253.225 37.6907C253.364 37.5275 253.55 37.2431 253.637 37.0588C253.725 36.8745 253.955 36.5529 254.148 36.3435C254.341 36.1341 254.528 35.8716 254.564 35.7602C254.6 35.6488 254.908 35.1595 255.249 34.673C255.59 34.1865 255.94 33.6579 256.027 33.4975C256.114 33.3375 256.342 33.0094 256.534 32.7684C256.727 32.5274 256.93 32.2325 256.986 32.113C257.042 31.9939 257.339 31.5479 257.646 31.1218L258.204 30.3473L259.321 30.3222C261.684 30.2683 278.939 30.2951 278.847 30.3522C278.794 30.3854 278.78 30.5292 278.816 30.6722C278.881 30.9318 278.666 31.4973 278.281 32.0806C278.183 32.2285 277.947 32.6157 277.758 32.9406C277.568 33.2654 277.237 33.7393 277.022 33.9937C276.806 34.2485 276.63 34.4891 276.63 34.5284C276.63 34.5681 276.265 35.0995 275.818 35.7096C275.372 36.3196 275.006 36.8494 275.006 36.8867C275.006 36.9239 274.8 37.1735 274.549 37.4416C274.298 37.7094 274.092 37.9812 274.092 38.0452C274.092 38.1092 273.857 38.4563 273.57 38.8168C273.003 39.5269 272.569 40.1406 272.569 40.2317C272.569 40.2633 272.395 40.5002 272.182 40.7587C271.969 41.0171 271.686 41.4108 271.554 41.6336C271.422 41.8564 271.148 42.2436 270.944 42.4944C270.74 42.7451 270.548 43.0205 270.516 43.1068C270.485 43.1931 270.237 43.5577 269.964 43.917C269.467 44.5707 269.156 45.0086 268.965 45.3201C268.736 45.6952 268.35 46.2129 268.033 46.5705C267.848 46.7795 267.696 47.0104 267.696 47.0833C267.696 47.1562 267.555 47.3499 267.383 47.5135C267.21 47.6768 266.999 47.9477 266.913 48.1146C266.827 48.2815 266.512 48.7238 266.211 49.0965C265.911 49.4696 265.666 49.8017 265.666 49.8349C265.666 49.9115 265.311 50.4166 264.847 51.0007C264.648 51.2514 264.378 51.6322 264.248 51.8473C263.991 52.2714 263.025 53.6093 262.245 54.622C261.977 54.9707 261.712 55.3632 261.656 55.4949C261.6 55.6261 261.36 55.9437 261.123 56.2005C260.886 56.4569 260.691 56.7089 260.691 56.7599C260.691 56.8109 260.272 57.2654 259.76 57.7701C258.954 58.5645 258.76 58.7042 258.314 58.8095C257.716 58.9509 240.784 59.0295 240.438 58.8926Z" fill="#F1952A" stroke="#100F0F" stroke-opacity="0.74"/>
<path d="M83.2507 14.297C83.5763 13.9689 83.7384 13.9077 85.0082 13.6363C85.4733 13.5375 85.6389 13.5873 85.1978 13.6939C85.0378 13.7327 84.7855 13.8486 84.6372 13.9523C84.4889 14.0552 84.3156 14.1398 84.2516 14.1398C84.1876 14.1398 83.9919 14.214 83.8165 14.3043C83.6407 14.395 83.3661 14.5064 83.2057 14.5522L82.9141 14.6356L83.2507 14.297Z" fill="#D63F45" stroke="#100F0F" stroke-opacity="0.74"/>
<path d="M180.197 35.487C180.1 34.6947 180.064 30.6639 180.05 18.7473L180.031 3.05114L180.264 2.67848C180.534 2.24547 181.064 1.75899 181.524 1.52162C181.815 1.37134 182.555 1.35555 188.991 1.36C194.236 1.36365 196.172 1.39646 196.276 1.48233C196.354 1.54633 196.511 1.7922 196.625 2.02795C196.832 2.45408 196.833 2.54603 196.833 16.9566C196.833 29.4406 196.813 31.4562 196.689 31.4562C196.609 31.4562 195.072 31.9366 193.272 32.5235C191.473 33.1105 188.603 34.0203 186.894 34.5452C185.186 35.0702 183.187 35.7017 182.454 35.9484C181.72 36.195 180.941 36.4267 180.722 36.4636L180.325 36.5304L180.197 35.487Z" fill="#B93948" stroke="#100F0F" stroke-opacity="0.74"/>
<path d="M157.285 58.7904C157.001 58.7535 156.675 58.6725 156.559 58.6105C156.359 58.504 155.718 57.7708 155.718 57.6497C155.718 57.5869 154.339 55.6993 153.695 54.8799C153.468 54.5907 153.282 54.3241 153.282 54.2873C153.282 54.2508 153.019 53.8859 152.698 53.4768C152.377 53.0672 151.794 52.2879 151.403 51.7451C151.013 51.2019 150.555 50.5729 150.387 50.3472C150.219 50.122 149.994 49.7425 149.888 49.5043L149.695 49.0717L149.977 48.7784C150.132 48.6172 150.228 48.4361 150.19 48.3758C150.151 48.313 150.201 48.2648 150.306 48.2628C150.566 48.2575 151.008 47.8569 151.081 47.5612C151.118 47.4085 151.085 47.2489 150.994 47.1493C150.864 47.0051 150.881 46.9544 151.144 46.7021C151.307 46.5461 151.547 46.3642 151.676 46.2982C151.836 46.2164 151.903 46.103 151.885 45.9426C151.849 45.6323 152.444 44.8509 152.774 44.7748C153.046 44.7124 153.313 44.2867 153.17 44.1445C153.122 44.0971 153.291 43.7945 153.545 43.4721C153.92 42.9949 154.033 42.9078 154.15 43.0051C154.23 43.0707 154.363 43.0978 154.448 43.0658C154.623 42.999 154.655 42.6409 154.496 42.5425C154.219 42.3719 154.686 41.7307 155.382 41.324C155.821 41.0668 155.907 40.9396 155.718 40.8234C155.57 40.7322 155.593 40.6083 155.794 40.4082C155.972 40.2304 156.006 40.181 156.378 39.5669C156.49 39.3826 156.764 38.9876 156.987 38.6895C157.21 38.391 157.553 37.9142 157.749 37.6299C157.944 37.3455 158.259 36.9222 158.449 36.6897C158.638 36.4568 158.952 36.0291 159.145 35.7386C159.733 34.8588 160.577 34.7608 161.217 35.4984C161.814 36.1858 162.259 36.7549 162.53 37.1746C162.674 37.399 163.096 37.9928 163.466 38.4943C163.836 38.9957 164.323 39.6564 164.547 39.9626C164.772 40.2689 165.174 40.8157 165.44 41.1778C165.707 41.5399 166.035 42.0183 166.169 42.2411C166.303 42.4639 166.611 42.8811 166.853 43.1687C167.094 43.4559 167.292 43.7216 167.292 43.7585C167.292 43.7957 167.509 44.1024 167.774 44.4398C168.409 45.2475 168.815 45.8247 168.815 45.9203C168.815 45.9628 169.001 46.1775 169.228 46.3979C169.456 46.6178 169.702 46.935 169.775 47.1019C169.848 47.2688 170.13 47.6868 170.401 48.0303C170.674 48.3738 171.102 48.9372 171.353 49.2823C171.604 49.6274 171.955 50.0981 172.133 50.3286C172.311 50.5591 172.459 50.7952 172.463 50.8536C172.466 50.9119 172.652 51.1497 172.875 51.3814C173.099 51.6131 173.283 51.8387 173.283 51.8828C173.286 51.9845 173.771 52.6934 174.07 53.0312C174.196 53.1734 174.561 53.6598 174.881 54.1127C176.262 56.0615 176.629 56.5524 176.732 56.5868C176.882 56.6362 177.129 57.356 177.135 57.7554C177.142 58.2666 176.946 58.5818 176.54 58.7106C176.136 58.8382 158.221 58.9127 157.285 58.7904Z" fill="#EE7A30" stroke="#100F0F" stroke-opacity="0.74"/>
</svg>
