<svg width="513" height="103" viewBox="0 0 513 103" fill="none" xmlns="http://www.w3.org/2000/svg">
<path d="M481.277 99.9591C481.223 99.872 480.927 99.8015 480.618 99.8015C480.309 99.8015 479.982 99.7296 479.892 99.6418C479.802 99.5541 479.221 99.4324 478.601 99.3723C477.475 99.2624 477.475 99.2617 476.286 98.0197C474.712 96.3755 473.642 95.063 473.313 94.3718C473.165 94.0622 472.775 93.548 472.445 93.2293C472.116 92.9107 471.846 92.5907 471.846 92.5195C471.846 92.3246 470.857 90.9008 470.538 90.6368C470.386 90.511 470.092 90.1005 469.885 89.7245C469.212 88.5081 469.123 88.3775 468.554 87.7927C467.99 87.2115 467.688 86.7629 467.341 85.9888C467.238 85.7573 466.835 85.2244 466.448 84.8056C465.762 84.0626 465.745 84.017 465.818 83.0203C465.882 82.1377 465.976 81.9097 466.504 81.3533C466.839 80.9987 467.297 80.3974 467.52 80.0173C467.743 79.6372 468.207 78.9764 468.552 78.5486C468.897 78.1208 469.46 77.3432 469.801 76.8207C470.142 76.2982 470.586 75.7225 470.786 75.5428C470.986 75.3624 471.357 74.8571 471.612 74.4197C471.865 73.9822 472.364 73.2737 472.72 72.8459C473.076 72.4174 473.531 71.7511 473.733 71.3648C473.935 70.9784 474.34 70.4352 474.634 70.1559C474.929 69.8774 475.313 69.3708 475.488 69.0301C475.664 68.6893 476.203 67.9387 476.685 67.363C477.168 66.7873 477.562 66.2724 477.562 66.2185C477.562 66.0864 478.334 65.002 479.337 63.7255C479.79 63.1497 480.16 62.6258 480.16 62.5609C480.16 62.4966 480.512 62.055 480.94 61.5788C481.369 61.1032 481.72 60.6201 481.72 60.5061C481.72 60.3914 481.938 60.0886 482.206 59.8336C482.635 59.423 482.828 59.3691 483.861 59.3691C484.957 59.3691 485.062 59.4037 485.54 59.9262C485.82 60.2324 486.05 60.5669 486.05 60.6699C486.05 60.7722 486.33 61.1247 486.672 61.4516C487.014 61.7792 487.449 62.3729 487.639 62.771C487.828 63.1684 488.326 63.8685 488.745 64.3261C489.164 64.7829 489.509 65.208 489.511 65.2695C489.516 65.4423 490.706 67.1778 491.151 67.663C491.369 67.9007 491.75 68.4446 491.998 68.8725C492.246 69.3003 492.723 69.9541 493.058 70.3267C493.392 70.6985 493.716 71.165 493.777 71.3634C493.837 71.5617 494.17 72.0677 494.516 72.4879C495.132 73.2371 496.719 75.4578 498.23 77.6846C498.65 78.3025 499.199 78.9965 499.45 79.2266C499.702 79.4568 499.908 79.7415 499.908 79.859C499.908 79.9765 500.2 80.4492 500.557 80.9089C500.915 81.3692 501.554 82.2504 501.978 82.8683C502.705 83.9257 503.232 84.6563 505.104 87.1997C505.534 87.7817 506.157 88.6608 506.49 89.1536C506.824 89.6457 507.456 90.5124 507.894 91.0805C508.333 91.648 508.813 92.346 508.962 92.6308C509.11 92.9155 509.472 93.3779 509.766 93.6565C510.061 93.9357 510.302 94.2467 510.302 94.3476C510.302 94.4492 510.614 94.9413 510.995 95.4417C511.376 95.9428 511.687 96.3976 511.687 96.4515C511.687 96.5061 511.843 96.748 512.034 96.9899C512.856 98.0321 512.198 99.4573 510.685 99.9114C509.594 100.239 483.271 100.254 482.747 99.9266C482.5 99.7725 482.292 99.7711 481.897 99.9197C481.591 100.035 481.334 100.051 481.277 99.9591Z" fill="#D23E47" stroke="#100F0F" stroke-opacity="0.74"/>
<path d="M0.629541 96.9162C0.618482 96.1746 0.59844 80.5269 0.585999 62.143L0.5625 28.7175L3.16118 26.7982C4.59046 25.7428 6.26578 24.5395 6.88504 24.1242C7.5043 23.7088 8.90801 22.7329 10.0035 21.956C14.677 18.6399 20.4231 14.6042 21.8689 13.6214C28.159 9.35011 28.5847 9.08402 28.819 9.27823C29.0734 9.48834 29.146 9.46484 30.184 8.83105C30.5649 8.59814 31.3832 8.15718 32.0024 7.851C32.6217 7.54482 33.4981 7.03683 33.9501 6.72235C34.4014 6.40788 34.8693 6.15008 34.9888 6.14939C35.1091 6.1487 35.4415 5.99388 35.727 5.80519C36.0131 5.61651 36.3711 5.46169 36.5232 5.461C36.6752 5.46031 36.9233 5.32346 37.0754 5.15689C37.2268 4.99102 37.7264 4.67033 38.1847 4.44501C38.6429 4.21969 39.3064 3.88932 39.6589 3.71032C40.0114 3.532 40.4018 3.38617 40.5276 3.38617C40.6527 3.38617 41.0467 3.23066 41.4019 3.04059C41.7572 2.85052 42.1684 2.69501 42.3156 2.69501C42.4628 2.69501 42.8727 2.55126 43.2258 2.37639C43.9833 2.00041 45.7782 1.56153 47.5849 1.31064C48.2947 1.2118 49.3473 1.00791 49.923 0.856552C50.7634 0.636766 51.9301 0.582856 55.8212 0.587694C58.4883 0.59115 61.0607 0.669942 61.5376 0.763938C62.0138 0.857935 62.8715 1.02312 63.4431 1.13163C64.0146 1.24014 64.9891 1.45232 65.6084 1.6023C66.2277 1.75228 67.0847 1.93129 67.5139 2.00041C68.3501 2.13587 68.8395 2.30659 70.1982 2.93899C70.6751 3.16085 71.5923 3.54651 72.2371 3.79602C72.8826 4.04621 73.7396 4.46229 74.1426 4.72147C74.5455 4.98065 75.265 5.39534 75.7419 5.64346C77.2029 6.40304 80.0456 8.6479 82.0188 10.6004C84.0044 12.5653 86.7199 15.8511 87.1954 16.8636C87.3516 17.1961 87.7421 17.8374 88.0628 18.2895C88.3842 18.7408 88.6468 19.1541 88.6468 19.2073C88.6468 19.3414 89.4631 21.1246 89.9068 21.9609C90.5765 23.2208 90.705 23.509 90.987 24.3799C91.1412 24.8547 91.3672 25.6786 91.4888 26.2101C91.6104 26.7409 91.7749 27.2806 91.8544 27.4085C91.9339 27.5364 92.097 28.0347 92.218 28.5157C92.3382 28.9968 92.5552 29.7017 92.6997 30.0819C92.8441 30.462 92.9671 31.2783 92.9727 31.8962C92.9782 32.514 93.0957 33.4858 93.2339 34.056C93.397 34.7313 93.4848 36.0258 93.4848 37.7709L93.4855 40.4491L88.6841 42.8198C86.044 44.124 79.9523 47.1367 75.1475 49.5157C70.3434 51.8939 66.314 53.8402 66.1945 53.8402C66.0224 53.8402 65.9968 52.7973 66.0715 48.8722C66.1572 44.3859 66.1295 43.6457 65.7888 41.2267C65.5814 39.7539 65.2953 38.1594 65.1536 37.6845C64.4583 35.3609 64.0063 34.1058 63.6504 33.5052C63.4355 33.143 63.0277 32.4629 62.745 31.995C62.1168 30.9555 59.4268 27.922 59.1324 27.922C59.0156 27.922 58.6514 27.6428 58.3231 27.3014C57.8248 26.783 54.8874 25.1574 54.4493 25.1574C54.376 25.1574 54.1182 25.0019 53.8763 24.8119C53.6337 24.6218 53.2315 24.4656 52.9827 24.4642C52.7338 24.4628 52.0358 24.3073 51.4317 24.1186C49.8394 23.6203 45.5204 23.6217 43.955 24.1207C43.3585 24.3108 42.6785 24.4663 42.4435 24.4663C42.2085 24.4663 41.8097 24.5755 41.5567 24.7096C41.3038 24.843 40.6292 25.1609 40.0577 25.4159C37.8163 26.4153 37.4313 26.6241 36.649 27.262C36.2032 27.6248 35.785 27.922 35.7201 27.922C35.2598 27.922 32.1759 31.1905 32.1759 31.6777C32.1759 31.7683 32.0121 31.9908 31.811 32.1719C31.3728 32.5673 30.7902 33.662 30.7895 34.0919C30.7895 34.2627 30.6333 34.6559 30.4432 34.9676C30.2532 35.2786 30.0949 35.6284 30.0921 35.7452C30.0887 35.8613 29.8951 36.3458 29.6602 36.8206C29.4259 37.2954 29.233 37.8788 29.231 38.1165C29.2289 38.3543 29.0976 38.9763 28.9393 39.4988C28.6808 40.351 28.6476 42.0872 28.6138 56.2592C28.593 64.9546 28.5661 72.8856 28.553 73.8836L28.5295 75.6979L27.3656 76.5618C22.2892 80.33 16.2431 85.244 8.23346 92.1127C5.18346 94.7287 1.34833 97.8707 0.894939 98.1257C0.693126 98.2391 0.646128 98.0255 0.629541 96.9162Z" fill="#B93948" stroke="#100F0F" stroke-opacity="0.74"/>
<path d="M344.845 101.54C344.845 101.452 345.79 98.8669 346.944 95.7954C348.098 92.7239 349.294 89.5108 349.603 88.6551C352.06 81.828 352.494 80.897 353.81 79.6356C354.668 78.8131 354.843 78.7198 355.527 78.7198C355.946 78.7198 356.579 78.5961 356.933 78.4455C357.287 78.2941 357.928 78.0681 358.357 77.943C359.552 77.594 360.647 77.1869 361.155 76.9028C361.408 76.7618 361.712 76.6464 361.832 76.6464C361.951 76.6464 362.462 76.3354 362.967 75.9552C363.472 75.5751 363.967 75.2641 364.069 75.2641C364.403 75.2641 367.995 71.563 368.345 70.858C368.534 70.4779 369.053 69.4529 369.498 68.58C369.944 67.707 370.309 66.8666 370.309 66.7111C370.309 66.5563 370.458 66.0649 370.642 65.6198C370.825 65.1747 371.025 64.31 371.087 63.6984C371.149 63.0867 371.316 62.361 371.459 62.0859C371.674 61.6719 371.733 60.2945 371.802 54.1266C371.848 50.0246 371.908 46.007 371.935 45.199C371.963 44.3911 371.998 43.2596 372.014 42.6839L372.041 41.6375L373.318 41.4239C374.02 41.3065 376.183 40.663 378.125 39.994C380.066 39.3256 383.877 38.0401 386.592 37.1381C389.307 36.2355 393.359 34.8863 395.597 34.1392C397.834 33.3921 399.678 32.7949 399.694 32.8129C399.712 32.8302 399.771 38.8314 399.828 46.1493C400.016 70.7156 400.123 82.9207 400.192 87.8776C400.269 93.4503 399.955 98.0334 399.421 99.1088C398.844 100.273 399.337 100.228 386.638 100.268C374.085 100.307 374.426 100.331 373.551 99.294C372.977 98.6146 372.815 96.8017 372.976 92.8594C373.057 90.8482 373.035 89.9434 372.903 89.8619C372.486 89.6055 371.778 90.034 370.003 91.6174C368.98 92.5304 367.949 93.3992 367.711 93.5492C367.473 93.6992 366.947 94.1187 366.543 94.4809C366.139 94.8423 365.515 95.2722 365.157 95.4353C364.799 95.5984 364.256 95.9426 363.949 96.2004C363.466 96.6068 362.796 96.9642 360.782 97.8889C360.543 97.9981 359.92 98.3126 359.396 98.587C358.872 98.8621 358.317 99.0922 358.163 99.0977C358.009 99.104 357.502 99.2567 357.037 99.4385C356.572 99.6196 355.607 99.9375 354.892 100.145C354.177 100.351 353.204 100.639 352.727 100.783C352.25 100.927 350.38 101.191 348.569 101.368C344.673 101.75 344.845 101.742 344.845 101.54Z" fill="#F1952A" stroke="#100F0F" stroke-opacity="0.74"/>
<path d="M440.139 51.208C440.139 51.1375 439.71 50.4629 439.186 49.7089C438.662 48.9541 438.233 48.2498 438.233 48.1441C438.233 48.0377 437.883 47.5767 437.454 47.1198C437.025 46.6623 436.675 46.1709 436.675 46.0271C436.675 45.8833 436.529 45.5806 436.351 45.3539C435.674 44.49 434.076 42.0703 434.076 41.9078C434.076 41.8145 433.768 41.4047 433.391 40.9969C433.015 40.5891 432.629 40.0514 432.533 39.8005C432.326 39.2566 430.943 37.3697 429.418 35.5499C428.81 34.8235 428.19 34.0349 428.042 33.7972C427.892 33.5594 427.435 32.9996 427.026 32.5517C426.616 32.1046 426.28 31.638 426.278 31.515C426.277 31.392 425.849 30.79 425.326 30.1762C424.803 29.5632 424.376 29.0047 424.376 28.9356C424.376 28.8658 423.922 28.2403 423.369 27.545C422.815 26.8497 422.156 25.9305 421.904 25.502C421.653 25.0735 421.17 24.4556 420.832 24.1287C420.494 23.8024 420.218 23.4389 420.218 23.3207C420.218 23.2032 419.751 22.5197 419.179 21.8023C418.608 21.0848 418.14 20.4324 418.14 20.3522C418.14 20.2727 417.945 20.0246 417.706 19.8014C417.469 19.5781 417.274 19.321 417.274 19.2305C417.274 19.1399 417.033 18.784 416.739 18.4405C416.152 17.7535 414.909 16.0242 413.518 13.9618C413.025 13.2299 412.303 12.2333 411.915 11.7474C411.528 11.2615 411.21 10.7736 411.21 10.6637C411.21 10.5531 410.899 10.1259 410.518 9.71333C410.136 9.30071 409.825 8.88187 409.825 8.78235C409.825 8.68282 409.531 8.22528 409.173 7.76497C408.233 6.55753 407.573 5.5056 407.573 5.21462C407.573 5.0757 407.495 4.91397 407.399 4.85523C407.305 4.79648 407.227 4.41358 407.227 4.00442C407.227 3.08795 407.684 2.45417 408.551 2.16803C409.018 2.01459 413.158 1.96068 424.739 1.95516L440.3 1.94824L440.994 2.4279C441.374 2.69192 441.895 3.19024 442.151 3.53582C442.406 3.88139 442.948 4.5138 443.355 4.94162C443.762 5.36944 444.256 6.03433 444.455 6.4193C444.653 6.80427 445.094 7.38691 445.436 7.71521C445.776 8.04281 446.156 8.54459 446.279 8.82934C446.402 9.1141 446.943 9.88128 447.483 10.5337C448.022 11.1862 448.549 11.8863 448.654 12.0888C448.759 12.292 449.126 12.8035 449.469 13.2264C450.241 14.1789 450.879 15.1091 450.879 15.2826C450.879 15.3552 451.159 15.6821 451.5 16.009C451.842 16.3366 452.263 16.8778 452.435 17.2116C452.608 17.5455 453.088 18.2456 453.503 18.7667C453.917 19.2885 454.335 19.8394 454.43 19.9914C454.986 20.8803 455.606 21.7525 455.865 22.0117C456.029 22.1755 456.413 22.698 456.72 23.1721C457.027 23.6462 457.553 24.3402 457.889 24.7141C458.225 25.0873 458.501 25.4536 458.501 25.5269C458.501 25.6768 459.319 26.9147 459.511 27.055C459.579 27.1041 459.766 27.3391 459.928 27.5768C460.089 27.8146 460.458 28.3419 460.747 28.749C461.036 29.1561 461.272 29.5494 461.272 29.6226C461.272 29.6959 461.554 30.0235 461.899 30.3504C462.244 30.678 462.63 31.1881 462.757 31.4832C462.884 31.7783 463.382 32.4895 463.863 33.0639C464.343 33.6375 464.736 34.1849 464.736 34.2796C464.736 34.375 465.15 34.986 465.654 35.637C466.159 36.2881 466.852 37.2488 467.195 37.7713C467.537 38.2938 468.021 38.9393 468.269 39.2061C468.517 39.4722 468.721 39.7542 468.721 39.833C468.721 39.9118 469.052 40.4115 469.457 40.943C469.862 41.4752 470.372 42.1643 470.592 42.4753C470.811 42.787 471.356 43.5362 471.804 44.141C472.575 45.1818 472.907 45.6891 473.742 47.1018C473.939 47.4343 474.253 47.9402 474.441 48.225C474.627 48.5097 474.867 48.9375 474.973 49.1753C475.774 50.9633 475.806 51.1762 475.304 51.3351C474.819 51.4886 440.139 51.3635 440.139 51.208Z" fill="#7A2E40" stroke="#100F0F" stroke-opacity="0.74"/>
<path d="M67.6337 100.008C66.8078 99.7383 66.512 99.5074 66.3088 98.9759C66.042 98.2744 65.8658 77.1915 65.966 57.811L65.9853 53.9232L66.9785 53.5009C67.5245 53.2694 70.8171 51.6673 74.2942 49.9415C90.2816 42.0071 93.3897 40.5038 93.5203 40.6428C93.5977 40.7243 93.7173 47.7119 93.7864 56.1695C93.8555 64.6278 93.9308 73.5692 93.9543 76.0401C94.0829 89.6938 94.0325 97.3089 93.8078 98.1403C93.5148 99.2268 93.0096 99.7984 92.344 99.7984C92.0627 99.7984 91.5568 99.9131 91.2209 100.053C90.6991 100.27 88.9588 100.303 79.4618 100.269C70.929 100.239 68.1555 100.178 67.6337 100.008Z" fill="#F1952A" stroke="#100F0F" stroke-opacity="0.74"/>
<path d="M339.775 101.709C338.847 101.632 337.963 101.521 337.81 101.463C337.657 101.404 336.7 101.283 335.685 101.193C334.669 101.105 333.549 100.91 333.194 100.762C332.84 100.614 332.372 100.49 332.154 100.487C331.937 100.484 331.447 100.331 331.067 100.147C330.686 99.9634 330.215 99.8107 330.021 99.8072C329.827 99.8045 329.225 99.6462 328.683 99.4561C328.141 99.2661 327.571 99.1105 327.417 99.1105C327.263 99.1105 326.929 98.9744 326.675 98.8078C325.795 98.23 325.517 98.0752 324.289 97.4836C323.611 97.156 322.831 96.6805 322.557 96.4268C322.283 96.1732 321.825 95.8469 321.539 95.7025C320.167 95.0072 316.592 91.606 314.81 89.3003C312.336 86.0996 310.194 82.5768 310.194 81.7115C310.194 81.5691 310.077 81.247 309.936 80.9941C309.484 80.1889 308.808 78.1804 308.799 77.6213C308.795 77.3234 308.679 76.7691 308.54 76.3889C308.401 76.0088 308.241 75.1145 308.186 74.4019C308.13 73.6893 307.972 72.8074 307.835 72.4432C307.553 71.694 307.217 66.5131 307.271 63.7423L307.305 61.9819L307.988 61.8665C308.364 61.8036 309.696 61.4076 310.948 60.9866C312.2 60.5657 315.61 59.4882 318.525 58.5925C321.441 57.6968 326.338 56.1444 329.408 55.143C332.478 54.1415 335.093 53.3218 335.219 53.3218C335.401 53.3218 335.466 54.3129 335.535 58.2027C335.584 60.9749 335.704 63.3829 335.814 63.7754C335.92 64.1556 336.117 64.8944 336.252 65.4169C336.809 67.5726 336.928 67.9569 337.27 68.6999C337.467 69.1277 337.925 69.9053 338.288 70.4278C338.65 70.9503 338.948 71.4832 338.948 71.611C338.948 71.8958 342.298 75.2658 342.581 75.2658C342.692 75.2658 343.153 75.5768 343.605 75.957C344.057 76.3371 344.522 76.6481 344.639 76.6481C344.756 76.6481 345.158 76.8036 345.531 76.9937C345.904 77.1838 346.349 77.342 346.52 77.3448C346.691 77.3483 347.142 77.501 347.523 77.6849C347.904 77.8687 348.355 78.0215 348.526 78.0249C348.696 78.0277 349.125 78.1749 349.479 78.3518C350.236 78.7306 351.936 78.9773 353.466 78.931L354.558 78.8978L353.699 79.7321C352.466 80.9298 352.11 81.7122 349.436 89.0889C348.572 91.4713 344.792 101.592 344.736 101.672C344.639 101.81 341.301 101.834 339.775 101.709Z" fill="#EE7A30" stroke="#100F0F" stroke-opacity="0.74"/>
<path d="M483.185 42.8855C482.801 42.6526 482.229 42.1038 481.914 41.6657C481.598 41.2275 481.113 40.7015 480.835 40.4969C480.558 40.2916 480.331 40.0249 480.331 39.9032C480.331 39.7816 479.989 39.2992 479.573 38.8312C479.156 38.3626 478.531 37.5533 478.184 37.0322C477.837 36.511 477.26 35.7453 476.901 35.3292C476.542 34.9138 476.163 34.3761 476.058 34.1342C475.953 33.893 475.468 33.2599 474.981 32.7277C474.494 32.1955 474.095 31.6682 474.095 31.5548C474.095 31.4415 473.646 30.7911 473.099 30.1096C472.551 29.4288 472.025 28.7473 471.929 28.5953C471.343 27.6609 470.801 26.9289 470.481 26.6435C470.279 26.4631 469.905 25.9606 469.65 25.5266C469.396 25.0932 468.888 24.4277 468.523 24.0489C468.157 23.6695 467.859 23.2693 467.859 23.1601C467.859 23.0502 467.581 22.5975 467.241 22.1545C466.591 21.3043 465.953 19.7133 465.953 18.9406C465.953 18.2501 466.464 16.6508 466.809 16.2582C466.977 16.0682 467.165 15.7959 467.228 15.6535C467.411 15.2388 467.898 14.5373 468.564 13.7272C468.904 13.3139 469.818 12.159 470.594 11.161C471.37 10.163 472.378 8.89333 472.833 8.33972C473.289 7.78542 473.793 7.09358 473.955 6.8026C474.117 6.51094 474.475 6.03128 474.751 5.73616C475.027 5.44103 475.499 4.84872 475.8 4.4202C476.1 3.99169 476.792 3.29293 477.338 2.86857C478.222 2.17949 478.45 2.08619 479.459 2.00256C480.409 1.92376 497.794 1.91202 508.367 1.9832L511.372 2.00325L511.975 2.60524C512.499 3.12706 512.564 3.28188 512.464 3.77121C512.4 4.08223 512.123 4.6469 511.847 5.02703C511.571 5.40717 511.099 6.14601 510.798 6.66852C510.498 7.19103 509.97 7.96926 509.626 8.39709C508.977 9.20297 508.768 9.51261 508.288 10.371C508.133 10.6496 507.722 11.2412 507.377 11.6863C507.03 12.1314 506.535 12.8364 506.276 13.2538C506.017 13.6706 505.457 14.4785 505.032 15.0487C504.607 15.6189 504.253 16.1587 504.247 16.2472C504.241 16.337 503.897 16.8423 503.484 17.3703C503.071 17.899 502.458 18.7595 502.124 19.282C501.789 19.8045 501.347 20.3803 501.142 20.5613C500.939 20.7424 500.771 20.9892 500.771 21.1094C500.771 21.2304 500.576 21.5601 500.338 21.8421C500.1 22.1247 499.905 22.4136 499.905 22.4841C499.905 22.5553 499.476 23.1359 498.952 23.7745C498.428 24.4131 497.999 25.0179 497.999 25.1174C497.999 25.2169 497.668 25.7139 497.263 26.2212C496.5 27.1777 496.222 27.5924 495.948 28.1806C495.859 28.3707 495.622 28.6741 495.421 28.8552C495.219 29.0362 495.055 29.2484 495.055 29.3272C495.055 29.4053 494.743 29.8794 494.362 30.3805C493.982 30.8809 493.67 31.3786 493.669 31.4857C493.669 31.5928 493.559 31.7718 493.424 31.8838C493.288 31.9951 492.805 32.6461 492.348 33.3304C491.892 34.0139 491.236 34.9235 490.893 35.3513C490.549 35.7791 490.082 36.4399 489.855 36.82C489.627 37.2001 489.029 38.0254 488.524 38.6536C488.019 39.2819 487.606 39.85 487.606 39.9164C487.606 40.0546 486.38 41.6601 485.614 42.5254C484.9 43.3313 484.111 43.4481 483.185 42.8855Z" fill="#7A2E40" stroke="#100F0F" stroke-opacity="0.74"/>
<path d="M150.054 102.036C145.105 101.695 139.93 100.748 136.282 99.5157C135.854 99.3706 135.126 99.1846 134.665 99.1017C134.203 99.0188 133.736 98.8792 133.625 98.7914C133.514 98.7036 133.23 98.573 132.991 98.5004C132.754 98.4285 132.373 98.2239 132.145 98.047C131.918 97.8701 131.597 97.7256 131.43 97.7256C130.949 97.7256 129.167 96.852 129.278 96.6709C129.509 96.2991 133.753 94.3576 140.921 91.3456C150.141 87.471 156.24 84.4507 161.984 80.9148C162.543 80.5706 163.343 80.2374 163.762 80.1752C164.18 80.113 164.709 79.9153 164.937 79.7356C165.165 79.5566 165.418 79.4101 165.498 79.4094C165.673 79.4087 167.246 78.6236 167.526 78.3976C167.634 78.3098 168.463 77.8737 169.369 77.4279C170.273 76.9821 171.131 76.5467 171.274 76.4603C171.417 76.3739 171.806 76.1451 172.14 75.9509C172.473 75.7574 172.98 75.4478 173.266 75.2632C173.552 75.0787 174.076 74.769 174.431 74.5762C174.785 74.3827 175.33 74.0109 175.643 73.7503C176.371 73.1421 177.291 72.4986 177.432 72.4986C177.492 72.4986 178.022 72.0618 178.609 71.5282C179.195 70.9947 179.987 70.356 180.368 70.1093C180.749 69.8626 181.39 69.3663 181.793 69.0062C182.923 67.9965 183.536 68.069 185.25 69.414C185.995 69.9987 187.15 70.9829 187.817 71.6015C188.484 72.2194 189.51 73.1607 190.098 73.6922C192.506 75.87 196.338 79.7128 196.725 80.339L197.139 81.0088L196.809 81.6349C196.329 82.5424 193.987 85.2275 191.887 87.2782C189.9 89.2189 187.231 91.497 186.94 91.5018C186.839 91.5039 186.529 91.7416 186.251 92.0305C185.973 92.3194 185.269 92.8219 184.686 93.1474C184.103 93.473 183.526 93.8586 183.405 94.0045C183.283 94.1503 183.117 94.2699 183.035 94.2699C182.954 94.2699 182.475 94.5311 181.974 94.8504C181.472 95.1704 180.871 95.4911 180.638 95.5644C180.405 95.637 179.84 95.959 179.383 96.2797C178.561 96.8562 177.729 97.2259 176.384 97.613C176.003 97.7222 175.498 97.9482 175.263 98.1141C175.027 98.2806 174.714 98.4168 174.567 98.4168C174.42 98.4168 174.009 98.5723 173.654 98.7624C173.299 98.9524 172.848 99.1079 172.654 99.1079C172.459 99.1079 172.01 99.2524 171.657 99.4293C171.303 99.6056 170.693 99.7998 170.301 99.8599C169.908 99.9193 169.362 100.085 169.088 100.228C168.814 100.371 168.372 100.489 168.107 100.49C167.842 100.49 167.344 100.607 167.001 100.75C166.657 100.893 165.666 101.089 164.798 101.186C163.929 101.282 162.751 101.445 162.179 101.547C159.779 101.976 153.094 102.245 150.054 102.036Z" fill="#EA613A" stroke="#100F0F" stroke-opacity="0.74"/>
<path d="M200.393 100.112C199.678 100.045 198.782 99.9243 198.401 99.8442C197.724 99.7018 197.707 99.679 197.656 98.9007C197.62 98.3471 197.713 97.8993 197.959 97.441C198.154 97.0775 198.315 96.6828 198.315 96.5647C198.315 96.2889 199.269 94.8154 200.29 93.5139C200.727 92.9562 201.086 92.4018 201.086 92.2816C201.086 91.9913 202.403 90.8136 202.728 90.8136C202.868 90.8136 203.117 90.6097 203.281 90.3609C203.562 89.9317 203.562 89.8957 203.274 89.6863C202.996 89.4831 203.03 89.4161 203.681 88.895C204.35 88.3586 204.634 87.9785 205.057 87.0551C205.155 86.8415 205.384 86.6667 205.566 86.6667C205.748 86.6667 206.067 86.5305 206.274 86.3633C206.576 86.1186 206.619 85.9776 206.492 85.6355C206.319 85.169 206.831 84.144 207.912 82.7914C208.221 82.4044 208.812 81.5439 209.226 80.8783C209.639 80.2127 210.276 79.3142 210.642 78.8802C211.007 78.4468 211.306 78.0017 211.306 77.8925C211.306 77.7826 211.637 77.314 212.042 76.851C212.447 76.3879 212.992 75.6656 213.254 75.2468C213.515 74.828 214.046 74.0573 214.433 73.5348C214.82 73.0123 215.42 72.1567 215.769 71.6341C216.116 71.1116 216.657 70.3645 216.971 69.9747C217.285 69.5849 217.542 69.1875 217.542 69.0914C217.542 68.9953 217.785 68.6145 218.081 68.2454C218.595 67.6033 218.966 67.0732 221.086 63.9451C221.601 63.1848 222.247 62.2905 222.52 61.958C222.794 61.6256 223.305 60.9254 223.658 60.4029C224.937 58.5057 226.651 56.1219 227.286 55.3589C227.643 54.9304 227.935 54.497 227.935 54.3968C227.935 54.2966 228.269 53.799 228.677 53.291C229.085 52.7837 229.555 52.1547 229.721 51.8935L230.022 51.418H247.687C257.403 51.418 265.352 51.4581 265.352 51.5071C265.352 51.5555 265.262 51.7691 265.151 51.9819C265.041 52.1948 264.871 52.5238 264.772 52.7139C264.674 52.9039 264.419 53.4154 264.207 53.8501C263.995 54.2856 263.636 54.8682 263.41 55.146C263.184 55.4239 262.902 55.8455 262.783 56.0832C262.421 56.8055 262.171 57.1932 261.608 57.9058C261.311 58.2811 260.921 58.8513 260.742 59.172C259.996 60.5025 259.874 60.6863 259.402 61.1812C259.13 61.4659 258.706 62.0486 258.46 62.4764C258.214 62.9042 257.735 63.5739 257.395 63.9651C257.055 64.3563 256.582 65.0122 256.344 65.4228C256.106 65.834 255.562 66.6026 255.135 67.1313C254.709 67.66 254.238 68.3256 254.09 68.6104C253.941 68.8951 253.546 69.4232 253.212 69.7832C252.878 70.144 252.455 70.7274 252.272 71.0792C252.089 71.4323 251.606 72.0868 251.197 72.534C250.789 72.9812 250.455 73.4215 250.455 73.512C250.455 73.6025 250.127 74.0898 249.726 74.595C249.326 75.1003 248.644 76.0264 248.211 76.6526C247.778 77.2795 247.072 78.2692 246.644 78.8525C245.042 81.031 244.466 81.8355 243.487 83.26C243.175 83.7148 242.588 84.5213 242.183 85.0522C241.778 85.583 241.447 86.0958 241.447 86.1932C241.447 86.2893 241.135 86.7061 240.754 87.1187C240.373 87.5313 240.061 87.9453 240.061 88.0393C240.061 88.1333 239.437 89.0366 238.675 90.0464C237.913 91.0562 237.289 91.9491 237.289 92.0293C237.289 92.1095 236.899 92.6196 236.423 93.1628C235.947 93.7061 235.557 94.2099 235.557 94.2825C235.557 94.355 235.168 94.8672 234.693 95.4215C234.217 95.9758 233.827 96.5073 233.826 96.602C233.825 96.6967 233.22 97.412 232.482 98.1909C231.558 99.1655 230.978 99.6375 230.62 99.7053C230.334 99.7599 229.789 99.896 229.408 100.009C228.628 100.238 202.707 100.331 200.393 100.112Z" fill="#EE7A30" stroke="#100F0F" stroke-opacity="0.74"/>
<path d="M230.011 51.1896C230.011 51.0618 229.855 50.8164 229.664 50.6443C229.474 50.4722 229.318 50.2545 229.318 50.1612C229.318 50.0679 229.039 49.6712 228.698 49.2807C228.357 48.8902 227.817 48.1817 227.499 47.7069C227.179 47.2321 226.308 45.9597 225.563 44.8794C224.818 43.7991 223.935 42.4742 223.601 41.9344C223.268 41.3953 222.716 40.6074 222.374 40.1837C222.033 39.7594 221.572 39.1021 221.349 38.722C221.127 38.3418 220.696 37.7198 220.393 37.3397C220.089 36.9595 219.596 36.2151 219.297 35.6864C218.998 35.157 218.553 34.5357 218.308 34.3062C218.063 34.0767 217.749 33.6544 217.61 33.3683C217.472 33.0815 216.943 32.2942 216.433 31.619C215.925 30.943 215.361 30.1289 215.181 29.8103C215.001 29.4909 214.522 28.8164 214.117 28.3104C213.712 27.8045 213.381 27.3083 213.381 27.2067C213.381 27.1051 213.138 26.716 212.842 26.3427C212.085 25.389 210.783 23.4337 210.783 23.2498C210.783 23.1655 210.432 22.7024 210.003 22.2207C209.575 21.739 209.224 21.2462 209.224 21.1246C209.224 21.0036 208.869 20.4894 208.435 19.9821C208.002 19.4755 207.5 18.7753 207.322 18.4263C207.143 18.0773 206.874 17.6902 206.725 17.5658C206.575 17.4421 206.452 17.2506 206.452 17.1408C206.452 17.0309 206.231 16.6998 205.961 16.4047C205.691 16.1096 205.249 15.4896 204.98 15.0272C204.71 14.5648 204.243 13.8751 203.942 13.4949C203.414 12.8273 201.895 10.6011 200.823 8.92228C200.537 8.4751 200.046 7.76529 199.734 7.34576C199.421 6.92623 198.768 5.9759 198.282 5.2336C197.239 3.6405 197.272 3.37026 198.6 2.60377L199.437 2.12065L205.413 2.01215C211.879 1.89603 229.696 1.94856 230.287 2.0861C230.746 2.19323 232.636 4.35653 234.428 6.8267C235.19 7.87725 236.184 9.21463 236.636 9.79866C237.089 10.3827 237.459 10.937 237.459 11.031C237.459 11.1243 237.758 11.5618 238.123 12.002C238.488 12.443 239.307 13.5813 239.943 14.5317C240.579 15.482 241.274 16.4925 241.488 16.7765C241.701 17.0613 242.53 18.1885 243.33 19.2819C244.129 20.376 245.123 21.7113 245.538 22.2491C245.953 22.7875 246.293 23.2899 246.293 23.3653C246.293 23.4406 246.562 23.7772 246.89 24.1145C247.217 24.4511 247.606 24.9597 247.753 25.2445C247.9 25.5293 248.376 26.2294 248.811 26.7996C250.601 29.1481 252.362 31.5789 252.596 32.0254C252.733 32.2873 253.086 32.7304 253.38 33.0089C253.675 33.2881 253.915 33.6109 253.915 33.7256C253.915 33.8404 254.539 34.7285 255.301 35.6982C256.063 36.6679 256.687 37.5318 256.687 37.6161C256.687 37.7011 256.949 38.0626 257.271 38.4192C257.591 38.7759 258.128 39.4954 258.462 40.0179C258.797 40.5404 259.245 41.1237 259.456 41.3138C259.668 41.5038 259.99 41.9317 260.171 42.2641C260.687 43.2089 260.883 43.5026 261.575 44.3631C261.93 44.8055 262.413 45.5256 262.647 45.9652C262.881 46.4041 263.3 47.0531 263.577 47.4077C264.094 48.0691 265.002 49.9096 265.522 51.1834C265.522 51.3845 262.731 51.4219 247.766 51.4219C233.008 51.4219 230.011 51.3825 230.011 51.1896Z" fill="#9B3446" stroke="#100F0F" stroke-opacity="0.74"/>
<path d="M104.465 34.8777C104.767 33.9204 105.159 32.9853 105.354 32.7586C105.477 32.6162 105.629 32.2658 105.692 31.981C105.868 31.1931 107.022 28.7699 107.467 28.2523C107.596 28.1023 107.702 27.8839 107.702 27.7664C107.702 27.4899 108.455 25.9742 109.084 24.9831C109.355 24.5553 109.787 23.7916 110.044 23.2864C110.301 22.7811 110.97 21.7907 111.532 21.0857C112.093 20.3814 112.552 19.7401 112.552 19.6613C112.552 19.4664 114.486 17.2872 116.327 15.4079C118.206 13.4893 121.324 10.6742 122.298 10.0183C122.702 9.74601 123.388 9.2311 123.823 8.87309C124.258 8.51576 124.713 8.22271 124.835 8.22271C124.956 8.22271 125.497 7.92897 126.036 7.57026C127.423 6.6462 127.577 6.55911 128.835 5.98062C129.454 5.69586 130.078 5.38346 130.221 5.28601C130.364 5.18925 130.637 5.04203 130.827 4.9584C131.837 4.51538 132.062 4.41101 132.3 4.27485C132.724 4.03088 134.232 3.54224 135.107 3.36461C135.556 3.27338 136.14 3.08539 136.406 2.94715C136.673 2.80892 137.029 2.69488 137.199 2.69488C137.369 2.69419 137.797 2.5684 138.152 2.41566C138.756 2.15509 140.249 1.9049 143.733 1.48053C144.542 1.3817 145.711 1.18748 146.331 1.04925C149.282 0.391967 156.485 0.306267 159.669 0.891672C160.479 1.04027 161.765 1.23586 162.527 1.32502C163.289 1.41487 164.147 1.57315 164.433 1.67613C164.718 1.77911 165.42 1.92632 165.991 2.00373C167.032 2.14404 168.083 2.44883 169.542 3.03355C169.972 3.20495 170.907 3.51666 171.621 3.72539C173.121 4.16358 173.709 4.40479 175.736 5.41526C176.547 5.81889 177.289 6.14926 177.386 6.14926C177.483 6.14926 177.999 6.44092 178.532 6.79686C179.066 7.15281 179.659 7.5281 179.849 7.63039C180.733 8.10383 181.117 8.35196 181.841 8.9187C182.27 9.25391 182.85 9.64303 183.131 9.78264C183.412 9.92295 184.074 10.4296 184.603 10.9092C185.133 11.3896 185.799 11.9591 186.086 12.1754C187.462 13.2197 190.987 16.8994 192.235 18.5962C192.568 19.0496 193.188 19.8258 193.611 20.322L194.381 21.224L193.871 21.121C193.171 20.9793 187.67 20.3773 184.613 20.1071C181.195 19.8057 165.364 19.8064 161.834 20.1077C156.378 20.5743 149.327 21.5253 146.244 22.2109C145.863 22.2959 144.694 22.5358 143.645 22.7438C135.251 24.4102 124.025 27.7643 115.497 31.153C113.449 31.9672 110.993 32.8844 110.04 33.1919C109.088 33.5002 107.422 34.0738 106.338 34.4671C104.688 35.0663 104.385 35.1327 104.465 34.8777Z" fill="#7A2E40" stroke="#100F0F" stroke-opacity="0.74"/>
<path d="M128.401 96.2434C128.115 96.005 127.647 95.6981 127.361 95.562C126.744 95.2675 126.453 95.0837 125.253 94.228C124.753 93.8714 124.293 93.5797 124.229 93.5797C124.166 93.5797 123.364 93.0151 122.447 92.3253C121.529 91.6348 120.584 90.9444 120.346 90.7903C119.453 90.2118 114.964 85.749 114.027 84.5049C113.49 83.7944 112.982 83.2125 112.897 83.2125C112.753 83.2125 112.531 82.8704 112.001 81.8302C111.88 81.5924 111.447 80.9828 111.039 80.4755C110.632 79.9675 110.299 79.4775 110.299 79.3869C110.299 79.2453 109.723 78.2514 108.955 77.0688C108.835 76.8843 108.46 76.189 108.121 75.5234C107.782 74.8578 107.272 73.9338 106.987 73.4686C106.492 72.6607 106.173 71.9204 105.75 70.599C105.644 70.2665 105.416 69.7882 105.243 69.536C105.07 69.283 104.929 68.9699 104.929 68.8393C104.929 68.7094 104.81 68.4322 104.663 68.2242C104.517 68.0161 104.203 67.1239 103.966 66.2419C103.729 65.3593 103.421 64.2818 103.282 63.8471C103.144 63.4124 102.958 62.545 102.87 61.9209C102.78 61.2968 102.609 60.6021 102.488 60.3789C102.367 60.155 102.212 59.0782 102.144 57.9855C102.075 56.8927 101.926 55.4662 101.812 54.8151C101.4 52.4576 101.91 43.8023 102.576 41.8429C102.727 41.4013 102.85 40.8456 102.85 40.6085C102.85 40.3715 102.975 39.8883 103.129 39.5352C103.282 39.1813 103.506 38.3485 103.627 37.6829C103.747 37.0173 103.992 36.172 104.171 35.8043C104.483 35.1629 104.591 35.1007 106.835 34.2879C108.121 33.8214 109.601 33.3155 110.126 33.1641C110.65 33.0121 112.91 32.1647 115.149 31.2808C124.15 27.7255 135.151 24.4301 143.644 22.7437C144.692 22.5356 145.862 22.2958 146.243 22.2108C147.917 21.8389 153.425 20.9888 156.203 20.6737C162.397 19.9714 164.252 19.8857 173.266 19.8857C182.255 19.8857 183.731 19.9542 190.241 20.673C193.855 21.0724 194.312 21.1505 194.312 21.3717C194.312 21.4616 194.61 21.8638 194.974 22.2654C195.337 22.6669 195.851 23.3726 196.116 23.8336C196.381 24.2939 196.903 25.1039 197.274 25.6334C197.645 26.1621 197.95 26.668 197.95 26.7565C197.95 26.8456 198.06 27.1629 198.196 27.4621C198.816 28.8375 199.163 29.7084 199.163 29.8929C199.163 30.0035 199.32 30.4016 199.513 30.7783C199.706 31.155 199.908 31.7735 199.962 32.1537C200.016 32.5338 200.209 33.292 200.391 33.8394C200.572 34.3861 200.722 34.9687 200.722 35.1353C200.723 35.3005 200.841 35.6606 200.984 35.935C201.127 36.2087 201.293 36.7526 201.353 37.1445C201.414 37.5357 201.569 38.0665 201.699 38.3236C202.365 39.6416 202.837 45.8191 202.767 52.2835C202.706 57.9074 202.665 58.0954 201.36 58.6863C200.655 59.0056 199.621 59.0146 164.384 59.018L128.133 59.0222L127.939 59.4465C127.735 59.8951 127.954 61.0597 128.414 61.9596C128.611 62.3459 129.003 63.196 129.957 65.3123C130.985 67.5918 135.909 73.2516 138.275 74.871C138.655 75.1322 139.318 75.6312 139.747 75.981C140.175 76.33 140.877 76.791 141.306 77.0046C141.734 77.2188 142.241 77.5243 142.432 77.684C142.808 77.9991 145.8 79.3116 146.503 79.4699C146.741 79.5231 147.637 79.8099 148.494 80.1064C149.651 80.5073 150.589 80.6912 152.133 80.8218C154.144 80.9911 160.573 80.9026 161.766 80.6891C162.342 80.5861 162.337 80.5944 161.466 81.1957C160.059 82.1681 154.795 85.0599 151.959 86.4194C148.627 88.016 145.116 89.5835 140.92 91.3466C135.672 93.5521 132.164 95.103 130.557 95.929C129.742 96.3478 129.04 96.6872 128.997 96.6837C128.955 96.6802 128.686 96.4826 128.401 96.2434ZM176.09 40.7696C176.676 40.3936 176.732 40.0757 176.401 38.9981C175.615 36.4464 175.072 35.2542 174.462 34.7372C174.344 34.6377 174.143 34.3066 174.016 34.0011C173.548 32.8773 169.794 28.8154 167.701 27.1691C166.212 25.9976 162.91 24.0244 162.119 23.8336C161.867 23.7728 161.387 23.5869 161.053 23.421C159.678 22.7347 158.765 22.3912 158.32 22.3912C158.06 22.3912 157.237 22.2744 156.491 22.132C154.704 21.7906 150.462 21.7926 148.841 22.1347C148.174 22.2757 147.341 22.3912 146.99 22.3912C146.639 22.3912 146.132 22.4748 145.864 22.5771C145.596 22.6787 145.065 22.83 144.683 22.913C142.343 23.4217 142.277 23.4514 141.261 24.4425C140.712 24.9775 139.861 25.6299 139.37 25.8925C138.322 26.4531 137.391 27.2327 135.095 29.4755C133.175 31.3492 132.116 32.5476 131.772 33.2333C131.64 33.4952 131.291 34.0198 130.996 34.3999C130.7 34.7801 130.089 35.8686 129.638 36.8189C129.187 37.7693 128.705 38.7673 128.566 39.0362C128.05 40.0369 128.42 40.8034 129.528 41.0294C129.823 41.0896 140.329 41.1131 152.877 41.082C172.657 41.0329 175.744 40.9914 176.09 40.7696Z" fill="#D23E47" stroke="#100F0F" stroke-opacity="0.74"/>
<path d="M398.509 31.7089C397.968 31.6294 396.526 31.3329 395.305 31.0488C389.927 29.8013 384.599 28.9166 377.339 28.0665C374.635 27.7499 372.419 27.412 372.305 27.2986C372.043 27.0374 371.748 17.5762 371.794 10.9011C371.819 7.13151 371.884 5.8909 372.087 5.28545C372.229 4.85763 372.392 4.19205 372.449 3.80639C372.505 3.42072 372.675 2.85674 372.826 2.55402L373.102 2.00248L377.117 1.98106C379.325 1.96931 385.099 1.96792 389.948 1.9776C399.84 1.99695 399.408 1.94097 399.768 3.25485C399.916 3.7974 399.942 7.1716 399.864 16.1711C399.806 22.8711 399.758 29.1495 399.757 30.124C399.755 31.0979 399.695 31.8851 399.624 31.8733C399.552 31.8623 399.051 31.7876 398.509 31.7089Z" fill="#7A2E40" stroke="#100F0F" stroke-opacity="0.74"/>
<path d="M2.67082 99.9322C1.80966 99.8333 1.35282 99.6875 1.06876 99.4214C0.445351 98.8374 0.5663 98.4144 1.58089 97.623C3.608 96.0431 5.75261 94.2723 8.44253 91.9584C15.7866 85.6385 21.0966 81.3105 26.8275 76.9714C27.6375 76.3577 28.3798 75.8075 28.4773 75.7467C28.5982 75.6728 28.6418 79.2709 28.6148 86.9655L28.5747 98.2928L28.1269 98.9673C27.8815 99.3378 27.4689 99.7283 27.2104 99.834C26.6513 100.064 4.58458 100.153 2.67082 99.9322Z" fill="#F2852F" stroke="#100F0F" stroke-opacity="0.74"/>
<path d="M203.836 88.67C203.836 88.4378 204.908 86.9891 205.006 87.0873C205.06 87.1412 204.975 87.3271 204.817 87.502C204.658 87.6761 204.528 87.898 204.528 87.9941C204.528 88.0908 204.373 88.3106 204.182 88.4827C203.991 88.6548 203.836 88.7391 203.836 88.67Z" fill="#F2852F" stroke="#100F0F" stroke-opacity="0.74"/>
<path d="M202.477 90.4595C202.705 89.8085 203.093 89.4891 203.347 89.7428C203.596 89.9902 203.131 90.7325 202.648 90.8583C202.341 90.9385 202.324 90.8984 202.477 90.4595Z" fill="#F2852F" stroke="#100F0F" stroke-opacity="0.74"/>
<path d="M272.388 42.6507C271.775 42.1842 270.988 41.2732 269.531 39.3449C269.128 38.8107 268.329 37.7822 267.756 37.0593C267.183 36.3364 266.713 35.6722 266.713 35.5837C266.713 35.4945 266.357 35.0757 265.92 34.652C265.484 34.2277 265.006 33.6478 264.858 33.363C264.71 33.0783 264.268 32.4894 263.876 32.054C263.147 31.2474 261.866 29.5665 260.879 28.122C260.576 27.6783 260.084 27.0286 259.785 26.6775C259.487 26.3264 259.024 25.6138 258.758 25.0941C258.492 24.5743 257.99 23.8037 257.644 23.3814C257.297 22.9598 257.013 22.5057 257.012 22.373C257.011 22.2403 256.884 21.8982 256.729 21.6135C256.574 21.3266 256.411 20.5118 256.364 19.7909C256.294 18.7113 256.343 18.3485 256.646 17.6836C256.848 17.2419 257.013 16.812 257.013 16.7291C257.013 16.6448 257.344 16.1402 257.749 15.6067C258.154 15.0738 258.758 14.2389 259.092 13.7523C259.425 13.265 260.029 12.455 260.434 11.9525C260.839 11.4494 261.17 10.9255 261.17 10.7873C261.17 10.649 261.447 10.2689 261.785 9.94267C262.122 9.61575 262.605 8.99787 262.857 8.56935C263.108 8.14084 263.767 7.22161 264.321 6.52631C264.875 5.83101 265.328 5.19723 265.328 5.11705C265.328 4.82884 267.589 2.72359 268.289 2.35936C268.998 1.99028 269.078 1.98821 280.634 1.97922C287.03 1.9737 294.075 1.97715 296.289 1.98614L300.314 2.00203L300.856 2.48515L301.398 2.96826L301.092 3.9103C300.546 5.59464 299.488 7.65358 298.537 8.88175C298.025 9.5425 297.506 10.3256 297.383 10.6214C297.26 10.9179 297.099 11.1598 297.025 11.1598C296.952 11.1598 296.418 11.8399 295.837 12.672C294.33 14.8333 292.652 17.1638 291.932 18.0983C291.59 18.5413 291.311 18.9857 291.311 19.0866C291.311 19.1868 290.98 19.6533 290.575 20.1226C290.17 20.5919 289.462 21.5471 289 22.2452C287.589 24.3787 287.021 25.2019 286.28 26.1923C285.889 26.7148 285.322 27.5076 285.019 27.9541C284.716 28.3999 284.138 29.194 283.733 29.7172C283.328 30.2418 282.997 30.7408 282.997 30.8279C282.997 30.915 282.529 31.5702 281.957 32.2848C281.386 32.9988 280.918 33.6554 280.918 33.7432C280.918 33.8309 280.677 34.1316 280.383 34.4108C280.088 34.6893 279.727 35.1517 279.58 35.4365C279.432 35.7212 278.788 36.6156 278.146 37.4235C277.506 38.2315 276.858 39.1321 276.708 39.4258C276.557 39.7189 276.177 40.1563 275.861 40.3983C275.546 40.6402 275.093 41.153 274.855 41.5387C274.617 41.9236 274.266 42.3203 274.075 42.4206C273.885 42.5201 273.568 42.7198 273.37 42.8643C273.041 43.1055 272.963 43.0889 272.388 42.6507Z" fill="#9B3446" stroke="#100F0F" stroke-opacity="0.74"/>
<path d="M0.502358 16.2813C0.488535 9.42582 0.536915 3.61324 0.610176 3.36442C0.682745 3.11561 0.986846 2.70852 1.28473 2.45901L1.82658 2.007L9.51274 1.98281C13.7404 1.97037 19.3836 1.96899 22.0542 1.98074L26.9087 2.00216L27.425 2.47767C27.9309 2.94282 27.9482 3.01539 28.2668 6.02466C28.4451 7.71522 28.5619 9.11825 28.5253 9.14383C28.4887 9.16871 27.3282 9.94902 25.9467 10.8765C20.8924 14.2715 18.2204 16.1286 10.0104 21.9543C8.91491 22.7312 7.5112 23.7071 6.89194 24.1225C6.27268 24.5378 4.58768 25.748 3.14735 26.8124L0.52793 28.7469L0.502358 16.2813Z" fill="#7A2E40" stroke="#100F0F" stroke-opacity="0.74"/>
<path d="M372.119 34.5652C372.15 30.7121 372.203 27.5355 372.239 27.5065C372.333 27.427 382.659 28.6987 385.382 29.1245C386.669 29.3256 389.398 29.8315 391.445 30.249C395.424 31.0597 398.734 31.7218 399.369 31.8331C399.897 31.9264 399.864 32.3812 399.319 32.5173C399.018 32.5927 398.77 32.5291 397.639 33.0972C397.328 33.2119 396.928 33.384 396.751 33.4787C396.572 33.5734 395.253 34.033 393.817 34.4982C392.383 34.964 391.164 35.4112 391.11 35.4914C391.056 35.5722 388.906 36.3436 386.334 37.2061C383.761 38.0687 380.293 39.2526 378.626 39.8366C375.649 40.8796 373.195 41.568 372.443 41.57L372.062 41.5714L372.119 34.5652Z" fill="#D23E47" stroke="#100F0F" stroke-opacity="0.74"/>
<path d="M409.906 100.132C409.715 100.057 409.19 99.99 408.737 99.9838C407.854 99.9707 407.216 99.5463 407.227 98.9775C407.238 98.3388 407.887 96.8301 408.621 95.7318C409.042 95.1015 409.538 94.3398 409.722 94.0392C409.907 93.7379 410.38 93.064 410.774 92.5415C411.168 92.019 411.773 91.1612 412.119 90.636C412.464 90.11 412.953 89.488 413.204 89.2537C413.455 89.0187 413.772 88.5618 413.908 88.2384C414.044 87.9142 414.432 87.3316 414.77 86.9425C415.546 86.0523 416.708 84.4937 417.688 83.0298C418.105 82.4085 418.573 81.7948 418.728 81.6662C419.025 81.4202 420.04 79.9826 420.04 79.8077C420.04 79.751 420.39 79.3308 420.819 78.8733C421.248 78.4164 421.599 77.9526 421.599 77.8434C421.599 77.7342 421.891 77.2677 422.248 76.8074C422.605 76.3471 423.209 75.5378 423.591 75.0083C423.972 74.4796 424.634 73.5956 425.063 73.0441C425.492 72.4932 425.999 71.742 426.189 71.375C426.38 71.0087 426.776 70.4696 427.069 70.1779C427.362 69.8855 427.825 69.258 428.096 68.7831C428.367 68.3083 428.69 67.8411 428.814 67.7464C428.938 67.6517 429.546 66.8742 430.166 66.0185C430.785 65.1629 431.486 64.2354 431.724 63.9561C431.962 63.6776 432.278 63.1924 432.428 62.8779C432.577 62.5635 432.97 62.0147 433.299 61.6574C433.629 61.3001 433.948 60.8522 434.009 60.6621C434.071 60.472 434.596 59.6371 435.178 58.8071C435.76 57.977 436.357 57.075 436.505 56.8013C436.653 56.5283 437.043 55.9685 437.371 55.5573C437.7 55.146 438.046 54.6429 438.141 54.439C438.237 54.2358 438.743 53.4748 439.267 52.7477L440.22 51.4263L442.126 51.3834C446.158 51.2915 475.6 51.3371 475.443 51.4346C475.352 51.4912 475.328 51.7366 475.39 51.9806C475.501 52.4236 475.134 53.3884 474.476 54.3837C474.309 54.636 473.907 55.2967 473.584 55.851C473.26 56.4053 472.695 57.214 472.328 57.648C471.96 58.0827 471.66 58.4933 471.66 58.5603C471.66 58.6281 471.037 59.5348 470.274 60.5757C469.512 61.6166 468.889 62.5206 468.889 62.5842C468.889 62.6478 468.538 63.0735 468.109 63.5311C467.681 63.9879 467.33 64.4517 467.33 64.5609C467.33 64.6701 466.929 65.2624 466.439 65.8775C465.471 67.0891 464.731 68.1362 464.731 68.2917C464.731 68.3456 464.434 68.75 464.07 69.1909C463.706 69.6319 463.224 70.3037 462.999 70.6838C462.774 71.0639 462.305 71.7247 461.957 72.1525C461.61 72.5803 461.281 73.0503 461.228 73.1975C461.175 73.3447 460.751 73.9668 460.285 74.5798C459.438 75.6953 458.907 76.4425 458.582 76.974C458.19 77.614 457.531 78.4973 456.991 79.1076C456.675 79.4642 456.416 79.8581 456.416 79.9826C456.416 80.107 456.176 80.4373 455.881 80.7166C455.587 80.9951 455.226 81.4575 455.08 81.7422C454.933 82.027 454.395 82.7817 453.883 83.4176C453.371 84.0541 452.952 84.6209 452.952 84.6775C452.952 84.8082 452.346 85.67 451.554 86.6667C451.214 87.0945 450.755 87.7442 450.532 88.1112C450.095 88.8348 448.446 91.1177 447.116 92.8456C446.658 93.4407 446.205 94.1104 446.109 94.335C446.014 94.5589 445.605 95.1008 445.2 95.539C444.796 95.9765 444.464 96.4064 444.464 96.4935C444.464 96.5806 443.749 97.356 442.875 98.2172C441.5 99.5726 441.168 99.811 440.407 99.9907C439.388 100.232 410.497 100.366 409.906 100.132Z" fill="#F1952A" stroke="#100F0F" stroke-opacity="0.74"/>
<path d="M141.699 24.041C142.255 23.4812 142.531 23.3768 144.698 22.9137C145.492 22.7451 145.774 22.8301 145.022 23.0119C144.749 23.0782 144.318 23.2759 144.065 23.4528C143.812 23.6284 143.516 23.7728 143.407 23.7728C143.298 23.7728 142.964 23.8993 142.665 24.0534C142.365 24.2083 141.896 24.3983 141.623 24.4764L141.125 24.6188L141.699 24.041Z" fill="#D63F45" stroke="#100F0F" stroke-opacity="0.74"/>
<path d="M307.087 60.1961C306.921 58.8442 306.861 51.9666 306.837 31.6336L306.805 4.85147L307.201 4.21561C307.662 3.47677 308.566 2.6467 309.352 2.24168C309.848 1.98527 311.111 1.95831 322.092 1.96592C331.042 1.97214 334.345 2.02812 334.522 2.17464C334.655 2.28384 334.923 2.70337 335.118 3.10562C335.471 3.83271 335.473 3.98961 335.473 28.578C335.473 49.8793 335.439 53.3185 335.226 53.3185C335.09 53.3185 332.467 54.1382 329.397 55.1396C326.327 56.1411 321.431 57.6934 318.515 58.5892C315.599 59.4849 312.189 60.5624 310.938 60.9833C309.685 61.4042 308.356 61.7996 307.984 61.8625L307.306 61.9765L307.087 60.1961Z" fill="#B93948" stroke="#100F0F" stroke-opacity="0.74"/>
<path d="M268.02 99.9593C267.536 99.8965 266.979 99.7582 266.781 99.6525C266.441 99.4707 265.347 98.2197 265.347 98.0131C265.347 97.9059 262.994 94.6852 261.895 93.287C261.507 92.7935 261.19 92.3387 261.19 92.2758C261.19 92.2136 260.741 91.5909 260.194 90.8928C259.646 90.1941 258.652 88.8643 257.985 87.9382C257.318 87.0113 256.538 85.938 256.25 85.553C255.963 85.1687 255.58 84.5211 255.399 84.1147L255.07 83.3766L255.551 82.8762C255.815 82.6011 255.978 82.2921 255.915 82.1892C255.849 82.082 255.933 81.9998 256.113 81.9963C256.556 81.9873 257.31 81.3038 257.434 80.7993C257.498 80.5387 257.442 80.2664 257.287 80.0964C257.064 79.8503 257.093 79.7639 257.543 79.3333C257.821 79.0672 258.23 78.7569 258.45 78.6442C258.724 78.5046 258.837 78.3111 258.806 78.0374C258.746 77.508 259.761 76.1748 260.324 76.0448C260.787 75.9384 261.242 75.212 260.998 74.9694C260.917 74.8885 261.206 74.3722 261.638 73.8221C262.279 73.0079 262.471 72.8593 262.671 73.0252C262.807 73.1372 263.035 73.1835 263.179 73.1289C263.477 73.0148 263.533 72.4038 263.261 72.2359C262.79 71.9449 263.585 70.8508 264.773 70.1569C265.523 69.718 265.669 69.501 265.347 69.3026C265.095 69.1471 265.133 68.9356 265.476 68.5942C265.78 68.2908 265.838 68.2065 266.473 67.1587C266.663 66.8442 267.131 66.1703 267.512 65.6617C267.893 65.1523 268.478 64.3388 268.812 63.8536C269.145 63.3684 269.682 62.6462 270.006 62.2494C270.329 61.852 270.864 61.1222 271.195 60.6266C272.197 59.1254 273.636 58.9582 274.728 60.2168C275.747 61.3897 276.507 62.3607 276.969 63.0768C277.216 63.4597 277.935 64.4729 278.566 65.3285C279.198 66.1842 280.028 67.3114 280.411 67.8339C280.795 68.3565 281.48 69.2895 281.935 69.9074C282.39 70.5253 282.949 71.3415 283.178 71.7217C283.408 72.1018 283.932 72.8137 284.345 73.3044C284.757 73.7944 285.095 74.2478 285.095 74.3107C285.095 74.3743 285.465 74.8975 285.917 75.4732C287 76.8514 287.693 77.8363 287.693 77.9994C287.693 78.072 288.011 78.4383 288.398 78.8143C288.787 79.1896 289.206 79.7307 289.331 80.0155C289.455 80.3002 289.936 81.0135 290.4 81.5996C290.864 82.1857 291.595 83.1471 292.023 83.736C292.452 84.3248 293.051 85.1279 293.355 85.5212C293.658 85.9145 293.911 86.3174 293.917 86.4169C293.923 86.5165 294.241 86.9222 294.621 87.3175C295.003 87.7128 295.316 88.0978 295.317 88.1731C295.322 88.3466 296.15 89.5561 296.66 90.1326C296.875 90.3752 297.497 91.2052 298.044 91.9779C300.399 95.3031 301.026 96.1407 301.202 96.1995C301.457 96.2838 301.88 97.512 301.889 98.1934C301.901 99.0657 301.566 99.6034 300.874 99.8232C300.185 100.041 269.618 100.168 268.02 99.9593Z" fill="#EE7A30" stroke="#100F0F" stroke-opacity="0.74"/>
</svg>
