<svg width="193" height="40" viewBox="0 0 193 40" fill="none" xmlns="http://www.w3.org/2000/svg">
<path d="M180.792 37.7968C180.772 37.7641 180.661 37.7377 180.545 37.7377C180.429 37.7377 180.307 37.7107 180.273 37.6778C180.239 37.6449 180.021 37.5993 179.789 37.5768C179.367 37.5355 179.367 37.5353 178.921 37.0695C178.33 36.453 177.929 35.9608 177.806 35.7016C177.751 35.5855 177.604 35.3926 177.48 35.2732C177.357 35.1537 177.256 35.0337 177.256 35.007C177.256 34.9339 176.885 34.4 176.765 34.301C176.708 34.2538 176.598 34.0999 176.52 33.9589C176.268 33.5027 176.235 33.4537 176.021 33.2345C175.81 33.0165 175.697 32.8483 175.566 32.558C175.528 32.4712 175.377 32.2713 175.232 32.1143C174.974 31.8357 174.968 31.8186 174.995 31.4448C175.019 31.1138 175.055 31.0283 175.252 30.8197C175.378 30.6867 175.55 30.4612 175.633 30.3187C175.717 30.1761 175.891 29.9284 176.021 29.7679C176.15 29.6075 176.361 29.3159 176.489 29.12C176.617 28.924 176.783 28.7081 176.858 28.6408C176.933 28.5731 177.073 28.3836 177.168 28.2196C177.263 28.0555 177.45 27.7899 177.583 27.6294C177.717 27.4687 177.888 27.2189 177.963 27.074C178.039 26.9291 178.191 26.7254 178.301 26.6207C178.412 26.5163 178.556 26.3263 178.622 26.1985C178.687 26.0707 178.89 25.7893 179.071 25.5734C179.251 25.3575 179.399 25.1644 179.399 25.1442C179.399 25.0947 179.689 24.688 180.065 24.2093C180.235 23.9934 180.374 23.7969 180.374 23.7726C180.374 23.7485 180.505 23.5829 180.666 23.4043C180.827 23.226 180.958 23.0448 180.958 23.002C180.958 22.959 181.04 22.8455 181.141 22.7499C181.302 22.5959 181.374 22.5757 181.761 22.5757C182.172 22.5757 182.212 22.5886 182.391 22.7846C182.496 22.8994 182.582 23.0248 182.582 23.0635C182.582 23.1018 182.687 23.234 182.816 23.3566C182.944 23.4794 183.107 23.7021 183.178 23.8514C183.249 24.0004 183.436 24.2629 183.593 24.4345C183.75 24.6058 183.879 24.7652 183.88 24.7883C183.882 24.8531 184.328 25.5039 184.495 25.6858C184.577 25.775 184.72 25.979 184.813 26.1394C184.906 26.2998 185.085 26.545 185.21 26.6847C185.336 26.8242 185.457 26.9991 185.48 27.0735C185.503 27.1479 185.627 27.3376 185.757 27.4952C185.988 27.7761 186.583 28.6089 187.15 29.4439C187.307 29.6757 187.513 29.9359 187.607 30.0222C187.702 30.1085 187.779 30.2153 187.779 30.2593C187.779 30.3034 187.889 30.4807 188.023 30.653C188.157 30.8256 188.396 31.1561 188.555 31.3878C188.828 31.7843 189.026 32.0583 189.728 33.0121C189.889 33.2303 190.122 33.56 190.247 33.7448C190.373 33.9293 190.609 34.2543 190.774 34.4674C190.938 34.6802 191.119 34.9419 191.174 35.0487C191.23 35.1555 191.366 35.3289 191.476 35.4333C191.586 35.538 191.677 35.6547 191.677 35.6925C191.677 35.7306 191.794 35.9152 191.937 36.1028C192.08 36.2907 192.196 36.4612 192.196 36.4815C192.196 36.5019 192.255 36.5927 192.326 36.6834C192.634 37.0742 192.388 37.6086 191.821 37.7789C191.411 37.9018 181.54 37.9072 181.344 37.7846C181.251 37.7268 181.173 37.7263 181.025 37.782C180.91 37.8253 180.814 37.8313 180.792 37.7968Z" fill="#D23E47" stroke="#100F0F" stroke-opacity="0.74"/>
<path d="M0.548578 36.6558C0.544431 36.3777 0.536915 30.5098 0.53225 23.6159L0.523438 11.0814L1.49795 10.3617C2.03394 9.96593 2.66219 9.5147 2.89442 9.35893C3.12664 9.20317 3.65303 8.8372 4.06383 8.54589C5.81641 7.30234 7.97123 5.78899 8.51343 5.42044C10.8722 3.81871 11.0319 3.71892 11.1197 3.79175C11.2151 3.87054 11.2423 3.86173 11.6316 3.62406C11.7744 3.53672 12.0813 3.37136 12.3135 3.25654C12.5458 3.14173 12.8744 2.95123 13.0439 2.83331C13.2131 2.71538 13.3886 2.6187 13.4334 2.61844C13.4785 2.61819 13.6032 2.56013 13.7102 2.48937C13.8175 2.41862 13.9518 2.36056 14.0088 2.3603C14.0658 2.36004 14.1589 2.30872 14.2159 2.24626C14.2727 2.18406 14.4601 2.0638 14.6319 1.97931C14.8037 1.89481 15.0525 1.77093 15.1847 1.7038C15.3169 1.63693 15.4633 1.58224 15.5105 1.58224C15.5574 1.58224 15.7052 1.52393 15.8384 1.45265C15.9716 1.38138 16.1258 1.32306 16.181 1.32306C16.2362 1.32306 16.3899 1.26915 16.5224 1.20358C16.8064 1.06259 17.4795 0.898009 18.157 0.803927C18.4232 0.766864 18.8179 0.690406 19.0338 0.633645C19.349 0.551226 19.7865 0.53101 21.2456 0.532824C22.2458 0.53412 23.2105 0.563667 23.3893 0.598915C23.5679 0.634164 23.8895 0.696107 24.1039 0.736798C24.3182 0.77749 24.6837 0.857058 24.9159 0.9133C25.1481 0.969542 25.4695 1.03667 25.6304 1.06259C25.9441 1.11339 26.1276 1.1774 26.6371 1.41455C26.8159 1.49775 27.1599 1.64237 27.4017 1.73594C27.6438 1.82976 27.9651 1.98579 28.1162 2.08298C28.2673 2.18017 28.5372 2.33568 28.716 2.42872C29.2639 2.71356 30.3299 3.55538 31.0699 4.28756C31.8145 5.02441 32.8328 6.25655 33.0111 6.63625C33.0697 6.76092 33.2161 7.00144 33.3364 7.17094C33.4569 7.34018 33.5554 7.49517 33.5554 7.51513C33.5554 7.56541 33.8615 8.23409 34.0279 8.5477C34.279 9.02019 34.3272 9.12826 34.433 9.45483C34.4908 9.63289 34.5755 9.94183 34.6211 10.1411C34.6668 10.3402 34.7284 10.5426 34.7582 10.5906C34.7881 10.6385 34.8492 10.8254 34.8946 11.0058C34.9397 11.1862 35.0211 11.4505 35.0752 11.5931C35.1294 11.7356 35.1755 12.0417 35.1776 12.2734C35.1797 12.5051 35.2237 12.8695 35.2756 13.0833C35.3367 13.3366 35.3697 13.822 35.3697 14.4764L35.3699 15.4808L33.5694 16.3697C32.5793 16.8588 30.2949 17.9886 28.4931 18.8807C26.6915 19.7725 25.1805 20.5024 25.1357 20.5024C25.0711 20.5024 25.0615 20.1113 25.0895 18.6394C25.1217 16.957 25.1113 16.6795 24.9835 15.7723C24.9058 15.22 24.7985 14.6221 24.7454 14.444C24.4846 13.5727 24.3151 13.102 24.1816 12.8768C24.101 12.741 23.9481 12.4859 23.8421 12.3105C23.6065 11.9207 22.5978 10.7831 22.4874 10.7831C22.4436 10.7831 22.307 10.6784 22.1839 10.5504C21.997 10.356 20.8955 9.74641 20.7312 9.74641C20.7037 9.74641 20.607 9.68809 20.5163 9.61682C20.4253 9.54554 20.2745 9.48697 20.1812 9.48645C20.0879 9.48593 19.8261 9.42762 19.5996 9.35686C19.0024 9.16999 17.3828 9.17051 16.7958 9.35764C16.5721 9.42891 16.3171 9.48723 16.229 9.48723C16.1408 9.48723 15.9913 9.52818 15.8964 9.57846C15.8016 9.62848 15.5486 9.7477 15.3343 9.84334C14.4937 10.2181 14.3494 10.2964 14.056 10.5356C13.8888 10.6717 13.732 10.7831 13.7077 10.7831C13.535 10.7831 12.3786 12.0088 12.3786 12.1915C12.3786 12.2255 12.3172 12.3089 12.2417 12.3768C12.0774 12.5251 11.8589 12.9356 11.8587 13.0968C11.8587 13.1608 11.8001 13.3083 11.7288 13.4252C11.6575 13.5418 11.5982 13.673 11.5972 13.7168C11.5959 13.7603 11.5233 13.942 11.4352 14.1201C11.3473 14.2981 11.275 14.5169 11.2742 14.606C11.2734 14.6952 11.2242 14.9284 11.1648 15.1244C11.0679 15.444 11.0555 16.095 11.0428 21.4095C11.035 24.6702 11.0249 27.6443 11.02 28.0186L11.0111 28.6989L10.5747 29.0229C8.67102 30.436 6.40371 32.2787 3.40008 34.8545C2.25631 35.8355 0.818125 37.0137 0.648103 37.1093C0.572423 37.1518 0.554798 37.0717 0.548578 36.6558Z" fill="#B93948" stroke="#100F0F" stroke-opacity="0.74"/>
<path d="M129.633 38.3899C129.633 38.357 129.988 37.3874 130.42 36.2356C130.853 35.0838 131.302 33.8789 131.417 33.558C132.339 30.9979 132.502 30.6487 132.995 30.1757C133.317 29.8673 133.383 29.8323 133.639 29.8323C133.796 29.8323 134.034 29.7859 134.166 29.7294C134.299 29.6727 134.54 29.5879 134.7 29.541C135.149 29.4101 135.559 29.2575 135.75 29.1509C135.844 29.0981 135.959 29.0548 136.003 29.0548C136.048 29.0548 136.24 28.9381 136.429 28.7956C136.618 28.6531 136.804 28.5364 136.842 28.5364C136.968 28.5364 138.314 27.1485 138.446 26.8841C138.517 26.7416 138.712 26.3572 138.878 26.0299C139.046 25.7025 139.182 25.3874 139.182 25.3291C139.182 25.271 139.238 25.0867 139.307 24.9198C139.376 24.7529 139.451 24.4287 139.474 24.1993C139.497 23.9699 139.56 23.6978 139.614 23.5946C139.694 23.4394 139.716 22.9228 139.742 20.6099C139.759 19.0717 139.782 17.5651 139.792 17.2621C139.803 16.9591 139.816 16.5348 139.822 16.3189L139.832 15.9265L140.311 15.8465C140.574 15.8024 141.385 15.5611 142.113 15.3102C142.841 15.0596 144.27 14.5775 145.288 14.2393C146.307 13.9008 147.826 13.3949 148.665 13.1147C149.504 12.8345 150.196 12.6106 150.202 12.6173C150.208 12.6238 150.231 14.8743 150.252 17.6185C150.323 26.8308 150.363 31.4076 150.389 33.2665C150.417 35.3562 150.3 37.0748 150.1 37.4781C149.883 37.9146 150.068 37.898 145.306 37.9128C140.598 37.9273 140.726 37.9366 140.398 37.5476C140.183 37.2928 140.122 36.613 140.182 35.1346C140.213 34.3804 140.205 34.0411 140.155 34.0106C139.999 33.9144 139.733 34.0751 139.068 34.6689C138.684 35.0112 138.297 35.337 138.208 35.3933C138.119 35.4495 137.922 35.6068 137.77 35.7427C137.619 35.8782 137.385 36.0394 137.251 36.1006C137.116 36.1617 136.912 36.2908 136.797 36.3875C136.616 36.5399 136.365 36.6739 135.61 37.0207C135.52 37.0616 135.286 37.1795 135.09 37.2824C134.894 37.3856 134.685 37.4719 134.628 37.474C134.57 37.4763 134.38 37.5336 134.205 37.6018C134.031 37.6697 133.669 37.7889 133.401 37.8666C133.133 37.9441 132.768 38.0519 132.589 38.1061C132.41 38.16 131.709 38.2588 131.03 38.3254C129.569 38.4687 129.633 38.4656 129.633 38.3899Z" fill="#F1952A" stroke="#100F0F" stroke-opacity="0.74"/>
<path d="M165.366 19.5152C165.366 19.4888 165.205 19.2358 165.008 18.9531C164.812 18.6701 164.651 18.4059 164.651 18.3663C164.651 18.3264 164.52 18.1535 164.359 17.9822C164.198 17.8106 164.067 17.6263 164.067 17.5724C164.067 17.5185 164.012 17.405 163.945 17.32C163.691 16.996 163.092 16.0886 163.092 16.0277C163.092 15.9927 162.976 15.839 162.835 15.6861C162.694 15.5332 162.549 15.3316 162.514 15.2375C162.436 15.0335 161.917 14.3259 161.345 13.6435C161.117 13.3711 160.885 13.0754 160.829 12.9862C160.773 12.8971 160.602 12.6871 160.448 12.5192C160.295 12.3515 160.169 12.1766 160.168 12.1304C160.167 12.0843 160.007 11.8585 159.811 11.6284C159.615 11.3985 159.454 11.1891 159.454 11.1632C159.454 11.137 159.284 10.9024 159.077 10.6417C158.869 10.381 158.622 10.0363 158.528 9.87556C158.433 9.71487 158.252 9.48316 158.126 9.36057C157.999 9.23824 157.895 9.10191 157.895 9.05759C157.895 9.01353 157.72 8.7572 157.506 8.48817C157.291 8.21914 157.116 7.97447 157.116 7.94441C157.116 7.9146 157.043 7.82156 156.953 7.73784C156.864 7.65413 156.791 7.55771 156.791 7.52376C156.791 7.48981 156.701 7.35633 156.591 7.22752C156.37 6.96989 155.904 6.32143 155.383 5.54803C155.198 5.27356 154.927 4.89982 154.782 4.71762C154.636 4.53542 154.517 4.35244 154.517 4.31123C154.517 4.26976 154.4 4.10959 154.258 3.95485C154.115 3.80012 153.998 3.64306 153.998 3.60574C153.998 3.56842 153.888 3.39684 153.754 3.22423C153.401 2.77144 153.153 2.37697 153.153 2.26785C153.153 2.21576 153.124 2.15511 153.088 2.13308C153.053 2.11105 153.023 1.96746 153.023 1.81403C153.023 1.47036 153.195 1.23269 153.52 1.12539C153.695 1.06785 155.248 1.04763 159.591 1.04556L165.426 1.04297L165.686 1.22284C165.829 1.32185 166.024 1.50872 166.12 1.63831C166.216 1.7679 166.419 2.00504 166.572 2.16548C166.724 2.32591 166.91 2.57524 166.984 2.7196C167.059 2.86397 167.224 3.08246 167.352 3.20557C167.48 3.32842 167.622 3.51658 167.668 3.62336C167.714 3.73015 167.917 4.01784 168.12 4.2625C168.322 4.50717 168.52 4.76972 168.559 4.84566C168.598 4.92186 168.736 5.11365 168.865 5.27227C169.154 5.62942 169.393 5.97827 169.393 6.04333C169.393 6.07054 169.498 6.19313 169.626 6.31572C169.755 6.43858 169.912 6.64151 169.977 6.7667C170.042 6.89188 170.222 7.15443 170.377 7.34985C170.533 7.54553 170.689 7.7521 170.725 7.80912C170.934 8.14242 171.166 8.46951 171.263 8.5667C171.324 8.62813 171.468 8.82407 171.584 9.00186C171.699 9.17966 171.896 9.43988 172.022 9.58009C172.148 9.72005 172.251 9.85742 172.251 9.88489C172.251 9.94113 172.558 10.4053 172.63 10.4579C172.656 10.4763 172.726 10.5645 172.787 10.6536C172.847 10.7428 172.985 10.9405 173.094 11.0932C173.202 11.2458 173.291 11.3933 173.291 11.4208C173.291 11.4483 173.397 11.5711 173.526 11.6937C173.655 11.8166 173.8 12.0078 173.847 12.1185C173.895 12.2292 174.082 12.4959 174.262 12.7112C174.442 12.9264 174.59 13.1316 174.59 13.1671C174.59 13.2029 174.745 13.432 174.934 13.6762C175.123 13.9203 175.383 14.2806 175.512 14.4765C175.64 14.6725 175.822 14.9145 175.915 15.0146C176.008 15.1144 176.084 15.2201 176.084 15.2497C176.084 15.2792 176.208 15.4666 176.36 15.6659C176.512 15.8655 176.703 16.1239 176.786 16.2405C176.868 16.3574 177.072 16.6383 177.24 16.8651C177.529 17.2554 177.654 17.4457 177.967 17.9754C178.041 18.1001 178.159 18.2898 178.229 18.3966C178.299 18.5034 178.389 18.6638 178.429 18.753C178.729 19.4235 178.741 19.5033 178.553 19.5629C178.371 19.6205 165.366 19.5736 165.366 19.5152Z" fill="#7A2E40" stroke="#100F0F" stroke-opacity="0.74"/>
<path d="M25.6751 37.8152C25.3654 37.7141 25.2545 37.6276 25.1783 37.4283C25.0782 37.1652 25.0122 29.2592 25.0497 21.9915L25.057 20.5336L25.4294 20.3753C25.6342 20.2884 26.8689 19.6877 28.1729 19.0405C34.1682 16.0651 35.3337 15.5014 35.3827 15.5535C35.4118 15.5841 35.4566 18.2044 35.4825 21.3759C35.5084 24.5478 35.5367 27.9008 35.5455 28.8274C35.5937 33.9475 35.5748 36.8031 35.4905 37.1149C35.3806 37.5223 35.1912 37.7367 34.9416 37.7367C34.8361 37.7367 34.6464 37.7797 34.5204 37.8323C34.3247 37.9137 33.6721 37.9259 30.1107 37.9132C26.9109 37.902 25.8708 37.879 25.6751 37.8152Z" fill="#F1952A" stroke="#100F0F" stroke-opacity="0.74"/>
<path d="M127.73 38.453C127.382 38.4243 127.051 38.3828 126.993 38.3608C126.936 38.3387 126.577 38.2934 126.196 38.2597C125.815 38.2265 125.395 38.1537 125.262 38.098C125.13 38.0425 124.954 37.9961 124.872 37.9951C124.791 37.9938 124.607 37.9365 124.465 37.8675C124.322 37.7986 124.145 37.7413 124.072 37.74C124 37.739 123.774 37.6796 123.571 37.6084C123.367 37.5371 123.154 37.4788 123.096 37.4788C123.038 37.4788 122.913 37.4277 122.818 37.3652C122.488 37.1486 122.383 37.0905 121.923 36.8687C121.668 36.7458 121.376 36.5675 121.273 36.4724C121.171 36.3773 120.999 36.2549 120.892 36.2008C120.377 35.94 119.037 34.6646 118.368 33.8C117.44 32.5997 116.637 31.2787 116.637 30.9542C116.637 30.9008 116.593 30.78 116.54 30.6851C116.371 30.3832 116.117 29.63 116.114 29.4204C116.113 29.3086 116.069 29.1008 116.017 28.9582C115.965 28.8157 115.905 28.4803 115.884 28.2131C115.863 27.9459 115.804 27.6152 115.753 27.4786C115.647 27.1976 115.521 25.2548 115.541 24.2158L115.554 23.5556L115.81 23.5123C115.951 23.4888 116.45 23.3402 116.92 23.1824C117.389 23.0246 118.668 22.6205 119.761 22.2846C120.855 21.9487 122.691 21.3666 123.842 20.991C124.994 20.6155 125.975 20.3081 126.022 20.3081C126.09 20.3081 126.114 20.6798 126.14 22.1384C126.159 23.178 126.204 24.081 126.245 24.2282C126.284 24.3707 126.359 24.6478 126.409 24.8438C126.618 25.6521 126.663 25.7962 126.791 26.0749C126.865 26.2353 127.036 26.5269 127.172 26.7228C127.308 26.9187 127.42 27.1186 127.42 27.1665C127.42 27.2733 128.676 28.5371 128.782 28.5371C128.824 28.5371 128.997 28.6537 129.167 28.7962C129.336 28.9388 129.51 29.0554 129.554 29.0554C129.598 29.0554 129.749 29.1137 129.889 29.185C130.029 29.2563 130.196 29.3156 130.26 29.3167C130.324 29.318 130.493 29.3753 130.636 29.4442C130.779 29.5131 130.948 29.5704 131.012 29.5717C131.076 29.5727 131.236 29.628 131.369 29.6943C131.653 29.8363 132.29 29.9289 132.864 29.9115L133.274 29.8991L132.952 30.2119C132.49 30.661 132.356 30.9544 131.353 33.7207C131.029 34.6141 129.612 38.4095 129.591 38.4393C129.554 38.4911 128.302 38.5002 127.73 38.453Z" fill="#EE7A30" stroke="#100F0F" stroke-opacity="0.74"/>
<path d="M181.509 16.3945C181.365 16.3072 181.151 16.1014 181.032 15.9371C180.914 15.7728 180.732 15.5755 180.628 15.4988C180.524 15.4218 180.439 15.3218 180.439 15.2762C180.439 15.2305 180.311 15.0496 180.154 14.8742C179.998 14.6985 179.764 14.395 179.634 14.1995C179.503 14.0041 179.287 13.7169 179.153 13.5609C179.018 13.4051 178.875 13.2035 178.836 13.1128C178.797 13.0223 178.615 12.7849 178.432 12.5854C178.25 12.3858 178.1 12.188 178.1 12.1455C178.1 12.103 177.932 11.8591 177.727 11.6036C177.521 11.3483 177.324 11.0927 177.288 11.0357C177.068 10.6853 176.865 10.4108 176.745 10.3038C176.669 10.2362 176.529 10.0477 176.433 9.88497C176.338 9.72246 176.147 9.47287 176.011 9.33084C175.873 9.18855 175.761 9.03848 175.761 8.99753C175.761 8.95632 175.657 8.78656 175.53 8.62043C175.286 8.30163 175.047 7.705 175.047 7.41524C175.047 7.15632 175.238 6.55658 175.368 6.40936C175.431 6.33809 175.501 6.23597 175.525 6.18258C175.594 6.02707 175.776 5.764 176.026 5.46025C176.153 5.30526 176.496 4.87217 176.787 4.49791C177.078 4.12366 177.456 3.64754 177.627 3.43994C177.798 3.23208 177.987 2.97264 178.048 2.86352C178.108 2.75415 178.243 2.57428 178.346 2.46361C178.45 2.35294 178.627 2.13082 178.739 1.97013C178.852 1.80944 179.112 1.54741 179.316 1.38827C179.648 1.12987 179.733 1.09488 180.112 1.06352C180.468 1.03397 186.987 1.02957 190.952 1.05626L192.079 1.06378L192.305 1.28952C192.502 1.4852 192.526 1.54326 192.489 1.72676C192.465 1.84339 192.361 2.05514 192.257 2.19769C192.154 2.34024 191.977 2.6173 191.864 2.81324C191.751 3.00918 191.553 3.30102 191.424 3.46145C191.181 3.76365 191.103 3.87977 190.923 4.20167C190.864 4.30612 190.71 4.52798 190.581 4.69489C190.451 4.8618 190.265 5.12616 190.168 5.28271C190.071 5.43899 189.861 5.74197 189.702 5.9558C189.542 6.16962 189.41 6.37204 189.407 6.40522C189.405 6.43891 189.276 6.62837 189.121 6.82638C188.966 7.02466 188.737 7.34734 188.611 7.54327C188.485 7.73921 188.32 7.95511 188.243 8.02302C188.167 8.09092 188.104 8.18345 188.104 8.22855C188.104 8.2739 188.031 8.39753 187.941 8.50328C187.852 8.60928 187.779 8.71762 187.779 8.74406C187.779 8.77075 187.618 8.98846 187.422 9.22794C187.225 9.46743 187.064 9.69421 187.064 9.73153C187.064 9.76885 186.94 9.9552 186.788 10.1454C186.502 10.5041 186.398 10.6597 186.295 10.8802C186.262 10.9515 186.173 11.0653 186.098 11.1332C186.022 11.2011 185.96 11.2806 185.96 11.3102C185.96 11.3395 185.843 11.5173 185.7 11.7052C185.558 11.8928 185.441 12.0794 185.441 12.1196C185.441 12.1598 185.399 12.2269 185.348 12.2689C185.298 12.3106 185.116 12.5548 184.945 12.8114C184.774 13.0677 184.528 13.4088 184.399 13.5692C184.27 13.7296 184.095 13.9774 184.01 14.12C183.925 14.2625 183.7 14.572 183.511 14.8076C183.322 15.0432 183.167 15.2562 183.167 15.2811C183.167 15.3329 182.707 15.935 182.42 16.2595C182.152 16.5617 181.856 16.6055 181.509 16.3945Z" fill="#7A2E40" stroke="#100F0F" stroke-opacity="0.74"/>
<path d="M56.5819 38.5757C54.7259 38.4479 52.7852 38.0929 51.4175 37.6307C51.2568 37.5763 50.9836 37.5066 50.8107 37.4755C50.6376 37.4444 50.4624 37.392 50.4209 37.3591C50.3795 37.3262 50.2727 37.2772 50.1833 37.25C50.0941 37.2231 49.9513 37.1463 49.866 37.08C49.7808 37.0136 49.6602 36.9595 49.5978 36.9595C49.4174 36.9595 48.749 36.6319 48.791 36.564C48.8773 36.4245 50.4689 35.6965 53.1568 34.567C56.6143 33.114 58.9016 31.9814 61.0556 30.6554C61.2653 30.5264 61.5652 30.4014 61.7222 30.3781C61.879 30.3548 62.0776 30.2807 62.1631 30.2133C62.2486 30.1461 62.3435 30.0912 62.3735 30.0909C62.4388 30.0907 63.0287 29.7963 63.134 29.7115C63.1744 29.6786 63.4854 29.515 63.8249 29.3479C64.1642 29.1807 64.4858 29.0174 64.5395 28.985C64.5929 28.9526 64.7391 28.8668 64.8643 28.794C64.9892 28.7214 65.1792 28.6053 65.2865 28.5361C65.3935 28.4669 65.5902 28.3508 65.7232 28.2785C65.8561 28.2059 66.0606 28.0665 66.1778 27.9688C66.451 27.7407 66.7959 27.4994 66.8488 27.4994C66.8713 27.4994 67.0699 27.3356 67.2899 27.1355C67.51 26.9354 67.807 26.6959 67.9498 26.6034C68.0926 26.5109 68.3331 26.3248 68.4842 26.1898C68.908 25.8111 69.1376 25.8383 69.7806 26.3427C70.0598 26.562 70.4929 26.931 70.743 27.163C70.9931 27.3947 71.378 27.7477 71.5985 27.947C72.5015 28.7637 73.9384 30.2047 74.0838 30.4395L74.239 30.6907L74.1152 30.9255C73.9353 31.2658 73.0569 32.2727 72.2695 33.0417C71.5241 33.7695 70.5234 34.6237 70.4141 34.6256C70.3762 34.6263 70.2601 34.7155 70.1559 34.8238C70.0517 34.9322 69.7876 35.1206 69.5691 35.2427C69.3504 35.3647 69.134 35.5094 69.0886 35.564C69.043 35.6187 68.9806 35.6636 68.95 35.6636C68.9194 35.6636 68.74 35.7615 68.5519 35.8813C68.3637 36.0013 68.1382 36.1215 68.0509 36.149C67.9635 36.1762 67.7518 36.297 67.5805 36.4173C67.272 36.6334 66.96 36.7721 66.4556 36.9172C66.3128 36.9582 66.1236 37.0429 66.0352 37.1051C65.9469 37.1676 65.8294 37.2187 65.7745 37.2187C65.7193 37.2187 65.5651 37.277 65.4319 37.3482C65.2986 37.4195 65.1297 37.4778 65.0568 37.4778C64.9837 37.4778 64.8155 37.532 64.6831 37.5983C64.5504 37.6644 64.3215 37.7373 64.1746 37.7598C64.0274 37.7821 63.8226 37.8443 63.7197 37.898C63.6168 37.9516 63.4512 37.9957 63.3519 37.9959C63.2524 37.9959 63.0658 38.04 62.937 38.0936C62.8082 38.1473 62.4365 38.2209 62.111 38.2569C61.7852 38.2932 61.3433 38.3541 61.129 38.3925C60.2288 38.5532 57.722 38.6542 56.5819 38.5757Z" fill="#EA613A" stroke="#100F0F" stroke-opacity="0.74"/>
<path d="M75.4588 37.8545C75.1908 37.8294 74.8547 37.784 74.7119 37.7539C74.4581 37.7005 74.4517 37.692 74.4325 37.4002C74.419 37.1925 74.4537 37.0246 74.5463 36.8528C74.6194 36.7164 74.6795 36.5684 74.6795 36.5241C74.6795 36.4207 75.0374 35.8681 75.4202 35.3801C75.5843 35.1709 75.7188 34.9631 75.7188 34.918C75.7188 34.8091 76.2128 34.3675 76.3346 34.3675C76.3872 34.3675 76.4805 34.291 76.5419 34.1977C76.6474 34.0368 76.6474 34.0233 76.5394 33.9448C76.4352 33.8686 76.4479 33.8434 76.692 33.648C76.9426 33.4469 77.0494 33.3043 77.2078 32.9581C77.2446 32.878 77.3306 32.8124 77.3988 32.8124C77.4672 32.8124 77.5867 32.7614 77.6642 32.6986C77.7777 32.6069 77.7935 32.554 77.7461 32.4257C77.681 32.2508 77.8731 31.8664 78.2785 31.3592C78.3946 31.214 78.6162 30.8914 78.7712 30.6418C78.9261 30.3922 79.1651 30.0553 79.3022 29.8925C79.4391 29.73 79.5513 29.5631 79.5513 29.5221C79.5513 29.4809 79.6754 29.3052 79.8273 29.1315C79.9792 28.9579 80.1837 28.687 80.2819 28.53C80.3799 28.3729 80.5789 28.0839 80.7238 27.888C80.869 27.6921 81.0942 27.3712 81.2248 27.1752C81.3552 26.9793 81.5581 26.6991 81.6758 26.553C81.7935 26.4068 81.8899 26.2578 81.8899 26.2217C81.8899 26.1857 81.9808 26.0429 82.092 25.9045C82.2849 25.6637 82.4238 25.4649 83.2189 24.2919C83.412 24.0068 83.6541 23.6714 83.7567 23.5467C83.8594 23.4221 84.0512 23.1595 84.1833 22.9636C84.6628 22.2521 85.3056 21.3582 85.5438 21.0721C85.6778 20.9114 85.7874 20.7489 85.7874 20.7113C85.7874 20.6737 85.9126 20.4871 86.0655 20.2966C86.2184 20.1064 86.3947 19.8705 86.4569 19.7726L86.5699 19.5942H93.1943C96.8378 19.5942 99.8186 19.6093 99.8186 19.6277C99.8186 19.6458 99.7849 19.7259 99.7435 19.8057C99.7023 19.8856 99.6382 20.0089 99.6014 20.0802C99.5644 20.1515 99.469 20.3433 99.3894 20.5063C99.3099 20.6696 99.1753 20.8881 99.0906 20.9923C99.0058 21.0964 98.9001 21.2545 98.8555 21.3437C98.7197 21.6145 98.6259 21.7599 98.4147 22.0272C98.3035 22.1679 98.1573 22.3817 98.0899 22.502C97.8102 23.0009 97.7644 23.0698 97.5874 23.2554C97.4855 23.3622 97.3266 23.5807 97.2344 23.7411C97.1421 23.9015 96.9625 24.1527 96.835 24.2994C96.7074 24.4461 96.5302 24.692 96.4407 24.846C96.3516 25.0002 96.1476 25.2884 95.9874 25.4867C95.8275 25.685 95.651 25.9346 95.5953 26.0413C95.5396 26.1481 95.3913 26.3461 95.2661 26.4812C95.141 26.6165 94.9823 26.8352 94.9139 26.9671C94.8452 27.0996 94.6638 27.345 94.5106 27.5127C94.3575 27.6804 94.2323 27.8455 94.2323 27.8794C94.2323 27.9134 94.1094 28.0961 93.9591 28.2856C93.809 28.475 93.5532 28.8223 93.3907 29.0572C93.2285 29.2922 92.9638 29.6634 92.8032 29.8821C92.2026 30.6991 91.9865 31.0007 91.6195 31.5349C91.5023 31.7055 91.2823 32.0079 91.1304 32.207C90.9785 32.406 90.8544 32.5983 90.8544 32.6349C90.8544 32.6709 90.7372 32.8272 90.5944 32.9819C90.4516 33.1366 90.3347 33.2919 90.3347 33.3271C90.3347 33.3624 90.1007 33.7011 89.8148 34.0798C89.5292 34.4585 89.2952 34.7933 89.2952 34.8234C89.2952 34.8535 89.149 35.0447 88.9704 35.2484C88.7918 35.4522 88.6457 35.6411 88.6457 35.6683C88.6457 35.6955 88.4997 35.8876 88.3214 36.0954C88.1431 36.3033 87.9969 36.5026 87.9964 36.5381C87.9959 36.5736 87.7691 36.8419 87.4923 37.134C87.146 37.4994 86.9286 37.6764 86.7943 37.7018C86.687 37.7223 86.4825 37.7734 86.3397 37.8156C86.0471 37.9017 76.3268 37.9367 75.4588 37.8545Z" fill="#EE7A30" stroke="#100F0F" stroke-opacity="0.74"/>
<path d="M86.5647 19.5084C86.5647 19.4604 86.5062 19.3684 86.4346 19.3039C86.3634 19.2393 86.3048 19.1577 86.3048 19.1227C86.3048 19.0877 86.2003 18.9389 86.0723 18.7925C85.9445 18.6461 85.7421 18.3804 85.6226 18.2023C85.5029 18.0243 85.1763 17.5471 84.8967 17.142C84.6173 16.7369 84.2863 16.2401 84.1611 16.0377C84.0362 15.8355 83.8291 15.5401 83.7011 15.3812C83.573 15.222 83.4001 14.9756 83.3167 14.833C83.2332 14.6905 83.0718 14.4572 82.958 14.3147C82.8439 14.1721 82.6592 13.893 82.5469 13.6947C82.435 13.4962 82.2681 13.2632 82.176 13.1771C82.0843 13.0911 81.9666 12.9327 81.9145 12.8254C81.8627 12.7178 81.6642 12.4226 81.4731 12.1694C81.2824 11.9159 81.0709 11.6106 81.0035 11.4911C80.9359 11.3714 80.7565 11.1184 80.6046 10.9287C80.4528 10.739 80.3286 10.5529 80.3286 10.5148C80.3286 10.4767 80.2374 10.3308 80.1262 10.1908C79.8424 9.83317 79.3541 9.09995 79.3541 9.03101C79.3541 8.99939 79.2227 8.82574 79.0617 8.64509C78.901 8.46444 78.7696 8.27965 78.7696 8.23403C78.7696 8.18868 78.6364 7.99585 78.4737 7.80561C78.3111 7.61563 78.1232 7.35308 78.0564 7.22219C77.9893 7.09131 77.8884 6.94617 77.8324 6.89952C77.7762 6.85312 77.7301 6.78133 77.7301 6.74012C77.7301 6.69891 77.6474 6.57476 77.546 6.46409C77.4447 6.35342 77.2791 6.12094 77.178 5.94755C77.0767 5.77416 76.9017 5.51549 76.789 5.37295C76.591 5.12258 76.0213 4.28776 75.619 3.65821C75.5117 3.49052 75.328 3.22434 75.2108 3.06702C75.0934 2.9097 74.8485 2.55333 74.6663 2.27497C74.2752 1.67756 74.2874 1.57622 74.7855 1.28879L75.0994 1.10762L77.3405 1.06693C79.7651 1.02339 86.4465 1.04309 86.6681 1.09466C86.8405 1.13484 87.5494 1.94607 88.2212 2.87238C88.507 3.26633 88.8797 3.76785 89.0492 3.98685C89.219 4.20586 89.3579 4.41372 89.3579 4.44897C89.3579 4.48396 89.4699 4.64802 89.6067 4.81312C89.7438 4.97847 90.051 5.40534 90.2894 5.76172C90.5279 6.11809 90.7886 6.49701 90.8687 6.60353C90.9488 6.71031 91.2595 7.13304 91.5594 7.54306C91.859 7.95334 92.2317 8.45408 92.3875 8.65572C92.5432 8.85762 92.6708 9.04604 92.6708 9.07429C92.6708 9.10254 92.7713 9.22876 92.8944 9.35524C93.0173 9.48147 93.1629 9.67222 93.2181 9.779C93.2731 9.88579 93.4517 10.1483 93.6147 10.3622C94.2862 11.2429 94.9466 12.1544 95.0342 12.3218C95.0855 12.42 95.218 12.5862 95.3284 12.6906C95.4388 12.7953 95.529 12.9164 95.529 12.9594C95.529 13.0024 95.763 13.3355 96.0486 13.6991C96.3345 14.0627 96.5683 14.3867 96.5683 14.4183C96.5683 14.4502 96.6668 14.5858 96.7873 14.7195C96.9076 14.8532 97.1087 15.123 97.2341 15.319C97.3596 15.5149 97.5275 15.7337 97.6068 15.8049C97.6864 15.8762 97.8072 16.0366 97.8751 16.1613C98.0684 16.5156 98.142 16.6258 98.4015 16.9484C98.5347 17.1143 98.7156 17.3844 98.8035 17.5492C98.8911 17.7138 99.0481 17.9572 99.1521 18.0901C99.3462 18.3382 99.6865 19.0284 99.8814 19.506C99.8814 19.5814 98.8351 19.5954 93.2231 19.5954C87.6888 19.5954 86.5647 19.5807 86.5647 19.5084Z" fill="#9B3446" stroke="#100F0F" stroke-opacity="0.74"/>
<path d="M39.4887 13.3915C39.602 13.0326 39.749 12.6819 39.822 12.5969C39.8682 12.5435 39.9252 12.4121 39.949 12.3053C40.0151 12.0098 40.4477 11.1012 40.6146 10.907C40.6631 10.8508 40.7027 10.7689 40.7027 10.7248C40.7027 10.6212 40.985 10.0528 41.2208 9.68111C41.3227 9.52068 41.4847 9.23428 41.5811 9.04482C41.6773 8.85536 41.9281 8.48396 42.1389 8.21959C42.3493 7.95549 42.5217 7.71497 42.5217 7.68542C42.5217 7.61233 43.2469 6.79514 43.937 6.09043C44.6418 5.37095 45.8112 4.31531 46.1764 4.06935C46.3277 3.96723 46.5851 3.77414 46.7481 3.63989C46.9111 3.50589 47.0819 3.396 47.1275 3.396C47.1732 3.396 47.3758 3.28584 47.578 3.15133C48.0982 2.80481 48.156 2.77215 48.6277 2.55522C48.8599 2.44843 49.0937 2.33129 49.1473 2.29474C49.201 2.25846 49.3034 2.20325 49.3746 2.17189C49.7536 2.00576 49.8378 1.96662 49.9269 1.91556C50.0861 1.82407 50.6516 1.64083 50.9797 1.57422C51.1479 1.54001 51.3672 1.46951 51.467 1.41768C51.5668 1.36584 51.7005 1.32308 51.764 1.32308C51.8278 1.32282 51.9885 1.27565 52.1214 1.21837C52.348 1.12066 52.9078 1.02683 54.2143 0.867697C54.5178 0.830634 54.9563 0.757804 55.1886 0.705968C56.2955 0.459488 58.9967 0.427351 60.1905 0.646876C60.4942 0.7026 60.9766 0.775947 61.2624 0.809381C61.5481 0.843075 61.8697 0.902427 61.977 0.941045C62.084 0.979662 62.3471 1.03487 62.5614 1.0639C62.9518 1.11651 63.346 1.23081 63.8931 1.45007C64.0541 1.51435 64.4047 1.63124 64.6727 1.70951C65.2351 1.87383 65.4555 1.96429 66.2159 2.34321C66.5199 2.49457 66.7983 2.61846 66.8345 2.61846C66.8708 2.61846 67.0642 2.72783 67.2643 2.86131C67.4646 2.99479 67.6867 3.13552 67.7583 3.17388C68.0895 3.35142 68.2336 3.44446 68.5052 3.65699C68.6662 3.78269 68.8836 3.92861 68.9889 3.98097C69.0941 4.03358 69.3424 4.22356 69.5409 4.40343C69.7394 4.58356 69.9895 4.79712 70.0968 4.87825C70.6131 5.26987 71.9349 6.64974 72.4028 7.28603C72.528 7.45605 72.7602 7.74711 72.9191 7.9332L73.2078 8.27143L73.0165 8.23281C72.754 8.17968 70.6909 7.95393 69.5445 7.85259C68.2629 7.73959 62.3261 7.73985 61.0025 7.85285C58.9563 8.0278 56.3124 8.38443 55.1562 8.64154C55.0134 8.67342 54.5748 8.76335 54.1816 8.84137C51.0336 9.46625 46.8238 10.724 43.6258 11.9948C42.8578 12.3001 41.937 12.6441 41.5795 12.7594C41.2224 12.875 40.5978 13.0901 40.1914 13.2376C39.5725 13.4623 39.4587 13.4872 39.4887 13.3915Z" fill="#7A2E40" stroke="#100F0F" stroke-opacity="0.74"/>
<path d="M48.4639 36.4035C48.3566 36.314 48.1812 36.199 48.0741 36.1479C47.8424 36.0375 47.7333 35.9686 47.2834 35.6477C47.096 35.514 46.9234 35.4046 46.8995 35.4046C46.8759 35.4046 46.575 35.1928 46.2311 34.9342C45.8869 34.6752 45.5326 34.4163 45.4432 34.3585C45.1083 34.1416 43.4252 32.4681 43.0735 32.0015C42.8721 31.7351 42.6816 31.5169 42.6497 31.5169C42.5958 31.5169 42.5126 31.3886 42.3138 30.9985C42.2685 30.9094 42.1062 30.6808 41.9533 30.4905C41.8007 30.3 41.6755 30.1163 41.6755 30.0823C41.6755 30.0292 41.4596 29.6565 41.1716 29.213C41.1268 29.1438 40.9861 28.8831 40.8588 28.6335C40.7318 28.3839 40.5405 28.0374 40.4338 27.863C40.2479 27.56 40.1284 27.2824 39.9698 26.7869C39.9299 26.6622 39.8444 26.4828 39.7796 26.3882C39.7148 26.2934 39.6619 26.176 39.6619 26.127C39.6619 26.0783 39.6171 25.9743 39.5621 25.8963C39.5074 25.8183 39.3898 25.4837 39.3009 25.153C39.2117 24.822 39.0964 24.4179 39.0443 24.2549C38.9925 24.0919 38.9227 23.7666 38.8896 23.5326C38.8561 23.2986 38.7919 23.0381 38.7465 22.9544C38.7011 22.8704 38.6431 22.4666 38.6174 22.0568C38.5918 21.6471 38.5358 21.1121 38.493 20.868C38.3385 19.9839 38.5298 16.7382 38.7797 16.0034C38.8362 15.8378 38.8823 15.6294 38.8823 15.5405C38.8823 15.4516 38.9292 15.2705 38.9868 15.138C39.0443 15.0053 39.1283 14.693 39.1736 14.4434C39.2187 14.1938 39.3105 13.8768 39.3776 13.739C39.4945 13.4984 39.5352 13.4751 40.3765 13.1703C40.8588 12.9954 41.414 12.8057 41.6107 12.7489C41.8071 12.6919 42.6549 12.3741 43.4944 12.0426C46.8697 10.7094 50.9951 9.47364 54.1801 8.84124C54.5733 8.76323 55.0118 8.67329 55.1547 8.64141C55.7826 8.50197 57.848 8.18318 58.8897 8.065C61.2127 7.80167 61.9081 7.76953 65.2883 7.76953C68.6592 7.76953 69.2128 7.79519 71.6543 8.06474C73.0095 8.21454 73.1809 8.24383 73.1809 8.32677C73.1809 8.36046 73.2926 8.5113 73.4289 8.66189C73.5652 8.81247 73.7581 9.07709 73.8573 9.24997C73.9569 9.42258 74.1523 9.72634 74.2917 9.92487C74.4309 10.1231 74.5449 10.3129 74.5449 10.346C74.5449 10.3795 74.5864 10.4984 74.6372 10.6107C74.8697 11.1264 74.9998 11.453 74.9998 11.5222C74.9998 11.5637 75.0589 11.713 75.1312 11.8542C75.2035 11.9955 75.2794 12.2274 75.2997 12.37C75.3199 12.5125 75.3922 12.7968 75.4604 13.0021C75.5285 13.2071 75.5845 13.4256 75.5848 13.4881C75.585 13.55 75.6291 13.6851 75.6827 13.7879C75.7366 13.8906 75.7988 14.0946 75.8214 14.2415C75.8439 14.3882 75.9023 14.5873 75.951 14.6837C76.2008 15.1779 76.3779 17.4945 76.3514 19.9186C76.3286 22.0275 76.3131 22.098 75.8237 22.3196C75.5594 22.4394 75.1716 22.4427 61.9579 22.444L48.3636 22.4456L48.2908 22.6047C48.2141 22.7729 48.2965 23.2097 48.4688 23.5471C48.5427 23.692 48.6897 24.0108 49.0473 24.8044C49.433 25.6592 51.2797 27.7816 52.1666 28.3888C52.3094 28.4868 52.5579 28.6739 52.7186 28.8051C52.8793 28.936 53.1426 29.1088 53.3033 29.1889C53.464 29.2693 53.654 29.3838 53.7255 29.4437C53.8665 29.5619 54.9885 30.0541 55.2521 30.1134C55.3415 30.1334 55.6777 30.2409 55.9991 30.3521C56.4329 30.5025 56.7846 30.5714 57.3634 30.6204C58.1176 30.6839 60.5287 30.6507 60.9761 30.5706C61.192 30.532 61.1902 30.5351 60.8636 30.7606C60.3357 31.1253 58.3617 32.2097 57.2983 32.7195C56.0488 33.3182 54.7322 33.906 53.1587 34.5672C51.1905 35.3942 49.8752 35.9758 49.2723 36.2855C48.9667 36.4426 48.7037 36.5699 48.6876 36.5686C48.6718 36.5673 48.571 36.4931 48.4639 36.4035ZM66.3473 15.6009C66.5674 15.4599 66.5884 15.3407 66.464 14.9366C66.1693 13.9797 65.9658 13.5327 65.737 13.3388C65.6926 13.3015 65.6175 13.1773 65.5698 13.0628C65.3943 12.6413 63.9865 11.1181 63.2017 10.5008C62.6434 10.0615 61.4048 9.3215 61.1083 9.24997C61.0137 9.22716 60.8338 9.15744 60.7086 9.09524C60.1928 8.83787 59.8507 8.70906 59.6838 8.70906C59.5864 8.70906 59.2777 8.66526 58.9978 8.61187C58.3275 8.48383 56.7369 8.48461 56.1289 8.6129C55.8791 8.66577 55.5665 8.70906 55.4348 8.70906C55.3032 8.70906 55.1132 8.74042 55.0126 8.77878C54.9121 8.81688 54.713 8.87364 54.5699 8.90474C53.6924 9.09549 53.6675 9.10664 53.2865 9.4783C53.0807 9.67891 52.7616 9.92358 52.5774 10.0221C52.1842 10.2323 51.8353 10.5246 50.9741 11.3657C50.2543 12.0683 49.8573 12.5177 49.7279 12.7748C49.6787 12.873 49.5478 13.0698 49.4371 13.2123C49.3262 13.3549 49.0971 13.7631 48.9279 14.1194C48.7589 14.4758 48.578 14.8501 48.5259 14.9509C48.3323 15.3262 48.4709 15.6136 48.8866 15.6984C48.9971 15.7209 52.9371 15.7297 57.6425 15.7181C65.06 15.6997 66.2177 15.6841 66.3473 15.6009Z" fill="#D23E47" stroke="#100F0F" stroke-opacity="0.74"/>
<path d="M149.754 12.2033C149.552 12.1735 149.011 12.0623 148.553 11.9558C146.536 11.488 144.538 11.1562 141.816 10.8374C140.802 10.7187 139.97 10.592 139.928 10.5495C139.83 10.4515 139.719 6.90359 139.736 4.40043C139.746 2.98686 139.77 2.52164 139.846 2.2946C139.899 2.13416 139.961 1.88457 139.982 1.73995C140.003 1.59533 140.067 1.38384 140.123 1.27032L140.227 1.06349L141.732 1.05546C142.56 1.05105 144.726 1.05053 146.544 1.05416C150.253 1.06142 150.092 1.04042 150.226 1.53313C150.282 1.73658 150.292 3.0019 150.262 6.37668C150.241 8.88917 150.223 11.2436 150.222 11.609C150.222 11.9742 150.199 12.2694 150.173 12.265C150.146 12.2608 149.958 12.2328 149.754 12.2033Z" fill="#7A2E40" stroke="#100F0F" stroke-opacity="0.74"/>
<path d="M1.31406 37.7867C0.991127 37.7496 0.819809 37.6949 0.713286 37.5952C0.479506 37.3762 0.524862 37.2175 0.905338 36.9208C1.66551 36.3283 2.46975 35.6643 3.47848 34.7965C6.23252 32.4266 8.2238 30.8036 10.3729 29.1765C10.6767 28.9463 10.955 28.74 10.9916 28.7172C11.0369 28.6895 11.0533 30.0388 11.0432 32.9242L11.0281 37.1719L10.8602 37.4249C10.7682 37.5638 10.6134 37.7102 10.5165 37.7499C10.3068 37.8362 2.03173 37.8694 1.31406 37.7867Z" fill="#F2852F" stroke="#100F0F" stroke-opacity="0.74"/>
<path d="M76.75 33.5636C76.75 33.4765 77.152 32.9332 77.1888 32.97C77.209 32.9903 77.1771 33.06 77.1178 33.1256C77.0584 33.1909 77.0097 33.2741 77.0097 33.3101C77.0097 33.3464 76.9514 33.4288 76.8799 33.4933C76.8083 33.5579 76.75 33.5895 76.75 33.5636Z" fill="#F2852F" stroke="#100F0F" stroke-opacity="0.74"/>
<path d="M76.2464 34.2345C76.3317 33.9904 76.4771 33.8706 76.5725 33.9657C76.6658 34.0585 76.4913 34.3369 76.3104 34.3841C76.1954 34.4141 76.1889 34.3991 76.2464 34.2345Z" fill="#F2852F" stroke="#100F0F" stroke-opacity="0.74"/>
<path d="M102.457 16.3064C102.227 16.1315 101.932 15.7899 101.386 15.0668C101.235 14.8664 100.935 14.4807 100.72 14.2096C100.505 13.9385 100.329 13.6895 100.329 13.6563C100.329 13.6229 100.195 13.4658 100.032 13.3069C99.868 13.1478 99.6887 12.9303 99.6332 12.8235C99.578 12.7168 99.4121 12.4959 99.2649 12.3327C98.9917 12.0302 98.5115 11.3999 98.1411 10.8582C98.0276 10.6918 97.843 10.4482 97.7311 10.3165C97.6191 10.1848 97.4457 9.91763 97.3457 9.72272C97.2459 9.52782 97.0577 9.23883 96.9279 9.08047C96.7978 8.92237 96.6912 8.75209 96.691 8.70233C96.6907 8.65257 96.643 8.52427 96.585 8.41749C96.5267 8.30993 96.4655 8.00436 96.4479 7.73403C96.422 7.32919 96.4401 7.19313 96.5539 6.9438C96.6296 6.77818 96.6915 6.61697 96.6915 6.58587C96.6915 6.55425 96.8157 6.36505 96.9675 6.16496C97.1194 5.96513 97.3459 5.65204 97.4709 5.46958C97.596 5.28686 97.8226 4.9831 97.9744 4.79468C98.1263 4.60599 98.2505 4.40953 98.2505 4.3577C98.2505 4.30586 98.3541 4.16331 98.4809 4.04098C98.6074 3.91839 98.7883 3.68668 98.8829 3.52599C98.9772 3.3653 99.2242 3.02059 99.4318 2.75985C99.6397 2.49912 99.8094 2.26145 99.8094 2.23139C99.8094 2.12331 100.657 1.33385 100.92 1.19726C101.186 1.05886 101.216 1.05808 105.549 1.05471C107.948 1.05264 110.59 1.05393 111.42 1.0573L112.929 1.06326L113.133 1.24443L113.336 1.4256L113.221 1.77886C113.016 2.41048 112.62 3.18258 112.263 3.64314C112.071 3.89092 111.876 4.18457 111.83 4.29549C111.784 4.40668 111.724 4.4974 111.696 4.4974C111.669 4.4974 111.468 4.75243 111.251 5.06448C110.685 5.87494 110.056 6.74889 109.786 7.0993C109.658 7.26544 109.553 7.43209 109.553 7.46993C109.553 7.50751 109.429 7.68246 109.277 7.85844C109.125 8.03442 108.86 8.39261 108.687 8.65438C108.157 9.45447 107.945 9.76315 107.667 10.1346C107.52 10.3305 107.307 10.6278 107.194 10.7952C107.08 10.9624 106.863 11.2602 106.711 11.4564C106.56 11.6531 106.435 11.8402 106.435 11.8729C106.435 11.9055 106.26 12.1512 106.046 12.4192C105.831 12.687 105.656 12.9332 105.656 12.9661C105.656 12.999 105.566 13.1118 105.455 13.2165C105.345 13.3209 105.209 13.4943 105.154 13.6011C105.099 13.7079 104.857 14.0432 104.616 14.3462C104.376 14.6492 104.133 14.9869 104.077 15.0971C104.021 15.207 103.878 15.371 103.76 15.4617C103.641 15.5525 103.472 15.7448 103.382 15.8894C103.293 16.0338 103.161 16.1825 103.09 16.2201C103.019 16.2574 102.9 16.3323 102.826 16.3865C102.702 16.4769 102.673 16.4707 102.457 16.3064Z" fill="#9B3446" stroke="#100F0F" stroke-opacity="0.74"/>
<path d="M0.500884 6.41797C0.495701 3.84716 0.513843 1.66746 0.541316 1.57415C0.56853 1.48085 0.682569 1.32819 0.794276 1.23463L0.997473 1.06512L3.87981 1.05605C5.46521 1.05139 7.58142 1.05087 8.58289 1.05528L10.4034 1.06331L10.597 1.24163C10.7867 1.41605 10.7932 1.44327 10.9127 2.57174C10.9795 3.20569 11.0233 3.73183 11.0096 3.74142C10.9959 3.75075 10.5607 4.04336 10.0426 4.39118C8.14721 5.66427 7.14522 6.36069 4.06642 8.54531C3.65562 8.83663 3.12923 9.20259 2.897 9.35836C2.66478 9.51413 2.0329 9.96795 1.49277 10.3671L0.510474 11.0925L0.500884 6.41797Z" fill="#7A2E40" stroke="#100F0F" stroke-opacity="0.74"/>
<path d="M139.857 13.2743C139.869 11.8294 139.889 10.6382 139.902 10.6273C139.938 10.5975 143.81 11.0744 144.831 11.2341C145.313 11.3095 146.337 11.4992 147.105 11.6557C148.596 11.9598 149.838 12.2081 150.076 12.2498C150.274 12.2848 150.261 12.4553 150.057 12.5064C149.944 12.5346 149.851 12.5108 149.427 12.7238C149.311 12.7668 149.161 12.8314 149.094 12.8669C149.027 12.9024 148.532 13.0747 147.994 13.2492C147.456 13.4239 146.999 13.5916 146.979 13.6216C146.958 13.6519 146.152 13.9412 145.188 14.2646C144.223 14.5881 142.922 15.0321 142.297 15.2511C141.181 15.6422 140.26 15.9003 139.978 15.9011L139.836 15.9016L139.857 13.2743Z" fill="#D23E47" stroke="#100F0F" stroke-opacity="0.74"/>
<path d="M154.028 37.862C153.957 37.8337 153.76 37.8086 153.59 37.8062C153.259 37.8013 153.02 37.6422 153.023 37.4289C153.028 37.1894 153.271 36.6236 153.546 36.2118C153.704 35.9754 153.89 35.6898 153.959 35.577C154.029 35.464 154.206 35.2113 154.354 35.0154C154.501 34.8194 154.728 34.4978 154.858 34.3008C154.988 34.1036 155.171 33.8703 155.265 33.7825C155.359 33.6943 155.478 33.523 155.529 33.4017C155.58 33.2802 155.725 33.0617 155.852 32.9158C156.143 32.5819 156.579 31.9975 156.947 31.4485C157.103 31.2155 157.278 30.9854 157.336 30.9372C157.448 30.8449 157.828 30.3058 157.828 30.2403C157.828 30.219 157.96 30.0614 158.121 29.8898C158.281 29.7185 158.413 29.5446 158.413 29.5037C158.413 29.4627 158.523 29.2878 158.656 29.1152C158.79 28.9425 159.017 28.639 159.16 28.4405C159.303 28.2422 159.551 27.9107 159.712 27.7039C159.873 27.4973 160.063 27.2156 160.134 27.078C160.206 26.9406 160.354 26.7385 160.465 26.6291C160.574 26.5195 160.748 26.2841 160.849 26.1061C160.951 25.928 161.072 25.7528 161.119 25.7173C161.165 25.6818 161.393 25.3902 161.626 25.0694C161.858 24.7485 162.121 24.4007 162.21 24.296C162.299 24.1915 162.418 24.0096 162.474 23.8916C162.53 23.7737 162.677 23.5679 162.801 23.4339C162.924 23.2999 163.044 23.132 163.067 23.0607C163.09 22.9894 163.287 22.6763 163.505 22.3651C163.723 22.0538 163.947 21.7156 164.003 21.6129C164.059 21.5106 164.205 21.3006 164.328 21.1464C164.451 20.9922 164.581 20.8035 164.617 20.7271C164.652 20.6509 164.842 20.3655 165.039 20.0928L165.396 19.5973L166.111 19.5812C167.623 19.5467 178.664 19.5639 178.605 19.6004C178.571 19.6217 178.562 19.7137 178.585 19.8051C178.627 19.9713 178.489 20.3331 178.242 20.7063C178.179 20.8009 178.029 21.0487 177.908 21.2566C177.786 21.4644 177.574 21.7677 177.437 21.9304C177.299 22.0935 177.186 22.2474 177.186 22.2725C177.186 22.2979 176.953 22.638 176.667 23.0283C176.381 23.4186 176.147 23.7576 176.147 23.7815C176.147 23.8053 176.015 23.965 175.855 24.1366C175.694 24.3079 175.562 24.4818 175.562 24.5227C175.562 24.5637 175.412 24.7858 175.228 25.0165C174.865 25.4708 174.588 25.8635 174.588 25.9218C174.588 25.942 174.476 26.0936 174.34 26.259C174.203 26.4243 174.023 26.6763 173.938 26.8188C173.854 26.9614 173.678 27.2091 173.548 27.3696C173.417 27.53 173.294 27.7062 173.274 27.7615C173.254 27.8167 173.095 28.0499 172.92 28.2798C172.603 28.6981 172.404 28.9783 172.282 29.1776C172.135 29.4176 171.888 29.7488 171.685 29.9777C171.567 30.1114 171.47 30.2592 171.47 30.3058C171.47 30.3525 171.38 30.4764 171.269 30.5811C171.159 30.6855 171.024 30.8589 170.969 30.9657C170.914 31.0725 170.712 31.3555 170.52 31.5939C170.328 31.8327 170.171 32.0452 170.171 32.0664C170.171 32.1154 169.944 32.4386 169.646 32.8124C169.519 32.9728 169.347 33.2164 169.263 33.354C169.099 33.6254 168.481 34.4815 167.982 35.1294C167.81 35.3526 167.64 35.6037 167.605 35.688C167.569 35.7719 167.415 35.9751 167.264 36.1394C167.112 36.3035 166.988 36.4647 166.988 36.4974C166.988 36.53 166.72 36.8208 166.392 37.1438C165.876 37.652 165.752 37.7414 165.466 37.8088C165.084 37.8993 154.25 37.9496 154.028 37.862Z" fill="#F1952A" stroke="#100F0F" stroke-opacity="0.74"/>
<path d="M53.4498 9.32793C53.6581 9.118 53.7618 9.07886 54.5743 8.90521C54.8719 8.84197 54.9779 8.87385 54.6956 8.94202C54.5933 8.9669 54.4318 9.04102 54.3369 9.10737C54.2421 9.1732 54.1311 9.22737 54.0902 9.22737C54.0492 9.22737 53.9241 9.2748 53.8118 9.3326C53.6993 9.39066 53.5236 9.46193 53.421 9.49122L53.2344 9.54461L53.4498 9.32793Z" fill="#D63F45" stroke="#100F0F" stroke-opacity="0.74"/>
<path d="M115.473 22.8859C115.411 22.3789 115.388 19.7998 115.379 12.175L115.367 2.13179L115.516 1.89335C115.689 1.61629 116.028 1.30501 116.323 1.15313C116.509 1.05697 116.982 1.04687 121.1 1.04972C124.456 1.05205 125.695 1.07304 125.761 1.12799C125.811 1.16894 125.912 1.32626 125.985 1.47711C126.117 1.74976 126.118 1.8086 126.118 11.0292C126.118 19.0171 126.105 20.3068 126.025 20.3068C125.974 20.3068 124.991 20.6142 123.84 20.9897C122.688 21.3653 120.852 21.9474 119.758 22.2833C118.665 22.6192 117.386 23.0232 116.917 23.1811C116.447 23.3389 115.949 23.4872 115.809 23.5108L115.555 23.5535L115.473 22.8859Z" fill="#B93948" stroke="#100F0F" stroke-opacity="0.74"/>
<path d="M100.817 37.797C100.636 37.7734 100.427 37.7215 100.352 37.6819C100.225 37.6137 99.8147 37.1446 99.8147 37.0671C99.8147 37.0269 98.9324 35.8192 98.5201 35.2948C98.3747 35.1098 98.2557 34.9392 98.2557 34.9157C98.2557 34.8923 98.0875 34.6588 97.8822 34.397C97.6767 34.135 97.304 33.6363 97.0539 33.289C96.8038 32.9415 96.5112 32.539 96.4034 32.3946C96.2958 32.2505 96.1522 32.0077 96.0843 31.8553L95.9609 31.5785L96.1411 31.3908C96.2401 31.2877 96.3015 31.1718 96.2777 31.1332C96.2528 31.093 96.2844 31.0622 96.3518 31.0609C96.5179 31.0575 96.8007 30.8012 96.8473 30.612C96.8714 30.5143 96.8502 30.4122 96.7921 30.3484C96.7084 30.2561 96.7193 30.2237 96.888 30.0623C96.9925 29.9625 97.1457 29.8461 97.2283 29.8039C97.331 29.7515 97.3735 29.6789 97.3618 29.5763C97.3393 29.3778 97.72 28.8778 97.931 28.8291C98.1046 28.7892 98.2754 28.5168 98.1839 28.4258C98.1536 28.3955 98.2617 28.2019 98.4239 27.9956C98.6642 27.6902 98.7362 27.6345 98.8114 27.6967C98.8622 27.7387 98.9477 27.7561 99.0019 27.7356C99.1136 27.6928 99.1346 27.4637 99.0325 27.4007C98.8557 27.2916 99.154 26.8813 99.5996 26.6211C99.8808 26.4565 99.9355 26.3752 99.8147 26.3008C99.7201 26.2425 99.7346 26.1632 99.8631 26.0351C99.9769 25.9213 99.999 25.8897 100.237 25.4968C100.308 25.3789 100.484 25.1262 100.627 24.9354C100.77 24.7444 100.989 24.4394 101.114 24.2574C101.239 24.0755 101.441 23.8046 101.562 23.6559C101.683 23.5068 101.884 23.2331 102.008 23.0473C102.384 22.4844 102.923 22.4216 103.333 22.8936C103.715 23.3334 104 23.6976 104.173 23.9661C104.266 24.1097 104.535 24.4896 104.772 24.8105C105.009 25.1314 105.32 25.5541 105.464 25.75C105.608 25.946 105.865 26.2959 106.035 26.5276C106.206 26.7593 106.416 27.0654 106.502 27.2079C106.588 27.3505 106.784 27.6174 106.939 27.8014C107.093 27.9852 107.22 28.1552 107.22 28.1788C107.22 28.2026 107.359 28.3988 107.529 28.6147C107.935 29.1315 108.194 29.5009 108.194 29.562C108.194 29.5893 108.314 29.7266 108.459 29.8676C108.605 30.0083 108.762 30.2113 108.809 30.3181C108.855 30.4249 109.036 30.6923 109.21 30.9121C109.384 31.1319 109.658 31.4924 109.819 31.7132C109.979 31.9341 110.204 32.2352 110.318 32.3827C110.431 32.5302 110.526 32.6813 110.529 32.7186C110.531 32.7559 110.65 32.9081 110.793 33.0563C110.936 33.2046 111.053 33.3489 111.054 33.3772C111.055 33.4422 111.366 33.8958 111.557 34.1119C111.638 34.2029 111.871 34.5142 112.076 34.804C112.96 36.0509 113.194 36.365 113.261 36.387C113.356 36.4186 113.515 36.8792 113.518 37.1348C113.523 37.4618 113.397 37.6635 113.137 37.7459C112.879 37.8275 101.416 37.8752 100.817 37.797Z" fill="#EE7A30" stroke="#100F0F" stroke-opacity="0.74"/>
</svg>
